<?xml version="1.0" standalone="no"?>
<!DOCTYPE svg PUBLIC "-//W3C//DTD SVG 1.1//EN" "http://www.w3.org/Graphics/SVG/1.1/DTD/svg11.dtd" >
<svg xmlns="http://www.w3.org/2000/svg" xmlns:xlink="http://www.w3.org/1999/xlink" version="1.1">
<metadata>
Created by FontForge 20201107 at Fri Jan  1 02:30:17 1904
 By 
Copyright 1989,1990 URW Unternehmensberatunge and The Compa 
</metadata>
<defs>
<font id="EurostileExt-Bold" horiz-adv-x="320" >
  <font-face 
    font-family="EurostileExt-Bold"
    font-weight="400"
    font-stretch="normal"
    units-per-em="1000"
    panose-1="0 0 0 0 0 0 0 0 0 0"
    ascent="800"
    descent="-200"
    x-height="466"
    cap-height="667"
    bbox="-61 -207 1432 865"
    underline-thickness="50"
    underline-position="-105"
    unicode-range="U+0020-F002"
  />
<missing-glyph 
 />
    <glyph glyph-name=".notdef" 
 />
    <glyph glyph-name="glyph1" horiz-adv-x="0" 
 />
    <glyph glyph-name="glyph2" 
 />
    <glyph glyph-name="space" unicode=" " 
 />
    <glyph glyph-name="space" unicode="&#xa0;" 
 />
    <glyph glyph-name="exclam" unicode="!" horiz-adv-x="316" 
d="M217 122v-122h-128v122h128v0zM224 665l-10 -444h-124l-9 444h143v0z" />
    <glyph glyph-name="quotedbl" unicode="&#x22;" horiz-adv-x="448" 
d="M168 400h-101l-24 267h150l-25 -267v0zM381 400h-102l-24 267h151l-25 -267v0z" />
    <glyph glyph-name="numbersign" unicode="#" horiz-adv-x="779" 
d="M368 450h150l59 128h64l-60 -128h137l-22 -50h-139l-60 -127h141l-24 -49h-139l-61 -131h-61l60 131h-148l-63 -131h-63l61 131h-139l23 49h141l58 127h-142l25 50h141l60 128h62l-61 -128v0zM346 400l-60 -127h150l58 127h-148v0z" />
    <glyph glyph-name="dollar" unicode="$" horiz-adv-x="721" 
d="M401 570v-180q120 -4 206 -29.5t86 -153.5q0 -127 -62 -164.5t-202 -42.5h-28v-75h-82v75q-124 0 -207.5 32t-83.5 160v24h133q0 -80 29 -96t100 -20q6 0 13.5 -0.5t15.5 -0.5v193q-19 2 -37 3.5t-35 2.5q-95 8 -153 35t-58 152q0 127 80 157t203 30v64h82v-64
q134 -4 202.5 -32t68.5 -164h-129q0 2 -0.5 3.5t-0.5 3.5v3.5v3.5q0 50 -26.5 64.5t-80.5 14.5h-8.5t-8.5 1h-8h-9v0zM401 99q3 0 6 -0.5t6 -0.5h5h6q62 0 98 18t36 77q0 66 -31.5 78.5t-86.5 14.5q-9 1 -19 1t-20 1v-189v0zM319 570h-21q-56 -1 -91.5 -12t-35.5 -70
q0 -70 39.5 -82.5t108.5 -12.5v177v0z" />
    <glyph glyph-name="percent" unicode="%" horiz-adv-x="926" 
d="M578 174q0 80 24.5 120.5t124.5 40.5q92 0 135.5 -20.5t43.5 -108.5v-72q0 -15 -0.5 -30t-3.5 -29q-14 -52 -57 -64t-98 -12q-83 0 -126.5 23t-43.5 108v11.5t1 10.5v11.5v10.5v0zM654 171l2 -54q0 -46 20 -54t62 -8q50 0 71 9.5t21 53.5v98q0 47 -20.5 55.5t-67.5 8.5
h-24q-14 0 -27.5 -2t-22.5 -11q-4 -5 -7 -12t-4 -14q0 -3 -0.5 -6.5t-0.5 -6.5q-1 -14 -1.5 -28.5t-0.5 -28.5v0zM754 667l-486 -667h-79l485 667h80v0zM37 508q0 79 24 120t124 41h16q87 0 125.5 -22.5t38.5 -112.5v-63q0 -68 -25 -103.5t-118 -35.5q-89 0 -137.5 22
t-48.5 109v11.5t1 11.5v10.5v11.5v0zM113 504v-54q1 -46 20.5 -54t61.5 -8q50 0 71.5 9.5t21.5 53.5v24.5t1 24.5v24.5v24.5q0 48 -21 56t-68 8h-24h-5.5h-5.5q-11 -1 -21.5 -3.5t-17.5 -9.5q-5 -5 -7.5 -12t-3.5 -14q-1 -3 -1.5 -6.5t-0.5 -6.5v-57v0z" />
    <glyph glyph-name="ampersand" unicode="&#x26;" horiz-adv-x="798" 
d="M570 323h125q1 -10 1 -19.5v-19.5q0 -33 -2.5 -65.5t-13.5 -64.5l110 -81l-69 -73l-92 67q-32 -45 -85 -57t-110 -13h-16h-16l-20 -1q-151 1 -236.5 31t-85.5 184q0 75 28.5 116t117.5 52q-13 10 -22.5 18.5t-16.5 17.5q-15 17 -19.5 37t-4.5 52q0 107 68 132.5t172 25.5
q114 0 180 -27.5t66 -143.5v-35h-130q0 66 -14 87.5t-96 21.5q-43 0 -76.5 -8t-33.5 -54q0 -24 5 -38t17 -27q6 -7 15 -14t21 -16l232 -173q0 4 0.5 7.5t0.5 7.5q1 8 1.5 16t0.5 16q0 5 -0.5 10t-0.5 11q0 5 -0.5 10t-0.5 10v0zM283 320q-56 -10 -70.5 -30.5t-14.5 -69.5
q0 -91 35 -108t125 -17h42q44 0 75 6.5t59 36.5l-251 182v0z" />
    <glyph glyph-name="quotesingle" unicode="'" horiz-adv-x="239" 
d="M171 400h-104l-26 267h156l-26 -267v0z" />
    <glyph glyph-name="parenleft" unicode="(" horiz-adv-x="355" 
d="M302 676v-104h-11t-11 -1q-13 0 -25.5 -3t-23.5 -10q-10 -7 -15.5 -18t-7.5 -22q-1 -6 -1.5 -12t-1.5 -11q-3 -23 -3.5 -46.5t-0.5 -46.5v-46l4 -237v-16.5t1 -16.5q0 -15 2.5 -28.5t8.5 -26.5q7 -18 24.5 -24t36.5 -6h2h2h20v-103q-145 1 -188.5 49t-50.5 169
q-2 40 -2.5 79.5t-0.5 79.5v133q0 133 36.5 200.5t205.5 67.5v0z" />
    <glyph glyph-name="parenright" unicode=")" horiz-adv-x="355" 
d="M56 -102v104q51 0 72 17t26 60q3 23 3.5 46.5t0.5 46.5v47l-4 236v19t-1 19q-1 13 -4 26t-8 25q-7 18 -25 23.5t-38 5.5h-22v103q140 0 188 -46.5t52 -170.5q1 -20 1.5 -40t1.5 -40v-40v-40v-114q0 -133 -30.5 -209.5t-212.5 -76.5v-1z" />
    <glyph glyph-name="asterisk" unicode="*" horiz-adv-x="721" 
d="M564 515l-140 -41l83 -103l-60 -40l-85 107l-92 -107l-61 40l87 103l-140 45l27 64l139 -45v129h76v-129l140 45l26 -68v0z" />
    <glyph glyph-name="plus" unicode="+" horiz-adv-x="575" 
d="M18 380h234v197h71v-197h235v-59h-235v-197h-71v197h-234v59v0z" />
    <glyph glyph-name="comma" unicode="," horiz-adv-x="258" 
d="M191 120v-117q0 -62 -23 -88.5t-102 -26.5h-7.5t-6.5 1v51q30 2 46 10.5t16 36.5v3.5v3.5q-1 2 -1 3.5v2.5h-51v120h129v0z" />
    <glyph glyph-name="hyphen" unicode="-" horiz-adv-x="271" 
d="M0 303h271v-114h-271v114v0z" />
    <glyph glyph-name="period" unicode="." horiz-adv-x="243" 
d="M185 122v-122h-128v122h128v0z" />
    <glyph glyph-name="slash" unicode="/" horiz-adv-x="697" 
d="M622 667l-520 -767h-96l520 767h96v0z" />
    <glyph glyph-name="zero" unicode="0" horiz-adv-x="721" 
d="M39 349v36t1 36q0 17 1 35l2 36q5 53 37 97t89 65q21 7 46 10.5t51 4.5q10 1 21 1h21h54q166 0 240.5 -37t81.5 -198v-88v-35.5v-35.5t-0.5 -35.5t-0.5 -35.5q0 -6 -0.5 -12t-1.5 -13q-5 -46 -29 -89t-74 -68q-23 -11 -52.5 -16.5t-60.5 -6.5q-21 -1 -41.5 -1.5
t-38.5 -0.5l-61 -1q-9 1 -18 1h-19q-53 2 -103.5 13.5t-85.5 48.5q-24 26 -38.5 57t-16.5 65q-3 28 -3.5 55.5t-0.5 55.5v56v0zM182 342l1 -109q1 -97 43 -113.5t133 -16.5q95 0 139 19.5t44 109.5v100.5t1 100.5q0 99 -42 116t-140 17h-42q-49 0 -87.5 -13.5t-46.5 -78.5
q-1 -10 -2 -21.5t-2 -22.5v-10.5v-11.5v-16.5t1 -16.5v-16.5v-16.5v0z" />
    <glyph glyph-name="one" unicode="1" horiz-adv-x="721" 
d="M504 667v-667h-139v560l-199 -173l-85 79l246 201h177v0z" />
    <glyph glyph-name="two" unicode="2" horiz-adv-x="721" 
d="M636 101v-101h-579v138q0 113 58 145t162 47q7 2 15 3l16 2q14 2 27 3t25 3q68 7 102 26t34 94q0 77 -33 92.5t-115 15.5q-91 0 -122 -17.5t-31 -100.5v-22h-138v29v2.5v2.5q0 9 0.5 18t1.5 17q2 39 14.5 74.5t52.5 58.5q33 19 70.5 26.5t75.5 9.5q19 2 38.5 2h37.5
q140 0 214 -35.5t74 -172.5q0 -135 -65 -168.5t-166 -47.5q-32 -4 -66 -8.5t-70 -12.5q-52 -11 -62 -37t-10 -68v-18h439v0z" />
    <glyph glyph-name="three" unicode="3" horiz-adv-x="721" 
d="M297 292v96h20t21 1h20h20q77 0 99 15t22 82q0 38 -16 60.5t-66 22.5q-9 1 -17.5 1.5t-17.5 0.5h-17.5h-17.5q-97 0 -119.5 -19.5t-23.5 -99.5h-137q0 141 59.5 180.5t210.5 39.5q115 0 209.5 -23t94.5 -151q0 -60 -22 -102.5t-103 -53.5v-3q80 -10 108 -44t28 -102
q0 -71 -29.5 -124.5t-122.5 -66.5q-24 -2 -48.5 -3.5t-49.5 -2.5q-12 -1 -24.5 -1h-24.5q-126 0 -212.5 31t-86.5 162v18t1 19h138q0 -73 22 -100.5t110 -27.5h32q78 0 116 14t38 89q0 62 -28.5 77t-96.5 15h-89v0z" />
    <glyph glyph-name="four" unicode="4" horiz-adv-x="721" 
d="M587 667v-428h89v-95h-89v-144h-139v144h-417v138l340 385h216v0zM448 239l-2 335l-299 -335h301v0z" />
    <glyph glyph-name="five" unicode="5" horiz-adv-x="721" 
d="M622 667v-96h-407v-165q27 30 65 40t79 11q9 1 17.5 1h17.5q137 0 198.5 -46.5t61.5 -169.5q0 -13 -0.5 -26t-0.5 -26q-5 -62 -32 -116t-109 -68q-22 -3 -43.5 -5t-42.5 -3q-22 -1 -43.5 -1.5t-43.5 -0.5h-30.5t-31.5 1q-53 3 -102 17t-78 56q-16 22 -21 46t-6 49
q0 6 -0.5 12t-0.5 11v3v2h140q2 -70 35.5 -83t100.5 -13q80 0 123.5 15t43.5 94v33q0 67 -22.5 93t-105.5 26h-52h-17.5t-18.5 -1q-27 -2 -50.5 -11t-30.5 -35h-129v356h536v0z" />
    <glyph glyph-name="six" unicode="6" horiz-adv-x="720" 
d="M636 480h-140q0 53 -22.5 71.5t-83.5 18.5h-67q-71 0 -99.5 -18t-28.5 -76v-18v-116q29 47 76 56t102 9q129 0 200 -33t71 -161v-6.5v-6.5q-2 -68 -29.5 -127t-121.5 -70q-23 -3 -46.5 -4t-47.5 -2q-12 -1 -23.5 -1h-23.5q-141 0 -220.5 39t-79.5 178q0 30 0.5 59.5
t0.5 58.5t0.5 58.5t0.5 59.5q0 143 73 182.5t224 39.5q128 0 206.5 -28.5t78.5 -162.5v0zM194 219q0 -88 30 -105.5t127 -17.5h10q63 0 101.5 11t38.5 75v22q0 63 -18 83.5t-101 20.5h-46h-21t-22 -1q-21 -1 -40.5 -5t-32.5 -13q-14 -8 -19 -20.5t-6 -26.5q-1 -6 -1 -12v-11
v0z" />
    <glyph glyph-name="seven" unicode="7" horiz-adv-x="721" 
d="M623 667v-123l-314 -544h-157l330 561h-428v106h569v0z" />
    <glyph glyph-name="eight" unicode="8" horiz-adv-x="720" 
d="M521 343q77 -16 103 -49.5t26 -102.5q0 -130 -68.5 -162.5t-208.5 -32.5l-20 -1q-136 1 -218 28.5t-82 168.5q0 71 29.5 103.5t106.5 47.5q-75 21 -100 51t-25 97q0 110 64.5 145t177.5 35h42q119 0 206 -23.5t87 -153.5q0 -10 -0.5 -21t-2.5 -23q-2 -19 -9 -37t-21 -31
q-12 -12 -29.5 -19.5t-36.5 -13.5q-5 -1 -10.5 -2.5t-10.5 -3.5v0zM195 197q0 -58 25 -78t91 -20h80q68 0 94.5 19.5t26.5 76.5q0 44 -14 69t-73 28q-29 2 -58.5 2h-58.5q-61 0 -87 -16.5t-26 -80.5v0zM205 487q0 -46 14 -70t74 -26q17 0 33.5 -0.5t32.5 -1.5h16.5h16.5
q69 0 88.5 24t19.5 76q0 59 -29.5 71t-93.5 12h-48h-17.5t-19.5 -1q-18 -1 -35 -4.5t-28 -10.5q-12 -7 -17 -19t-6 -25q-1 -7 -1 -13v-12v0z" />
    <glyph glyph-name="nine" unicode="9" horiz-adv-x="721" 
d="M55 187h138q0 -53 24 -71.5t84 -18.5h19.5t18.5 1h6h6h12.5h12.5q71 0 101 18.5t30 82.5v127q-7 -13 -16.5 -25t-24.5 -20q-24 -11 -50.5 -15t-54.5 -5h-18h-18q-131 0 -197.5 34.5t-66.5 161.5q0 137 66 176t210 39q143 0 222.5 -32t87.5 -175q1 -7 1.5 -15t0.5 -15
v-15.5v-15.5v-38t1 -37v-38v-38q0 -145 -56 -201t-233 -56l-16 -1q-134 1 -212 26.5t-78 165.5v0zM201 464q0 -61 24 -82.5t98 -21.5h60q59 0 92.5 14.5t33.5 70.5q0 80 -24.5 102.5t-115.5 22.5h-26q-80 0 -111 -15.5t-31 -90.5v0z" />
    <glyph glyph-name="colon" unicode=":" horiz-adv-x="243" 
d="M185 122v-122h-128v122h128v0zM185 467v-122h-128v122h128v0z" />
    <glyph glyph-name="semicolon" unicode=";" horiz-adv-x="241" 
d="M178 120v-117q0 -62 -22.5 -88.5t-102.5 -26.5h-3.5h-3.5t-3.5 0.5t-3.5 0.5v51q30 2 46 10.5t16 36.5v3.5v3.5q-1 2 -1 3.5v2.5h-51v120h129v0zM176 466v-122h-129v122h129v0z" />
    <glyph glyph-name="less" unicode="&#x3c;" horiz-adv-x="575" 
d="M536 607v-121l-350 -149l350 -150v-120l-498 219v102l498 219v0z" />
    <glyph glyph-name="equal" unicode="=" horiz-adv-x="575" 
d="M17 307h540v-58h-540v58v0zM17 453h540v-58h-540v58v0z" />
    <glyph glyph-name="greater" unicode="&#x3e;" horiz-adv-x="575" 
d="M39 67v121l350 149l-349 149l-1 121l498 -219v-103l-498 -218v0z" />
    <glyph glyph-name="question" unicode="?" horiz-adv-x="608" 
d="M337 122v-122h-128v122h128v0zM339 212h-130q0 63 10 93.5t58 54.5q9 4 20 8.5t24 9.5q14 5 26 9.5t22 8.5q31 12 46 29.5t15 62.5q0 54 -23 72t-84 18h-17q-67 0 -94.5 -16t-27.5 -74v-24h-128v12t1 12v20.5t1 21.5q2 27 11 53t33 44q25 19 58 28t68 13q18 2 35.5 2.5
t34.5 0.5q119 0 189 -27t70 -146v-16t-1 -16q-1 -29 -8.5 -56.5t-29.5 -49.5q-15 -15 -33.5 -24.5t-38.5 -16.5q-5 -2 -10.5 -4t-11.5 -3q-33 -12 -58.5 -28.5t-25.5 -55.5v-4v-4q-1 -2 -1 -4v-4v0z" />
    <glyph glyph-name="at" unicode="@" horiz-adv-x="805" 
d="M485 491h95v-211v-4.5t1 -4.5v-1.5v-0.5q0 -20 6.5 -36t36.5 -16q26 0 35.5 12t13.5 31t5.5 38t2.5 38v19v19v25q0 90 -22 124t-120 40q-27 2 -54.5 2h-55.5q-37 0 -74 -1t-74 -4q-49 -3 -85.5 -17t-51.5 -58q-7 -20 -10 -42.5t-5 -44.5q-1 -16 -1 -31v-29v-19
q0 -141 31.5 -195t206.5 -54h68h20.5h21.5q27 1 53.5 4t48.5 9q11 3 20 9.5t13 15.5l68 -27q-10 -15 -22.5 -27.5t-30.5 -20.5q-27 -11 -60.5 -16t-68.5 -7q-15 -1 -30 -1h-30h-52q-117 0 -210.5 23t-110.5 147q-5 34 -7 68t-2 68q0 190 63.5 250t280.5 60h29
q191 0 257.5 -37.5t66.5 -212.5q0 -18 -0.5 -39t-2.5 -42q-2 -27 -9 -53t-20 -46q-16 -24 -43.5 -31.5t-57.5 -8.5h-5.5h-5.5q-37 0 -70 9.5t-41 48.5q-17 -37 -50.5 -48.5t-77.5 -11.5q-97 0 -120.5 46t-23.5 119q0 71 23 123.5t121 52.5q40 0 68 -8t48 -40v45v0zM488 351
q0 42 -19 62t-69 20q-58 0 -71 -24.5t-13 -62.5v-43q0 -40 11.5 -64t66.5 -24q67 0 80.5 25t13.5 73v38v0z" />
    <glyph glyph-name="A" unicode="A" horiz-adv-x="725" 
d="M529 128h-332l-47 -128h-153l255 667h216l260 -667h-150l-49 128v0zM496 223l-134 346l-131 -346h265v0z" />
    <glyph glyph-name="B" unicode="B" horiz-adv-x="731" 
d="M68 0v667h392q104 0 158.5 -34t54.5 -133q0 -58 -18.5 -99t-89.5 -55v-4q75 -10 100.5 -47.5t25.5 -102.5q0 -100 -47.5 -146t-170.5 -46h-405v0zM213 104h187q73 0 108.5 15.5t35.5 81.5q0 59 -27 75.5t-92 16.5h-212v-189v0zM213 388h186q70 0 99 16t29 77
q0 47 -21 63.5t-74 16.5h-219v-173v0z" />
    <glyph glyph-name="C" unicode="C" horiz-adv-x="712" 
d="M544 239h144q0 -7 0.5 -14t0.5 -13q0 -7 0.5 -14t0.5 -14q0 -118 -77.5 -152.5t-197.5 -34.5l-102 -1q-162 1 -214 70.5t-52 198.5q0 12 -0.5 24.5t-0.5 24.5q0 6 -0.5 12t-0.5 12q0 18 -0.5 36.5t-0.5 36.5q0 168 86.5 214t259.5 46h49h11.5h11.5q54 -1 104 -13t81 -53
q20 -26 26.5 -56.5t8.5 -60.5q0 -6 0.5 -12t0.5 -11q0 -6 0.5 -11.5t0.5 -10.5h-146q-2 7 -3 15t-1 16q0 2 -0.5 3.5t-0.5 3.5q-1 29 -12 52t-70 26q-16 2 -32.5 2h-33.5h-25h-21.5t-22.5 -1q-26 -2 -49.5 -7.5t-37.5 -17.5q-14 -13 -20 -29.5t-8 -33.5q-1 -7 -1.5 -14
t-0.5 -14q-1 -16 -1.5 -31.5t-0.5 -31.5q0 -32 0.5 -64.5t1.5 -64.5q1 -100 39 -123.5t147 -23.5q65 0 112.5 12t47.5 80v10.5v10.5q-1 5 -1 10.5v10.5v0z" />
    <glyph glyph-name="D" unicode="D" horiz-adv-x="770" 
d="M68 0v667h377q147 0 218 -57.5t71 -189.5v-28.5t1 -28.5v-28v-28q0 -124 -44.5 -215.5t-220.5 -91.5h-402v0zM214 108h208q115 0 138.5 51.5t23.5 135.5v36q0 33 -0.5 66t-5.5 65q-8 59 -47.5 77t-99.5 18h-217v-449v0z" />
    <glyph glyph-name="E" unicode="E" horiz-adv-x="633" 
d="M194 561v-174h360v-93h-360v-189h382v-105h-524v667h521v-106h-379v0z" />
    <glyph glyph-name="F" unicode="F" horiz-adv-x="596" 
d="M215 560v-181h342v-104h-342v-275h-147v667h507v-107h-360v0z" />
    <glyph glyph-name="G" unicode="G" horiz-adv-x="743" 
d="M373 354h338v-18l2 -106q0 -88 -29 -152.5t-149 -77.5q-19 -1 -38 -1.5t-38 -1.5t-38 -1h-38q-174 0 -257 47.5t-83 213.5v23.5t1 22.5v22.5v23.5v15v15v29.5t1 29.5q2 41 11.5 81.5t36.5 74.5q35 44 89.5 59t112.5 18q16 1 32 1h32h68q145 0 213 -34.5t71 -171.5h-147
q0 45 -20 70t-75 27q-20 1 -41 1.5t-42 0.5q-142 0 -167 -36t-27 -156v-15v-16l1 -87q1 -103 38.5 -127.5t151.5 -24.5q105 0 144.5 21.5t39.5 115.5v4.5v5.5q-1 2 -1 4.5v4.5h-193v95v0z" />
    <glyph glyph-name="H" unicode="H" horiz-adv-x="787" 
d="M719 667v-667h-147v285h-358v-285h-146v667h146v-273h358v273h147v0z" />
    <glyph glyph-name="I" unicode="I" horiz-adv-x="282" 
d="M214 667v-667h-147v667h147v0z" />
    <glyph glyph-name="J" unicode="J" horiz-adv-x="597" 
d="M530 667v-467q0 -115 -53 -159.5t-188 -44.5q-118 0 -190.5 29t-72.5 149v87h140q-1 -7 -1.5 -14t-0.5 -13v-14v-14q0 -58 15.5 -80t88.5 -22q64 0 89.5 19t25.5 76v16v452h147v0z" />
    <glyph glyph-name="K" unicode="K" horiz-adv-x="730" 
d="M214 667v-272h69l255 272h181l-311 -325l343 -342h-186l-282 286h-69v-286h-147v667h147v0z" />
    <glyph glyph-name="L" unicode="L" horiz-adv-x="578" 
d="M217 667v-555h356v-112h-505v667h149v0z" />
    <glyph glyph-name="M" unicode="M" horiz-adv-x="1029" 
d="M963 667v-667h-144l4 562l-241 -562h-132l-245 559l7 -559h-144v667h237l207 -495h4l205 495h242v0z" />
    <glyph glyph-name="N" unicode="N" horiz-adv-x="845" 
d="M777 667v-667h-243l-325 558h-4l4 -558h-142v667h242l325 -558h4l-4 558h143v0z" />
    <glyph glyph-name="O" unicode="O" horiz-adv-x="731" 
d="M45 325q0 167 43 257t264 90q134 0 236.5 -30.5t110.5 -172.5q3 -22 3.5 -44t0.5 -45v-45q0 -185 -46.5 -262.5t-294.5 -77.5q-173 0 -245.5 51t-72.5 211v18t1 18v16.5v15.5v0zM194 328v-29.5v-29.5q1 -15 1.5 -29.5t1.5 -29.5q7 -75 46 -91t117 -16q101 0 144.5 22.5
t47.5 115.5q2 41 2 81.5v80.5q0 93 -26 127t-135 34q-149 0 -173.5 -36.5t-24.5 -140.5v-2v-2v-26.5t-1 -28.5v0z" />
    <glyph glyph-name="P" unicode="P" horiz-adv-x="702" 
d="M68 0v667h307q154 0 227.5 -38.5t73.5 -188.5q0 -13 -0.5 -27t-1.5 -28q-3 -35 -15 -68t-43 -57q-33 -27 -74.5 -34.5t-84.5 -8.5q-9 -1 -17.5 -1h-16.5h-6.5h-6.5h-13.5h-13.5h-173v-216h-142v0zM210 326h167q82 0 116 15.5t34 95.5q0 74 -23.5 98t-111.5 24h-182v-233
v0z" />
    <glyph glyph-name="Q" unicode="Q" horiz-adv-x="783" 
d="M785 90l-59 -75l-67 43q-39 -34 -90.5 -46t-105.5 -13q-16 -1 -31.5 -1h-31.5q-184 0 -270 46.5t-86 224.5v26.5t1 26.5v26.5v26.5v28.5t1 29.5q0 14 1.5 28.5t3.5 28.5q18 127 118 154t222 27q188 0 260 -51t76 -223v-142v-22.5t-1 -23.5q-1 -19 -4 -38t-10 -37l73 -44
v0zM411 314l163 -98q2 12 2.5 24t0.5 24v20t1 21v20v20v24t-1 24q0 11 -0.5 23t-1.5 24q-2 65 -31 94.5t-108 29.5h-12h-12q-6 -1 -11.5 -1h-11.5q-111 0 -153 -22.5t-42 -126.5v-83v-24.5v-22.5q1 -102 25 -140.5t165 -38.5h20h6.5h6.5q32 0 63 5t57 22l-187 106l61 76v0z
" />
    <glyph glyph-name="R" unicode="R" horiz-adv-x="737" 
d="M67 0v667h372q132 0 191 -43.5t59 -162.5q0 -12 -0.5 -25t-1.5 -26q-2 -28 -12 -55t-34 -45q-14 -10 -31 -16t-34 -10q-7 -1 -13.5 -2.5t-12.5 -2.5v-4q68 -4 99 -37t31 -92v-146h-149v121l1 15q-1 51 -32.5 69t-83.5 18h-207v-223h-142v0zM209 330h207q68 0 95 23.5
t27 79.5q0 62 -15 92.5t-98 30.5h-216v-226v0z" />
    <glyph glyph-name="S" unicode="S" horiz-adv-x="688" 
d="M636 472h-140q0 59 -28 79t-95 20h-41h-23.5t-24.5 -1q-19 -2 -36.5 -5t-30.5 -10q-14 -8 -21 -21t-9 -28q-1 -6 -1.5 -11.5t-0.5 -10.5q0 -50 22 -68.5t83 -21.5q6 0 11.5 -0.5t10.5 -0.5q15 -1 29 -1.5t29 -0.5q112 -3 198 -27.5t86 -157.5q0 -85 -30.5 -139.5
t-143.5 -64.5q-24 -2 -48 -2.5t-48 -1.5h-24h-24q-132 0 -215.5 25.5t-83.5 163.5v6.5t1 6.5v6.5v6.5h139q0 -46 14.5 -79t78.5 -34q28 -1 55.5 -1h55.5q68 0 99 17.5t31 78.5q0 65 -39.5 77t-99.5 14h-5.5h-5.5h-19.5t-19.5 1q-6 0 -12 0.5t-12 1.5q-122 7 -190.5 35.5
t-68.5 160.5q0 84 41.5 129t141.5 52q30 2 60 3t61 1q118 0 205.5 -22t87.5 -150v-26v0z" />
    <glyph glyph-name="T" unicode="T" horiz-adv-x="600" 
d="M373 554v-554h-149v554h-222v113h596v-113h-225v0z" />
    <glyph glyph-name="U" unicode="U" horiz-adv-x="770" 
d="M560 666h145v-444q0 -107 -44.5 -163.5t-182.5 -60.5q-13 -1 -27.5 -1t-28.5 -1h-14h-14q-152 0 -238.5 31t-86.5 188v451h147v-451q0 -72 35 -92t111 -20h51q72 0 109.5 16.5t37.5 84.5v16v446v0z" />
    <glyph glyph-name="V" unicode="V" horiz-adv-x="692" 
d="M552 667h152l-247 -667h-222l-245 667h150l206 -560l206 560v0z" />
    <glyph glyph-name="W" unicode="W" horiz-adv-x="1139" 
d="M1142 667l-206 -667h-214l-153 509h-3l-159 -509h-210l-200 667h147l160 -562h4l176 562h169l174 -562l167 562h148v0z" />
    <glyph glyph-name="X" unicode="X" horiz-adv-x="708" 
d="M702 667l-228 -323l245 -344h-170l-192 281l-195 -281h-174l252 344l-233 323h171l179 -265l177 265h168v0z" />
    <glyph glyph-name="Y" unicode="Y" horiz-adv-x="684" 
d="M696 667l-284 -411v-256h-147v256l-277 411h167l185 -285l186 285h170v0z" />
    <glyph glyph-name="Z" unicode="Z" horiz-adv-x="662" 
d="M633 667v-110l-425 -447l429 -2v-108h-612v108l421 448l-402 1v110h589v0z" />
    <glyph glyph-name="bracketleft" unicode="[" horiz-adv-x="355" 
d="M62 667h236v-95h-98v-577h98v-95h-236v767v0z" />
    <glyph glyph-name="backslash" unicode="\" horiz-adv-x="697" 
d="M75 667h96l520 -767h-96l-520 767v0z" />
    <glyph glyph-name="bracketright" unicode="]" horiz-adv-x="355" 
d="M293 -100h-236v95h98v576h-98v96h236v-767v0z" />
    <glyph glyph-name="asciicircum" unicode="^" horiz-adv-x="575" 
d="M150 360h-126l185 310h156l185 -310h-127l-137 227l-136 -227v0z" />
    <glyph glyph-name="underscore" unicode="_" horiz-adv-x="575" 
d="M0 -63h575v-74h-575v74v0z" />
    <glyph glyph-name="grave" unicode="`" horiz-adv-x="575" 
d="M220 660l180 -103l-29 -46l-197 76l46 73v0z" />
    <glyph glyph-name="a" unicode="a" horiz-adv-x="603" 
d="M197 330h-130q0 100 65 120t159 20q110 0 180.5 -26t70.5 -140v-304h-127l4 58q-31 -46 -75 -55t-101 -9q-85 0 -140.5 27t-55.5 112q0 90 53.5 120t146.5 30h25.5t27.5 -1q19 -2 36.5 -4.5t32.5 -8.5q13 -5 21.5 -13.5t15.5 -17.5q0 -1 1 -2.5t2 -2.5l3 71q0 58 -25 76
t-90 18h-18t-20 -1q-17 -2 -32 -7.5t-23 -17.5q-3 -6 -4.5 -13.5t-2.5 -14.5v-6.5v-7.5v0zM176 146q0 -52 27.5 -63.5t79.5 -11.5h11.5h11.5q40 2 73.5 14.5t33.5 55.5v8.5t-1 8.5q-1 9 -4.5 18t-11.5 15q-12 8 -29 12t-34 6q-13 1 -24.5 1h-22.5h-17t-18 -1
q-16 -1 -31 -4.5t-26 -11.5q-10 -7 -13.5 -16.5t-4.5 -20.5v-4.5v-5.5v0z" />
    <glyph glyph-name="b" unicode="b" horiz-adv-x="607" 
d="M63 0v667h128v-263h4q25 42 65 56t91 14q143 0 177 -60t34 -172q0 -109 -30.5 -177t-178.5 -68q-58 0 -96 14.5t-70 58.5l4 -70h-128v0zM193 244v-19q0 -67 16.5 -104.5t107.5 -37.5q83 0 100.5 35.5t17.5 96.5v40q0 64 -19 98t-102 34q-86 0 -103.5 -38.5t-17.5 -104.5
v0z" />
    <glyph glyph-name="c" unicode="c" horiz-adv-x="564" 
d="M413 177h125q0 -109 -48.5 -145.5t-175.5 -36.5q-145 0 -205 44t-60 176q0 128 40.5 192.5t203.5 64.5q101 0 171 -24.5t70 -127.5v-8.5t-2 -8.5h-123q0 58 -28 70.5t-90 12.5h-14t-15 -1q-17 -1 -33.5 -6t-26.5 -18q-8 -12 -12.5 -28.5t-5.5 -33.5q-2 -14 -2 -27v-24
v-9.5v-11.5q-1 -6 -1 -12v-13q0 -60 16.5 -91t95.5 -31q74 0 97 17t23 80v0z" />
    <glyph glyph-name="d" unicode="d" horiz-adv-x="606" 
d="M545 667v-667h-126l2 71q-31 -49 -69.5 -62t-101.5 -13q-151 0 -177 73t-26 181q0 98 35.5 160t164.5 62q57 0 97.5 -11t69.5 -56l1 262h130v0zM173 243v-25t1 -25q1 -13 2.5 -26t4.5 -25q10 -40 40 -51t71 -11h15t16 1q21 2 40.5 8t30.5 21q9 13 13.5 30t6.5 35
q1 16 1.5 30.5t0.5 26.5q0 71 -16 113t-111 42q-79 0 -97.5 -37.5t-18.5 -98.5v-8v0z" />
    <glyph glyph-name="e" unicode="e" horiz-adv-x="582" 
d="M409 149h127q1 -4 1 -8.5v-9.5q0 -95 -73 -115.5t-163 -20.5q-170 0 -213.5 55.5t-43.5 192.5q0 123 45.5 176.5t196.5 53.5q152 0 201.5 -47t49.5 -178l-1 -34h-365q0 -74 18 -106.5t115 -32.5q41 0 73 11t32 54v9v0zM412 283q0 67 -21 88t-100 21q-67 0 -91 -17
t-26 -77v-4v-3q-1 -2 -1 -4v-4h239v0z" />
    <glyph glyph-name="f" unicode="f" horiz-adv-x="355" 
d="M350 467v-83h-132v-384h-128v384h-76v83h76v51q0 10 0.5 21t1.5 22q2 17 7 33.5t16 28.5q21 24 55 34.5t70 13.5q22 2 43 2.5t39 0.5h6h6q3 -1 6 -1h6v-85q-9 2 -18.5 2.5t-19.5 0.5h-10t-10 -1q-44 -3 -57 -19.5t-13 -52.5v-51h132v0z" />
    <glyph glyph-name="g" unicode="g" horiz-adv-x="607" 
d="M544 466v-477q0 -118 -57.5 -157t-189.5 -39q-17 0 -36.5 0.5t-38.5 1.5q-42 4 -80.5 17.5t-58.5 46.5q-8 14 -11.5 30t-4.5 32q0 5 -0.5 10.5t-0.5 11.5v4.5v4.5l121 -1q0 -48 27 -61t76 -13q60 0 95 15.5t35 74.5v99h-4q-22 -42 -65 -55.5t-92 -13.5q-77 0 -136.5 28.5
t-70.5 101.5q-4 28 -5.5 55.5t-1.5 55.5q0 104 35.5 169t174.5 65q56 0 88 -9.5t59 -40.5q5 -6 10.5 -12.5t10.5 -14.5l-3 71h124v0zM177 238v-30q0 -62 18.5 -93t100.5 -31q89 0 105 39.5t16 103.5v10q0 65 -16.5 106.5t-106.5 41.5q-72 0 -94.5 -24.5t-22.5 -91.5v-31v0z
" />
    <glyph glyph-name="h" unicode="h" horiz-adv-x="612" 
d="M191 667l2 -270q1 2 2.5 4t3.5 5q30 43 64.5 56t93.5 13q97 0 143.5 -35t46.5 -122v-318h-128v290q0 50 -18 74t-82 24q-76 0 -102 -30t-26 -91v-267h-128v667h128v0z" />
    <glyph glyph-name="i" unicode="i" horiz-adv-x="241" 
d="M184 467v-467h-128v467h128v0zM184 667v-97h-128v97h128v0z" />
    <glyph glyph-name="j" unicode="j" horiz-adv-x="230" 
d="M173 467v-489q0 -63 -30 -101.5t-112 -38.5q-12 0 -23.5 1.5t-23.5 3.5l-1 76q40 1 51.5 19t11.5 50v479h127v0zM174 665v-96h-129v96h129v0z" />
    <glyph glyph-name="k" unicode="k" horiz-adv-x="551" 
d="M191 667v-382h31l151 182h146l-191 -220l229 -247h-156l-179 208h-31v-208h-128v667h128v0z" />
    <glyph glyph-name="l" unicode="l" horiz-adv-x="258" 
d="M194 667v-667h-130v667h130v0z" />
    <glyph glyph-name="m" unicode="m" horiz-adv-x="944" 
d="M63 467h124l2 -68q29 43 69.5 58t94.5 15h14.5t14.5 -1q46 -3 86.5 -20t51.5 -62h3q23 50 67.5 66.5t101.5 16.5q101 0 145 -38t44 -124v-310h-131v288q0 49 -16 72.5t-78 23.5h-15t-16 -1q-33 -2 -61 -22.5t-28 -86.5v-274h-131v291q-3 49 -16 71t-78 22
q-68 0 -94 -28.5t-26 -84.5v-271h-128v467v0z" />
    <glyph glyph-name="n" unicode="n" horiz-adv-x="611" 
d="M63 467h122l1 -72q32 44 71 61.5t98 17.5q98 0 144.5 -33.5t46.5 -121.5v-319h-127v288q0 53 -17.5 75.5t-84.5 22.5q-59 0 -92.5 -26t-33.5 -80v-280h-128v467v0z" />
    <glyph glyph-name="o" unicode="o" horiz-adv-x="595" 
d="M52 253q0 126 49.5 173t195.5 47q152 0 206.5 -43t54.5 -180q0 -124 -33 -189.5t-204 -65.5q-143 0 -206 39.5t-63 173.5v45v0zM183 241v-32q0 -58 13.5 -94.5t95.5 -36.5h15h18.5t19.5 1q18 2 34.5 7t26.5 17q11 14 15.5 34t6.5 42q1 10 1 20.5v20.5v36v20.5t-1 22.5
q-2 21 -7.5 40t-18.5 30q-10 10 -25.5 13.5t-31.5 4.5h-11.5h-10.5h-32h-12.5t-13.5 -1q-15 -1 -28.5 -4t-22.5 -11q-10 -8 -15.5 -19t-8.5 -22q-1 -3 -1.5 -6t-1.5 -6q-1 -10 -2 -19.5t-1 -18.5q-1 -10 -1 -19.5v-19.5v0z" />
    <glyph glyph-name="p" unicode="p" horiz-adv-x="608" 
d="M63 466h124v-65q32 43 70 57t94 14q143 0 178 -62t35 -173q0 -100 -31 -171t-174 -71q-57 0 -97 11.5t-70 56.5l-2 -260h-127v663v0zM191 246v-30q0 -60 20.5 -97.5t101.5 -37.5q86 0 102.5 35.5t16.5 99.5v27q0 11 -0.5 23t-1.5 25q-1 20 -6 39t-15 31t-26 17t-34 7
q-8 1 -16.5 1h-16.5h-7q-43 0 -74.5 -9t-39.5 -64q-1 -8 -2 -16.5t-1 -16.5q-1 -9 -1 -17.5v-16.5v0z" />
    <glyph glyph-name="q" unicode="q" horiz-adv-x="611" 
d="M551 467v-664h-128v260h-3q-22 -44 -65 -56t-94 -12q-139 0 -176 62.5t-37 168.5q0 107 32.5 176t177.5 69q59 0 96.5 -12t69.5 -57l-1 65h128v0zM181 243v-24q0 -65 16.5 -101.5t104.5 -36.5t104 40.5t16 104.5v9q0 12 -0.5 25.5t-1.5 28.5q-2 21 -8 41.5t-18 32.5
q-10 11 -26 15.5t-33 6.5q-10 1 -19.5 1h-18.5q-76 0 -96 -32.5t-20 -94.5v-16v0z" />
    <glyph glyph-name="r" unicode="r" horiz-adv-x="482" 
d="M63 467h123l-2 -62h5q20 35 56.5 52t81.5 17q89 0 118.5 -42t29.5 -112v-32h-118v21q0 36 -10 57.5t-62 21.5q-49 0 -71.5 -25.5t-22.5 -65.5v-4.5t1 -4.5v-5.5v-4.5v-278h-129v467v0z" />
    <glyph glyph-name="s" unicode="s" horiz-adv-x="569" 
d="M511 340h-123q0 33 -22.5 45.5t-57.5 12.5h-14h-14q-7 -1 -14 -1h-14q-33 0 -59 -7.5t-26 -44.5t16 -47.5t56 -12.5q13 -1 26 -1h27q5 -1 10.5 -1h10.5q82 -2 150 -22t68 -113q0 -103 -68 -128.5t-171 -25.5h-28t-28 1q-74 2 -135.5 24.5t-61.5 102.5v25h130
q0 -46 21 -61t72 -15h39q49 0 76.5 9.5t27.5 56.5q0 36 -19.5 45.5t-56.5 10.5h-24t-24 1q-94 0 -166 19.5t-72 125.5q0 96 71.5 116t159.5 20h36t38 -2q62 -3 113 -25t51 -88v-5.5v-4.5t-0.5 -4.5t-0.5 -5.5v0z" />
    <glyph glyph-name="t" unicode="t" horiz-adv-x="435" 
d="M406 467v-84h-205v-237q0 -31 7 -49t50 -18q44 0 53.5 22.5t9.5 54.5v22h107q1 -6 1 -12v-12q0 -83 -36.5 -121t-139.5 -38q-93 0 -136 26t-43 110v252h-69v84h69v105h127v-105h205v0z" />
    <glyph glyph-name="u" unicode="u" horiz-adv-x="606" 
d="M543 466v-466h-122l2 76h-4q-26 -50 -68 -66t-104 -16q-93 0 -138 39t-45 120v313h129v-288q0 -50 15.5 -73.5t80.5 -23.5q82 0 104 31.5t22 94.5v259h128v0z" />
    <glyph glyph-name="v" unicode="v" horiz-adv-x="503" 
d="M507 467l-155 -467h-194l-164 467h132l128 -390l119 390h134v0z" />
    <glyph glyph-name="w" unicode="w" horiz-adv-x="814" 
d="M812 467l-122 -467h-185l-98 375l-96 -375h-187l-122 467h127l91 -391h3l104 391h161l102 -391h5l92 391h125v0z" />
    <glyph glyph-name="x" unicode="x" horiz-adv-x="511" 
d="M498 467l-156 -222l173 -245h-152l-108 171l-107 -171h-154l177 245l-156 222h147l93 -150l93 150h150v0z" />
    <glyph glyph-name="y" unicode="y" horiz-adv-x="496" 
d="M501 467l-142 -496q-22 -78 -59.5 -128t-145.5 -50h-13h-13q-7 1 -14 1.5t-13 1.5v80q3 0 7 -0.5t8 -0.5q3 -1 7 -1h7q48 0 68 30t29 67q2 7 3.5 15t2.5 14h-62l-177 467h134l137 -397l104 397h132v0z" />
    <glyph glyph-name="z" unicode="z" horiz-adv-x="485" 
d="M46 467h416v-93l-291 -291h291v-83h-439v96l286 289h-263v82v0z" />
    <glyph glyph-name="braceleft" unicode="{" horiz-adv-x="575" 
d="M267 244q41 -21 53 -50.5t12 -68.5v-122q0 -55 26.5 -70.5t84.5 -15.5v-105q-3 1 -6 1t-6 -1h-6h-6q-100 0 -162.5 20t-62.5 127v148q0 33 -12 58t-53 34v96q38 8 51.5 31.5t13.5 55.5v158q0 50 27 90.5t91 44.5q26 2 53 2.5t54 0.5h24v-111h-15t-16 -1q-13 0 -26.5 -2.5
t-24.5 -8.5q-15 -7 -21 -20.5t-7 -27.5q-1 -6 -1 -12v-12v-121q0 -40 -12 -68.5t-53 -49.5v0z" />
    <glyph glyph-name="bar" unicode="|" horiz-adv-x="575" 
d="M217 666h141v-833h-141v833v0z" />
    <glyph glyph-name="braceright" unicode="}" horiz-adv-x="575" 
d="M308 244q-41 22 -53 51t-12 69v121q0 56 -25 71.5t-86 15.5v105h68q92 0 136.5 -29t44.5 -118v-148q0 -34 12 -58.5t53 -34.5v-95q-37 -9 -51 -32t-14 -55v-159q0 -50 -25.5 -89.5t-92.5 -44.5q-26 -2 -53 -2.5t-54 -0.5h-6h-6q-3 1 -6 1h-6v109q60 1 85.5 17t25.5 68
v121q0 41 12 68.5t53 48.5v0z" />
    <glyph glyph-name="asciitilde" unicode="~" horiz-adv-x="575" 
d="M81 245l-71 50q23 48 63 87.5t106 39.5q30 0 58.5 -10t55.5 -22q28 -12 54.5 -22t53.5 -10q33 0 54.5 19t35.5 42q1 1 1.5 2.5t1.5 2.5l71 -50q-1 -1 -1.5 -2.5t-1.5 -3.5q-25 -45 -65 -82.5t-103 -37.5q-31 0 -58.5 9.5t-54.5 21.5q-25 12 -51 21.5t-55 11.5
q-32 0 -53.5 -18.5t-35.5 -40.5q-2 -2 -3 -4l-2 -4v0z" />
    <glyph glyph-name="exclamdown" unicode="&#xa1;" horiz-adv-x="316" 
d="M92 0l10 444h125l9 -444h-144v0zM99 543v122h129v-122h-129v0z" />
    <glyph glyph-name="cent" unicode="&#xa2;" horiz-adv-x="721" 
d="M399 462v-304q57 7 70.5 29.5t13.5 67.5h122q0 -100 -41 -141t-165 -44v-73h-71v73q-146 4 -178.5 69t-32.5 180q0 104 39 165.5t172 64.5v61h71v-61q107 0 153.5 -37.5t46.5 -131.5h-122q0 41 -15 58.5t-63 23.5v0zM328 463q-54 -10 -66 -39t-12 -73v-55v-21t1 -22
q2 -23 7 -44t16 -32q8 -8 19 -11.5t22 -5.5q3 0 6.5 -0.5t6.5 -0.5v304v0z" />
    <glyph glyph-name="sterling" unicode="&#xa3;" horiz-adv-x="721" 
d="M494 347v-93h-205v-14.5v-14.5t0.5 -14.5t0.5 -14.5q0 -30 -9 -49t-32 -35q-3 -3 -7.5 -5.5t-8.5 -5.5l459 1v-102h-620v100q45 5 58.5 33t14.5 62v8v8v43h-94v93h94v97q0 139 57.5 184t211.5 45q153 0 212 -38.5t59 -178.5h-141q0 59 -20.5 84.5t-94.5 25.5h-15
q-76 0 -100.5 -21t-24.5 -88v-110h205v0z" />
    <glyph glyph-name="currency" unicode="&#xa4;" horiz-adv-x="808" 
d="M61 108l110 98q-22 30 -34.5 64.5t-12.5 70.5q0 38 14.5 71t36.5 64l-115 99l73 64l115 -100q10 5 20 9.5t20 8.5q28 11 57 17.5t63 6.5q41 0 78 -12.5t72 -29.5l115 99l72 -63l-112 -98q23 -31 37 -65t14 -72q0 -37 -13.5 -69.5t-34.5 -64.5l113 -97l-73 -64l-111 97
q-37 -22 -77.5 -33.5t-85.5 -11.5q-41 0 -81.5 13.5t-75.5 31.5l-112 -97l-72 63v0zM405 479q-66 0 -112.5 -41t-46.5 -97t47.5 -97t111.5 -41q65 0 111 41t46 97t-46 97t-111 41v0z" />
    <glyph glyph-name="yen" unicode="&#xa5;" horiz-adv-x="721" 
d="M570 477h97v-94h-159l-54 -80h213v-93h-245v-210h-132v210h-236v93h205l-52 80h-153v94h92l-124 190h160l176 -285l178 285h162l-128 -190v0z" />
    <glyph glyph-name="brokenbar" unicode="&#xa6;" horiz-adv-x="575" 
d="M217 153h141v-320h-141v320v0zM217 666h141v-344h-141v344v0z" />
    <glyph glyph-name="section" unicode="&#xa7;" horiz-adv-x="721" 
d="M637 476h-136q0 62 -24.5 78.5t-95.5 16.5h-54q-69 0 -87 -15.5t-18 -51.5q0 -38 14.5 -50.5t47.5 -20.5q5 -1 11.5 -2.5t13.5 -2.5l195 -40q7 -1 13 -2.5t12 -2.5q75 -17 104 -43.5t29 -107.5v-6.5v-6.5q-2 -35 -15 -66t-52 -46q50 -22 60 -52.5t10 -75.5
q0 -134 -88 -159t-216 -25q-145 0 -218.5 30t-73.5 175h133q0 -45 15.5 -69.5t72.5 -29.5q8 -1 16.5 -1.5t16.5 -0.5q16 -1 32.5 -1h33.5q53 0 93 10.5t40 66.5q0 41 -18 54.5t-57 21.5q-4 1 -7.5 1.5t-7.5 1.5l-251 48q-82 15 -103.5 48.5t-21.5 101.5q0 44 14 77t67 46
q-41 25 -48.5 58t-7.5 73q0 119 83 142t193 23h16q104 0 184 -20.5t80 -136.5v-38v0zM260 187l178 -36q6 -1 11.5 -2t11.5 -2t11.5 -1.5t11.5 -0.5q34 0 46.5 21.5t13.5 49.5q0 42 -18 57t-61 24q-3 0 -5.5 0.5t-5.5 1.5l-156 34q-12 3 -24 5.5t-26 2.5q-35 0 -48.5 -23
t-13.5 -52q0 -41 14 -55.5t60 -23.5v0z" />
    <glyph glyph-name="dieresis" unicode="&#xa8;" horiz-adv-x="575" 
d="M233 618v-79h-101v79h101v0zM443 618v-79h-101v79h101v0z" />
    <glyph glyph-name="copyright" unicode="&#xa9;" horiz-adv-x="891" 
d="M447 679q164 0 279.5 -102t115.5 -244q0 -141 -115.5 -243t-279.5 -102t-281.5 101.5t-117.5 243.5q0 143 117.5 244.5t281.5 101.5v0zM446 625q-138 0 -234 -86.5t-96 -205.5q0 -118 96 -205t234 -87t233.5 87t95.5 205q0 119 -95.5 205.5t-233.5 86.5v0zM654 296
q-7 -74 -64 -118.5t-143 -44.5q-100 0 -159 58t-59 142q0 85 59.5 145t159.5 60q73 0 133.5 -37t67.5 -104h-66q-12 41 -51.5 59t-84.5 18q-67 0 -100 -44t-33 -97q0 -52 33.5 -94.5t99.5 -42.5q56 0 94.5 25.5t46.5 74.5h66v0z" />
    <glyph glyph-name="ordfeminine" unicode="&#xaa;" horiz-adv-x="721" 
d="M169 326h382v-52h-382v52v0zM292 581h-83q0 62 39.5 74.5t97.5 12.5q73 0 113.5 -15.5t40.5 -85.5v-184h-81l2 29l-4.5 -4.5l-4.5 -4.5q-20 -17 -42 -20.5t-53 -3.5q-54 0 -86.5 18t-32.5 67q0 56 32.5 74.5t89.5 18.5h15t16 -1q18 -1 35.5 -6t29.5 -19l1 36
q0 34 -14.5 44t-52.5 10q-31 0 -44.5 -6.5t-13.5 -33.5v0zM279 473q0 -32 19 -37.5t50 -5.5q27 0 48 6t21 34q0 26 -19 32.5t-45 6.5q-54 0 -64 -9t-10 -27v0z" />
    <glyph glyph-name="guillemotleft" unicode="&#xab;" horiz-adv-x="541" 
d="M186 483l87 -42l-109 -193l115 -187l-81 -46l-146 233l134 235v0zM394 486l88 -43l-109 -192l116 -188l-83 -45l-146 233l134 235v0z" />
    <glyph glyph-name="logicalnot" unicode="&#xac;" horiz-adv-x="575" 
d="M400 0v179h-362v106h498v-285h-136v0z" />
    <glyph glyph-name="sfthyphen" unicode="&#xad;" horiz-adv-x="500" 
 />
    <glyph glyph-name="registered" unicode="&#xae;" horiz-adv-x="891" 
d="M447 679q164 0 279.5 -102t115.5 -244t-115.5 -243.5t-279.5 -101.5t-281.5 101.5t-117.5 243.5q0 143 117.5 244.5t281.5 101.5v0zM446 625q-138 0 -234 -86.5t-96 -205.5q0 -118 96 -205t234 -87t233.5 87t95.5 205q0 119 -95.5 205.5t-233.5 86.5v0zM277 528h189h8h8
q54 -3 99 -26t45 -79q0 -34 -21 -59t-56 -38q47 -15 56.5 -46.5t11.5 -66.5v-4t1 -4q1 -17 3.5 -34t9.5 -32h-81q-7 12 -9 26t-3 28v8v8q-1 37 -14 65.5t-87 28.5h-76v-164h-84v389v0zM361 481v-134h82q42 0 70.5 15t28.5 55q0 37 -27 50.5t-64 13.5h-90v0z" />
    <glyph glyph-name="overstore" unicode="&#xaf;" 
 />
    <glyph glyph-name="glyph113" unicode="&#xb0;" horiz-adv-x="575" 
d="M461 516q0 -62 -51.5 -106t-121.5 -44q-67 0 -120 43.5t-53 102.5q0 64 49 110t125 46q71 0 121.5 -45t50.5 -107v0zM404 516q0 41 -34.5 71.5t-81.5 30.5q-49 0 -81.5 -31.5t-32.5 -72.5q0 -39 34 -69t78 -30q48 0 83 30t35 71v0z" />
    <glyph glyph-name="plusminus" unicode="&#xb1;" horiz-adv-x="575" 
d="M17 95h540v-59h-540v59v0zM17 388h234v197h71v-197h235v-59h-235v-191h-71v191h-234v59v0z" />
    <glyph glyph-name="twosuperior" unicode="&#xb2;" horiz-adv-x="415" 
d="M386 333v-66h-360v85q0 69 41.5 89.5t92.5 26.5q6 1 12.5 1.5t13.5 1.5q43 4 75 13.5t32 46.5q0 49 -16 60.5t-69 11.5t-70.5 -9t-17.5 -58v-16h-94q0 95 41 122t141 27q86 0 133 -22t47 -105q0 -86 -45 -104.5t-101 -23.5h-4.5h-4.5q-25 -3 -49.5 -7t-45.5 -15
q-9 -5 -12.5 -13.5t-4.5 -17.5q-1 -4 -1 -7.5v-7.5v-13h266v0z" />
    <glyph glyph-name="threesuperior" unicode="&#xb3;" horiz-adv-x="427" 
d="M176 440v63h53q43 1 56.5 9t13.5 45q0 32 -15.5 39.5t-47.5 7.5h-26q-58 0 -70 -11.5t-12 -58.5h-92q0 85 36.5 110.5t127.5 25.5h10q71 0 127 -15t56 -91q0 -34 -11 -57.5t-51 -34.5q41 -8 55 -30.5t14 -57.5q0 -84 -51.5 -102t-134.5 -18q-79 0 -132.5 17.5t-53.5 99.5
v6.5v6.5t0.5 6.5t0.5 6.5h92v-20q0 -39 17.5 -47.5t50.5 -8.5h27q44 0 67 7t23 50q0 36 -16.5 44t-54.5 8h-59v0z" />
    <glyph glyph-name="acute" unicode="&#xb4;" horiz-adv-x="575" 
d="M354 660l46 -73l-199 -76l-27 46l180 103v0z" />
    <glyph glyph-name="mu" unicode="&#xb5;" horiz-adv-x="649" 
d="M69 -169v648h129v-259q0 -27 3.5 -53t23.5 -49q19 -19 44.5 -30.5t54.5 -11.5q60 0 89.5 37.5t36.5 82.5q1 7 1.5 15t0.5 15v253h129v-479h-129v77q-17 -37 -48 -62t-81 -25q-43 0 -73 16.5t-52 47.5v-223h-129v0z" />
    <glyph glyph-name="paragraph" unicode="&#xb6;" horiz-adv-x="721" 
d="M708 -200h-108v766h-92v-766h-108v416h-107q-13 1 -26.5 1h-27.5h-15.5h-15.5q-41 2 -79.5 10t-68.5 33q-32 27 -44 62.5t-15 72.5q0 11 -0.5 22.5t-0.5 22.5q0 125 54 176t197 51h50h407v-867v0zM400 318v245h-131q-88 0 -111 -23t-23 -103q0 -82 31.5 -100.5
t117.5 -18.5h116v0z" />
    <glyph glyph-name="middot" unicode="&#xb7;" 
 />
    <glyph glyph-name="cedilla" unicode="&#xb8;" horiz-adv-x="575" 
d="M336 -10l42 -69l-154 -47l-27 47l139 69v0z" />
    <glyph glyph-name="onesuperior" unicode="&#xb9;" horiz-adv-x="322" 
d="M296 667v-400h-95v326l-117 -99l-58 51l155 122h115v0z" />
    <glyph glyph-name="ordmasculine" unicode="&#xba;" horiz-adv-x="721" 
d="M169 326h382v-52h-382v52v0zM206 536q0 82 32 108t123 26q88 0 121 -25.5t33 -109.5v-22q0 -76 -28.5 -104.5t-113.5 -28.5q-112 0 -139.5 32.5t-27.5 123.5v0zM289 529v-22q0 -48 11.5 -60.5t46.5 -12.5h14q50 0 60.5 18.5t10.5 53.5v38q0 35 -9.5 53t-53.5 18h-17h-8
t-8 -1q-8 0 -16 -2t-13 -6q-8 -7 -11.5 -18t-5.5 -24q-1 -7 -1 -14.5v-13.5v-7v0z" />
    <glyph glyph-name="guillemotright" unicode="&#xbb;" horiz-adv-x="541" 
d="M354 483l135 -235l-146 -233l-83 46l116 187l-109 193l87 42v0zM145 486l134 -235l-146 -233l-81 45l116 188l-109 192l86 43v0z" />
    <glyph glyph-name="onequarter" unicode="&#xbc;" horiz-adv-x="1354" 
d="M898 667l-486 -667h-90l485 667h91v0zM1272 400v-252h55v-63h-55v-85h-92v85h-254v86l208 229h138v0zM1180 148v187l-171 -187h171v0zM296 667v-400h-95v325l-117 -98l-58 51l155 122h115v0z" />
    <glyph glyph-name="onehalf" unicode="&#xbd;" horiz-adv-x="1313" 
d="M898 667l-486 -667h-90l485 667h91v0zM1286 66v-66h-360v85q0 70 38 89t102 28q4 0 7.5 0.5t7.5 1.5l16 2t15 2q34 4 57.5 13.5t23.5 47.5v6q0 45 -20 53t-67 8q-52 0 -70 -9t-18 -58v-16h-92q0 100 41.5 124.5t138.5 24.5q87 0 133.5 -22t46.5 -105q0 -86 -44 -104.5
t-99 -23.5q-5 0 -10 -0.5t-10 -0.5q-22 -2 -44.5 -6.5t-42.5 -14.5q-8 -5 -11.5 -13.5t-4.5 -17.5q-1 -4 -1 -7.5v-7.5v-13h267v0zM296 667v-400h-95v325l-117 -98l-58 51l155 122h115v0z" />
    <glyph glyph-name="threequarters" unicode="&#xbe;" horiz-adv-x="1458" 
d="M1004 667l-486 -667h-91l485 667h92v0zM1378 400v-252h54v-63h-54v-85h-93v85h-255v86l210 229h138v0zM1285 148l1 187l-172 -187h171v0zM176 440v63h53q43 1 56.5 9t13.5 45q0 32 -15.5 39.5t-47.5 7.5h-26q-58 0 -70 -11.5t-12 -58.5h-92q0 85 36.5 110.5t127.5 25.5
h10q71 0 127 -15t56 -91q0 -34 -11 -57.5t-51 -34.5q41 -8 55 -30.5t14 -57.5q0 -84 -51.5 -102t-134.5 -18q-79 0 -132.5 17.5t-53.5 99.5v6.5v6.5t0.5 6.5t0.5 6.5h92v-20q0 -39 17.5 -47.5t50.5 -8.5h27q44 0 67 7t23 50q0 36 -16.5 44t-54.5 8h-59v0z" />
    <glyph glyph-name="questiondown" unicode="&#xbf;" horiz-adv-x="608" 
d="M268 458h131q0 -62 -9.5 -92t-55.5 -54q-10 -5 -21 -10t-25 -10t-26.5 -9.5t-22.5 -8.5q-31 -12 -46 -29.5t-15 -61.5q0 -54 22.5 -72t83.5 -18q68 0 104 11t36 78v6v7q0 3 -0.5 6t-0.5 6h129q-2 -11 -2.5 -22t-0.5 -22v-5.5v-4.5q-1 -30 -8 -58.5t-35 -50.5
q-25 -19 -58 -28.5t-67 -12.5q-19 -2 -37 -2.5t-35 -0.5q-118 0 -187.5 27t-69.5 146v16v16q2 29 9 56.5t30 49.5q14 14 29.5 23t30.5 15q9 4 18 6.5t18 5.5q33 11 57 28.5t24 68.5v0zM271 549v122h128v-122h-128v0z" />
    <glyph glyph-name="Agrave" unicode="&#xc0;" horiz-adv-x="725" 
d="M529 128h-332l-47 -128h-153l255 667h216l260 -667h-150l-49 128v0zM496 223l-134 346l-131 -346h265v0zM296 851l180 -103l-29 -46l-197 76l46 73v0z" />
    <glyph glyph-name="Aacute" unicode="&#xc1;" horiz-adv-x="725" 
d="M529 128h-332l-47 -128h-153l255 667h216l260 -667h-150l-49 128v0zM496 223l-134 346l-131 -346h265v0zM430 851l46 -73l-199 -76l-27 46l180 103v0z" />
    <glyph glyph-name="Acircumflex" unicode="&#xc2;" horiz-adv-x="725" 
d="M529 128h-332l-47 -128h-153l255 667h216l260 -667h-150l-49 128v0zM496 223l-134 346l-131 -346h265v0zM362 842l182 -96l-25 -44l-157 56l-157 -56l-24 44l181 96v0z" />
    <glyph glyph-name="Atilde" unicode="&#xc3;" horiz-adv-x="725" 
d="M529 128h-332l-47 -128h-153l255 667h216l260 -667h-150l-49 128v0zM496 223l-134 346l-131 -346h265v0zM497 823l63 -31q-19 -30 -47.5 -53.5t-70.5 -23.5q-23 0 -43 7.5t-39 17.5q-4 1 -7.5 3t-7.5 4q-15 7 -30 12t-32 5q-18 0 -30 -10.5t-20 -22.5q-1 -1 -1.5 -2.5
t-1.5 -2.5l-66 31l1.5 1.5t0.5 1.5q19 26 44.5 48.5t64.5 24.5q23 0 43 -8t39 -17t39 -17t43 -8q19 0 32 11t23 24q0 1 1 2.5t2 2.5v0z" />
    <glyph glyph-name="Adieresis" unicode="&#xc4;" horiz-adv-x="725" 
d="M529 128h-332l-47 -128h-153l255 667h216l260 -667h-150l-49 128v0zM496 223l-134 346l-131 -346h265v0zM308 817v-79h-101v79h101v0zM518 817v-79h-102v79h102v0z" />
    <glyph glyph-name="Aring" unicode="&#xc5;" horiz-adv-x="725" 
d="M529 128h-332l-47 -128h-153l255 667h216l260 -667h-150l-49 128v0zM496 223l-134 346l-131 -346h265v0zM363 702q-38 0 -66 24t-28 58q0 33 28 57t66 24t66 -24t28 -57q0 -34 -28 -58t-66 -24v0zM363 742q20 0 34 12.5t14 29.5t-14 29t-34 12q-19 0 -33.5 -12t-14.5 -29
t14.5 -29.5t33.5 -12.5v0z" />
    <glyph glyph-name="AE" unicode="&#xc6;" horiz-adv-x="1082" 
d="M667 558v-173h352v-93h-352v-188h375v-104h-519v128h-308l-71 -128h-161l361 667h698v-109h-375v0zM523 223v335h-79l-183 -335h262v0z" />
    <glyph glyph-name="Ccedilla" unicode="&#xc7;" horiz-adv-x="712" 
d="M375 -10l42 -69l-154 -47l-27 47l139 69v0zM544 239h144q0 -7 0.5 -14t0.5 -13q0 -7 0.5 -14t0.5 -14q0 -116 -75.5 -151.5t-194.5 -35.5l-108 -1q-161 1 -213 70.5t-52 197.5q0 12 -0.5 24.5t-0.5 24.5q-1 24 -1.5 49t-0.5 49q0 168 86.5 214t259.5 46h45h18t18 -1
q51 -1 98.5 -13.5t77.5 -51.5q20 -26 26.5 -56.5t8.5 -60.5q0 -6 0.5 -12t0.5 -11q0 -6 0.5 -11.5t0.5 -10.5h-146q-2 8 -3 16.5t-2 16.5v2v2q-1 29 -12 52.5t-70 26.5q-16 2 -32.5 2h-33.5h-25h-21.5t-22.5 -1q-26 -2 -49.5 -7.5t-37.5 -17.5q-15 -13 -21 -31t-8 -36
q0 -7 -0.5 -13t-0.5 -12q0 -8 -0.5 -15.5t-0.5 -15.5q-1 -8 -1 -15.5v-15.5q0 -32 0.5 -64.5t1.5 -64.5q1 -100 39.5 -123.5t147.5 -23.5q66 0 112.5 11.5t46.5 80.5v10.5v10.5q-1 5 -1 10.5v10.5v0z" />
    <glyph glyph-name="Egrave" unicode="&#xc8;" horiz-adv-x="633" 
d="M194 561v-174h360v-93h-360v-189h382v-105h-524v667h521v-106h-379v0zM248 851l181 -103l-29 -46l-198 76l46 73v0z" />
    <glyph glyph-name="Eacute" unicode="&#xc9;" horiz-adv-x="633" 
d="M194 561v-174h360v-93h-360v-189h382v-105h-524v667h521v-106h-379v0zM383 851l46 -73l-199 -76l-28 46l181 103v0z" />
    <glyph glyph-name="Ecircumflex" unicode="&#xca;" horiz-adv-x="633" 
d="M194 561v-174h360v-93h-360v-189h382v-105h-524v667h521v-106h-379v0zM316 842l182 -96l-25 -44l-157 56l-157 -56l-24 44l181 96v0z" />
    <glyph glyph-name="Edieresis" unicode="&#xcb;" horiz-adv-x="633" 
d="M194 561v-174h360v-93h-360v-189h382v-105h-524v667h521v-106h-379v0zM262 817v-79h-101v79h101v0zM471 817v-79h-101v79h101v0z" />
    <glyph glyph-name="Igrave" unicode="&#xcc;" horiz-adv-x="282" 
d="M214 667v-667h-147v667h147v0zM74 851l180 -103l-29 -46l-197 76l46 73v0z" />
    <glyph glyph-name="Iacute" unicode="&#xcd;" horiz-adv-x="282" 
d="M214 667v-667h-147v667h147v0zM208 851l46 -73l-199 -76l-27 46l180 103v0z" />
    <glyph glyph-name="Icircumflex" unicode="&#xce;" horiz-adv-x="282" 
d="M214 667v-667h-147v667h147v0zM140 842l182 -96l-25 -44l-157 56l-157 -56l-24 44l181 96v0z" />
    <glyph glyph-name="Idieresis" unicode="&#xcf;" horiz-adv-x="282" 
d="M214 667v-667h-147v667h147v0zM86 817v-79h-101v79h101v0zM296 817v-79h-102v79h102v0z" />
    <glyph glyph-name="Eth" unicode="&#xd0;" horiz-adv-x="787" 
d="M70 667h304q176 0 272 -90.5t96 -241.5q0 -155 -95.5 -245t-277.5 -90h-299v296h-77v95h77v276v0zM210 391h110v-95h-110v-194h144q126 0 185.5 65.5t59.5 168.5q0 104 -65 166.5t-187 62.5h-137v-174v0z" />
    <glyph glyph-name="Ntilde" unicode="&#xd1;" horiz-adv-x="845" 
d="M777 667v-667h-243l-325 558h-4l4 -558h-142v667h242l325 -558h4l-4 558h143v0zM557 823l63 -31q-19 -30 -47.5 -53.5t-71.5 -23.5q-23 0 -42.5 7.5t-38.5 17.5q-4 1 -7.5 3t-6.5 3q-15 8 -30.5 13t-32.5 5q-18 0 -30 -10.5t-20 -22.5q-1 -1 -1.5 -2.5t-1.5 -2.5l-66 31
l1.5 1.5t0.5 1.5q19 26 44.5 48.5t64.5 24.5q23 0 43 -8t39 -17t39 -17t43 -8q19 0 32 11t23 24q0 1 1 2.5t2 2.5v0z" />
    <glyph glyph-name="Ograve" unicode="&#xd2;" 
 />
    <glyph glyph-name="Oacute" unicode="&#xd3;" horiz-adv-x="731" 
d="M45 325q0 167 43 257t264 90q134 0 236.5 -30.5t110.5 -172.5q3 -22 3.5 -44t0.5 -45v-45q0 -185 -46.5 -262.5t-294.5 -77.5q-173 0 -245.5 51t-72.5 211v18t1 18v16.5v15.5v0zM194 328v-29.5v-29.5q1 -15 1.5 -29.5t1.5 -29.5q7 -75 46 -91t117 -16q101 0 144.5 22.5
t47.5 115.5q2 41 2 81.5v80.5q0 93 -26 127t-135 34q-149 0 -173.5 -36.5t-24.5 -140.5v-2v-2v-26.5t-1 -28.5v0zM442 851l46 -73l-199 -76l-28 46l181 103v0z" />
    <glyph glyph-name="Ocircumflex" unicode="&#xd4;" horiz-adv-x="731" 
d="M45 325q0 167 43 257t264 90q134 0 236.5 -30.5t110.5 -172.5q3 -22 3.5 -44t0.5 -45v-45q0 -185 -46.5 -262.5t-294.5 -77.5q-173 0 -245.5 51t-72.5 211v18t1 18v16.5v15.5v0zM194 328v-29.5v-29.5q1 -15 1.5 -29.5t1.5 -29.5q7 -75 46 -91t117 -16q101 0 144.5 22.5
t47.5 115.5q2 41 2 81.5v80.5q0 93 -26 127t-135 34q-149 0 -173.5 -36.5t-24.5 -140.5v-2v-2v-26.5t-1 -28.5v0zM374 842l181 -96l-25 -44l-156 56l-158 -56l-24 44l182 96v0z" />
    <glyph glyph-name="Otilde" unicode="&#xd5;" horiz-adv-x="731" 
d="M45 325q0 167 43 257t264 90q134 0 236.5 -30.5t110.5 -172.5q3 -22 3.5 -44t0.5 -45v-45q0 -185 -46.5 -262.5t-294.5 -77.5q-173 0 -245.5 51t-72.5 211v18t1 18v16.5v15.5v0zM194 328v-29.5v-29.5q1 -15 1.5 -29.5t1.5 -29.5q7 -75 46 -91t117 -16q101 0 144.5 22.5
t47.5 115.5q2 41 2 81.5v80.5q0 93 -26 127t-135 34q-149 0 -173.5 -36.5t-24.5 -140.5v-2v-2v-26.5t-1 -28.5v0zM508 822l64 -31q-19 -30 -48 -53.5t-71 -23.5q-23 0 -43 7.5t-38 17.5q-3 1 -6 2.5t-6 2.5q-16 8 -32 13.5t-34 5.5t-29.5 -10.5t-20.5 -22.5q-1 -1 -1.5 -2.5
t-1.5 -2.5l-65 31l1.5 1.5t0.5 1.5q19 26 44 48.5t64 24.5q23 0 43 -8t40 -17q19 -9 39 -17t43 -8q18 0 31.5 11t22.5 24q1 1 1.5 2.5t1.5 2.5v0z" />
    <glyph glyph-name="Odieresis" unicode="&#xd6;" horiz-adv-x="731" 
d="M45 325q0 167 43 257t264 90q134 0 236.5 -30.5t110.5 -172.5q3 -22 3.5 -44t0.5 -45v-45q0 -185 -46.5 -262.5t-294.5 -77.5q-173 0 -245.5 51t-72.5 211v18t1 18v16.5v15.5v0zM194 328v-29.5v-29.5q1 -15 1.5 -29.5t1.5 -29.5q7 -75 46 -91t117 -16q101 0 144.5 22.5
t47.5 115.5q2 41 2 81.5v80.5q0 93 -26 127t-135 34q-149 0 -173.5 -36.5t-24.5 -140.5v-2v-2v-26.5t-1 -28.5v0zM320 816v-79h-102v79h102v0zM529 816v-79h-101v79h101v0z" />
    <glyph glyph-name="multiply" unicode="&#xd7;" horiz-adv-x="575" 
d="M112 546l174 -153l176 155l51 -44l-178 -153l177 -153l-49 -42l-175 154l-178 -155l-49 43l178 154l-176 152l49 42v0z" />
    <glyph glyph-name="Oslash" unicode="&#xd8;" horiz-adv-x="770" 
d="M770 688v-101l-60 -46q9 -23 13 -51t5 -57q1 -8 1 -16.5v-16.5v-20v-19q-1 -10 -1 -19v-17q0 -172 -47.5 -250.5t-279.5 -78.5l-48 -1q-15 1 -31 1t-31 1q-52 3 -100.5 15t-84.5 46l-106 -81v97l63 49q-7 14 -9.5 28t-4.5 28q0 2 -0.5 3.5t-0.5 3.5q-1 20 -2 39.5
t-1 39.5q-1 20 -1 39.5v39.5q0 185 58 255.5t280 70.5h52q65 0 123.5 -9.5t108.5 -53.5l104 81v0zM216 143q16 -22 40.5 -29t52.5 -9q7 0 13.5 -0.5t13.5 -0.5q3 0 6.5 -0.5t6.5 -0.5q10 0 20 -0.5t20 -0.5q138 0 162.5 41t25.5 130v5.5v5.5q1 6 1 12v13v54v18v19
q0 9 -0.5 18t-1.5 18l-360 -293v0zM557 522q-20 25 -51 32t-64 8h-6.5h-6.5h-22t-22 1h-23h-22q-84 0 -115.5 -34t-31.5 -108v-35.5v-35.5t-0.5 -35.5t-0.5 -35.5q0 -7 0.5 -13.5t0.5 -12.5v-13.5v-13.5l364 296v0z" />
    <glyph glyph-name="Ugrave" unicode="&#xd9;" horiz-adv-x="770" 
d="M560 666h145v-444q0 -107 -44.5 -163.5t-182.5 -60.5q-13 -1 -27.5 -1t-28.5 -1h-14h-14q-152 0 -238.5 31t-86.5 188v451h147v-451q0 -72 35 -92t111 -20h51q72 0 109.5 16.5t37.5 84.5v16v446v0zM320 850l180 -103l-29 -46l-197 76l46 73v0z" />
    <glyph glyph-name="Uacute" unicode="&#xda;" horiz-adv-x="770" 
d="M560 666h145v-444q0 -107 -44.5 -163.5t-182.5 -60.5q-13 -1 -27.5 -1t-28.5 -1h-14h-14q-152 0 -238.5 31t-86.5 188v451h147v-451q0 -72 35 -92t111 -20h51q72 0 109.5 16.5t37.5 84.5v16v446v0zM454 850l46 -73l-199 -76l-27 46l180 103v0z" />
    <glyph glyph-name="Ucircumflex" unicode="&#xdb;" horiz-adv-x="770" 
d="M560 666h145v-444q0 -107 -44.5 -163.5t-182.5 -60.5q-13 -1 -27.5 -1t-28.5 -1h-14h-14q-152 0 -238.5 31t-86.5 188v451h147v-451q0 -72 35 -92t111 -20h51q72 0 109.5 16.5t37.5 84.5v16v446v0zM388 842l181 -96l-25 -44l-156 56l-158 -56l-24 44l182 96v0z" />
    <glyph glyph-name="Udieresis" unicode="&#xdc;" horiz-adv-x="770" 
d="M560 666h145v-444q0 -107 -44.5 -163.5t-182.5 -60.5q-13 -1 -27.5 -1t-28.5 -1h-14h-14q-152 0 -238.5 31t-86.5 188v451h147v-451q0 -72 35 -92t111 -20h51q72 0 109.5 16.5t37.5 84.5v16v446v0zM332 816v-79h-101v79h101v0zM542 816v-79h-102v79h102v0z" />
    <glyph glyph-name="Yacute" unicode="&#xdd;" 
 />
    <glyph glyph-name="Thorn" unicode="&#xde;" horiz-adv-x="680" 
d="M71 667h141v-80h173q110 0 189.5 -54.5t79.5 -156.5q0 -100 -74 -154t-183 -54h-185v-168h-141v667v0zM212 487v-224h148q62 0 108.5 27t46.5 86q0 63 -42.5 87t-107.5 24h-153v0z" />
    <glyph glyph-name="germandbls" unicode="&#xdf;" horiz-adv-x="620" 
d="M204 0h-129v466q0 122 46.5 163.5t184.5 41.5q91 0 164.5 -22t73.5 -120q0 -25 -11 -48.5t-34 -39.5q-13 -9 -27 -13.5t-29 -7.5q-5 -1 -10.5 -2.5t-11.5 -3.5q100 -13 129.5 -65t29.5 -132q0 -92 -37.5 -158t-164.5 -66q-30 0 -58.5 5t-56.5 14v91q4 -2 7.5 -3.5
t6.5 -3.5q18 -8 36.5 -13t39.5 -5q56 0 73.5 33.5t20.5 73.5q1 9 1 17.5v16.5v8v8q-1 54 -19 99t-98 45h-22.5t-22.5 -2v70h7.5t5.5 -1q50 0 85.5 14.5t35.5 64.5q0 44 -34.5 57t-78.5 13q-76 0 -89.5 -27.5t-13.5 -83.5v-484v0z" />
    <glyph glyph-name="agrave" unicode="&#xe0;" horiz-adv-x="603" 
d="M197 330h-130q0 100 65 120t159 20q110 0 180.5 -26t70.5 -140v-304h-127l4 58q-31 -46 -75 -55t-101 -9q-85 0 -140.5 27t-55.5 112q0 90 53.5 120t146.5 30h25.5t27.5 -1q19 -2 36.5 -4.5t32.5 -8.5q13 -5 21.5 -13.5t15.5 -17.5q0 -1 1 -2.5t2 -2.5l3 71q0 58 -25 76
t-90 18h-18t-20 -1q-17 -2 -32 -7.5t-23 -17.5q-3 -6 -4.5 -13.5t-2.5 -14.5v-6.5v-7.5v0zM176 146q0 -52 27.5 -63.5t79.5 -11.5h11.5h11.5q40 2 73.5 14.5t33.5 55.5v8.5t-1 8.5q-1 9 -4.5 18t-11.5 15q-12 8 -29 12t-34 6q-13 1 -24.5 1h-22.5h-17t-18 -1
q-16 -1 -31 -4.5t-26 -11.5q-10 -7 -13.5 -16.5t-4.5 -20.5v-4.5v-5.5v0zM237 661l180 -103l-28 -46l-198 76l46 73v0z" />
    <glyph glyph-name="aacute" unicode="&#xe1;" horiz-adv-x="603" 
d="M197 330h-130q0 100 65 120t159 20q110 0 180.5 -26t70.5 -140v-304h-127l4 58q-31 -46 -75 -55t-101 -9q-85 0 -140.5 27t-55.5 112q0 90 53.5 120t146.5 30h25.5t27.5 -1q19 -2 36.5 -4.5t32.5 -8.5q13 -5 21.5 -13.5t15.5 -17.5q0 -1 1 -2.5t2 -2.5l3 71q0 58 -25 76
t-90 18h-18t-20 -1q-17 -2 -32 -7.5t-23 -17.5q-3 -6 -4.5 -13.5t-2.5 -14.5v-6.5v-7.5v0zM176 146q0 -52 27.5 -63.5t79.5 -11.5h11.5h11.5q40 2 73.5 14.5t33.5 55.5v8.5t-1 8.5q-1 9 -4.5 18t-11.5 15q-12 8 -29 12t-34 6q-13 1 -24.5 1h-22.5h-17t-18 -1
q-16 -1 -31 -4.5t-26 -11.5q-10 -7 -13.5 -16.5t-4.5 -20.5v-4.5v-5.5v0zM371 661l46 -73l-199 -76l-27 46l180 103v0z" />
    <glyph glyph-name="acircumflex" unicode="&#xe2;" horiz-adv-x="603" 
d="M197 330h-130q0 100 65 120t159 20q110 0 180.5 -26t70.5 -140v-304h-127l4 58q-31 -46 -75 -55t-101 -9q-85 0 -140.5 27t-55.5 112q0 90 53.5 120t146.5 30h25.5t27.5 -1q19 -2 36.5 -4.5t32.5 -8.5q13 -5 21.5 -13.5t15.5 -17.5q0 -1 1 -2.5t2 -2.5l3 71q0 58 -25 76
t-90 18h-18t-20 -1q-17 -2 -32 -7.5t-23 -17.5q-3 -6 -4.5 -13.5t-2.5 -14.5v-6.5v-7.5v0zM176 146q0 -52 27.5 -63.5t79.5 -11.5h11.5h11.5q40 2 73.5 14.5t33.5 55.5v8.5t-1 8.5q-1 9 -4.5 18t-11.5 15q-12 8 -29 12t-34 6q-13 1 -24.5 1h-22.5h-17t-18 -1
q-16 -1 -31 -4.5t-26 -11.5q-10 -7 -13.5 -16.5t-4.5 -20.5v-4.5v-5.5v0zM304 659l181 -96l-25 -44l-156 56l-158 -56l-24 44l182 96v0z" />
    <glyph glyph-name="atilde" unicode="&#xe3;" horiz-adv-x="603" 
d="M197 330h-130q0 100 65 120t159 20q110 0 180.5 -26t70.5 -140v-304h-127l4 58q-31 -46 -75 -55t-101 -9q-85 0 -140.5 27t-55.5 112q0 90 53.5 120t146.5 30h25.5t27.5 -1q19 -2 36.5 -4.5t32.5 -8.5q13 -5 21.5 -13.5t15.5 -17.5q0 -1 1 -2.5t2 -2.5l3 71q0 58 -25 76
t-90 18h-18t-20 -1q-17 -2 -32 -7.5t-23 -17.5q-3 -6 -4.5 -13.5t-2.5 -14.5v-6.5v-7.5v0zM176 146q0 -52 27.5 -63.5t79.5 -11.5h11.5h11.5q40 2 73.5 14.5t33.5 55.5v8.5t-1 8.5q-1 9 -4.5 18t-11.5 15q-12 8 -29 12t-34 6q-13 1 -24.5 1h-22.5h-17t-18 -1
q-16 -1 -31 -4.5t-26 -11.5q-10 -7 -13.5 -16.5t-4.5 -20.5v-4.5v-5.5v0zM438 626l63 -31q-19 -30 -47.5 -53.5t-70.5 -23.5q-23 0 -43 7.5t-39 17.5q-4 1 -7.5 3t-7.5 4q-15 7 -30 12t-32 5q-18 0 -29.5 -10.5t-20.5 -22.5q-1 -1 -1.5 -2.5t-1.5 -2.5l-65 31l1.5 1.5
t0.5 1.5q19 26 44 48.5t64 24.5q23 0 43 -8t40 -17q19 -9 39 -17t43 -8q18 0 31 11t23 24q0 1 1 2.5t2 2.5v0z" />
    <glyph glyph-name="adieresis" unicode="&#xe4;" horiz-adv-x="603" 
d="M197 330h-130q0 100 65 120t159 20q110 0 180.5 -26t70.5 -140v-304h-127l4 58q-31 -46 -75 -55t-101 -9q-85 0 -140.5 27t-55.5 112q0 90 53.5 120t146.5 30h25.5t27.5 -1q19 -2 36.5 -4.5t32.5 -8.5q13 -5 21.5 -13.5t15.5 -17.5q0 -1 1 -2.5t2 -2.5l3 71q0 58 -25 76
t-90 18h-18t-20 -1q-17 -2 -32 -7.5t-23 -17.5q-3 -6 -4.5 -13.5t-2.5 -14.5v-6.5v-7.5v0zM176 146q0 -52 27.5 -63.5t79.5 -11.5h11.5h11.5q40 2 73.5 14.5t33.5 55.5v8.5t-1 8.5q-1 9 -4.5 18t-11.5 15q-12 8 -29 12t-34 6q-13 1 -24.5 1h-22.5h-17t-18 -1
q-16 -1 -31 -4.5t-26 -11.5q-10 -7 -13.5 -16.5t-4.5 -20.5v-4.5v-5.5v0zM250 618v-79h-102v79h102v0zM459 618v-79h-101v79h101v0z" />
    <glyph glyph-name="aring" unicode="&#xe5;" horiz-adv-x="603" 
d="M197 330h-130q0 100 65 120t159 20q110 0 180.5 -26t70.5 -140v-304h-127l4 58q-31 -46 -75 -55t-101 -9q-85 0 -140.5 27t-55.5 112q0 90 53.5 120t146.5 30h25.5t27.5 -1q19 -2 36.5 -4.5t32.5 -8.5q13 -5 21.5 -13.5t15.5 -17.5q0 -1 1 -2.5t2 -2.5l3 71q0 58 -25 76
t-90 18h-18t-20 -1q-17 -2 -32 -7.5t-23 -17.5q-3 -6 -4.5 -13.5t-2.5 -14.5v-6.5v-7.5v0zM176 146q0 -52 27.5 -63.5t79.5 -11.5h11.5h11.5q40 2 73.5 14.5t33.5 55.5v8.5t-1 8.5q-1 9 -4.5 18t-11.5 15q-12 8 -29 12t-34 6q-13 1 -24.5 1h-22.5h-17t-18 -1
q-16 -1 -31 -4.5t-26 -11.5q-10 -7 -13.5 -16.5t-4.5 -20.5v-4.5v-5.5v0zM305 502q-39 0 -67 24t-28 58q0 33 28 57t67 24q38 0 65.5 -24t27.5 -57q0 -34 -27.5 -58t-65.5 -24v0zM305 542q19 0 33 12.5t14 29.5t-14 29t-33 12q-20 0 -34.5 -12t-14.5 -29t14.5 -29.5
t34.5 -12.5v0z" />
    <glyph glyph-name="ae" unicode="&#xe6;" horiz-adv-x="941" 
d="M895 218h-360v-22q2 -71 21 -95t104 -24q53 0 81.5 11.5t28.5 61.5h126q0 -100 -61.5 -127t-166.5 -27h-15.5h-15.5q-53 1 -102 13t-75 60q-28 -52 -81 -63t-113 -11q-100 0 -160.5 24t-60.5 122q0 92 62.5 117t152.5 25h8h8q38 -1 73.5 -9t56.5 -40h5v77q0 59 -27 74
t-92 15q-47 0 -72 -10.5t-26 -55.5h-130q4 97 59 118t151 21h29t30 -1q27 -1 53.5 -5.5t50.5 -14.5q15 -6 24 -17t16 -23q22 35 60.5 47t80.5 14q10 1 21 1h21q166 0 200.5 -65t34.5 -191v0zM174 147q0 -53 32 -63.5t84 -10.5q47 0 84.5 10t37.5 60q0 41 -31.5 52.5
t-68.5 12.5h-13.5h-12.5h-7.5h-7.5q-36 -1 -66.5 -11t-30.5 -50v0zM773 289v14t-1 14q-1 13 -4 25.5t-11 22.5q-10 14 -28 20t-37 7q-9 1 -18.5 1h-17.5q-80 0 -100.5 -25t-20.5 -79h238v0z" />
    <glyph glyph-name="ccedilla" unicode="&#xe7;" horiz-adv-x="575" 
d="M302 -11l45 -56l-133 -46l-28 41l116 61v0zM413 178h125q0 -107 -46 -144.5t-172 -37.5q-148 0 -209.5 41.5t-61.5 177.5q0 128 40.5 192.5t203.5 64.5q101 0 171 -24.5t70 -127.5v-4v-4q0 -3 -0.5 -5t-1.5 -4h-123q0 56 -24 70t-87 14q-87 0 -101.5 -35t-14.5 -104v-9.5
v-11.5q-1 -6 -1 -12v-13q0 -64 18.5 -93t100.5 -29q71 0 92 20t21 78v0z" />
    <glyph glyph-name="egrave" unicode="&#xe8;" horiz-adv-x="582" 
d="M409 149h127q1 -4 1 -8.5v-9.5q0 -95 -73 -115.5t-163 -20.5q-170 0 -213.5 55.5t-43.5 192.5q0 123 45.5 176.5t196.5 53.5q152 0 201.5 -47t49.5 -178l-1 -34h-365q0 -74 18 -106.5t115 -32.5q41 0 73 11t32 54v9v0zM412 283q0 67 -21 88t-100 21q-67 0 -91 -17
t-26 -77v-4v-3q-1 -2 -1 -4v-4h239v0zM223 661l181 -103l-29 -46l-198 76l46 73v0z" />
    <glyph glyph-name="eacute" unicode="&#xe9;" horiz-adv-x="582" 
d="M409 149h127q1 -4 1 -8.5v-9.5q0 -95 -73 -115.5t-163 -20.5q-170 0 -213.5 55.5t-43.5 192.5q0 123 45.5 176.5t196.5 53.5q152 0 201.5 -47t49.5 -178l-1 -34h-365q0 -74 18 -106.5t115 -32.5q41 0 73 11t32 54v9v0zM412 283q0 67 -21 88t-100 21q-67 0 -91 -17
t-26 -77v-4v-3q-1 -2 -1 -4v-4h239v0zM358 661l46 -73l-199 -76l-28 46l181 103v0z" />
    <glyph glyph-name="ecircumflex" unicode="&#xea;" horiz-adv-x="582" 
d="M409 149h127q1 -4 1 -8.5v-9.5q0 -95 -73 -115.5t-163 -20.5q-170 0 -213.5 55.5t-43.5 192.5q0 123 45.5 176.5t196.5 53.5q152 0 201.5 -47t49.5 -178l-1 -34h-365q0 -74 18 -106.5t115 -32.5q41 0 73 11t32 54v9v0zM412 283q0 67 -21 88t-100 21q-67 0 -91 -17
t-26 -77v-4v-3q-1 -2 -1 -4v-4h239v0zM291 659l182 -96l-26 -44l-156 56l-158 -56l-24 44l182 96v0z" />
    <glyph glyph-name="edieresis" unicode="&#xeb;" horiz-adv-x="582" 
d="M409 149h127q1 -4 1 -8.5v-9.5q0 -95 -73 -115.5t-163 -20.5q-170 0 -213.5 55.5t-43.5 192.5q0 123 45.5 176.5t196.5 53.5q152 0 201.5 -47t49.5 -178l-1 -34h-365q0 -74 18 -106.5t115 -32.5q41 0 73 11t32 54v9v0zM412 283q0 67 -21 88t-100 21q-67 0 -91 -17
t-26 -77v-4v-3q-1 -2 -1 -4v-4h239v0zM236 618v-79h-101v79h101v0zM445 618v-79h-101v79h101v0z" />
    <glyph glyph-name="igrave" unicode="&#xec;" horiz-adv-x="241" 
d="M184 467v-467h-128v467h128v0zM54 661l181 -103l-29 -46l-198 76l46 73v0z" />
    <glyph glyph-name="iacute" unicode="&#xed;" horiz-adv-x="241" 
d="M184 467v-467h-128v467h128v0zM189 661l46 -73l-199 -76l-28 46l181 103v0z" />
    <glyph glyph-name="icircumflex" unicode="&#xee;" horiz-adv-x="241" 
d="M184 467v-467h-128v467h128v0zM121 659l181 -96l-25 -44l-156 56l-158 -56l-24 44l182 96v0z" />
    <glyph glyph-name="idieresis" unicode="&#xef;" horiz-adv-x="241" 
d="M184 467v-467h-128v467h128v0zM67 618v-79h-102v79h102v0zM276 618v-79h-101v79h101v0z" />
    <glyph glyph-name="eth" unicode="&#xf0;" horiz-adv-x="626" 
d="M97 637l19 41q10 -3 20 -5.5t20 -4.5l8 -2l8 -2q26 -6 51.5 -13t50.5 -17l120 72l29 -37l-94 -56q127 -66 194 -150.5t67 -218.5q0 -106 -77 -182t-204 -76t-199.5 74t-72.5 180q0 6 0.5 12.5t1.5 13.5q9 78 69.5 143t158.5 65q11 0 25.5 -1.5t29.5 -4.5q19 -3 36 -8
t27 -11q-25 37 -55 67.5t-71 56.5l-116 -71l-29 38l98 57q-28 13 -57 23t-58 17v0zM327 415q-88 0 -124.5 -54.5t-36.5 -122.5q0 -8 0.5 -16t1.5 -16q7 -53 40.5 -97.5t103.5 -44.5q75 0 108 47t39 103q1 8 1.5 16t0.5 16q0 10 -1 20.5t-2 21.5q-8 47 -37.5 87t-93.5 40v0z
" />
    <glyph glyph-name="ntilde" unicode="&#xf1;" horiz-adv-x="611" 
d="M63 467h122l1 -72q32 44 71 61.5t98 17.5q98 0 144.5 -33.5t46.5 -121.5v-319h-127v288q0 53 -17.5 75.5t-84.5 22.5q-59 0 -92.5 -26t-33.5 -80v-280h-128v467v0zM439 626l64 -31q-19 -30 -48 -53.5t-71 -23.5q-23 0 -43 7.5t-38 17.5q-3 1 -6 2.5t-6 2.5
q-16 8 -32 13.5t-34 5.5t-29.5 -10.5t-19.5 -22.5q-1 -1 -1.5 -2.5t-1.5 -2.5l-66 31l1.5 1.5t0.5 1.5q19 26 44 48.5t64 24.5q23 0 43 -8t40 -17q19 -9 39 -17t43 -8q18 0 31.5 11t22.5 24q1 1 1.5 2.5t1.5 2.5v0z" />
    <glyph glyph-name="ograve" unicode="&#xf2;" horiz-adv-x="595" 
d="M52 253q0 126 49.5 173t195.5 47q152 0 206.5 -43t54.5 -180q0 -124 -33 -189.5t-204 -65.5q-143 0 -206 39.5t-63 173.5v45v0zM183 241v-32q0 -58 13.5 -94.5t95.5 -36.5h15h18.5t19.5 1q18 2 34.5 7t26.5 17q11 14 15.5 34t6.5 42q1 10 1 20.5v20.5v36v20.5t-1 22.5
q-2 21 -7.5 40t-18.5 30q-10 10 -25.5 13.5t-31.5 4.5h-11.5h-10.5h-32h-12.5t-13.5 -1q-15 -1 -28.5 -4t-22.5 -11q-10 -8 -15.5 -19t-8.5 -22q-1 -3 -1.5 -6t-1.5 -6q-1 -10 -2 -19.5t-1 -18.5q-1 -10 -1 -19.5v-19.5v0zM238 661l181 -103l-29 -46l-198 76l46 73v0z" />
    <glyph glyph-name="oacute" unicode="&#xf3;" horiz-adv-x="595" 
d="M52 253q0 126 49.5 173t195.5 47q152 0 206.5 -43t54.5 -180q0 -124 -33 -189.5t-204 -65.5q-143 0 -206 39.5t-63 173.5v45v0zM183 241v-32q0 -58 13.5 -94.5t95.5 -36.5h15h18.5t19.5 1q18 2 34.5 7t26.5 17q11 14 15.5 34t6.5 42q1 10 1 20.5v20.5v36v20.5t-1 22.5
q-2 21 -7.5 40t-18.5 30q-10 10 -25.5 13.5t-31.5 4.5h-11.5h-10.5h-32h-12.5t-13.5 -1q-15 -1 -28.5 -4t-22.5 -11q-10 -8 -15.5 -19t-8.5 -22q-1 -3 -1.5 -6t-1.5 -6q-1 -10 -2 -19.5t-1 -18.5q-1 -10 -1 -19.5v-19.5v0zM373 661l46 -73l-199 -76l-28 46l181 103v0z" />
    <glyph glyph-name="ocircumflex" unicode="&#xf4;" horiz-adv-x="595" 
d="M52 253q0 126 49.5 173t195.5 47q152 0 206.5 -43t54.5 -180q0 -124 -33 -189.5t-204 -65.5q-143 0 -206 39.5t-63 173.5v45v0zM183 241v-32q0 -58 13.5 -94.5t95.5 -36.5h15h18.5t19.5 1q18 2 34.5 7t26.5 17q11 14 15.5 34t6.5 42q1 10 1 20.5v20.5v36v20.5t-1 22.5
q-2 21 -7.5 40t-18.5 30q-10 10 -25.5 13.5t-31.5 4.5h-11.5h-10.5h-32h-12.5t-13.5 -1q-15 -1 -28.5 -4t-22.5 -11q-10 -8 -15.5 -19t-8.5 -22q-1 -3 -1.5 -6t-1.5 -6q-1 -10 -2 -19.5t-1 -18.5q-1 -10 -1 -19.5v-19.5v0zM305 659l181 -96l-25 -44l-156 56l-158 -56l-24 44
l182 96v0z" />
    <glyph glyph-name="otilde" unicode="&#xf5;" horiz-adv-x="595" 
d="M52 253q0 126 49.5 173t195.5 47q152 0 206.5 -43t54.5 -180q0 -124 -33 -189.5t-204 -65.5q-143 0 -206 39.5t-63 173.5v45v0zM183 241v-32q0 -58 13.5 -94.5t95.5 -36.5h15h18.5t19.5 1q18 2 34.5 7t26.5 17q11 14 15.5 34t6.5 42q1 10 1 20.5v20.5v36v20.5t-1 22.5
q-2 21 -7.5 40t-18.5 30q-10 10 -25.5 13.5t-31.5 4.5h-11.5h-10.5h-32h-12.5t-13.5 -1q-15 -1 -28.5 -4t-22.5 -11q-10 -8 -15.5 -19t-8.5 -22q-1 -3 -1.5 -6t-1.5 -6q-1 -10 -2 -19.5t-1 -18.5q-1 -10 -1 -19.5v-19.5v0zM439 626l64 -31q-19 -30 -48 -53.5t-71 -23.5
q-23 0 -43 7.5t-38 17.5q-3 1 -6 2.5t-6 2.5q-16 8 -32 13.5t-34 5.5t-29.5 -10.5t-19.5 -22.5q-1 -1 -1.5 -2.5t-1.5 -2.5l-66 31l1.5 1.5t0.5 1.5q19 26 44 48.5t64 24.5q23 0 43 -8t40 -17q19 -9 39 -17t43 -8q18 0 31.5 11t22.5 24q1 1 1.5 2.5t1.5 2.5v0z" />
    <glyph glyph-name="odieresis" unicode="&#xf6;" horiz-adv-x="595" 
d="M52 253q0 126 49.5 173t195.5 47q152 0 206.5 -43t54.5 -180q0 -124 -33 -189.5t-204 -65.5q-143 0 -206 39.5t-63 173.5v45v0zM183 241v-32q0 -58 13.5 -94.5t95.5 -36.5h15h18.5t19.5 1q18 2 34.5 7t26.5 17q11 14 15.5 34t6.5 42q1 10 1 20.5v20.5v36v20.5t-1 22.5
q-2 21 -7.5 40t-18.5 30q-10 10 -25.5 13.5t-31.5 4.5h-11.5h-10.5h-32h-12.5t-13.5 -1q-15 -1 -28.5 -4t-22.5 -11q-10 -8 -15.5 -19t-8.5 -22q-1 -3 -1.5 -6t-1.5 -6q-1 -10 -2 -19.5t-1 -18.5q-1 -10 -1 -19.5v-19.5v0zM251 619v-79h-101v79h101v0zM460 619v-79h-101v79
h101v0z" />
    <glyph glyph-name="divide" unicode="&#xf7;" horiz-adv-x="575" 
d="M288 222q22 0 38.5 -14.5t16.5 -34.5t-16.5 -34.5t-38.5 -14.5q-24 0 -40.5 14.5t-16.5 34.5t16.5 34.5t40.5 14.5v0zM17 381h540v-60h-540v60v0zM288 577q23 0 39.5 -14.5t16.5 -34.5q0 -19 -17 -34t-39 -15q-24 0 -40.5 15t-16.5 34q0 20 16.5 34.5t40.5 14.5v0z" />
    <glyph glyph-name="oslash" unicode="&#xf8;" horiz-adv-x="592" 
d="M592 480v-72l-51 -38q5 -15 7.5 -30.5t2.5 -31.5q1 -8 1 -15.5v-15.5v-48t-1 -47q-6 -121 -66 -154t-188 -33q-16 0 -33.5 0.5t-34.5 1.5q-39 3 -76 13t-62 36l-91 -64v70l60 43q-7 18 -10 38t-3 40q-1 9 -1 17.5v17.5q0 148 40.5 206.5t221.5 58.5q15 0 30.5 -0.5
t31.5 -1.5q40 -2 77.5 -12.5t63.5 -37.5l81 59v0zM192 114q9 -20 30 -26.5t44 -8.5h11h11h11q92 0 107.5 36.5t15.5 113.5v61l-230 -176v0zM409 351q-7 20 -28 27.5t-44 8.5q-7 1 -14 1h-14h-11q-46 0 -78 -10t-39 -57q-2 -14 -3.5 -28t-1.5 -28q-1 -15 -1 -29v-28v-16.5
t1 -16.5l233 176v0z" />
    <glyph glyph-name="ugrave" unicode="&#xf9;" horiz-adv-x="606" 
d="M543 466v-466h-122l2 76h-4q-26 -50 -68 -66t-104 -16q-93 0 -138 39t-45 120v313h129v-288q0 -50 15.5 -73.5t80.5 -23.5q82 0 104 31.5t22 94.5v259h128v0zM237 660l180 -103l-28 -46l-198 76l46 73v0z" />
    <glyph glyph-name="uacute" unicode="&#xfa;" horiz-adv-x="606" 
d="M543 466v-466h-122l2 76h-4q-26 -50 -68 -66t-104 -16q-93 0 -138 39t-45 120v313h129v-288q0 -50 15.5 -73.5t80.5 -23.5q82 0 104 31.5t22 94.5v259h128v0zM371 660l46 -73l-199 -76l-27 46l180 103v0z" />
    <glyph glyph-name="ucircumflex" unicode="&#xfb;" horiz-adv-x="606" 
d="M543 466v-466h-122l2 76h-4q-26 -50 -68 -66t-104 -16q-93 0 -138 39t-45 120v313h129v-288q0 -50 15.5 -73.5t80.5 -23.5q82 0 104 31.5t22 94.5v259h128v0zM304 659l181 -96l-25 -44l-156 56l-158 -56l-24 44l182 96v0z" />
    <glyph glyph-name="udieresis" unicode="&#xfc;" horiz-adv-x="606" 
d="M543 466v-466h-122l2 76h-4q-26 -50 -68 -66t-104 -16q-93 0 -138 39t-45 120v313h129v-288q0 -50 15.5 -73.5t80.5 -23.5q82 0 104 31.5t22 94.5v259h128v0zM250 618v-79h-102v79h102v0zM459 618v-79h-101v79h101v0z" />
    <glyph glyph-name="yacute" unicode="&#xfd;" 
 />
    <glyph glyph-name="thorn" unicode="&#xfe;" horiz-adv-x="656" 
d="M191 667v-281q32 50 77 78.5t113 28.5q122 0 180.5 -78t58.5 -173v-5.5v-5.5q-3 -93 -59.5 -169.5t-178.5 -76.5q-58 0 -109.5 26.5t-77.5 72.5v-245h-126v828h122v0zM344 403q-74 0 -110.5 -47.5t-40.5 -104.5v-6.5v-6.5v-8v-8q4 -58 38 -106t112 -48q81 0 115 51.5
t35 112.5v3.5v2.5v6.5v6.5q-4 57 -40 104.5t-109 47.5v0z" />
    <glyph glyph-name="ydieresis" unicode="&#xff;" horiz-adv-x="496" 
d="M501 467l-142 -496q-22 -78 -59.5 -128t-145.5 -50h-13h-13q-7 1 -14 1.5t-13 1.5v80q3 0 7 -0.5t8 -0.5q3 -1 7 -1h7q48 0 68 30t29 67q2 7 3.5 15t2.5 14h-62l-177 467h134l137 -397l104 397h132v0zM193 619v-79h-101v79h101v0zM402 619v-79h-101v79h101v0z" />
    <glyph glyph-name="Abreve" unicode="&#x102;" 
 />
    <glyph glyph-name="abreve" unicode="&#x103;" 
 />
    <glyph glyph-name="Aogonek" unicode="&#x104;" 
 />
    <glyph glyph-name="aogonek" unicode="&#x105;" 
 />
    <glyph glyph-name="Cacute" unicode="&#x106;" 
 />
    <glyph glyph-name="cacute" unicode="&#x107;" 
 />
    <glyph glyph-name="Ccaron" unicode="&#x10c;" 
 />
    <glyph glyph-name="ccaron" unicode="&#x10d;" 
 />
    <glyph glyph-name="Dcaron" unicode="&#x10e;" 
 />
    <glyph glyph-name="dcaron" unicode="&#x10f;" 
 />
    <glyph glyph-name="Dslash" unicode="&#x110;" 
 />
    <glyph glyph-name="dslash" unicode="&#x111;" 
 />
    <glyph glyph-name="Eogonek" unicode="&#x118;" 
 />
    <glyph glyph-name="eogonek" unicode="&#x119;" 
 />
    <glyph glyph-name="Ecaron" unicode="&#x11a;" 
 />
    <glyph glyph-name="ecaron" unicode="&#x11b;" 
 />
    <glyph glyph-name="Gbreve" unicode="&#x11e;" 
 />
    <glyph glyph-name="gbreve" unicode="&#x11f;" 
 />
    <glyph glyph-name="Idot" unicode="&#x130;" 
 />
    <glyph glyph-name="dotlessi" unicode="&#x131;" horiz-adv-x="241" 
d="M184 467v-467h-128v467h128v0z" />
    <glyph glyph-name="Lacute" unicode="&#x139;" 
 />
    <glyph glyph-name="lacute" unicode="&#x13a;" 
 />
    <glyph glyph-name="Lcaron" unicode="&#x13d;" 
 />
    <glyph glyph-name="lcaron" unicode="&#x13e;" 
 />
    <glyph glyph-name="Ldot" unicode="&#x13f;" 
 />
    <glyph glyph-name="ldot" unicode="&#x140;" 
 />
    <glyph glyph-name="Lslash" unicode="&#x141;" horiz-adv-x="578" 
d="M217 361v-249h356v-112h-505v255l-82 -67v102l82 66v311h149v-207l162 132v-99l-162 -132v0z" />
    <glyph glyph-name="lslash" unicode="&#x142;" horiz-adv-x="278" 
d="M205 376v-376h-131v283l-74 -60v77l74 61v306h131v-213l73 60v-79l-73 -59v0z" />
    <glyph glyph-name="Nacute" unicode="&#x143;" 
 />
    <glyph glyph-name="nacute" unicode="&#x144;" 
 />
    <glyph glyph-name="Ncaron" unicode="&#x147;" 
 />
    <glyph glyph-name="ncaron" unicode="&#x148;" 
 />
    <glyph glyph-name="Odblacute" unicode="&#x150;" 
 />
    <glyph glyph-name="odblacute" unicode="&#x151;" 
 />
    <glyph glyph-name="OE" unicode="&#x152;" horiz-adv-x="1129" 
d="M722 557v-171h354v-93h-354v-187h377v-105h-515l1 70q-44 -53 -96 -64t-126 -11q-176 0 -246 54t-70 212v34v34q-1 17 -1 34v34q0 150 64.5 211t237.5 61q71 0 134 -10t103 -69l-1 74h512v-108h-374v0zM194 246q0 -103 41.5 -124t148.5 -21q108 0 150 21.5t43 122.5
q0 15 0.5 29.5t0.5 29.5v14.5v14.5q0 22 0.5 44t1.5 44q-2 105 -48.5 122.5t-154.5 17.5h-42q-86 0 -113 -32.5t-27 -109.5q0 -22 -0.5 -43.5t-0.5 -42.5v-43.5v-43.5v0z" />
    <glyph glyph-name="oe" unicode="&#x153;" horiz-adv-x="951" 
d="M911 218h-361q0 -74 16 -107.5t111 -33.5q56 0 80 12t30 60h124q0 -102 -58 -127.5t-166 -25.5h-22t-22 1q-47 2 -90 14t-67 51q-31 -46 -72.5 -56.5t-99.5 -10.5q-141 0 -203 40t-62 171q0 143 40.5 205t218.5 62h5.5h4.5q51 0 97.5 -9.5t70.5 -55.5q30 47 80.5 56.5
t105.5 9.5q140 0 189.5 -48t49.5 -167v-41v0zM181 242v-37q0 -63 16.5 -95t99.5 -32q82 0 104.5 26.5t22.5 92.5v67q0 57 -13.5 89.5t-90.5 32.5h-34h-13t-14 -1q-17 -1 -33 -5.5t-26 -15.5q-6 -7 -9.5 -16.5t-5.5 -19.5q0 -3 -0.5 -6.5t-0.5 -6.5l-2 -36t-1 -37v0zM788 288
q-4 63 -22.5 84t-97.5 21q-74 0 -95.5 -22t-23.5 -83h239v0z" />
    <glyph glyph-name="Racute" unicode="&#x154;" 
 />
    <glyph glyph-name="racute" unicode="&#x155;" 
 />
    <glyph glyph-name="Rcaron" unicode="&#x158;" 
 />
    <glyph glyph-name="rcaron" unicode="&#x159;" 
 />
    <glyph glyph-name="Sacute" unicode="&#x15a;" 
 />
    <glyph glyph-name="sacute" unicode="&#x15b;" 
 />
    <glyph glyph-name="Scedilla" unicode="&#x15e;" 
 />
    <glyph glyph-name="scedilla" unicode="&#x15f;" 
 />
    <glyph glyph-name="Scaron" unicode="&#x160;" horiz-adv-x="688" 
d="M636 472h-140q0 59 -28 79t-95 20h-41h-23.5t-24.5 -1q-19 -2 -36.5 -5t-30.5 -10q-14 -8 -21 -21t-9 -28q-1 -6 -1.5 -11.5t-0.5 -10.5q0 -50 22 -68.5t83 -21.5q6 0 11.5 -0.5t10.5 -0.5q15 -1 29 -1.5t29 -0.5q112 -3 198 -27.5t86 -157.5q0 -85 -30.5 -139.5
t-143.5 -64.5q-24 -2 -48 -2.5t-48 -1.5h-24h-24q-132 0 -215.5 25.5t-83.5 163.5v6.5t1 6.5v6.5v6.5h139q0 -46 14.5 -79t78.5 -34q28 -1 55.5 -1h55.5q68 0 99 17.5t31 78.5q0 65 -39.5 77t-99.5 14h-5.5h-5.5h-19.5t-19.5 1q-6 0 -12 0.5t-12 1.5q-122 7 -190.5 35.5
t-68.5 160.5q0 84 41.5 129t141.5 52q30 2 60 3t61 1q118 0 205.5 -22t87.5 -150v-26v0zM344 703l-182 96l24 44l158 -55l156 55l26 -44l-182 -96v0z" />
    <glyph glyph-name="scaron" unicode="&#x161;" horiz-adv-x="569" 
d="M511 340h-123q0 33 -22.5 45.5t-57.5 12.5h-14h-14q-7 -1 -14 -1h-14q-33 0 -59 -7.5t-26 -44.5t16 -47.5t56 -12.5q13 -1 26 -1h27q5 -1 10.5 -1h10.5q82 -2 150 -22t68 -113q0 -103 -68 -128.5t-171 -25.5h-28t-28 1q-74 2 -135.5 24.5t-61.5 102.5v25h130
q0 -46 21 -61t72 -15h39q49 0 76.5 9.5t27.5 56.5q0 36 -19.5 45.5t-56.5 10.5h-24t-24 1q-94 0 -166 19.5t-72 125.5q0 96 71.5 116t159.5 20h36t38 -2q62 -3 113 -25t51 -88v-5.5v-4.5t-0.5 -4.5t-0.5 -5.5v0zM285 520l-182 96l25 44l157 -55l157 55l25 -44l-182 -96v0z
" />
    <glyph glyph-name="Tcedilla" unicode="&#x162;" 
 />
    <glyph glyph-name="tcedilla" unicode="&#x163;" 
 />
    <glyph glyph-name="Tcaron" unicode="&#x164;" 
 />
    <glyph glyph-name="tcaron" unicode="&#x165;" 
 />
    <glyph glyph-name="Uring" unicode="&#x16e;" 
 />
    <glyph glyph-name="uring" unicode="&#x16f;" 
 />
    <glyph glyph-name="udblacute" unicode="&#x170;" 
 />
    <glyph glyph-name="Udblacute" unicode="&#x171;" 
 />
    <glyph glyph-name="Ydieresis" unicode="&#x178;" horiz-adv-x="684" 
d="M696 667l-284 -411v-256h-147v256l-277 411h167l185 -285l186 285h170v0zM288 817v-79h-102v79h102v0zM497 817v-79h-101v79h101v0z" />
    <glyph glyph-name="Zacute" unicode="&#x179;" 
 />
    <glyph glyph-name="zacute" unicode="&#x17a;" 
 />
    <glyph glyph-name="Zdot" unicode="&#x17b;" 
 />
    <glyph glyph-name="zdot" unicode="&#x17c;" 
 />
    <glyph glyph-name="Zcaron" unicode="&#x17d;" horiz-adv-x="662" 
d="M633 667v-110l-425 -447l429 -2v-108h-612v108l421 448l-402 1v110h589v0zM331 702l-181 96l24 44l157 -55l157 55l25 -44l-182 -96v0z" />
    <glyph glyph-name="zcaron" unicode="&#x17e;" horiz-adv-x="485" 
d="M46 467h416v-93l-291 -291h291v-83h-439v96l286 289h-263v82v0zM243 519l-182 96l24 44l158 -55l156 55l25 -44l-181 -96v0z" />
    <glyph glyph-name="florin" unicode="&#x192;" horiz-adv-x="721" 
d="M454 417l-81 -402q-16 -94 -63 -124.5t-157 -30.5h-18.5h-18.5t-18.5 0.5t-18.5 0.5l18 84q3 1 5.5 0.5t5.5 -0.5q2 0 3.5 -0.5t2.5 -0.5q4 0 8.5 -0.5t8.5 -0.5q55 0 76 13.5t31 58.5l82 402h-92l17 83h91q3 15 5.5 28.5t5.5 26.5q19 92 57.5 139t175.5 47h15.5h15.5
q7 0 15 -0.5t15 -0.5l-18 -86q-3 0 -6 0.5t-6 0.5q-7 1 -13 1.5t-13 0.5q-64 0 -81 -31.5t-25 -78.5q-1 -12 -3 -23.5t-5 -23.5h121l-17 -83h-121v0z" />
    <glyph glyph-name="hungarumlaut" unicode="&#x2ba;" horiz-adv-x="575" 
d="M218 676l73 -56l-156 -130l-45 35l128 151v0zM414 676l71 -56l-156 -130l-44 35l129 151v0z" />
    <glyph glyph-name="tilde" unicode="&#x2c6;" horiz-adv-x="575" 
d="M422 626l63 -31q-19 -30 -47.5 -53.5t-70.5 -23.5q-23 0 -43 7.5t-39 17.5q-4 1 -7.5 3t-7.5 4q-15 7 -30 12t-32 5q-18 0 -29.5 -10.5t-20.5 -22.5q-1 -1 -1.5 -2.5t-1.5 -2.5l-65 31l1.5 1.5t0.5 1.5q19 26 44 48.5t64 24.5q23 0 43 -8t40 -17q19 -9 39 -17t43 -8
q18 0 31 11t23 24q0 1 1 2.5t2 2.5v0z" />
    <glyph glyph-name="caron" unicode="&#x2c7;" horiz-adv-x="575" 
d="M288 519l-182 96l24 44l158 -55l156 55l25 -44l-181 -96v0z" />
    <glyph glyph-name="macron" unicode="&#x2c9;" horiz-adv-x="575" 
d="M146 612h283v-67h-283v67v0z" />
    <glyph glyph-name="breve" unicode="&#x2d8;" horiz-adv-x="575" 
d="M114 648h68q8 -34 36.5 -55.5t69.5 -21.5t69 21.5t36 55.5h68q-11 -58 -56.5 -100.5t-116.5 -42.5q-72 0 -118.5 42.5t-55.5 100.5v0z" />
    <glyph glyph-name="dotaccent" unicode="&#x2d9;" horiz-adv-x="575" 
d="M338 618v-79h-101v79h101v0z" />
    <glyph glyph-name="ring" unicode="&#x2da;" horiz-adv-x="575" 
d="M289 502q-39 0 -67 24t-28 58q0 33 28 57t67 24q38 0 65.5 -24t27.5 -57q0 -34 -27.5 -58t-65.5 -24v0zM289 542q19 0 33 12.5t14 29.5t-14 29t-33 12q-20 0 -34.5 -12t-14.5 -29t14.5 -29.5t34.5 -12.5v0z" />
    <glyph glyph-name="ogonek" unicode="&#x2db;" horiz-adv-x="575" 
d="M283 0h88q-8 -3 -19 -8t-22 -12q-22 -12 -39.5 -27.5t-17.5 -34.5q0 -16 13.5 -23.5t30.5 -9.5h3.5h3.5q12 0 23.5 3t22.5 8v-59q-7 -1 -14.5 -3t-14.5 -3q-7 -2 -14.5 -2.5t-14.5 -0.5h-1.5h-1.5q-39 1 -71.5 21.5t-32.5 57.5q0 33 23.5 56t54.5 37v0z" />
    <glyph glyph-name="circumflex" unicode="&#x2dc;" horiz-adv-x="575" 
d="M288 659l181 -96l-25 -44l-156 56l-158 -56l-24 44l182 96v0z" />
    <glyph glyph-name="Gamma" unicode="&#x393;" horiz-adv-x="500" 
 />
    <glyph glyph-name="Theta" unicode="&#x398;" horiz-adv-x="500" 
 />
    <glyph glyph-name="summation" unicode="&#x3a3;" horiz-adv-x="500" 
 />
    <glyph glyph-name="Phi" unicode="&#x3a6;" horiz-adv-x="500" 
 />
    <glyph glyph-name="Omega" unicode="&#x3a9;" horiz-adv-x="500" 
 />
    <glyph glyph-name="alpha" unicode="&#x3b1;" horiz-adv-x="500" 
 />
    <glyph glyph-name="delta" unicode="&#x3b4;" horiz-adv-x="500" 
 />
    <glyph glyph-name="epsilon" unicode="&#x3b5;" horiz-adv-x="500" 
 />
    <glyph glyph-name="pi" unicode="&#x3c0;" horiz-adv-x="500" 
 />
    <glyph glyph-name="sigma" unicode="&#x3c3;" 
 />
    <glyph glyph-name="tau" unicode="&#x3c4;" horiz-adv-x="500" 
 />
    <glyph glyph-name="phi" unicode="&#x3c6;" 
 />
    <glyph glyph-name="glyph276" unicode="&#x2013;" horiz-adv-x="721" 
d="M66 303h588v-114h-588v114v0z" />
    <glyph glyph-name="emdash" unicode="&#x2014;" horiz-adv-x="790" 
d="M0 303h790v-114h-790v114v0z" />
    <glyph glyph-name="underscoredbl" unicode="&#x2017;" horiz-adv-x="500" 
 />
    <glyph glyph-name="quoteleft" unicode="&#x2018;" horiz-adv-x="238" 
d="M47 447v116q0 64 23.5 90.5t102.5 26.5h3.5h3.5q1 -1 3 -1h3v-52q-30 -1 -46 -10t-16 -36v-3.5t1 -3.5v-3.5v-3.5h51v-120h-129v0z" />
    <glyph glyph-name="quoteright" unicode="&#x2019;" horiz-adv-x="238" 
d="M191 667v-117q0 -63 -23 -89.5t-102 -26.5h-7.5t-6.5 1v52q30 1 46 9.5t16 36.5v3.5v3.5q-1 2 -1 3.5v3.5h-51v120h129v0z" />
    <glyph glyph-name="quotesinglbase" unicode="&#x201a;" horiz-adv-x="258" 
d="M191 120v-117q0 -62 -23 -88.5t-102 -26.5h-7.5t-6.5 1v51q30 2 46 10.5t16 36.5v3.5v3.5q-1 2 -1 3.5v2.5h-51v120h129v0z" />
    <glyph glyph-name="quotedblleft" unicode="&#x201c;" horiz-adv-x="434" 
d="M47 447v116q0 64 23.5 90.5t102.5 26.5h3.5h3.5q1 -1 3 -1h3v-52q-30 -1 -46 -10t-16 -36v-3.5t1 -3.5v-3.5v-3.5h51v-120h-129v0zM243 447v116q0 64 23 90.5t102 26.5h3.5h3.5q2 -1 3.5 -1h3.5v-52q-30 -1 -46 -10t-16 -36v-3.5t1 -3.5v-3.5v-3.5h50v-120h-128v0z" />
    <glyph glyph-name="quotedblright" unicode="&#x201d;" horiz-adv-x="434" 
d="M191 667v-117q0 -63 -23 -89.5t-102 -26.5h-7.5t-6.5 1v52q30 1 46 9.5t16 36.5v3.5v3.5q-1 2 -1 3.5v3.5h-51v120h129v0zM386 667v-117q0 -63 -22.5 -89.5t-102.5 -26.5h-3.5h-3.5t-3.5 0.5t-3.5 0.5v52q31 1 46.5 9.5t15.5 36.5v3.5v3.5q-1 2 -1 3.5v3.5h-50v120h128v0
z" />
    <glyph glyph-name="quotedblbase" unicode="&#x201e;" horiz-adv-x="434" 
d="M191 120v-117q0 -62 -23 -88.5t-102 -26.5h-7.5t-6.5 1v51q30 2 46 10.5t16 36.5v3.5v3.5q-1 2 -1 3.5v2.5h-51v120h129v0zM386 120v-117q0 -62 -22.5 -88.5t-102.5 -26.5h-3.5h-3.5t-3.5 0.5t-3.5 0.5v51q31 2 46.5 10.5t15.5 36.5v3.5v3.5q-1 2 -1 3.5v2.5h-50v120h128
v0z" />
    <glyph glyph-name="dagger" unicode="&#x2020;" horiz-adv-x="721" 
d="M429 667v-197h197v-95h-197v-575h-138v575h-197v95h197v197h138v0z" />
    <glyph glyph-name="daggerdbl" unicode="&#x2021;" horiz-adv-x="721" 
d="M429 667v-210h197v-95h-197v-247h197v-95h-197v-220h-138v220h-197v95h197v247h-197v95h197v210h138v0z" />
    <glyph glyph-name="glyph287" unicode="&#x2022;" horiz-adv-x="690" 
d="M228 286q0 40 32 68t78 28q47 0 80 -28t33 -68t-33 -68t-80 -28q-46 0 -78 28t-32 68v0z" />
    <glyph glyph-name="ellipsis" unicode="&#x2026;" horiz-adv-x="729" 
d="M185 122v-122h-128v122h128v0zM429 122v-122h-129v122h129v0zM672 122v-122h-128v122h128v0z" />
    <glyph glyph-name="perthousand" unicode="&#x2030;" horiz-adv-x="1321" 
d="M578 174q0 80 24.5 120.5t124.5 40.5q92 0 135.5 -20.5t43.5 -108.5v-72q0 -15 -0.5 -30t-3.5 -29q-14 -52 -57 -64t-98 -12q-83 0 -126.5 23t-43.5 108v11.5t1 10.5v11.5v10.5v0zM654 171l2 -54q0 -46 20 -54t62 -8q50 0 71 9.5t21 53.5v98q0 47 -20.5 55.5t-67.5 8.5
h-24q-14 0 -27.5 -2t-22.5 -11q-4 -5 -7 -12t-4 -14q0 -3 -0.5 -6.5t-0.5 -6.5q-1 -14 -1.5 -28.5t-0.5 -28.5v0zM974 174q0 83 25 122t123 39q94 0 137 -21.5t43 -107.5v-72q0 -15 -0.5 -30t-4.5 -29q-13 -52 -55.5 -64t-98.5 -12l-22 -1q-78 1 -113 28t-35 104v11.5
t1 10.5v11.5v10.5v0zM1050 171v-54q1 -46 21.5 -54t62.5 -8h6q47 0 66.5 9t19.5 54v98q0 47 -21 55.5t-68 8.5h-24q-30 0 -46 -9.5t-16 -42.5q-1 -14 -1 -28.5v-28.5v0zM754 667l-486 -667h-79l485 667h80v0zM37 508q0 79 24 120t124 41h16q87 0 125.5 -22.5t38.5 -112.5
v-63q0 -68 -25 -103.5t-118 -35.5q-89 0 -137.5 22t-48.5 109v11.5t1 11.5v10.5v11.5v0zM113 504v-54q1 -46 20.5 -54t61.5 -8q50 0 71.5 9.5t21.5 53.5v24.5t1 24.5v24.5v24.5q0 48 -21 56t-68 8h-24h-5.5h-5.5q-11 -1 -21.5 -3.5t-17.5 -9.5q-5 -5 -7.5 -12t-3.5 -14
q-1 -3 -1.5 -6.5t-0.5 -6.5v-57v0z" />
    <glyph glyph-name="guilsinglleft" unicode="&#x2039;" horiz-adv-x="332" 
d="M187 486l87 -43l-108 -192l115 -187l-82 -46l-146 233l134 235v0z" />
    <glyph glyph-name="guilsinglright" unicode="&#x203a;" horiz-adv-x="332" 
d="M146 486l135 -235l-146 -233l-82 46l116 187l-109 192l86 43v0z" />
    <glyph glyph-name="exclamdbl" unicode="&#x203c;" horiz-adv-x="500" 
 />
    <glyph glyph-name="nsuperior" unicode="&#x207f;" horiz-adv-x="500" 
 />
    <glyph glyph-name="franc" unicode="&#x20a3;" horiz-adv-x="500" 
 />
    <glyph glyph-name="peseta" unicode="&#x20a7;" horiz-adv-x="500" 
 />
    <glyph glyph-name="trademark" unicode="&#x2122;" horiz-adv-x="1050" 
d="M245 594v-327h-100v327h-138v73h378v-73h-140v0zM1004 667v-400h-99l3 314l-142 -314h-89l-143 312l4 -312h-99v400h156l128 -292h-4l127 292h158v0z" />
    <glyph glyph-name="arrowleft" unicode="&#x2190;" 
 />
    <glyph glyph-name="arrowup" unicode="&#x2191;" 
 />
    <glyph glyph-name="arrowright" unicode="&#x2192;" horiz-adv-x="500" 
 />
    <glyph glyph-name="arrowdown" unicode="&#x2193;" 
 />
    <glyph glyph-name="arrowboth" unicode="&#x2194;" 
 />
    <glyph glyph-name="arrowupdn" unicode="&#x2195;" 
 />
    <glyph glyph-name="arrowupdnbase" unicode="&#x21a8;" 
 />
    <glyph glyph-name="partialdiff" unicode="&#x2202;" horiz-adv-x="500" 
 />
    <glyph glyph-name="Delta" unicode="&#x2206;" horiz-adv-x="500" 
 />
    <glyph glyph-name="product" unicode="&#x220f;" 
 />
    <glyph glyph-name="minus" unicode="&#x2212;" horiz-adv-x="575" 
d="M17 380h540v-59h-540v59v0z" />
    <glyph glyph-name="fraction" unicode="&#x2215;" horiz-adv-x="576" 
d="M576 667l-485 -667h-91l485 667h91v0z" />
    <glyph glyph-name="periodcentered" unicode="&#x2219;" horiz-adv-x="721" 
d="M424 404v-122h-127v122h127v0z" />
    <glyph glyph-name="radical" unicode="&#x221a;" horiz-adv-x="500" 
 />
    <glyph glyph-name="infinity" unicode="&#x221e;" 
 />
    <glyph glyph-name="orthogonal" unicode="&#x221f;" 
 />
    <glyph glyph-name="intersection" unicode="&#x2229;" 
 />
    <glyph glyph-name="integral" unicode="&#x222b;" 
 />
    <glyph glyph-name="approxequal" unicode="&#x2248;" horiz-adv-x="500" 
 />
    <glyph glyph-name="notequal" unicode="&#x2260;" horiz-adv-x="500" 
 />
    <glyph glyph-name="equivalence" unicode="&#x2261;" 
 />
    <glyph glyph-name="lessequal" unicode="&#x2264;" horiz-adv-x="500" 
 />
    <glyph glyph-name="greaterequal" unicode="&#x2265;" horiz-adv-x="500" 
 />
    <glyph glyph-name="house" unicode="&#x2302;" 
 />
    <glyph glyph-name="revlogicalnot" unicode="&#x2310;" 
 />
    <glyph glyph-name="integraltp" unicode="&#x2320;" 
 />
    <glyph glyph-name="integralbt" unicode="&#x2321;" 
 />
    <glyph glyph-name="2500" unicode="&#x2500;" 
 />
    <glyph glyph-name="2502" unicode="&#x2502;" 
 />
    <glyph glyph-name="250c" unicode="&#x250c;" 
 />
    <glyph glyph-name="2510" unicode="&#x2510;" 
 />
    <glyph glyph-name="2514" unicode="&#x2514;" 
 />
    <glyph glyph-name="2518" unicode="&#x2518;" 
 />
    <glyph glyph-name="251c" unicode="&#x251c;" 
 />
    <glyph glyph-name="2524" unicode="&#x2524;" 
 />
    <glyph glyph-name="252c" unicode="&#x252c;" 
 />
    <glyph glyph-name="2534" unicode="&#x2534;" 
 />
    <glyph glyph-name="253c" unicode="&#x253c;" 
 />
    <glyph glyph-name="2550" unicode="&#x2550;" 
 />
    <glyph glyph-name="2551" unicode="&#x2551;" 
 />
    <glyph glyph-name="2552" unicode="&#x2552;" 
 />
    <glyph glyph-name="2553" unicode="&#x2553;" 
 />
    <glyph glyph-name="2554" unicode="&#x2554;" 
 />
    <glyph glyph-name="2555" unicode="&#x2555;" 
 />
    <glyph glyph-name="2556" unicode="&#x2556;" 
 />
    <glyph glyph-name="2557" unicode="&#x2557;" 
 />
    <glyph glyph-name="2558" unicode="&#x2558;" 
 />
    <glyph glyph-name="2559" unicode="&#x2559;" 
 />
    <glyph glyph-name="255a" unicode="&#x255a;" 
 />
    <glyph glyph-name="255b" unicode="&#x255b;" 
 />
    <glyph glyph-name="255c" unicode="&#x255c;" 
 />
    <glyph glyph-name="255d" unicode="&#x255d;" 
 />
    <glyph glyph-name="255e" unicode="&#x255e;" 
 />
    <glyph glyph-name="255f" unicode="&#x255f;" 
 />
    <glyph glyph-name="2560" unicode="&#x2560;" 
 />
    <glyph glyph-name="2561" unicode="&#x2561;" 
 />
    <glyph glyph-name="2562" unicode="&#x2562;" 
 />
    <glyph glyph-name="2563" unicode="&#x2563;" 
 />
    <glyph glyph-name="2564" unicode="&#x2564;" 
 />
    <glyph glyph-name="2565" unicode="&#x2565;" 
 />
    <glyph glyph-name="2566" unicode="&#x2566;" 
 />
    <glyph glyph-name="2567" unicode="&#x2567;" 
 />
    <glyph glyph-name="2568" unicode="&#x2568;" 
 />
    <glyph glyph-name="2569" unicode="&#x2569;" 
 />
    <glyph glyph-name="256a" unicode="&#x256a;" 
 />
    <glyph glyph-name="256b" unicode="&#x256b;" 
 />
    <glyph glyph-name="256c" unicode="&#x256c;" 
 />
    <glyph glyph-name="upblock" unicode="&#x2580;" 
 />
    <glyph glyph-name="dnblock" unicode="&#x2584;" 
 />
    <glyph glyph-name="block" unicode="&#x2588;" 
 />
    <glyph glyph-name="lfblock" unicode="&#x258c;" 
 />
    <glyph glyph-name="rtblock" unicode="&#x2590;" 
 />
    <glyph glyph-name="ltshade" unicode="&#x2591;" 
 />
    <glyph glyph-name="shade" unicode="&#x2592;" 
 />
    <glyph glyph-name="dkshade" unicode="&#x2593;" 
 />
    <glyph glyph-name="filledbox" unicode="&#x25a0;" horiz-adv-x="500" 
 />
    <glyph glyph-name="filledrect" unicode="&#x25ac;" 
 />
    <glyph glyph-name="triagup" unicode="&#x25b2;" 
 />
    <glyph glyph-name="triagrt" unicode="&#x25ba;" 
 />
    <glyph glyph-name="triagdn" unicode="&#x25bc;" 
 />
    <glyph glyph-name="triaglf" unicode="&#x25c4;" 
 />
    <glyph glyph-name="lozenge" unicode="&#x25ca;" horiz-adv-x="500" 
 />
    <glyph glyph-name="circle" unicode="&#x25cb;" 
 />
    <glyph glyph-name="invbullet" unicode="&#x25d8;" 
 />
    <glyph glyph-name="invcircle" unicode="&#x25d9;" 
 />
    <glyph glyph-name="smileface" unicode="&#x263a;" 
 />
    <glyph glyph-name="invsmileface" unicode="&#x263b;" 
 />
    <glyph glyph-name="sun" unicode="&#x263c;" 
 />
    <glyph glyph-name="female" unicode="&#x2640;" 
 />
    <glyph glyph-name="male" unicode="&#x2642;" 
 />
    <glyph glyph-name="spade" unicode="&#x2660;" 
 />
    <glyph glyph-name="club" unicode="&#x2663;" 
 />
    <glyph glyph-name="heart" unicode="&#x2665;" 
 />
    <glyph glyph-name="diamond" unicode="&#x2666;" 
 />
    <glyph glyph-name="musicalnote" unicode="&#x266a;" 
 />
    <glyph glyph-name="musicalnotedbl" unicode="&#x266b;" 
 />
    <glyph glyph-name="apple" unicode="&#xf000;" 
 />
    <glyph glyph-name="fi" unicode="&#xf001;" horiz-adv-x="597" 
d="M350 467v-83h-132v-384h-128v384h-76v83h76v51q0 10 0.5 21t1.5 22q2 17 7 33.5t16 28.5q21 24 55 34.5t70 13.5q22 2 43 2.5t39 0.5h6h6q3 -1 6 -1h6v-85q-9 2 -18.5 2.5t-19.5 0.5h-10t-10 -1q-44 -3 -57 -19.5t-13 -52.5v-51h132v0zM541 467v-467h-129v467h129v0z
M541 667v-97h-129v97h129v0z" />
    <glyph glyph-name="fl" unicode="&#xf002;" horiz-adv-x="613" 
d="M350 467v-83h-132v-384h-128v384h-76v83h76v51q0 10 0.5 21t1.5 22q2 17 7 33.5t16 28.5q21 24 55 34.5t70 13.5q22 2 43 2.5t39 0.5h6h6q3 -1 6 -1h6v-85q-9 2 -18.5 2.5t-19.5 0.5h-10t-10 -1q-44 -3 -57 -19.5t-13 -52.5v-51h132v0zM550 667v-667h-130v667h130v0z" />
    <glyph glyph-name="degree" horiz-adv-x="575" 
d="M461 516q0 -62 -51.5 -106t-121.5 -44q-67 0 -120 43.5t-53 102.5q0 64 49 110t125 46q71 0 121.5 -45t50.5 -107v0zM404 516q0 41 -34.5 71.5t-81.5 30.5q-49 0 -81.5 -31.5t-32.5 -72.5q0 -39 34 -69t78 -30q48 0 83 30t35 71v0z" />
    <glyph glyph-name="bullet" horiz-adv-x="690" 
d="M228 286q0 40 32 68t78 28q47 0 80 -28t33 -68t-33 -68t-80 -28q-46 0 -78 28t-32 68v0z" />
    <glyph glyph-name="endash" horiz-adv-x="721" 
d="M66 303h588v-114h-588v114v0z" />
    </font>
</defs>
</svg>
