<?xml version="1.0" standalone="no"?>
<!DOCTYPE svg PUBLIC "-//W3C//DTD SVG 1.1//EN" "http://www.w3.org/Graphics/SVG/1.1/DTD/svg11.dtd" >
<svg xmlns="http://www.w3.org/2000/svg" xmlns:xlink="http://www.w3.org/1999/xlink" version="1.1">
<metadata>
Created by FontForge 20201107 at Sun Feb 26 19:23:41 1995
 By 
URW Software, Copyright 1995 by URW
</metadata>
<defs>
<font id="EurostileT-Bold" horiz-adv-x="1024" >
  <font-face 
    font-family="EurostileT"
    font-weight="700"
    font-stretch="normal"
    units-per-em="2048"
    panose-1="0 0 0 0 0 0 0 0 0 0"
    ascent="1581"
    descent="-467"
    x-height="956"
    cap-height="1365"
    bbox="-340 -512 2310 1809"
    underline-thickness="206"
    underline-position="-313"
    unicode-range="U+0020-F002"
  />
<missing-glyph horiz-adv-x="512" 
d="M51 0v1365h410v-1365h-410zM410 51v1263h-308v-1263h308z" />
    <glyph glyph-name=".notdef" horiz-adv-x="512" 
d="M51 0v1365h410v-1365h-410zM410 51v1263h-308v-1263h308z" />
    <glyph glyph-name="glyph1" horiz-adv-x="0" 
 />
    <glyph glyph-name="glyph2" horiz-adv-x="512" 
 />
    <glyph glyph-name="space" unicode=" " horiz-adv-x="512" 
 />
    <glyph glyph-name="exclam" unicode="!" horiz-adv-x="563" 
d="M386 249v-249h-227v249h227zM399 1365l-19 -909h-220l-16 909h255z" />
    <glyph glyph-name="quotedbl" unicode="&#x22;" horiz-adv-x="758" 
d="M276 819h-154l-31 546h216zM637 819h-155l-30 546h216z" />
    <glyph glyph-name="numbersign" unicode="#" horiz-adv-x="1285" 
d="M1155 546l-25 -154h-222l-62 -392h-175l62 392h-273l-62 -392h-173l62 392h-222l24 154h223l43 276h-222l25 154h222l62 389h172l-61 -389h273l61 389h175l-62 -389h221l-24 -154h-221l-44 -276h223zM801 822h-273l-43 -276h272z" />
    <glyph glyph-name="dollar" unicode="$" horiz-adv-x="1285" 
d="M723 1162v-360q158 -8 220 -16.5t117 -30.5q108 -43 149 -150q29 -77 29 -190q0 -145 -42 -239q-66 -147 -309 -168q-55 -5 -164 -7v-161h-163v161q-153 2 -218.5 11t-122.5 37q-112 54 -150 172q-21 67 -21 166q0 20 1 58h243v-25q1 -104 22 -143q36 -63 156 -65
q27 -1 61 -2l29 -1v390q-239 8 -333 47q-105 44 -140 145q-24 70 -24 193q0 188 67 273q79 98 294 115q56 5 136 5v140h163v-140q219 -6 301 -37q113 -42 152 -160q21 -63 21 -163v-41h-235q-1 20 -1 26q-2 75 -19 106q-31 49 -135 52q-27 1 -84 2zM560 1163
q-130 -2 -164 -12q-53 -16 -73 -58q-16 -36 -16 -101q0 -91 30 -130q34 -43 145 -49q21 -1 42 -1q12 -1 36 -2v353zM723 209h28q139 0 190 41q52 42 52 160q0 79 -26 120q-25 40 -101 51q-41 6 -143 9v-381z" />
    <glyph glyph-name="percent" unicode="%" horiz-adv-x="1632" 
d="M354 1369q123 0 165 -16q85 -34 106 -138q8 -38 8 -161q0 -174 -9 -217q-24 -111 -111 -141q-49 -17 -167 -17q-127 0 -172 17q-92 36 -116 147q-11 55 -11 181q0 156 19 213q32 100 129 123q36 9 159 9zM331 1253q-65 0 -86 -7q-45 -14 -53 -82q-3 -23 -3 -85v-46
q1 -135 4 -162t20 -47q16 -19 56 -24q21 -3 99 -3q92 0 111 38q14 28 16 99l1 100q0 120 -2.5 144t-15.5 43q-17 25 -58 29q-29 3 -89 3zM1313 1365l-862 -1365h-131l859 1365h134zM1305 686q121 0 163 -16q85 -34 106 -138q8 -38 8 -146q0 -189 -9 -232q-25 -111 -111 -141
q-49 -17 -167 -17q-127 0 -172 17q-92 36 -115 147q-12 55 -12 180q0 156 19 214q32 99 129 123q36 9 161 9zM1281 570q-58 0 -82 -5.5t-37 -21.5q-24 -28 -24 -147q0 -183 7 -217q11 -51 61 -60q23 -5 110 -5q92 0 112 39q14 27 15 98l2 100q-1 121 -3 144.5t-15 42.5
q-17 24 -58 29q-29 3 -88 3z" />
    <glyph glyph-name="ampersand" unicode="&#x26;" horiz-adv-x="1421" 
d="M1017 658h222q0 -141 -4 -213q-5 -64 -23 -133l196 -166l-123 -149l-164 138q-43 -71 -108 -101q-70 -33 -147 -40q-73 -6 -162 -6q-267 0 -365 28q-152 43 -200 179q-31 89 -31 226q0 220 100 299q46 36 160 53q-65 57 -83 90q-29 52 -29 156q0 199 103 269
q66 46 168 56q77 8 160 8q175 0 261 -30q118 -42 154 -154q20 -60 20 -173q0 -13 -1 -64h-230v40q-1 115 -30 147q-34 36 -161 36q-75 0 -110.5 -6.5t-58.5 -25.5q-33 -27 -33 -108q0 -70 26 -107q19 -26 78 -75l415 -356q1 48 1 93t-1 89zM505 653q-64 -9 -106 -40
q-29 -22 -39 -72q-7 -40 -7 -112q0 -155 53 -198q42 -33 130 -38q49 -2 107 -2q193 0 241 25q25 13 69 63z" />
    <glyph glyph-name="quotesingle" unicode="'" horiz-adv-x="398" 
d="M276 819h-154l-31 546h216z" />
    <glyph glyph-name="parenleft" unicode="(" horiz-adv-x="634" 
d="M533 -200v-213q-106 1 -167 10q-90 15 -151.5 70t-83.5 142q-24 95 -26 208q-3 164 -3 461q0 499 13 586q23 164 112 235q72 58 214 67q30 2 92 2v-213q-115 1 -147 -51q-27 -38 -29 -134q-4 -189 -4 -492q0 -302 4 -493q1 -80 21.5 -121t65.5 -54q35 -10 89 -10z" />
    <glyph glyph-name="parenright" unicode=")" horiz-adv-x="633" 
d="M101 1155v213q106 0 167 -10q90 -14 151.5 -69.5t83.5 -141.5q24 -95 26 -208q3 -164 3 -461q0 -500 -12 -587q-24 -163 -113 -235q-72 -58 -214 -67q-30 -1 -92 -2v213q115 -1 147 52q27 38 29 133q4 193 4 493q0 298 -4 492q-1 81 -21.5 121.5t-66.5 53.5
q-34 10 -88 10z" />
    <glyph glyph-name="asterisk" unicode="*" horiz-adv-x="1283" 
d="M1010 1050l-254 -88l152 -216l-107 -81l-155 226l-168 -226l-108 81l158 217l-255 95l46 130l255 -92v269h135v-269l257 92z" />
    <glyph glyph-name="plus" unicode="+" horiz-adv-x="1285" 
d="M526 175v401h-391v213h391v401h233v-401h392v-213h-392v-401h-233z" />
    <glyph glyph-name="comma" unicode="," horiz-adv-x="458" 
d="M339 245v-237q0 -119 -25 -163q-43 -76 -174 -76q-16 0 -48 2v107q52 1 77 15q33 19 33 73q0 9 -1 34h-90v245h228z" />
    <glyph glyph-name="hyphen" unicode="-" horiz-adv-x="457" 
d="M1 639h456v-220h-456v220z" />
    <glyph glyph-name="period" unicode="." horiz-adv-x="433" 
d="M331 249v-249h-228v249h228z" />
    <glyph glyph-name="slash" unicode="/" horiz-adv-x="1243" 
d="M1116 1365l-1052 -1775h-172l1052 1775h172z" />
    <glyph glyph-name="zero" unicode="0" horiz-adv-x="1285" 
d="M655 1376q131 0 207 -10.5t131 -35.5q129 -59 172 -186q26 -77 28 -229q1 -142 1 -232q0 -272 -7 -346q-12 -117 -57.5 -188.5t-136.5 -113.5q-54 -26 -132.5 -36t-218.5 -10t-218.5 10t-132.5 36q-129 60 -172 186q-26 77 -27 229q-2 158 -2 242q0 259 7 336
q15 149 87 226q90 96 236 112q96 10 235 10zM622 1154q-133 0 -183 -21q-63 -26 -82 -110q-11 -50 -13 -340q3 -238 5.5 -284.5t16.5 -87.5q24 -73 114 -91q45 -9 169 -9q150 0 204 28q61 32 76 134q11 74 11 328q0 146 -4 233q-4 101 -27 142q-35 61 -124 71q-61 7 -163 7z
" />
    <glyph glyph-name="one" unicode="1" horiz-adv-x="1285" 
d="M905 1365v-1365h-259v1139l-355 -352l-154 167l441 411h327z" />
    <glyph glyph-name="two" unicode="2" horiz-adv-x="1286" 
d="M1149 213v-213h-1032v285q0 109 20 175t65 109q60 55 175 83q39 10 185 35q172 30 220 45q47 15 69.5 34t31.5 53q12 45 12 134q0 124 -38 163q-31 32 -97 39q-54 6 -126 6q-99 0 -148 -9t-73 -33q-42 -39 -42 -175v-60h-250v57q0 179 37 256q60 125 231 160
q94 19 257 19q205 0 306 -39q137 -53 176 -195q21 -76 21 -206q0 -153 -35 -231q-33 -77 -100 -117q-78 -49 -322 -92q-163 -29 -196 -38q-49 -13 -73 -30t-35 -48q-15 -39 -16 -130v-37h777z" />
    <glyph glyph-name="three" unicode="3" horiz-adv-x="1285" 
d="M529 597v201q32 -1 40 -1q114 0 171 3q112 6 134 73q11 33 11 89q0 98 -19 140q-21 44 -102 54q-43 5 -145 5q-117 0 -166 -13q-59 -16 -76 -79q-9 -34 -9 -144h-250v51q1 154 31 223q55 127 229 161q83 16 247 16q210 0 307 -31q145 -47 187 -164q23 -63 23 -162
q0 -184 -77 -257q-48 -45 -150 -61v-7q114 -13 164 -54q48 -40 67 -107q16 -56 16 -149q0 -214 -100 -302q-71 -61 -171 -77q-106 -16 -248 -16q-217 0 -313 25q-161 43 -210 189q-25 74 -25 183q0 28 1 76h253q-1 -45 -1 -63q0 -126 48 -161q45 -34 247 -34q179 0 223 42
q39 38 39 174q0 74 -18 110q-30 60 -139 65q-29 2 -174 2h-45z" />
    <glyph glyph-name="four" unicode="4" horiz-adv-x="1285" 
d="M1049 1365v-872h157v-200h-157v-293h-259v293h-737v291l596 781h400zM790 493v676h-8l-517 -676h525z" />
    <glyph glyph-name="five" unicode="5" horiz-adv-x="1285" 
d="M1109 1365v-201h-717l-3 -333h5q43 59 96 79q77 27 226 27q137 0 220.5 -24t136.5 -80q66 -70 83 -182q12 -82 12 -186q0 -138 -20.5 -220.5t-68.5 -137.5q-62 -71 -166 -93q-120 -25 -282 -25q-206 0 -297 32q-173 60 -202 244q-7 44 -8 129h253q5 -99 29 -134
q29 -43 115 -53q28 -3 113 -3q111 0 168 13.5t81 46.5q24 32 27 115q1 50 1 106q0 158 -46 202q-45 44 -207 44q-175 0 -225 -26q-35 -19 -47 -71h-234v731h957z" />
    <glyph glyph-name="six" unicode="6" horiz-adv-x="1285" 
d="M1154 982h-257q0 93 -19 126q-21 36 -78 47q-38 7 -121 7q-155 0 -207 -14q-62 -16 -83 -67q-18 -44 -18 -145v-235h5q40 79 94 104q62 28 223 28q205 0 290 -32q115 -44 155 -157q28 -78 28 -211q0 -232 -83 -330q-69 -81 -184 -99q-101 -16 -234 -16q-158 0 -240.5 12
t-140.5 44q-107 59 -142 170q-33 102 -33 404q0 380 21 490q34 177 212 237q92 31 293 31q219 0 311 -27q133 -39 180 -153q28 -69 28 -183v-31zM639 625q-171 0 -226 -36q-46 -31 -46 -139q0 -116 14 -159q22 -65 116 -82q48 -8 140 -8q188 0 232 37q43 35 43 172
q0 146 -41 181q-42 34 -232 34z" />
    <glyph glyph-name="seven" unicode="7" horiz-adv-x="1285" 
d="M1110 1365v-255l-550 -1110h-289l580 1141h-755v224h1014z" />
    <glyph glyph-name="eight" unicode="8" horiz-adv-x="1285" 
d="M932 705v-5q115 -19 166 -69q47 -47 60 -114q12 -62 12 -138q0 -118 -23 -187.5t-75 -113.5q-72 -60 -186 -75q-107 -14 -245 -14q-217 0 -314 26q-160 44 -204 181q-20 64 -20 179q0 140 35 204q39 74 125 104q26 9 79 18v5q-108 26 -147 60q-74 65 -74 243
q0 202 92 282q76 66 198 76q100 9 234 9q224 0 305 -25q132 -40 175 -161q27 -75 27 -185q0 -162 -65 -229q-42 -43 -155 -71zM634 1166q-126 0 -168 -9q-69 -16 -84 -76q-7 -31 -7 -96q0 -124 50 -157q33 -22 90 -24q66 -3 155 -3q105 0 142 11q62 18 78 85q8 34 8 95
q0 110 -39 142q-28 23 -83 27q-60 5 -142 5zM626 599q-105 0 -150 -7t-73 -27q-36 -26 -42 -80q-4 -33 -4 -83q0 -98 19 -135q27 -49 121 -58q44 -4 155 -4q175 0 221 38q43 35 43 172q0 118 -50 152q-35 24 -99 28q-62 4 -141 4z" />
    <glyph glyph-name="nine" unicode="9" horiz-adv-x="1285" 
d="M97 385h252q0 -92 26 -133q24 -39 105 -46q29 -3 148 -3q140 0 196 23q53 22 66 98q7 39 7 145v199h-5q-34 -70 -71 -93q-65 -41 -249 -41q-134 0 -212 14t-131 47q-84 53 -106 157q-16 75 -16 168q0 195 43 284q58 120 217 154q85 18 259 18q233 0 333 -41
q122 -50 166 -184q28 -86 31 -239q2 -97 2 -216q0 -276 -8 -359q-12 -119 -53 -190t-120 -110q-101 -49 -366 -49q-198 0 -281 21q-162 40 -208 165q-25 68 -25 176v35zM614 1162q-168 0 -210 -36q-43 -38 -43 -173q0 -140 42 -176q32 -28 105 -33q55 -3 122 -3
q105 0 156 10t78 35q35 32 35 142q0 109 -17 151q-28 66 -124 78q-40 5 -144 5z" />
    <glyph glyph-name="colon" unicode=":" horiz-adv-x="433" 
d="M331 249v-249h-228v249h228zM331 956v-249h-228v249h228z" />
    <glyph glyph-name="semicolon" unicode=";" horiz-adv-x="429" 
d="M316 245v-237q0 -119 -25 -163q-43 -76 -174 -76q-16 0 -48 2v107q52 1 77 15q33 19 33 73q0 9 -1 34h-90v245h228zM311 956v-249h-228v249h228z" />
    <glyph glyph-name="less" unicode="&#x3c;" 
d="M955 1232v-227l-645 -311l645 -311v-226l-887 441v193z" />
    <glyph glyph-name="equal" unicode="=" horiz-adv-x="1285" 
d="M135 982h1016v-213h-1016v213zM135 596h1016v-213h-1016v213z" />
    <glyph glyph-name="greater" unicode="&#x3e;" 
d="M69 156v227l645 311l-645 312v225l887 -441v-193z" />
    <glyph glyph-name="question" unicode="?" horiz-adv-x="1083" 
d="M598 249v-249h-226v249h226zM604 438h-232q0 106 8 149q15 82 69 125q32 25 95 54q29 13 113 49q76 33 94 81q14 36 14 100q0 122 -40 158q-36 33 -170 33q-151 0 -193 -41q-36 -35 -36 -134q0 -17 1 -59h-227q1 38 1 50q3 142 25 200q44 114 189 151q93 23 251 23
q162 0 240 -28q127 -45 164 -162q20 -63 20 -179q0 -127 -22 -187q-34 -93 -120 -141q-16 -9 -97 -43q-68 -30 -89 -42q-51 -29 -56 -91q-1 -19 -2 -66z" />
    <glyph glyph-name="at" unicode="@" horiz-adv-x="1432" 
d="M862 1007h167v-435q3 -69 7 -84q12 -46 72 -46q49 0 68 33q33 56 33 286q0 185 -21 265q-28 103 -153 118q-88 11 -258 11q-270 0 -360 -19q-111 -22 -148 -100q-45 -95 -45 -353q0 -261 29 -368q29 -108 128 -141q94 -31 339 -31q224 0 307 26q40 13 58 52l118 -55
q-32 -68 -93 -98q-64 -32 -186 -43q-83 -7 -226 -7q-254 0 -365 40q-163 57 -205 215q-33 122 -33 383q0 274 39 384q62 174 264 216q112 23 367 23q268 0 365 -32q104 -33 148 -116q58 -107 58 -349q0 -286 -58 -384q-48 -81 -184 -81q-122 0 -170 39q-34 28 -40 79h-5
q-39 -122 -221 -122q-160 0 -216 88q-44 68 -44 250q0 141 10 198q8 41 35.5 78t64.5 56q56 28 149 28q87 0 140 -27q37 -19 60 -71h5v94zM705 886q-102 0 -129 -58q-18 -38 -18 -146q0 -128 18 -181q16 -47 63 -57q24 -5 67 -5q79 0 111 22q42 28 46 108q2 50 2 133
q0 115 -42 152q-36 32 -118 32z" />
    <glyph glyph-name="A" unicode="A" horiz-adv-x="1300" 
d="M946 262h-589l-85 -262h-274l454 1365h389l461 -1365h-269zM886 457l-236 708l-232 -708h468z" />
    <glyph glyph-name="B" unicode="B" horiz-adv-x="1302" 
d="M120 0v1365h674q198 0 276 -44q80 -46 111 -145q20 -66 20 -173t-23 -164q-41 -102 -178 -134v-5q92 -14 138 -46q96 -66 96 -277q0 -243 -128 -324q-86 -53 -276 -53h-710zM382 792h317q141 0 182 24q60 35 60 161q0 75 -17 109q-24 50 -91 58q-26 3 -81 3h-370v-355z
M382 218h284q192 0 241 23q47 23 60 80q6 28 6 81q0 84 -17 123q-26 61 -113 70q-33 3 -130 3h-331v-380z" />
    <glyph glyph-name="C" unicode="C" horiz-adv-x="1265" 
d="M963 487h259v-46q1 -201 -39 -277q-68 -133 -245 -163q-76 -13 -313 -13q-174 0 -257.5 18t-149.5 71q-107 85 -130 244q-20 136 -20 470q0 202 28 310q33 131 156 204q92 55 246 67q68 5 232 5q190 0 269 -26q176 -57 202 -272q6 -46 9 -168h-259q-1 27 -1 34
q-3 137 -55 174q-47 33 -207 33q-136 0 -207 -14q-116 -22 -133 -151q-8 -63 -8 -242q0 -302 17 -385q15 -74 60 -107q56 -40 237 -40q211 0 264 46q46 41 46 161q0 23 -1 67z" />
    <glyph glyph-name="D" unicode="D" horiz-adv-x="1378" 
d="M120 0v1365h674q140 0 233 -28t152 -89q107 -110 125 -316q5 -50 5 -138q0 -258 -8 -354q-11 -151 -60 -243t-143 -141q-109 -56 -296 -56h-682zM382 225h369q177 0 235 82q42 60 51 179q6 74 6 199q0 173 -11 259q-17 137 -120 174q-54 20 -145 20h-385v-913z" />
    <glyph glyph-name="E" unicode="E" horiz-adv-x="1105" 
d="M355 1147v-352h637v-192h-637v-385h678v-218h-940v1365h934v-218h-672z" />
    <glyph glyph-name="F" unicode="F" horiz-adv-x="1062" 
d="M382 1147v-368h609v-217h-609v-562h-262v1365h904v-218h-642z" />
    <glyph glyph-name="G" unicode="G" horiz-adv-x="1325" 
d="M657 726h601q4 -91 4 -280q0 -158 -29 -243t-102 -138q-76 -55 -186 -66q-117 -11 -294 -11q-203 0 -295 25q-213 59 -267 285q-20 82 -20 246q0 256 5 366q11 268 151 376q94 73 234 84q94 7 244 7t222.5 -6t123.5 -23q173 -56 201 -252q7 -47 8 -140h-262
q-6 103 -33 144q-28 41 -113 51q-57 7 -184 7q-141 0 -209 -22q-83 -26 -108 -130q-11 -50 -14 -307q2 -221 4 -260q6 -92 30.5 -140t76.5 -66q72 -25 241 -25q211 0 261 49q53 51 53 217q0 20 -1 58h-343v194z" />
    <glyph glyph-name="H" unicode="H" horiz-adv-x="1398" 
d="M1278 1365v-1365h-262v584h-634v-584h-262v1365h262v-557h634v557h262z" />
    <glyph glyph-name="I" unicode="I" horiz-adv-x="504" 
d="M382 1365v-1365h-262v1365h262z" />
    <glyph glyph-name="J" unicode="J" horiz-adv-x="1060" 
d="M940 1365v-942q0 -93 -5 -149q-16 -170 -153 -242q-83 -44 -286 -44q-215 0 -310 48q-94 48 -124 150q-19 67 -19 248q0 48 3 101h247v-110q0 -136 27 -171q25 -31 76 -37q39 -4 94 -4q97 0 134 26q46 33 52 125q2 42 2 91v910h262z" />
    <glyph glyph-name="K" unicode="K" horiz-adv-x="1323" 
d="M382 1365v-556h122l454 556h322l-551 -666l609 -699h-332l-500 584h-124v-584h-262v1365h262z" />
    <glyph glyph-name="L" unicode="L" horiz-adv-x="1030" 
d="M382 1365v-1135h637v-230h-899v1365h262z" />
    <glyph glyph-name="M" unicode="M" horiz-adv-x="1836" 
d="M1716 1365v-1365h-259v744q0 106 10 304l5 101h-8l-31 -95q-69 -214 -95 -284l-300 -770h-236l-303 764q-28 72 -97 284l-31 94h-8l5 -99q11 -200 11 -299v-744h-259v1365h422l244 -632q29 -77 96 -284l31 -94h9l29 94q63 201 94 282l240 634h431z" />
    <glyph glyph-name="N" unicode="N" horiz-adv-x="1507" 
d="M1387 1365v-1365h-440l-391 749q-32 62 -135 294l-43 98h-10l3 -90q6 -135 6 -268v-783h-257v1365h437l356 -692q56 -111 161 -334l52 -112h9l-3 88q-5 132 -5 264v786h260z" />
    <glyph glyph-name="O" unicode="O" horiz-adv-x="1328" 
d="M688 1377q247 0 352 -46q180 -78 219 -312q14 -81 14 -323q0 -252 -13 -336q-18 -125 -66 -199.5t-137 -116.5q-87 -41 -223 -50q-83 -6 -190 -6q-152 0 -239 14t-150 48q-119 64 -163 195q-30 88 -34 208q-3 77 -3 184q0 278 14 370q19 125 69 199.5t144 117.5
q82 39 209 47q82 6 197 6zM657 1152q-169 0 -226 -24q-92 -38 -106 -201q-4 -53 -4 -302q0 -136 4 -186q8 -89 31 -135.5t69 -65.5q59 -25 249 -25q168 0 224 24q86 39 104 204q5 46 5 280q0 162 -4 207q-8 87 -30.5 132.5t-69.5 66.5q-40 18 -112 22q-51 3 -134 3z" />
    <glyph glyph-name="P" unicode="P" horiz-adv-x="1256" 
d="M120 0v1365h553q116 0 156 -1q118 -4 190.5 -34.5t119.5 -98.5q72 -102 72 -324q0 -211 -51 -307q-65 -120 -215 -148q-36 -6 -258 -11h-305v-441h-262zM382 667h295q143 0 189 20q53 22 70 92q9 37 9 114q0 118 -17 168q-25 75 -131 84q-24 2 -94 2h-321v-480z" />
    <glyph glyph-name="Q" unicode="Q" horiz-adv-x="1369" 
d="M1389 183l-107 -156l-131 90q-68 -70 -166 -100q-96 -29 -343 -29q-151 0 -237.5 14t-149.5 48q-123 66 -167 211q-33 106 -33 371q0 283 14 375q19 124 69.5 199.5t143.5 118.5q81 37 206 46q83 6 187 6q144 0 226 -10.5t139 -35.5q180 -79 219 -312q14 -81 14 -341
q0 -241 -12 -322q-5 -34 -15 -75zM612 486l108 156l282 -191q5 74 5 98v138q0 204 -4 241q-8 87 -31 133t-69 66q-56 25 -232 25q-184 0 -240 -24q-82 -35 -99 -149q-11 -70 -11 -373q0 -217 30 -293q30 -73 128 -91q50 -9 234 -9q105 0 150 19q28 11 67 39z" />
    <glyph glyph-name="R" unicode="R" horiz-adv-x="1320" 
d="M120 0v1365h670q196 0 289 -51q100 -54 135 -168q20 -68 20 -186q0 -148 -23 -220q-33 -106 -135 -145q-31 -11 -89 -22v-10q236 -14 232 -265v-298h-265v246q1 116 -50 165q-53 47 -155 44h-367v-455h-262zM382 678h367q118 0 166 41q37 32 47 90q5 28 5 102
q0 105 -13 143q-23 68 -111 81q-30 5 -77 5h-384v-462z" />
    <glyph glyph-name="S" unicode="S" horiz-adv-x="1226" 
d="M1133 967h-253q-1 108 -25 145q-25 39 -93 51q-42 8 -129 8q-110 0 -161.5 -7t-83.5 -26q-57 -35 -57 -149q0 -81 24 -121q27 -47 131 -57q32 -4 195 -13q177 -10 245 -24q150 -32 204 -137q36 -71 36 -225q0 -129 -19.5 -203t-64.5 -118q-81 -79 -229 -93
q-99 -10 -234 -10q-254 0 -349 29q-134 41 -179 166q-25 70 -27 249h252q1 -81 7 -114.5t25 -62.5q30 -45 114 -53q34 -3 184 -3q107 0 154.5 11t74.5 41q33 38 33 157q0 125 -75 152q-34 12 -261 26q-172 10 -224 19q-161 26 -225 121q-54 82 -54 256q0 235 108 314
q83 61 217 72q101 9 225 9q204 0 290 -22q150 -38 198 -165q26 -68 26 -177v-46z" />
    <glyph glyph-name="T" unicode="T" horiz-adv-x="1083" 
d="M667 1134v-1134h-262v1135h-394v230h1061v-231h-405z" />
    <glyph glyph-name="U" unicode="U" horiz-adv-x="1376" 
d="M995 1365h262v-908q0 -191 -38 -273q-58 -128 -213 -172q-85 -24 -297 -24q-166 0 -249.5 9.5t-143.5 35.5q-126 54 -167 170q-28 79 -28 239v923h262v-923q0 -114 23 -155q28 -50 120 -66q49 -8 166 -8q157 0 218 22q71 26 82 139q3 30 3 78v913z" />
    <glyph glyph-name="V" unicode="V" horiz-adv-x="1261" 
d="M994 1365h274l-440 -1365h-398l-436 1365h269l256 -773q35 -104 107 -372h7q69 251 108 371z" />
    <glyph glyph-name="W" unicode="W" horiz-adv-x="2040" 
d="M2039 1365l-365 -1365h-383l-190 700q-29 110 -80 338h-9l-20 -85q-33 -144 -64 -254l-195 -699h-379l-354 1365h264l197 -749q21 -84 66 -299l20 -100h9q65 266 101 398l210 750h304l205 -750q33 -123 74 -298l24 -100h8l22 100q44 207 68 300l202 748h265z" />
    <glyph glyph-name="X" unicode="X" horiz-adv-x="1290" 
d="M1270 1365l-410 -661l437 -704h-304l-196 328q-52 89 -114 208l-29 53h-4q-76 -142 -147 -261l-197 -328h-312l448 704l-416 661h309l182 -304q52 -87 106 -190l25 -48h4q78 148 130 237l182 305h306z" />
    <glyph glyph-name="Y" unicode="Y" horiz-adv-x="1248" 
d="M1254 1365l-506 -844v-521h-262v521l-492 844h300l206 -360q22 -38 88 -166l28 -55h8l29 55q65 124 89 166l208 360h304z" />
    <glyph glyph-name="Z" unicode="Z" horiz-adv-x="1181" 
d="M1127 1365v-220l-754 -916v-8h763v-221h-1091v224l748 913v7h-715v221h1049z" />
    <glyph glyph-name="bracketleft" unicode="[" horiz-adv-x="633" 
d="M111 1365h419v-194h-173v-1387h173v-194h-419v1775z" />
    <glyph glyph-name="backslash" unicode="\" horiz-adv-x="1243" 
d="M-108 1365h172l1052 -1775h-172z" />
    <glyph glyph-name="bracketright" unicode="]" horiz-adv-x="633" 
d="M523 -410h-420v194h174v1387h-174v194h420v-1775z" />
    <glyph glyph-name="asciicircum" unicode="^" 
d="M263 705h-240l339 667h300l339 -667h-241l-248 485z" />
    <glyph glyph-name="underscore" unicode="_" 
d="M0 -107h1024v-206h-1024v206z" />
    <glyph glyph-name="grave" unicode="`" 
d="M322 1368l325 -213l-50 -95l-358 154z" />
    <glyph glyph-name="a" unicode="a" horiz-adv-x="1072" 
d="M351 679h-234q1 140 47 198q48 59 162 78q69 12 203 12q202 0 289 -43q115 -56 131 -195q8 -69 8 -104v-625h-232l11 131l-6 1q-32 -68 -79 -99q-43 -27 -91 -35q-58 -9 -134 -9q-107 0 -170.5 16.5t-106.5 56.5q-71 65 -71 219q0 169 77 232q84 69 276 69q152 0 222 -32
q41 -18 68 -77h4v155q0 91 -25 133q-33 54 -167 54q-141 0 -168 -52q-12 -24 -14 -84zM513 429q-123 0 -166 -32q-33 -24 -33 -102q0 -90 42 -116q43 -26 162 -26q130 0 176 38q33 27 33 100q0 74 -30 100q-44 38 -184 38z" />
    <glyph glyph-name="b" unicode="b" horiz-adv-x="1086" 
d="M113 0v1365h232v-546l5 -2q29 75 83 106q78 45 217 45q184 0 264 -81q67 -68 82 -183q12 -98 12 -222q0 -198 -24 -277q-41 -135 -147 -182q-78 -34 -205 -34q-132 0 -204 48q-54 36 -88 114h-5l10 -151h-232zM565 784q-122 0 -169 -59q-48 -58 -48 -213q0 -125 9 -187.5
t31 -96.5q38 -56 168 -56q126 0 164 42q39 41 46 121q6 59 6 134q0 143 -11 193q-20 86 -90 109q-40 13 -106 13z" />
    <glyph glyph-name="c" unicode="c" horiz-adv-x="1005" 
d="M722 365h228q0 -117 -14 -178q-29 -126 -153 -172q-72 -26 -243 -26q-187 0 -271 34q-139 56 -173 210q-18 80 -18 247q0 176 23 258q40 146 169 195q88 34 241 34q201 0 296 -46q104 -50 124 -196q5 -40 6 -106h-227q0 48 -6 75q-12 58 -63 78q-36 14 -127 14
q-134 0 -169 -56q-31 -51 -31 -263t51 -262q36 -35 167 -35q86 0 127 16q51 21 60 103q3 25 3 76z" />
    <glyph glyph-name="d" unicode="d" horiz-adv-x="1079" 
d="M967 1365v-1365h-226l9 154l-5 1q-33 -81 -86 -118q-71 -49 -206 -49q-200 0 -285 89q-65 68 -78 180q-11 96 -11 221q0 208 25 286q42 132 158 176q72 27 184 27q139 0 213 -50q46 -31 72 -98l4 1v545h232zM513 783q-116 0 -154 -42q-46 -50 -46 -253q0 -209 42 -266
q39 -54 162 -54q137 0 179 58q21 29 29.5 89t8.5 180q0 106 -10 157t-37 82q-43 49 -174 49z" />
    <glyph glyph-name="e" unicode="e" horiz-adv-x="1037" 
d="M729 306h230v-25q0 -154 -81 -219q-63 -50 -157 -62q-86 -11 -184 -11q-158 0 -247.5 27.5t-138.5 90.5q-51 65 -63 178q-10 93 -10 199q0 197 30 284q47 135 192 177q82 23 229 23q134 0 215 -22.5t127 -71.5q67 -72 80 -197q8 -71 8 -159v-81h-647q-1 -25 -1 -38
q0 -148 42 -193t173 -45q156 0 185 48q17 27 18 97zM731 580q0 28 -1 37q-1 104 -33 139q-27 29 -77 36q-40 5 -95 5q-96 0 -136 -16q-62 -26 -72 -122q-2 -24 -3 -79h417z" />
    <glyph glyph-name="f" unicode="f" horiz-adv-x="640" 
d="M160 0v781h-135v175h135v102q0 165 56 228q84 93 304 93q39 0 100 -3v-179q-47 8 -83 8q-94 0 -125 -45q-20 -28 -20 -102v-102h235v-175h-235v-781h-232z" />
    <glyph glyph-name="g" unicode="g" horiz-adv-x="1083" 
d="M971 956v-974q0 -182 -51 -267q-51 -83 -163 -116q-87 -25 -246 -25q-181 0 -268 41q-85 40 -112 118q-16 48 -18 168h222q1 -78 21 -107q29 -42 170 -42q145 0 186 59q27 37 27 120v215l-5 1q-27 -69 -79 -103q-77 -50 -204 -50q-206 0 -294 106q-55 66 -67 164
q-12 99 -12 225q0 209 35 297q48 120 169 159q68 22 164 22q148 0 221 -56q45 -35 78 -113h5l-11 158h232zM518 783q-123 0 -162 -47q-32 -39 -38 -117q-4 -60 -4 -134q0 -143 14 -197q20 -78 93 -98q39 -11 98 -11q131 0 174 56q32 40 37 109q5 60 5 148q0 129 -13 175
q-21 80 -87 102q-41 14 -117 14z" />
    <glyph glyph-name="h" unicode="h" horiz-adv-x="1088" 
d="M345 1365v-567l5 -1q33 89 84 124q68 46 212 46q225 0 294 -127q36 -67 36 -190v-650h-232v587q0 102 -20 134q-35 60 -148 60q-96 0 -149 -28q-82 -43 -82 -210v-543h-232v1365h232z" />
    <glyph glyph-name="i" unicode="i" horiz-adv-x="457" 
d="M345 1365v-198h-232v198h232zM345 956v-956h-232v956h232z" />
    <glyph glyph-name="j" unicode="j" horiz-adv-x="455" 
d="M341 1365v-198h-231v198h231zM341 956v-997q0 -150 -52 -216q-56 -71 -207 -71q-34 0 -78 8v163q16 -2 24 -2q53 0 70 42q11 26 11 95v978h232z" />
    <glyph glyph-name="k" unicode="k" horiz-adv-x="988" 
d="M345 1365v-780h59l258 371h266l-333 -449l401 -507h-284l-311 424h-56v-424h-232v1365h232z" />
    <glyph glyph-name="l" unicode="l" horiz-adv-x="457" 
d="M345 1365v-1365h-232v1365h232z" />
    <glyph glyph-name="m" unicode="m" horiz-adv-x="1678" 
d="M113 956h232l-6 -147l5 -1q31 72 82 107q77 52 207 52q261 0 290 -177h5q30 79 79 115q82 62 223 62q212 0 285 -116q43 -67 43 -218v-633h-232v583q0 97 -20 139q-28 58 -142 58q-153 0 -193 -81q-21 -41 -21 -140v-559h-232v592q0 100 -15 130q-30 58 -144 58
q-137 0 -185 -77q-29 -47 -29 -149v-554h-232v956z" />
    <glyph glyph-name="n" unicode="n" horiz-adv-x="1087" 
d="M113 956h232l-8 -161l5 -1q66 173 296 173q233 0 304 -124q33 -58 33 -192v-651h-232v576q0 107 -18 143q-30 62 -151 62q-146 0 -198 -84q-28 -46 -28 -130v-567h-235v956z" />
    <glyph glyph-name="o" unicode="o" horiz-adv-x="1060" 
d="M545 967q165 0 243 -26q134 -44 173 -192q21 -81 21 -248q0 -207 -28 -302q-24 -82 -72 -127t-132 -65q-74 -18 -219 -18q-143 0 -224 19t-129 64q-77 70 -91 207q-9 91 -9 210q0 213 32 296q53 137 212 169q68 13 223 13zM527 787q-120 0 -157 -31q-38 -31 -47 -108
q-9 -71 -9 -163q0 -127 10.5 -188t36.5 -88q39 -40 168 -40q135 0 173 46q33 40 39 132q5 75 5 153q0 111 -11.5 169t-39.5 83q-38 35 -168 35z" />
    <glyph glyph-name="p" unicode="p" horiz-adv-x="1094" 
d="M113 956h232l-9 -142l5 -1q46 87 100 116q74 39 210 39q186 0 269 -84q66 -67 82 -180q14 -98 14 -217q0 -216 -35 -311q-47 -123 -153 -162q-67 -25 -177 -25q-127 0 -195 34q-62 32 -101 116h-4v-549h-238v1366zM563 788q-127 0 -167 -51q-44 -56 -44 -256
q0 -197 51 -258q42 -50 169 -50q122 0 160 46q48 58 48 247q0 213 -44 272q-38 50 -173 50z" />
    <glyph glyph-name="q" unicode="q" horiz-adv-x="1084" 
d="M972 956v-1366h-232v550l-4 1q-32 -77 -84 -109q-71 -44 -210 -44q-198 0 -279 97q-65 79 -76 204q-9 94 -9 209q0 217 38 302q75 167 324 167q141 0 210 -43q48 -30 87 -111l6 2l-3 141h232zM522 785q-121 0 -162 -46q-33 -37 -40 -109q-6 -64 -6 -143q0 -146 14 -201
q20 -83 90 -104q40 -11 107 -11q129 0 170 58q42 60 42 221q0 230 -48 289q-38 46 -167 46z" />
    <glyph glyph-name="r" unicode="r" horiz-adv-x="866" 
d="M119 956h232l-14 -134l4 -1q42 75 85 105q65 45 175 45q184 0 232 -144q19 -54 19 -241h-216v53q0 81 -19 112q-25 38 -98 38q-114 0 -151 -87q-17 -39 -17 -139v-563h-232v956z" />
    <glyph glyph-name="s" unicode="s" horiz-adv-x="1013" 
d="M910 693h-224q-7 63 -23 82q-18 24 -70 30q-28 3 -98 3q-129 0 -161 -22t-32 -93q0 -86 54 -102q24 -7 193 -15q164 -8 214 -19q108 -23 150 -103q33 -61 33 -158q0 -159 -88 -232q-59 -48 -143 -61q-95 -15 -219 -15q-192 0 -276 32q-106 39 -135 133q-16 50 -16 148
h238q-1 -22 -1 -33q0 -73 40 -98q35 -21 161 -21q135 0 177 30q33 24 33 94t-28 96q-26 24 -109 25q-252 3 -346 30q-96 27 -132 102q-27 55 -27 157q0 169 87 227q58 38 147 48q92 10 198 10q185 0 264 -29q126 -47 138 -187q1 -18 1 -59z" />
    <glyph glyph-name="t" unicode="t" horiz-adv-x="783" 
d="M730 956v-175h-365v-479q0 -65 10 -92q16 -45 91 -45q74 0 94 41q16 35 16 124q0 13 -1 38h194v-55q0 -113 -15 -161q-30 -104 -126 -140q-65 -24 -185 -24q-148 0 -211 39q-81 50 -95 151q-4 28 -4 91v512h-124v175h124v214h232v-214h365z" />
    <glyph glyph-name="u" unicode="u" horiz-adv-x="1080" 
d="M962 956v-956h-232l13 164l-4 1q-29 -75 -81 -115q-79 -61 -228 -61q-216 0 -288 140q-33 64 -33 185v642h232v-587q0 -102 18 -134q33 -60 151 -60q153 0 199 96q21 45 21 163v522h232z" />
    <glyph glyph-name="v" unicode="v" horiz-adv-x="900" 
d="M910 956l-274 -956h-358l-288 956h243l126 -441q30 -109 71 -267l23 -89h5l21 89q41 172 66 266l118 442h247z" />
    <glyph glyph-name="w" unicode="w" horiz-adv-x="1455" 
d="M1452 956l-214 -956h-338l-96 428q-29 127 -54 253l-17 84h-7l-17 -84q-25 -124 -53 -253l-96 -428h-343l-213 956h231l92 -443q20 -99 50 -267l17 -89h4l20 89q30 137 60 266l104 444h292l104 -444q33 -141 60 -266l19 -89h5l17 89q30 164 51 267l93 443h229z" />
    <glyph glyph-name="x" unicode="x" horiz-adv-x="919" 
d="M895 956l-278 -450l309 -506h-274l-192 347l-187 -347h-281l313 503l-276 453h273l158 -303l162 303h273z" />
    <glyph glyph-name="y" unicode="y" horiz-adv-x="890" 
d="M900 956l-251 -1016q-44 -176 -94 -248q-81 -117 -289 -117q-39 0 -81 4v169q31 -2 49 -2q58 0 96 28q41 30 73 147q10 34 17 79h-117l-313 956h246l120 -405q64 -217 117 -406h5q38 186 89 406l92 405h241z" />
    <glyph glyph-name="z" unicode="z" horiz-adv-x="867" 
d="M82 956h745v-196l-512 -586h512v-174h-785v201l507 582h-467v173z" />
    <glyph glyph-name="braceleft" unicode="{" horiz-adv-x="783" 
d="M337 477q63 -31 92 -83q31 -60 31 -162v-289q0 -87 19 -118q20 -32 48 -42q43 -16 109 -16h14v-177h-154q-142 -1 -200 83q-49 78 -49 217v323q1 83 -32 127q-29 36 -82 48v179q53 11 82 48q33 44 32 127v323q-1 139 49 217q58 84 200 83h154v-177h-15q-101 0 -135 -32
q-31 -30 -36 -75q-4 -46 -4 -69v-289q0 -113 -37 -173q-28 -44 -86 -73z" />
    <glyph glyph-name="bar" unicode="|" 
d="M398 1365h229v-1706h-229v1706z" />
    <glyph glyph-name="braceright" unicode="}" horiz-adv-x="783" 
d="M446 477q-63 31 -92 84q-31 60 -31 162v289q0 82 -14 109q-22 44 -67 56q-41 11 -90 11h-19v177h154q67 0 120.5 -22t79.5 -61q50 -81 49 -217v-323q0 -85 32 -127q29 -36 82 -48v-179q-54 -13 -82 -48q-32 -42 -32 -127v-323q1 -137 -49 -217q-33 -51 -114 -72
q-39 -11 -86 -11h-154v177q94 -2 136 22q15 8 29 27.5t18 36.5q6 17 7 90v289q0 114 37 173q28 44 86 72z" />
    <glyph glyph-name="asciitilde" unicode="~" horiz-adv-x="1365" 
d="M314 1161l-128 84q7 16 15 32q45 99 85 146q78 91 200 91q72 0 219 -58q97 -39 123 -45q33 -8 61 -8q65 0 106 42q22 22 52 73l132 -77q-70 -146 -139 -198q-81 -61 -178 -61q-60 0 -297 91q-52 20 -95 20q-65 0 -107 -52q-21 -25 -49 -80z" />
    <glyph glyph-name="nbspace" unicode="&#xa0;" horiz-adv-x="512" 
 />
    <glyph glyph-name="exclamdown" unicode="&#xa1;" horiz-adv-x="563" 
d="M178 707v249h227v-249h-227zM164 -410l19 910h220l16 -910h-255z" />
    <glyph glyph-name="cent" unicode="&#xa2;" horiz-adv-x="1285" 
d="M711 -21h-150v164q-136 2 -222 52q-91 52 -122 177q-23 91 -23 286q0 221 48 310q80 150 319 156v143h150v-141q175 1 261 -74q70 -61 82 -186q3 -29 3 -89h-222q-1 88 -25 120q-31 36 -99 44v-609q49 10 69 17q52 20 60 90q3 24 5 84h221q0 -105 -7 -161
q-35 -220 -348 -219v-164zM561 939q-59 -12 -90 -49q-38 -45 -38 -235q0 -239 45 -290q12 -14 49 -23q19 -4 34 -9v606z" />
    <glyph glyph-name="sterling" unicode="&#xa3;" horiz-adv-x="1286" 
d="M887 713v-192h-365v-45q0 -10 1 -36v-35q0 -96 -42 -143q-18 -21 -58 -45v-7l814 5v-215h-1108v210q74 7 110 74q18 34 19 150v87h-168v192h168v200q0 110 5 157q11 99 45.5 158.5t102.5 95.5q102 56 342 56q156 0 248.5 -22.5t143.5 -72.5q81 -79 81 -278q0 -24 -1 -73
h-259q-1 110 -14 147q-18 48 -83 64q-36 9 -110 9q-110 0 -153 -16q-46 -17 -63 -53q-21 -46 -21 -148v-224h365z" />
    <glyph glyph-name="currency" unicode="&#xa4;" horiz-adv-x="1418" 
d="M98 235l199 201q-88 133 -88 279q0 131 92 280l-205 202l127 127l205 -205q59 36 96 52q87 39 186 39q108 0 206 -49q26 -13 70 -40l205 202l125 -126l-200 -200q93 -144 93 -285q0 -104 -47 -201q-13 -28 -41 -75l201 -200l-125 -127l-201 200q-134 -93 -278 -93
q-140 0 -294 93l-200 -199zM706 1005q-116 0 -201 -85q-84 -85 -84 -205t85 -205q84 -85 203 -85q120 0 205 85q84 84 84 204q0 123 -84 206q-87 85 -208 85z" />
    <glyph glyph-name="yen" unicode="&#xa5;" horiz-adv-x="1285" 
d="M1018 978h178v-189h-284l-99 -170h383v-189h-429v-430h-265v430h-414v189h370l-96 170h-274v189h171l-218 387h294l298 -577h8l304 577h299z" />
    <glyph glyph-name="brokenbar" unicode="&#xa6;" 
d="M398 1365h229v-700h-229v700zM398 314h229v-655h-229v655z" />
    <glyph glyph-name="section" unicode="&#xa7;" horiz-adv-x="1283" 
d="M1135 982h-241q-2 102 -13 128q-22 52 -129 63q-53 5 -122 5q-130 0 -174 -17q-36 -14 -49 -45q-12 -27 -12 -78q0 -80 28 -106q26 -24 128 -48l345 -82q99 -23 145 -41q90 -34 120 -124q18 -55 18 -136q0 -133 -40 -208q-20 -39 -81 -67q65 -29 87 -64q37 -60 37 -190
q0 -227 -97 -305q-67 -53 -209 -70q-97 -11 -244 -11q-246 0 -341 40q-135 57 -159 219q-8 48 -8 162h235q2 -78 7 -107q15 -76 107 -93q56 -11 165 -11q191 0 235 25q56 33 56 141q0 84 -39 114q-29 22 -121 42l-447 98q-84 19 -123 40q-65 37 -86 122q-12 51 -12 138
q0 151 51 208q31 34 92 51q-59 41 -80 96q-20 54 -20 159q0 185 66 252q97 100 435 100q185 0 283 -21q72 -16 122.5 -60.5t67.5 -107.5t17 -156v-55zM462 390l319 -74q52 -12 80 -12q107 0 107 168q0 70 -31 98q-28 26 -128 51l-280 69q-64 16 -87 16q-111 0 -111 -166
q0 -68 25 -101q19 -25 50 -34q18 -6 56 -15z" />
    <glyph glyph-name="dieresis" unicode="&#xa8;" 
d="M416 1281v-164h-181v164h181zM789 1281v-164h-181v164h181z" />
    <glyph glyph-name="copyright" unicode="&#xa9;" horiz-adv-x="1526" 
d="M773 1379q186 0 353 -103q168 -103 256 -277q76 -150 76 -317q0 -138 -53 -266t-150 -226q-98 -98 -226 -151t-265 -53q-138 0 -266 53t-225 150q-98 98 -151.5 226.5t-53.5 265.5q0 197 102 366q101 165 279 256q148 76 324 76zM757 1282q-112 0 -220 -45.5t-190 -129.5
q-83 -83 -128.5 -194t-45.5 -230q0 -249 174 -425q173 -175 417 -175q243 0 416 175q173 176 173 423q0 121 -45.5 233t-127.5 193q-177 175 -423 175zM940 587h164v-33q0 -114 -24 -158q-42 -78 -146 -95q-40 -7 -164 -7q-150 0 -205 21q-113 43 -132 171q-12 77 -12 267
q0 111 16 173q15 53 58 92t105 53t211 14q113 0 159 -15q106 -33 122 -157q3 -25 5 -102h-164v26q-2 72 -29 91q-25 17 -118 17q-134 0 -163 -28q-26 -24 -30 -101q-1 -22 -1 -97q0 -163 10 -209q12 -58 73 -70q30 -6 92 -6q121 0 150 24q24 21 24 84q0 19 -1 45z" />
    <glyph glyph-name="ordfeminine" unicode="&#xaa;" horiz-adv-x="857" 
d="M324 1200h-154q0 87 31 122q30 34 100 45q42 7 123 7q123 0 177 -25q72 -33 82 -113q5 -38 5 -60v-357h-154l6 57q-37 -42 -72 -53q-35 -10 -107 -10q-119 0 -169 42q-45 39 -45 131q0 96 49 133q53 40 169 40q67 0 111 -9q28 -6 59 -37v65q0 49 -14 71q-17 27 -93 27
q-82 0 -96 -26q-7 -11 -8 -50zM416 1060q-74 0 -97 -17q-17 -11 -17 -51q0 -47 22 -59q24 -14 94 -14q76 0 101 20q17 13 17 51q0 37 -16 50q-24 20 -104 20z" />
    <glyph glyph-name="guillemotleft" unicode="&#xab;" horiz-adv-x="969" 
d="M332 990l155 -88l-195 -394l207 -385l-146 -93l-260 478zM710 996l155 -88l-195 -394l207 -385l-146 -93l-260 478z" />
    <glyph glyph-name="logicalnot" unicode="&#xac;" 
d="M726 0v333h-658v213h887v-546h-229z" />
    <glyph glyph-name="sfthyphen" unicode="&#xad;" horiz-adv-x="457" 
d="M1 639h456v-220h-456v220z" />
    <glyph glyph-name="registered" unicode="&#xae;" horiz-adv-x="1526" 
d="M773 1379q186 0 353 -103q168 -103 256 -277q76 -150 76 -317q0 -138 -53 -266t-150 -226q-98 -98 -226 -151t-265 -53q-138 0 -266 53t-225 150q-98 98 -151.5 226.5t-53.5 265.5q0 197 102 366q101 165 279 256q148 76 324 76zM757 1282q-112 0 -220 -45.5t-190 -129.5
q-83 -83 -128.5 -194t-45.5 -230q0 -249 174 -425q173 -175 417 -175q243 0 416 175q173 176 173 423q0 121 -45.5 233t-127.5 193q-177 175 -423 175zM433 300v779h396q115 0 171 -29q60 -33 81 -99q12 -38 12 -107q0 -105 -25 -153q-24 -44 -97 -64q114 -24 113 -153v-174
h-167v145q3 115 -112 111h-206v-256h-166zM599 694h206q66 0 92 21q28 23 28 102q0 57 -7 78q-15 44 -103 44h-216v-245z" />
    <glyph glyph-name="overscore" unicode="&#xaf;" 
d="M0 1809h1024v-205h-1024v205z" />
    <glyph glyph-name="degree" unicode="&#xb0;" horiz-adv-x="770" 
d="M390 1375q127 0 215 -97q75 -83 75 -194q0 -129 -96 -215q-85 -76 -199 -76q-124 0 -211 89q-83 84 -83 204q0 126 97 214q84 75 202 75zM383 1248q-71 0 -122 -55q-42 -46 -42 -109q0 -66 46 -114q50 -50 121 -50q74 0 124 55q42 46 42 110q0 71 -54 120q-48 43 -115 43
z" />
    <glyph glyph-name="plusminus" unicode="&#xb1;" horiz-adv-x="1285" 
d="M132 961h392v331h238v-331h392v-219h-392v-329h-238v329h-392v219zM132 297h1022v-220h-1022v220z" />
    <glyph glyph-name="twosuperior" unicode="&#xb2;" horiz-adv-x="857" 
d="M759 685v-139h-674v175q1 124 57 173q40 34 115 51q25 5 118 21q153 24 181 43q27 19 27 107q0 71 -22 92q-25 24 -135 24q-115 0 -140 -23q-25 -21 -25 -95v-46h-174q1 31 1 40q0 93 17.5 140t62.5 76q74 48 263 48q198 0 268 -65q60 -55 60 -198q0 -96 -23 -143
q-31 -65 -118 -94q-46 -15 -157 -33q-137 -22 -166 -37q-33 -21 -33 -102v-15h497z" />
    <glyph glyph-name="threesuperior" unicode="&#xb3;" horiz-adv-x="857" 
d="M349 898v133q25 -1 31 -1q142 0 167 13q30 16 30 78q0 56 -11 79q-12 24 -61 29q-27 3 -91 3q-105 0 -129 -18q-26 -19 -26 -86q0 -10 1 -36h-174v37q0 80 15.5 123t53.5 70q51 36 130 44q61 6 133 6q112 0 174 -13t104 -45q59 -46 59 -160q0 -84 -30 -132
q-24 -38 -89 -57q65 -13 93 -45q39 -46 39 -141q0 -130 -67 -183q-47 -38 -112 -47q-70 -10 -159 -10q-120 0 -182 11t-102 39q-75 52 -75 190q0 19 1 53h175v-44q0 -71 27 -90t156 -19q112 0 137 23q23 20 23 98q0 42 -11 62q-17 32 -84 35q-19 1 -113 1h-33z" />
    <glyph glyph-name="acute" unicode="&#xb4;" 
d="M703 1368l83 -154l-358 -154l-50 95z" />
    <glyph glyph-name="mu" unicode="&#xb5;" 
d="M66 -351v1334h229v-531q0 -118 20 -168q30 -75 99 -110q47 -25 100 -25q97 0 158 78q34 44 47 100q11 45 11 135v521h229v-983h-229v134q-33 -68 -69 -100q-63 -56 -153 -56q-85 0 -148 52q-31 26 -65 81v-462h-229z" />
    <glyph glyph-name="paragraph" unicode="&#xb6;" horiz-adv-x="1285" 
d="M1142 -410h-177v1582h-152v-1582h-177v854h-47q-205 5 -248 9.5t-95 29.5q-122 57 -159 202q-20 76 -20 223q0 221 72 323q72 103 214 126q48 8 249 8h540v-1775z" />
    <glyph glyph-name="middot" unicode="&#xb7;" horiz-adv-x="855" 
d="M541 611v-249h-228v249h228z" />
    <glyph glyph-name="cedilla" unicode="&#xb8;" 
d="M559 -101l88 -106l-206 -140l-64 70z" />
    <glyph glyph-name="onesuperior" unicode="&#xb9;" horiz-adv-x="857" 
d="M602 1365v-819h-179v663l-220 -201l-109 108l290 249h218z" />
    <glyph glyph-name="ordmasculine" unicode="&#xba;" horiz-adv-x="857" 
d="M436 1374q86 0 132 -10.5t77 -35.5q43 -37 53 -104q8 -51 8 -120q0 -98 -12.5 -151.5t-43.5 -84.5q-53 -55 -221 -55q-161 0 -217 48q-48 41 -56 120q-6 51 -6 118q0 121 20 170q33 79 132 97q41 8 134 8zM426 1260q-70 0 -90 -16q-31 -24 -31 -147q0 -124 26 -149
q22 -21 99 -21q75 0 97 24q24 27 24 155q0 112 -28 136q-21 18 -97 18z" />
    <glyph glyph-name="guillemotright" unicode="&#xbb;" horiz-adv-x="969" 
d="M637 990l240 -482l-260 -478l-146 93l206 385l-194 394zM259 996l240 -482l-260 -478l-146 93l206 385l-194 394z" />
    <glyph glyph-name="onequarter" unicode="&#xbc;" horiz-adv-x="2050" 
d="M602 1365v-819h-179v663l-220 -201l-109 108l290 249h218zM1533 1365l-862 -1365h-155l860 1365h157zM1888 819v-515h101v-131h-101v-173h-179v173h-472v180l385 466h266zM1709 304v380l-315 -380h315z" />
    <glyph glyph-name="onehalf" unicode="&#xbd;" horiz-adv-x="2050" 
d="M603 1365v-819h-179v663l-220 -201l-109 108l290 249h218zM1534 1365l-862 -1365h-155l860 1365h157zM1952 139v-139h-674v175q1 123 57 173q40 33 115 50q25 6 118 21q152 25 180 44q28 18 28 107q0 70 -22 92q-26 24 -135 24q-115 0 -141 -23q-24 -22 -24 -96v-46h-174
q1 30 1 40q0 93 17.5 140.5t62.5 76.5q73 48 263 48q198 0 268 -65q60 -56 60 -199q0 -96 -23 -143q-31 -65 -118 -93q-46 -16 -157 -34q-137 -22 -166 -37q-33 -21 -33 -101v-15h497z" />
    <glyph glyph-name="threequarters" unicode="&#xbe;" horiz-adv-x="2050" 
d="M349 898v133q25 -1 31 -1q142 0 167 13q30 16 30 78q0 56 -11 79q-12 24 -61 29q-27 3 -91 3q-105 0 -129 -18q-26 -19 -26 -86q0 -10 1 -36h-174v37q0 80 15.5 123t53.5 70q51 36 130 44q61 6 133 6q112 0 174 -13t104 -45q59 -46 59 -160q0 -84 -30 -132
q-24 -38 -89 -57q65 -13 93 -45q39 -46 39 -141q0 -130 -67 -183q-47 -38 -112 -47q-70 -10 -159 -10q-120 0 -182 11t-102 39q-75 52 -75 190q0 19 1 53h175v-44q0 -71 27 -90t156 -19q112 0 137 23q23 20 23 98q0 42 -11 62q-17 32 -84 35q-19 1 -113 1h-33zM1575 1365
l-862 -1365h-156l860 1365h158zM1889 819v-515h100v-131h-100v-173h-179v173h-472v180l385 466h266zM1710 304v380l-315 -380h315z" />
    <glyph glyph-name="questiondown" unicode="&#xbf;" horiz-adv-x="1083" 
d="M485 707v249h226v-249h-226zM479 518h232q0 -147 -25 -207q-22 -52 -84 -90q-21 -13 -90 -43q-133 -57 -156 -80q-38 -37 -38 -138q0 -123 40 -159q36 -33 169 -33q152 0 194 41q36 36 36 134q0 18 -2 60h228q-1 -39 -1 -50q-3 -143 -25 -200q-44 -115 -189 -152
q-92 -23 -251 -23q-161 0 -240 28q-127 45 -164 162q-20 64 -20 179q0 128 22 188q34 93 120 141q16 9 97 43q68 30 89 42q51 29 56 91q2 19 2 66z" />
    <glyph glyph-name="Agrave" unicode="&#xc0;" horiz-adv-x="1300" 
d="M946 262h-589l-85 -262h-274l454 1365h389l461 -1365h-269zM886 457l-236 708l-232 -708h468zM423 1730l363 -128l-26 -103l-384 65z" />
    <glyph glyph-name="Aacute" unicode="&#xc1;" horiz-adv-x="1300" 
d="M946 262h-589l-85 -262h-274l454 1365h389l461 -1365h-269zM886 457l-236 708l-232 -708h468zM874 1730l46 -166l-384 -65l-26 103z" />
    <glyph glyph-name="Acircumflex" unicode="&#xc2;" horiz-adv-x="1300" 
d="M946 262h-589l-85 -262h-274l454 1365h389l461 -1365h-269zM886 457l-236 708l-232 -708h468zM650 1753l323 -190l-44 -91l-279 114l-281 -114l-43 91z" />
    <glyph glyph-name="Atilde" unicode="&#xc3;" horiz-adv-x="1300" 
d="M946 262h-589l-85 -262h-274l454 1365h389l461 -1365h-269zM886 457l-236 708l-232 -708h468zM889 1707l114 -64q-90 -158 -208 -158q-64 0 -157 51q-90 50 -128 50q-54 0 -96 -77l-117 63q37 61 64 91q59 64 143 64q55 0 149 -50q98 -53 136 -53q54 0 100 83z" />
    <glyph glyph-name="Adieresis" unicode="&#xc4;" horiz-adv-x="1300" 
d="M946 262h-589l-85 -262h-274l454 1365h389l461 -1365h-269zM886 457l-236 708l-232 -708h468zM554 1689v-162h-180v162h180zM926 1689v-162h-180v162h180z" />
    <glyph glyph-name="Aring" unicode="&#xc5;" horiz-adv-x="1300" 
d="M946 262h-589l-85 -262h-274l454 1365h389l461 -1365h-269zM886 457l-236 708l-232 -708h468zM653 1789q72 0 122 -55q43 -48 43 -112q0 -75 -55 -125q-48 -43 -112 -43q-75 0 -125 55q-43 48 -43 114q0 72 55 123q48 43 115 43zM649 1707q-37 0 -62 -28q-22 -24 -22 -57
q0 -39 28 -64q24 -22 58 -22q38 0 63 28q22 24 22 58q0 37 -28 63q-24 22 -59 22z" />
    <glyph glyph-name="AE" unicode="&#xc6;" horiz-adv-x="1952" 
d="M1213 1147v-354h626v-192h-626v-383h666v-218h-921v262h-551l-123 -262h-289l644 1365h1240v-218h-666zM958 458v689h-139l-327 -689h466z" />
    <glyph glyph-name="Ccedilla" unicode="&#xc7;" horiz-adv-x="1265" 
d="M963 487h259v-46q1 -201 -39 -277q-68 -133 -245 -163q-76 -13 -313 -13q-174 0 -257.5 18t-149.5 71q-107 85 -130 244q-20 136 -20 470q0 202 28 310q33 131 156 204q92 55 246 67q68 5 232 5q190 0 269 -26q176 -57 202 -272q6 -46 9 -168h-259q-1 27 -1 34
q-3 137 -55 174q-47 33 -207 33q-136 0 -207 -14q-116 -22 -133 -151q-8 -63 -8 -242q0 -302 17 -385q15 -74 60 -107q56 -40 237 -40q211 0 264 46q46 41 46 161q0 23 -1 67zM696 -102l101 -116l-229 -164l-74 78z" />
    <glyph glyph-name="Egrave" unicode="&#xc8;" horiz-adv-x="1105" 
d="M355 1147v-352h637v-192h-637v-385h678v-218h-940v1365h934v-218h-672zM325 1730l363 -128l-26 -103l-384 65z" />
    <glyph glyph-name="Eacute" unicode="&#xc9;" horiz-adv-x="1105" 
d="M355 1147v-352h637v-192h-637v-385h678v-218h-940v1365h934v-218h-672zM777 1730l46 -166l-384 -65l-26 103z" />
    <glyph glyph-name="Ecircumflex" unicode="&#xca;" horiz-adv-x="1105" 
d="M355 1147v-352h637v-192h-637v-385h678v-218h-940v1365h934v-218h-672zM553 1753l323 -190l-44 -91l-279 114l-281 -114l-43 91z" />
    <glyph glyph-name="Edieresis" unicode="&#xcb;" horiz-adv-x="1105" 
d="M355 1147v-352h637v-192h-637v-385h678v-218h-940v1365h934v-218h-672zM456 1689v-162h-180v162h180zM829 1689v-162h-180v162h180z" />
    <glyph glyph-name="Igrave" unicode="&#xcc;" horiz-adv-x="504" 
d="M381 1365v-1365h-262v1365h262zM24 1730l363 -128l-26 -103l-384 65z" />
    <glyph glyph-name="Iacute" unicode="&#xcd;" horiz-adv-x="504" 
d="M382 1365v-1365h-262v1365h262zM476 1730l46 -166l-384 -65l-26 103z" />
    <glyph glyph-name="Icircumflex" unicode="&#xce;" horiz-adv-x="504" 
d="M382 1365v-1365h-262v1365h262zM252 1753l323 -190l-44 -91l-279 114l-281 -114l-43 91z" />
    <glyph glyph-name="Idieresis" unicode="&#xcf;" horiz-adv-x="504" 
d="M382 1365v-1365h-262v1365h262zM217 1689v-162h-177v162h177zM463 1689v-162h-177v162h177z" />
    <glyph glyph-name="Eth" unicode="&#xd0;" horiz-adv-x="1378" 
d="M120 619h-128v157h128v589h673q141 0 234 -28t152 -89q107 -109 125 -316q5 -53 5 -138q0 -257 -8 -354q-12 -151 -61 -243.5t-142 -140.5q-109 -56 -296 -56h-682v619zM382 619v-394h369q177 0 235 82q42 60 51 179q6 74 6 199q0 172 -11 259q-17 137 -120 174
q-54 20 -145 20h-385v-362h370v-157h-370z" />
    <glyph glyph-name="Ntilde" unicode="&#xd1;" horiz-adv-x="1507" 
d="M1387 1365v-1365h-440l-391 749q-32 62 -135 294l-43 98h-10l3 -90q6 -135 6 -268v-783h-257v1365h437l356 -692q56 -111 161 -334l52 -112h9l-3 88q-5 132 -5 264v786h260zM993 1707l114 -64q-90 -158 -208 -158q-64 0 -157 51q-90 50 -128 50q-54 0 -96 -77l-117 63
q37 61 64 91q59 64 143 64q55 0 149 -50q98 -53 136 -53q54 0 100 83z" />
    <glyph glyph-name="Ograve" unicode="&#xd2;" horiz-adv-x="1328" 
d="M688 1377q247 0 352 -46q180 -78 219 -312q14 -81 14 -323q0 -252 -13 -336q-18 -125 -66 -199.5t-137 -116.5q-87 -41 -223 -50q-83 -6 -190 -6q-152 0 -239 14t-150 48q-119 64 -163 195q-30 88 -34 208q-3 77 -3 184q0 278 14 370q19 125 69 199.5t144 117.5
q82 39 209 47q82 6 197 6zM657 1152q-169 0 -226 -24q-92 -38 -106 -201q-4 -53 -4 -302q0 -136 4 -186q8 -89 31 -135.5t69 -65.5q59 -25 249 -25q168 0 224 24q86 39 104 204q5 46 5 280q0 162 -4 207q-8 87 -30.5 132.5t-69.5 66.5q-40 18 -112 22q-51 3 -134 3z
M437 1730l363 -128l-26 -103l-384 65z" />
    <glyph glyph-name="Oacute" unicode="&#xd3;" horiz-adv-x="1328" 
d="M688 1377q247 0 352 -46q180 -78 219 -312q14 -81 14 -323q0 -252 -13 -336q-18 -125 -66 -199.5t-137 -116.5q-87 -41 -223 -50q-83 -6 -190 -6q-152 0 -239 14t-150 48q-119 64 -163 195q-30 88 -34 208q-3 77 -3 184q0 278 14 370q19 125 69 199.5t144 117.5
q82 39 209 47q82 6 197 6zM657 1152q-169 0 -226 -24q-92 -38 -106 -201q-4 -53 -4 -302q0 -136 4 -186q8 -89 31 -135.5t69 -65.5q59 -25 249 -25q168 0 224 24q86 39 104 204q5 46 5 280q0 162 -4 207q-8 87 -30.5 132.5t-69.5 66.5q-40 18 -112 22q-51 3 -134 3z
M888 1730l46 -166l-384 -65l-26 103z" />
    <glyph glyph-name="Ocircumflex" unicode="&#xd4;" horiz-adv-x="1328" 
d="M688 1377q247 0 352 -46q180 -78 219 -312q14 -81 14 -323q0 -252 -13 -336q-18 -125 -66 -199.5t-137 -116.5q-87 -41 -223 -50q-83 -6 -190 -6q-152 0 -239 14t-150 48q-119 64 -163 195q-30 88 -34 208q-3 77 -3 184q0 278 14 370q19 125 69 199.5t144 117.5
q82 39 209 47q82 6 197 6zM657 1152q-169 0 -226 -24q-92 -38 -106 -201q-4 -53 -4 -302q0 -136 4 -186q8 -89 31 -135.5t69 -65.5q59 -25 249 -25q168 0 224 24q86 39 104 204q5 46 5 280q0 162 -4 207q-8 87 -30.5 132.5t-69.5 66.5q-40 18 -112 22q-51 3 -134 3z
M664 1753l323 -190l-44 -91l-279 114l-281 -114l-43 91z" />
    <glyph glyph-name="Otilde" unicode="&#xd5;" horiz-adv-x="1328" 
d="M688 1377q247 0 352 -46q180 -78 219 -312q14 -81 14 -323q0 -252 -13 -336q-18 -125 -66 -199.5t-137 -116.5q-87 -41 -223 -50q-83 -6 -190 -6q-152 0 -239 14t-150 48q-119 64 -163 195q-30 88 -34 208q-3 77 -3 184q0 278 14 370q19 125 69 199.5t144 117.5
q82 39 209 47q82 6 197 6zM657 1152q-169 0 -226 -24q-92 -38 -106 -201q-4 -53 -4 -302q0 -136 4 -186q8 -89 31 -135.5t69 -65.5q59 -25 249 -25q168 0 224 24q86 39 104 204q5 46 5 280q0 162 -4 207q-8 87 -30.5 132.5t-69.5 66.5q-40 18 -112 22q-51 3 -134 3z
M903 1707l114 -64q-90 -158 -208 -158q-64 0 -157 51q-90 50 -128 50q-54 0 -96 -77l-117 63q37 61 64 91q59 64 143 64q55 0 149 -50q98 -53 136 -53q54 0 100 83z" />
    <glyph glyph-name="Odieresis" unicode="&#xd6;" horiz-adv-x="1328" 
d="M688 1377q247 0 352 -46q180 -78 219 -312q14 -81 14 -323q0 -252 -13 -336q-18 -125 -66 -199.5t-137 -116.5q-87 -41 -223 -50q-83 -6 -190 -6q-152 0 -239 14t-150 48q-119 64 -163 195q-30 88 -34 208q-3 77 -3 184q0 278 14 370q19 125 69 199.5t144 117.5
q82 39 209 47q82 6 197 6zM657 1152q-169 0 -226 -24q-92 -38 -106 -201q-4 -53 -4 -302q0 -136 4 -186q8 -89 31 -135.5t69 -65.5q59 -25 249 -25q168 0 224 24q86 39 104 204q5 46 5 280q0 162 -4 207q-8 87 -30.5 132.5t-69.5 66.5q-40 18 -112 22q-51 3 -134 3z
M568 1689v-162h-180v162h180zM941 1689v-162h-180v162h180z" />
    <glyph glyph-name="multiply" unicode="&#xd7;" horiz-adv-x="1285" 
d="M484 683l-333 333l158 158l333 -333l333 333l158 -158l-333 -333l333 -333l-158 -159l-333 333l-333 -333l-158 159z" />
    <glyph glyph-name="Oslash" unicode="&#xd8;" horiz-adv-x="1344" 
d="M5 -16v206l87 77q-16 57 -21 105q-9 75 -9 251q0 279 13 372q18 129 69 208t145 122q81 37 210 46q87 6 200 6q222 0 306 -26q102 -31 170 -110l164 145v-205l-89 -80q15 -55 21 -100q10 -81 10 -285q0 -232 -9 -316q-15 -133 -57.5 -214.5t-123.5 -128.5
q-63 -37 -158 -53t-252 -16q-163 0 -251.5 11.5t-148.5 39.5q-63 30 -115 89zM367 302q27 -43 83 -62q81 -26 180 -26q122 0 196 11q82 12 123.5 54t54.5 127q9 59 9 324q0 88 -4 162zM976 1067q-28 43 -80 60q-78 24 -189 24q-118 0 -181 -9q-79 -12 -121.5 -49t-59.5 -109
q-16 -63 -16 -293q0 -137 5 -213z" />
    <glyph glyph-name="Ugrave" unicode="&#xd9;" horiz-adv-x="1376" 
d="M995 1365h262v-908q0 -191 -38 -273q-58 -128 -213 -172q-85 -24 -297 -24q-166 0 -249.5 9.5t-143.5 35.5q-126 54 -167 170q-28 79 -28 239v923h262v-923q0 -114 23 -155q28 -50 120 -66q49 -8 166 -8q157 0 218 22q71 26 82 139q3 30 3 78v913zM461 1730l363 -128
l-26 -103l-384 65z" />
    <glyph glyph-name="Uacute" unicode="&#xda;" horiz-adv-x="1376" 
d="M995 1365h262v-908q0 -191 -38 -273q-58 -128 -213 -172q-85 -24 -297 -24q-166 0 -249.5 9.5t-143.5 35.5q-126 54 -167 170q-28 79 -28 239v923h262v-923q0 -114 23 -155q28 -50 120 -66q49 -8 166 -8q157 0 218 22q71 26 82 139q3 30 3 78v913zM913 1730l46 -166
l-384 -65l-26 103z" />
    <glyph glyph-name="Ucircumflex" unicode="&#xdb;" horiz-adv-x="1376" 
d="M995 1365h262v-908q0 -191 -38 -273q-58 -128 -213 -172q-85 -24 -297 -24q-166 0 -249.5 9.5t-143.5 35.5q-126 54 -167 170q-28 79 -28 239v923h262v-923q0 -114 23 -155q28 -50 120 -66q49 -8 166 -8q157 0 218 22q71 26 82 139q3 30 3 78v913zM689 1753l323 -190
l-44 -91l-279 114l-281 -114l-43 91z" />
    <glyph glyph-name="Udieresis" unicode="&#xdc;" horiz-adv-x="1376" 
d="M995 1365h262v-908q0 -191 -38 -273q-58 -128 -213 -172q-85 -24 -297 -24q-166 0 -249.5 9.5t-143.5 35.5q-126 54 -167 170q-28 79 -28 239v923h262v-923q0 -114 23 -155q28 -50 120 -66q49 -8 166 -8q157 0 218 22q71 26 82 139q3 30 3 78v913zM592 1689v-162h-180
v162h180zM965 1689v-162h-180v162h180z" />
    <glyph glyph-name="Yacute" unicode="&#xdd;" horiz-adv-x="1248" 
d="M1254 1365l-506 -844v-521h-262v521l-492 844h300l206 -360q22 -38 88 -166l28 -55h8l29 55q65 124 89 166l208 360h304zM849 1730l46 -166l-384 -65l-26 103z" />
    <glyph glyph-name="Thorn" unicode="&#xde;" horiz-adv-x="1256" 
d="M120 0v1365h262v-163h291q116 0 155 -1q119 -4 191.5 -35t119.5 -98q72 -102 72 -324q0 -211 -51 -307q-65 -121 -215 -148q-35 -6 -258 -11h-305v-278h-262zM382 504h295q143 0 189 20q53 22 70 92q9 37 9 114q0 117 -17 168q-25 75 -131 84q-24 2 -94 2h-321v-480z" />
    <glyph glyph-name="germandbls" unicode="&#xdf;" horiz-adv-x="1104" 
d="M116 0v1004q0 105 11.5 160t43.5 96q56 75 168 100q68 16 202 16q126 0 199 -15t120 -50q41 -31 65 -89t24 -126q0 -193 -207 -232v-4q129 -19 184 -69q92 -82 92 -336q0 -200 -47 -304q-43 -96 -134 -133q-75 -30 -195 -30q-99 0 -194 24l9 175q10 -2 28 -8
q51 -17 122 -17q80 0 120 31q39 31 49 123q6 51 6 164q0 96 -13 151.5t-44 92.5q-45 55 -158 55q-11 0 -77 -1v173q23 -1 35 -1q112 0 151 19q49 23 49 99q0 81 -38 110q-38 28 -145 28q-82 0 -120 -15q-54 -20 -68 -92q-6 -30 -6 -82v-1017h-232z" />
    <glyph glyph-name="agrave" unicode="&#xe0;" horiz-adv-x="1072" 
d="M351 679h-234q1 140 47 198q48 59 162 78q69 12 203 12q202 0 289 -43q115 -56 131 -195q8 -69 8 -104v-625h-232l11 131l-6 1q-32 -68 -79 -99q-43 -27 -91 -35q-58 -9 -134 -9q-107 0 -170.5 16.5t-106.5 56.5q-71 65 -71 219q0 169 77 232q84 69 276 69q152 0 222 -32
q41 -18 68 -77h4v155q0 91 -25 133q-33 54 -167 54q-141 0 -168 -52q-12 -24 -14 -84zM513 429q-123 0 -166 -32q-33 -24 -33 -102q0 -90 42 -116q43 -26 162 -26q130 0 176 38q33 27 33 100q0 74 -30 100q-44 38 -184 38zM346 1368l325 -213l-50 -95l-358 154z" />
    <glyph glyph-name="aacute" unicode="&#xe1;" horiz-adv-x="1072" 
d="M351 679h-234q1 140 47 198q48 59 162 78q69 12 203 12q202 0 289 -43q115 -56 131 -195q8 -69 8 -104v-625h-232l11 131l-6 1q-32 -68 -79 -99q-43 -27 -91 -35q-58 -9 -134 -9q-107 0 -170.5 16.5t-106.5 56.5q-71 65 -71 219q0 169 77 232q84 69 276 69q152 0 222 -32
q41 -18 68 -77h4v155q0 91 -25 133q-33 54 -167 54q-141 0 -168 -52q-12 -24 -14 -84zM513 429q-123 0 -166 -32q-33 -24 -33 -102q0 -90 42 -116q43 -26 162 -26q130 0 176 38q33 27 33 100q0 74 -30 100q-44 38 -184 38zM726 1368l83 -154l-358 -154l-50 95z" />
    <glyph glyph-name="acircumflex" unicode="&#xe2;" horiz-adv-x="1072" 
d="M351 679h-234q1 140 47 198q48 59 162 78q69 12 203 12q202 0 289 -43q115 -56 131 -195q8 -69 8 -104v-625h-232l11 131l-6 1q-32 -68 -79 -99q-43 -27 -91 -35q-58 -9 -134 -9q-107 0 -170.5 16.5t-106.5 56.5q-71 65 -71 219q0 169 77 232q84 69 276 69q152 0 222 -32
q41 -18 68 -77h4v155q0 91 -25 133q-33 54 -167 54q-141 0 -168 -52q-12 -24 -14 -84zM513 429q-123 0 -166 -32q-33 -24 -33 -102q0 -90 42 -116q43 -26 162 -26q130 0 176 38q33 27 33 100q0 74 -30 100q-44 38 -184 38zM534 1351l301 -203l-51 -89l-250 126l-245 -126
l-52 89z" />
    <glyph glyph-name="atilde" unicode="&#xe3;" horiz-adv-x="1072" 
d="M351 679h-234q1 140 47 198q48 59 162 78q69 12 203 12q202 0 289 -43q115 -56 131 -195q8 -69 8 -104v-625h-232l11 131l-6 1q-32 -68 -79 -99q-43 -27 -91 -35q-58 -9 -134 -9q-107 0 -170.5 16.5t-106.5 56.5q-71 65 -71 219q0 169 77 232q84 69 276 69q152 0 222 -32
q41 -18 68 -77h4v155q0 91 -25 133q-33 54 -167 54q-141 0 -168 -52q-12 -24 -14 -84zM513 429q-123 0 -166 -32q-33 -24 -33 -102q0 -90 42 -116q43 -26 162 -26q130 0 176 38q33 27 33 100q0 74 -30 100q-44 38 -184 38zM760 1291l117 -64q-84 -154 -195 -154
q-67 0 -154 51q-53 30 -81 42q-18 8 -41 8q-53 0 -94 -77l-117 67q37 59 64 88q59 63 141 63q56 0 143 -49q97 -54 130 -54q46 0 87 79z" />
    <glyph glyph-name="adieresis" unicode="&#xe4;" horiz-adv-x="1072" 
d="M351 679h-234q1 140 47 198q48 59 162 78q69 12 203 12q202 0 289 -43q115 -56 131 -195q8 -69 8 -104v-625h-232l11 131l-6 1q-32 -68 -79 -99q-43 -27 -91 -35q-58 -9 -134 -9q-107 0 -170.5 16.5t-106.5 56.5q-71 65 -71 219q0 169 77 232q84 69 276 69q152 0 222 -32
q41 -18 68 -77h4v155q0 91 -25 133q-33 54 -167 54q-141 0 -168 -52q-12 -24 -14 -84zM513 429q-123 0 -166 -32q-33 -24 -33 -102q0 -90 42 -116q43 -26 162 -26q130 0 176 38q33 27 33 100q0 74 -30 100q-44 38 -184 38zM440 1281v-164h-181v164h181zM813 1281v-164h-181
v164h181z" />
    <glyph glyph-name="aring" unicode="&#xe5;" horiz-adv-x="1072" 
d="M351 679h-234q1 140 47 198q48 59 162 78q69 12 203 12q202 0 289 -43q115 -56 131 -195q8 -69 8 -104v-625h-232l11 131l-6 1q-32 -68 -79 -99q-43 -27 -91 -35q-58 -9 -134 -9q-107 0 -170.5 16.5t-106.5 56.5q-71 65 -71 219q0 169 77 232q84 69 276 69q152 0 222 -32
q41 -18 68 -77h4v155q0 91 -25 133q-33 54 -167 54q-141 0 -168 -52q-12 -24 -14 -84zM513 429q-123 0 -166 -32q-33 -24 -33 -102q0 -90 42 -116q43 -26 162 -26q130 0 176 38q33 27 33 100q0 74 -30 100q-44 38 -184 38zM539 1383q71 0 122 -56q43 -47 43 -112
q0 -75 -56 -125q-47 -43 -112 -43q-75 0 -125 56q-43 47 -43 114q0 72 56 123q47 43 115 43zM535 1300q-37 0 -62 -28q-22 -24 -22 -57q0 -38 28 -63q24 -22 57 -22q38 0 63 28q22 24 22 58q0 37 -28 62q-24 22 -58 22z" />
    <glyph glyph-name="ae" unicode="&#xe6;" horiz-adv-x="1672" 
d="M1593 445h-640q0 -152 19 -205q20 -52 85 -67q36 -9 107 -9q99 0 138 12q49 16 59 77q3 17 5 55h227v-31q0 -146 -83 -212q-51 -41 -132 -59t-209 -18q-171 0 -257 45q-66 34 -93 108h-5q-30 -70 -84 -103q-45 -27 -106.5 -38t-165.5 -11q-119 0 -189.5 17t-117.5 58
q-73 64 -73 223q0 150 69 215q82 76 307 76q126 0 193 -30q46 -21 74 -77h4v164q0 88 -21 120q-35 57 -170 57q-87 0 -124 -14q-56 -20 -59 -116h-236q7 129 44 185q66 100 329 100q201 0 286 -40q49 -22 75 -90h4q22 55 67 81q82 49 253 49q245 0 333 -95q60 -66 76 -175
q11 -79 11 -177v-75zM1369 589q-3 115 -27 150q-23 35 -80 47q-36 7 -104 7q-86 0 -127 -17q-63 -26 -74 -113q-3 -22 -4 -74h416zM506 419q-106 0 -147 -24q-45 -26 -45 -103q0 -79 42 -108q42 -28 156 -28q130 0 176 32q41 28 41 99q0 77 -40 104q-42 28 -183 28z" />
    <glyph glyph-name="ccedilla" unicode="&#xe7;" horiz-adv-x="1005" 
d="M722 365h228q0 -117 -14 -178q-29 -126 -153 -172q-72 -26 -243 -26q-187 0 -271 34q-139 56 -173 210q-18 80 -18 247q0 176 23 258q40 146 169 195q88 34 241 34q201 0 296 -46q104 -50 124 -196q5 -40 6 -106h-227q0 48 -6 75q-12 58 -63 78q-36 14 -127 14
q-134 0 -169 -56q-31 -51 -31 -263t51 -262q36 -35 167 -35q86 0 127 16q51 21 60 103q3 25 3 76zM561 -101l88 -106l-206 -140l-64 70z" />
    <glyph glyph-name="egrave" unicode="&#xe8;" horiz-adv-x="1037" 
d="M729 306h230v-25q0 -154 -81 -219q-63 -50 -157 -62q-86 -11 -184 -11q-158 0 -247.5 27.5t-138.5 90.5q-51 65 -63 178q-10 93 -10 199q0 197 30 284q47 135 192 177q82 23 229 23q134 0 215 -22.5t127 -71.5q67 -72 80 -197q8 -71 8 -159v-81h-647q-1 -25 -1 -38
q0 -148 42 -193t173 -45q156 0 185 48q17 27 18 97zM731 580q0 28 -1 37q-1 104 -33 139q-27 29 -77 36q-40 5 -95 5q-96 0 -136 -16q-62 -26 -72 -122q-2 -24 -3 -79h417zM329 1368l325 -213l-50 -95l-358 154z" />
    <glyph glyph-name="eacute" unicode="&#xe9;" horiz-adv-x="1037" 
d="M729 306h230v-25q0 -154 -81 -219q-63 -50 -157 -62q-86 -11 -184 -11q-158 0 -247.5 27.5t-138.5 90.5q-51 65 -63 178q-10 93 -10 199q0 197 30 284q47 135 192 177q82 23 229 23q134 0 215 -22.5t127 -71.5q67 -72 80 -197q8 -71 8 -159v-81h-647q-1 -25 -1 -38
q0 -148 42 -193t173 -45q156 0 185 48q17 27 18 97zM731 580q0 28 -1 37q-1 104 -33 139q-27 29 -77 36q-40 5 -95 5q-96 0 -136 -16q-62 -26 -72 -122q-2 -24 -3 -79h417zM709 1368l83 -154l-358 -154l-50 95z" />
    <glyph glyph-name="ecircumflex" unicode="&#xea;" horiz-adv-x="1037" 
d="M729 306h230v-25q0 -154 -81 -219q-63 -50 -157 -62q-86 -11 -184 -11q-158 0 -247.5 27.5t-138.5 90.5q-51 65 -63 178q-10 93 -10 199q0 197 30 284q47 135 192 177q82 23 229 23q134 0 215 -22.5t127 -71.5q67 -72 80 -197q8 -71 8 -159v-81h-647q-1 -25 -1 -38
q0 -148 42 -193t173 -45q156 0 185 48q17 27 18 97zM731 580q0 28 -1 37q-1 104 -33 139q-27 29 -77 36q-40 5 -95 5q-96 0 -136 -16q-62 -26 -72 -122q-2 -24 -3 -79h417zM517 1351l301 -203l-51 -89l-250 126l-245 -126l-52 89z" />
    <glyph glyph-name="edieresis" unicode="&#xeb;" horiz-adv-x="1037" 
d="M729 306h230v-25q0 -154 -81 -219q-63 -50 -157 -62q-86 -11 -184 -11q-158 0 -247.5 27.5t-138.5 90.5q-51 65 -63 178q-10 93 -10 199q0 197 30 284q47 135 192 177q82 23 229 23q134 0 215 -22.5t127 -71.5q67 -72 80 -197q8 -71 8 -159v-81h-647q-1 -25 -1 -38
q0 -148 42 -193t173 -45q156 0 185 48q17 27 18 97zM731 580q0 28 -1 37q-1 104 -33 139q-27 29 -77 36q-40 5 -95 5q-96 0 -136 -16q-62 -26 -72 -122q-2 -24 -3 -79h417zM423 1281v-164h-181v164h181zM796 1281v-164h-181v164h181z" />
    <glyph glyph-name="igrave" unicode="&#xec;" horiz-adv-x="457" 
d="M344 956v-956h-232v956h232zM38 1368l325 -213l-50 -95l-358 154z" />
    <glyph glyph-name="iacute" unicode="&#xed;" horiz-adv-x="457" 
d="M344 956v-956h-232v956h232zM419 1368l83 -154l-358 -154l-50 95z" />
    <glyph glyph-name="icircumflex" unicode="&#xee;" horiz-adv-x="457" 
d="M345 956v-956h-232v956h232zM227 1351l301 -203l-51 -89l-250 126l-245 -126l-52 89z" />
    <glyph glyph-name="idieresis" unicode="&#xef;" horiz-adv-x="457" 
d="M344 956v-956h-232v956h232zM173 1281v-164h-181v164h181zM464 1281v-164h-181v164h181z" />
    <glyph glyph-name="eth" unicode="&#xf0;" horiz-adv-x="1054" 
d="M499 1116l-165 -85l-51 101l156 80l-96 153h233l42 -65l147 75l50 -101l-137 -71l195 -305q53 -82 62 -102q42 -88 42 -286q0 -280 -110 -406q-99 -114 -333 -114q-246 0 -350 99q-109 103 -109 392t121 395q102 90 328 90q27 0 72 -1zM524 787q-120 0 -157 -31
q-38 -31 -47 -108q-9 -72 -9 -163q0 -126 10.5 -187.5t37.5 -88.5q38 -40 167 -40q135 0 174 46q34 40 39 132q5 74 5 154q0 111 -11.5 168.5t-39.5 82.5q-38 35 -169 35z" />
    <glyph glyph-name="ntilde" unicode="&#xf1;" horiz-adv-x="1087" 
d="M113 956h232l-8 -161l5 -1q66 173 296 173q233 0 304 -124q33 -58 33 -192v-651h-232v576q0 107 -18 143q-30 62 -151 62q-146 0 -198 -84q-28 -46 -28 -130v-567h-235v956zM768 1291l117 -64q-84 -154 -195 -154q-67 0 -154 51q-53 30 -81 42q-18 8 -41 8q-53 0 -94 -77
l-117 67q37 59 64 88q59 63 141 63q56 0 143 -49q97 -54 130 -54q46 0 87 79z" />
    <glyph glyph-name="ograve" unicode="&#xf2;" horiz-adv-x="1060" 
d="M545 967q165 0 243 -26q134 -44 173 -192q21 -81 21 -248q0 -207 -28 -302q-24 -82 -72 -127t-132 -65q-74 -18 -219 -18q-143 0 -224 19t-129 64q-77 70 -91 207q-9 91 -9 210q0 213 32 296q53 137 212 169q68 13 223 13zM527 787q-120 0 -157 -31q-38 -31 -47 -108
q-9 -71 -9 -163q0 -127 10.5 -188t36.5 -88q39 -40 168 -40q135 0 173 46q33 40 39 132q5 75 5 153q0 111 -11.5 169t-39.5 83q-38 35 -168 35zM340 1368l325 -213l-50 -95l-358 154z" />
    <glyph glyph-name="oacute" unicode="&#xf3;" horiz-adv-x="1060" 
d="M545 967q165 0 243 -26q134 -44 173 -192q21 -81 21 -248q0 -207 -28 -302q-24 -82 -72 -127t-132 -65q-74 -18 -219 -18q-143 0 -224 19t-129 64q-77 70 -91 207q-9 91 -9 210q0 213 32 296q53 137 212 169q68 13 223 13zM527 787q-120 0 -157 -31q-38 -31 -47 -108
q-9 -71 -9 -163q0 -127 10.5 -188t36.5 -88q39 -40 168 -40q135 0 173 46q33 40 39 132q5 75 5 153q0 111 -11.5 169t-39.5 83q-38 35 -168 35zM721 1368l83 -154l-358 -154l-50 95z" />
    <glyph glyph-name="ocircumflex" unicode="&#xf4;" horiz-adv-x="1060" 
d="M545 967q165 0 243 -26q134 -44 173 -192q21 -81 21 -248q0 -207 -28 -302q-24 -82 -72 -127t-132 -65q-74 -18 -219 -18q-143 0 -224 19t-129 64q-77 70 -91 207q-9 91 -9 210q0 213 32 296q53 137 212 169q68 13 223 13zM527 787q-120 0 -157 -31q-38 -31 -47 -108
q-9 -71 -9 -163q0 -127 10.5 -188t36.5 -88q39 -40 168 -40q135 0 173 46q33 40 39 132q5 75 5 153q0 111 -11.5 169t-39.5 83q-38 35 -168 35zM528 1351l301 -203l-51 -89l-250 126l-245 -126l-52 89z" />
    <glyph glyph-name="otilde" unicode="&#xf5;" horiz-adv-x="1060" 
d="M545 967q165 0 243 -26q134 -44 173 -192q21 -81 21 -248q0 -207 -28 -302q-24 -82 -72 -127t-132 -65q-74 -18 -219 -18q-143 0 -224 19t-129 64q-77 70 -91 207q-9 91 -9 210q0 213 32 296q53 137 212 169q68 13 223 13zM527 787q-120 0 -157 -31q-38 -31 -47 -108
q-9 -71 -9 -163q0 -127 10.5 -188t36.5 -88q39 -40 168 -40q135 0 173 46q33 40 39 132q5 75 5 153q0 111 -11.5 169t-39.5 83q-38 35 -168 35zM754 1291l117 -64q-84 -154 -195 -154q-67 0 -154 51q-53 30 -81 42q-18 8 -41 8q-53 0 -94 -77l-117 67q37 59 64 88
q59 63 141 63q56 0 143 -49q97 -54 130 -54q46 0 87 79z" />
    <glyph glyph-name="odieresis" unicode="&#xf6;" horiz-adv-x="1060" 
d="M545 967q165 0 243 -26q134 -44 173 -192q21 -81 21 -248q0 -207 -28 -302q-24 -82 -72 -127t-132 -65q-74 -18 -219 -18q-143 0 -224 19t-129 64q-77 70 -91 207q-9 91 -9 210q0 213 32 296q53 137 212 169q68 13 223 13zM527 787q-120 0 -157 -31q-38 -31 -47 -108
q-9 -71 -9 -163q0 -127 10.5 -188t36.5 -88q39 -40 168 -40q135 0 173 46q33 40 39 132q5 75 5 153q0 111 -11.5 169t-39.5 83q-38 35 -168 35zM434 1281v-164h-181v164h181zM807 1281v-164h-181v164h181z" />
    <glyph glyph-name="divide" unicode="&#xf7;" horiz-adv-x="1285" 
d="M646 1207q61 0 104 -48q36 -40 36 -95q0 -64 -47 -106q-42 -37 -96 -37q-63 0 -106 48q-37 41 -37 97q0 60 46 103q40 38 100 38zM645 445q62 0 105 -48q36 -40 36 -95q0 -64 -47 -106q-42 -37 -96 -37q-63 0 -106 48q-37 41 -37 97q0 60 46 103q40 38 99 38zM135 789
h1016v-213h-1016v213z" />
    <glyph glyph-name="oslash" unicode="&#xf8;" horiz-adv-x="1043" 
d="M12 -8v143l82 66q-25 86 -25 283q0 216 33 301q53 137 212 169q67 13 204 13q226 0 308 -44q43 -23 78 -70l127 102v-143l-80 -64q23 -92 23 -256q0 -296 -80 -399q-55 -71 -166 -90q-81 -14 -188 -14q-209 0 -301 39q-54 23 -95 70zM332 241q24 -46 69 -61
q34 -11 116 -11q145 0 180 51q41 59 41 224q0 12 -3 117q0 8 -1 22zM715 710q-15 34 -35 45q-56 30 -168 30q-52 0 -88 -7q-119 -25 -119 -311q0 -40 5 -102z" />
    <glyph glyph-name="ugrave" unicode="&#xf9;" horiz-adv-x="1080" 
d="M962 956v-956h-232l13 164l-4 1q-29 -75 -81 -115q-79 -61 -228 -61q-216 0 -288 140q-33 64 -33 185v642h232v-587q0 -102 18 -134q33 -60 151 -60q153 0 199 96q21 45 21 163v522h232zM350 1368l325 -213l-50 -95l-358 154z" />
    <glyph glyph-name="uacute" unicode="&#xfa;" horiz-adv-x="1080" 
d="M962 956v-956h-232l13 164l-4 1q-29 -75 -81 -115q-79 -61 -228 -61q-216 0 -288 140q-33 64 -33 185v642h232v-587q0 -102 18 -134q33 -60 151 -60q153 0 199 96q21 45 21 163v522h232zM731 1368l83 -154l-358 -154l-50 95z" />
    <glyph glyph-name="ucircumflex" unicode="&#xfb;" horiz-adv-x="1080" 
d="M962 956v-956h-232l13 164l-4 1q-29 -75 -81 -115q-79 -61 -228 -61q-216 0 -288 140q-33 64 -33 185v642h232v-587q0 -102 18 -134q33 -60 151 -60q153 0 199 96q21 45 21 163v522h232zM538 1351l301 -203l-51 -89l-250 126l-245 -126l-52 89z" />
    <glyph glyph-name="udieresis" unicode="&#xfc;" horiz-adv-x="1080" 
d="M962 956v-956h-232l13 164l-4 1q-29 -75 -81 -115q-79 -61 -228 -61q-216 0 -288 140q-33 64 -33 185v642h232v-587q0 -102 18 -134q33 -60 151 -60q153 0 199 96q21 45 21 163v522h232zM444 1281v-164h-181v164h181zM817 1281v-164h-181v164h181z" />
    <glyph glyph-name="yacute" unicode="&#xfd;" horiz-adv-x="890" 
d="M900 956l-251 -1016q-44 -176 -94 -248q-81 -117 -289 -117q-39 0 -81 4v169q31 -2 49 -2q58 0 96 28q41 30 73 147q10 34 17 79h-117l-313 956h246l120 -405q64 -217 117 -406h5q38 186 89 406l92 405h241zM635 1368l83 -154l-358 -154l-50 95z" />
    <glyph glyph-name="thorn" unicode="&#xfe;" horiz-adv-x="1094" 
d="M113 1365h232v-551l5 -1q44 87 98 116q70 39 204 39q185 0 268 -84q66 -67 82 -179q14 -99 14 -218q0 -216 -35 -311q-47 -123 -153 -162q-66 -25 -177 -25q-127 0 -195 34q-62 32 -101 116h-4v-549h-238v1775zM563 788q-127 0 -167 -51q-44 -56 -44 -256q0 -197 51 -258
q42 -50 169 -50q122 0 160 46q48 58 48 247q0 213 -44 272q-38 50 -173 50z" />
    <glyph glyph-name="ydieresis" unicode="&#xff;" horiz-adv-x="890" 
d="M900 956l-251 -1016q-44 -176 -94 -248q-81 -117 -289 -117q-39 0 -81 4v169q31 -2 49 -2q58 0 96 28q41 30 73 147q10 34 17 79h-117l-313 956h246l120 -405q64 -217 117 -406h5q38 186 89 406l92 405h241zM349 1281v-164h-181v164h181zM722 1281v-164h-181v164h181z
" />
    <glyph glyph-name="Cacute" unicode="&#x106;" horiz-adv-x="1265" 
d="M857 1730l46 -166l-384 -65l-26 103zM963 487h259v-46q1 -201 -39 -277q-68 -133 -245 -163q-76 -13 -313 -13q-174 0 -257.5 18t-149.5 71q-107 85 -130 244q-20 136 -20 470q0 202 28 310q33 131 156 204q92 55 246 67q68 5 232 5q190 0 269 -26q176 -57 202 -272
q6 -46 9 -168h-259q-1 27 -1 34q-3 137 -55 174q-47 33 -207 33q-136 0 -207 -14q-116 -22 -133 -151q-8 -63 -8 -242q0 -302 17 -385q15 -74 60 -107q56 -40 237 -40q211 0 264 46q46 41 46 161q0 23 -1 67z" />
    <glyph glyph-name="cacute" unicode="&#x107;" horiz-adv-x="1005" 
d="M693 1368l83 -154l-358 -154l-50 95zM722 365h228q0 -117 -14 -178q-29 -126 -153 -172q-72 -26 -243 -26q-187 0 -271 34q-139 56 -173 210q-18 80 -18 247q0 176 23 258q40 146 169 195q88 34 241 34q201 0 296 -46q104 -50 124 -196q5 -40 6 -106h-227q0 48 -6 75
q-12 58 -63 78q-36 14 -127 14q-134 0 -169 -56q-31 -51 -31 -263t51 -262q36 -35 167 -35q86 0 127 16q51 21 60 103q3 25 3 76z" />
    <glyph glyph-name="Ccaron" unicode="&#x10c;" horiz-adv-x="1265" 
d="M633 1468l-324 191l43 91l281 -114l279 114l44 -91zM963 487h259v-46q1 -201 -39 -277q-68 -133 -245 -163q-76 -13 -313 -13q-174 0 -257.5 18t-149.5 71q-107 85 -130 244q-20 136 -20 470q0 202 28 310q33 131 156 204q92 55 246 67q68 5 232 5q190 0 269 -26
q176 -57 202 -272q6 -46 9 -168h-259q-1 27 -1 34q-3 137 -55 174q-47 33 -207 33q-136 0 -207 -14q-116 -22 -133 -151q-8 -63 -8 -242q0 -302 17 -385q15 -74 60 -107q56 -40 237 -40q211 0 264 46q46 41 46 161q0 23 -1 67z" />
    <glyph glyph-name="ccaron" unicode="&#x10d;" horiz-adv-x="1005" 
d="M499 1063l-298 197l52 91l246 -119l258 119l48 -91zM722 365h228q0 -117 -14 -178q-29 -126 -153 -172q-72 -26 -243 -26q-187 0 -271 34q-139 56 -173 210q-18 80 -18 247q0 176 23 258q40 146 169 195q88 34 241 34q201 0 296 -46q104 -50 124 -196q5 -40 6 -106h-227
q0 48 -6 75q-12 58 -63 78q-36 14 -127 14q-134 0 -169 -56q-31 -51 -31 -263t51 -262q36 -35 167 -35q86 0 127 16q51 21 60 103q3 25 3 76z" />
    <glyph glyph-name="dmacron" unicode="&#x111;" horiz-adv-x="1079" 
d="M967 1191h108v-113h-108v-1078h-226l9 154l-5 1q-33 -81 -86 -118q-71 -49 -206 -49q-200 0 -285 89q-65 68 -78 180q-11 96 -11 221q0 208 25 286q42 132 158 176q72 27 184 27q139 0 213 -50q46 -31 72 -98l4 1v258h-353v113h353v174h232v-174zM513 783
q-115 0 -154 -42q-46 -50 -46 -253q0 -209 42 -266q39 -54 162 -54q137 0 179 58q21 29 29.5 89t8.5 180q0 106 -10 157t-37 82q-43 49 -174 49z" />
    <glyph glyph-name="Gbreve" unicode="&#x11e;" horiz-adv-x="1325" 
d="M347 1739h135q13 -54 42 -82q54 -52 139 -52q83 0 137 51q30 28 43 83h135q-16 -96 -63 -152q-93 -112 -251 -112q-172 0 -263 127q-42 57 -54 137zM657 726h601q4 -91 4 -280q0 -158 -29 -243t-102 -138q-76 -55 -186 -66q-117 -11 -294 -11q-203 0 -295 25
q-213 59 -267 285q-20 82 -20 246q0 256 5 366q11 268 151 376q94 73 234 84q94 7 244 7t222.5 -6t123.5 -23q173 -56 201 -252q7 -47 8 -140h-262q-6 103 -33 144q-28 41 -113 51q-57 7 -184 7q-141 0 -209 -22q-83 -26 -108 -130q-11 -50 -14 -307q2 -221 4 -260
q6 -92 30.5 -140t76.5 -66q72 -25 241 -25q211 0 261 49q53 51 53 217q0 20 -1 58h-343v194z" />
    <glyph glyph-name="gbreve" unicode="&#x11f;" horiz-adv-x="1083" 
d="M245 1337h137q31 -141 160 -141t160 141h137q-18 -101 -62 -158q-89 -115 -233 -115q-90 0 -165 50q-111 74 -134 223zM971 956v-974q0 -182 -51 -267q-51 -83 -163 -116q-87 -25 -246 -25q-181 0 -268 41q-85 40 -112 118q-16 48 -18 168h222q1 -78 21 -107
q29 -42 170 -42q145 0 186 59q27 37 27 120v215l-5 1q-27 -69 -79 -103q-77 -50 -204 -50q-206 0 -294 106q-55 66 -67 164q-12 99 -12 225q0 209 35 297q48 120 169 159q68 22 164 22q148 0 221 -56q45 -35 78 -113h5l-11 158h232zM518 783q-123 0 -162 -47
q-32 -39 -38 -117q-4 -60 -4 -134q0 -143 14 -197q20 -78 93 -98q39 -11 98 -11q131 0 174 56q32 40 37 109q5 60 5 148q0 129 -13 175q-21 80 -87 102q-41 14 -117 14z" />
    <glyph glyph-name="Idot" unicode="&#x130;" horiz-adv-x="504" 
d="M342 1689v-162h-180v162h180zM382 1365v-1365h-262v1365h262z" />
    <glyph glyph-name="dotlessi" unicode="&#x131;" horiz-adv-x="457" 
d="M345 956v-956h-232v956h232z" />
    <glyph glyph-name="Lslash" unicode="&#x141;" horiz-adv-x="1049" 
d="M138 1365h262v-391l261 230v-197l-261 -230v-547h637v-230h-899v586l-139 -123v198l139 122v582z" />
    <glyph glyph-name="lslash" unicode="&#x142;" horiz-adv-x="464" 
d="M353 783v-783h-239v634l-111 -89v142l111 89v589h239v-441l107 89v-141z" />
    <glyph glyph-name="OE" unicode="&#x152;" horiz-adv-x="2019" 
d="M1274 1141v-346h630v-192h-630v-382h672v-218h-920l8 142h-8q-38 -62 -95 -98q-60 -38 -117 -48q-64 -11 -170 -11q-258 0 -368 54q-126 62 -173 191q-32 90 -34 248v163q0 294 10 369q16 122 65.5 195.5t144.5 117.5q110 51 319 51q172 0 250 -25q116 -36 168 -141h8
l-8 148h913v-218h-665zM620 1156q-94 0 -140 -10.5t-78 -38.5q-53 -47 -62 -169q-4 -57 -4 -341q0 -126 2 -163q12 -176 120 -206q62 -18 231 -18q161 0 220 25q66 28 89 108q19 69 19 295q0 293 -13 372q-17 103 -124 130q-61 16 -260 16z" />
    <glyph glyph-name="oe" unicode="&#x153;" horiz-adv-x="1692" 
d="M1614 444h-640q-1 -148 18 -202q20 -56 89 -72q35 -8 107 -8q94 0 131 15q52 21 60 77q2 15 5 52h230q0 -83 -13 -132q-24 -93 -114 -142q-71 -38 -248 -43q-34 -1 -90 -1q-116 0 -186 31q-71 31 -103 108h-4q-35 -70 -83 -97q-49 -29 -112 -35q-56 -6 -123 -6
q-184 0 -267 29q-138 49 -173 201q-20 84 -20 274q0 203 31 286q48 130 188 168q75 20 187 20q207 0 294 -42q51 -25 79 -94h3q31 65 80 92q80 44 254 44t264 -44q141 -71 153 -310q2 -49 3 -169zM1388 588q-2 102 -21 143q-20 43 -79 56q-33 8 -96 8q-103 0 -145 -19
q-62 -28 -72 -120q-2 -21 -4 -68h417zM529 787q-129 0 -168 -37q-34 -32 -41 -101q-6 -61 -6 -147q0 -168 12 -222q14 -58 46 -81q42 -30 151 -30q137 0 177 40q34 35 41 110q4 52 4 125q0 182 -10 232q-12 55 -40 77q-42 34 -166 34z" />
    <glyph glyph-name="Scedilla" unicode="&#x15e;" horiz-adv-x="1226" 
d="M666 -102l101 -116l-230 -164l-74 78zM1133 967h-253q-1 108 -25 145q-25 39 -93 51q-42 8 -129 8q-110 0 -161.5 -7t-83.5 -26q-57 -35 -57 -149q0 -81 24 -121q27 -47 131 -57q32 -4 195 -13q177 -10 245 -24q150 -32 204 -137q36 -71 36 -225q0 -129 -19.5 -203
t-64.5 -118q-81 -79 -229 -93q-99 -10 -234 -10q-254 0 -349 29q-134 41 -179 166q-25 70 -27 249h252q1 -81 7 -114.5t25 -62.5q30 -45 114 -53q34 -3 184 -3q107 0 154.5 11t74.5 41q33 38 33 157q0 125 -75 152q-34 12 -261 26q-172 10 -224 19q-161 26 -225 121
q-54 82 -54 256q0 235 108 314q83 61 217 72q101 9 225 9q204 0 290 -22q150 -38 198 -165q26 -68 26 -177v-46z" />
    <glyph glyph-name="scedilla" unicode="&#x15f;" horiz-adv-x="1013" 
d="M910 693h-224q-7 63 -23 82q-18 24 -70 30q-28 3 -98 3q-129 0 -161 -22t-32 -93q0 -86 54 -102q24 -7 193 -15q164 -8 214 -19q108 -23 150 -103q33 -61 33 -158q0 -159 -88 -232q-59 -48 -143 -61q-95 -15 -219 -15q-192 0 -276 32q-106 39 -135 133q-16 50 -16 148
h238q-1 -22 -1 -33q0 -73 40 -98q35 -21 161 -21q135 0 177 30q33 24 33 94t-28 96q-26 24 -109 25q-252 3 -346 30q-96 27 -132 102q-27 55 -27 157q0 169 87 227q58 38 147 48q92 10 198 10q185 0 264 -29q126 -47 138 -187q1 -18 1 -59zM560 -101l93 -116l-224 -147
l-68 76z" />
    <glyph glyph-name="Scaron" unicode="&#x160;" horiz-adv-x="1226" 
d="M1133 967h-253q-1 108 -25 145q-25 39 -93 51q-42 8 -129 8q-110 0 -161.5 -7t-83.5 -26q-57 -35 -57 -149q0 -81 24 -121q27 -47 131 -57q32 -4 195 -13q177 -10 245 -24q150 -32 204 -137q36 -71 36 -225q0 -129 -19.5 -203t-64.5 -118q-81 -79 -229 -93
q-99 -10 -234 -10q-254 0 -349 29q-134 41 -179 166q-25 70 -27 249h252q1 -81 7 -114.5t25 -62.5q30 -45 114 -53q34 -3 184 -3q107 0 154.5 11t74.5 41q33 38 33 157q0 125 -75 152q-34 12 -261 26q-172 10 -224 19q-161 26 -225 121q-54 82 -54 256q0 235 108 314
q83 61 217 72q101 9 225 9q204 0 290 -22q150 -38 198 -165q26 -68 26 -177v-46zM614 1468l-324 191l43 91l281 -114l279 114l44 -91z" />
    <glyph glyph-name="scaron" unicode="&#x161;" horiz-adv-x="1013" 
d="M910 693h-224q-7 63 -23 82q-18 24 -70 30q-28 3 -98 3q-129 0 -161 -22t-32 -93q0 -86 54 -102q24 -7 193 -15q164 -8 214 -19q108 -23 150 -103q33 -61 33 -158q0 -159 -88 -232q-59 -48 -143 -61q-95 -15 -219 -15q-192 0 -276 32q-106 39 -135 133q-16 50 -16 148
h238q-1 -22 -1 -33q0 -73 40 -98q35 -21 161 -21q135 0 177 30q33 24 33 94t-28 96q-26 24 -109 25q-252 3 -346 30q-96 27 -132 102q-27 55 -27 157q0 169 87 227q58 38 147 48q92 10 198 10q185 0 264 -29q126 -47 138 -187q1 -18 1 -59zM503 1063l-298 197l52 91
l246 -119l258 119l48 -91z" />
    <glyph glyph-name="Ydieresis" unicode="&#x178;" horiz-adv-x="1248" 
d="M1254 1365l-506 -844v-521h-262v521l-492 844h300l206 -360q22 -38 88 -166l28 -55h8l29 55q65 124 89 166l208 360h304zM528 1689v-162h-180v162h180zM901 1689v-162h-180v162h180z" />
    <glyph glyph-name="Zcaron" unicode="&#x17d;" horiz-adv-x="1181" 
d="M1127 1365v-220l-754 -916v-8h763v-221h-1091v224l748 913v7h-715v221h1049zM591 1468l-324 191l43 91l281 -114l279 114l44 -91z" />
    <glyph glyph-name="zcaron" unicode="&#x17e;" horiz-adv-x="867" 
d="M82 956h745v-196l-512 -586h512v-174h-785v201l507 582h-467v173zM430 1063l-298 197l52 91l246 -119l258 119l48 -91z" />
    <glyph glyph-name="florin" unicode="&#x192;" horiz-adv-x="1285" 
d="M801 850l-142 -810q-26 -146 -52 -195q-37 -70 -100 -93q-94 -34 -274 -34q-42 0 -98 3l32 179q61 -7 100 -7q83 0 112 43q25 34 37 104l143 810h-161l31 174h160l30 171q35 198 101 251q86 71 317 71q32 0 99 -2l-32 -179q-45 5 -84 5q-94 0 -124 -42q-21 -29 -34 -104
l-30 -171h217l-31 -174h-217z" />
    <glyph glyph-name="circumflex" unicode="&#x2c6;" 
d="M510 1351l301 -203l-51 -89l-250 126l-245 -126l-52 89z" />
    <glyph glyph-name="caron" unicode="&#x2c7;" 
d="M508 1063l-298 197l52 91l246 -119l258 119l48 -91z" />
    <glyph glyph-name="macron" unicode="&#x2c9;" 
d="M242 1268h540v-144h-540v144z" />
    <glyph glyph-name="breve" unicode="&#x2d8;" 
d="M215 1337h137q31 -141 160 -141t160 141h137q-18 -101 -62 -158q-89 -115 -233 -115q-90 0 -165 50q-111 74 -134 223z" />
    <glyph glyph-name="dotaccent" unicode="&#x2d9;" 
d="M602 1281v-164h-181v164h181z" />
    <glyph glyph-name="ring" unicode="&#x2da;" 
d="M515 1383q71 0 122 -56q43 -47 43 -112q0 -75 -56 -125q-47 -43 -112 -43q-75 0 -125 56q-43 47 -43 114q0 72 56 123q47 43 115 43zM511 1300q-37 0 -62 -28q-22 -24 -22 -57q0 -38 28 -63q24 -22 57 -22q38 0 63 28q22 24 22 58q0 37 -28 62q-24 22 -58 22z" />
    <glyph glyph-name="ogonek" unicode="&#x2db;" 
d="M635 0h138q-149 -89 -149 -157q0 -37 30 -56q26 -17 66 -17q28 0 72 15v-116q-50 -18 -98 -18q-59 0 -104 21q-41 20 -65 58.5t-24 84.5q0 109 134 185z" />
    <glyph glyph-name="tilde" unicode="&#x2dc;" 
d="M736 1291l117 -64q-84 -154 -195 -154q-67 0 -154 51q-53 30 -81 42q-18 8 -41 8q-53 0 -94 -77l-117 67q37 59 64 88q59 63 141 63q56 0 143 -49q97 -54 130 -54q46 0 87 79z" />
    <glyph glyph-name="hungarumlaut" unicode="&#x2dd;" 
d="M495 1373l104 -108l-269 -208l-62 69zM803 1373l104 -108l-269 -208l-63 69z" />
    <glyph glyph-name="pi" unicode="&#x3c0;" horiz-adv-x="1309" 
d="M227 0v777h-156v205h1166v-205h-153v-777h-229v777h-399v-777h-229z" />
    <glyph glyph-name="endash" unicode="&#x2013;" horiz-adv-x="1283" 
d="M213 609h858v-220h-858v220z" />
    <glyph glyph-name="emdash" unicode="&#x2014;" horiz-adv-x="1442" 
d="M5 609h1437v-220h-1442z" />
    <glyph glyph-name="quoteleft" unicode="&#x2018;" horiz-adv-x="423" 
d="M83 917v238q0 118 25 163q44 75 174 75q16 0 48 -2v-107q-52 -1 -77 -15q-33 -19 -33 -73q0 -9 1 -34h90v-245h-228z" />
    <glyph glyph-name="quoteright" unicode="&#x2019;" horiz-adv-x="458" 
d="M346 1365v-238q0 -118 -25 -163q-43 -75 -174 -75q-16 0 -48 2v107q52 1 77 15q33 19 33 73q0 9 -1 34h-90v245h228z" />
    <glyph glyph-name="quotesinglbase" unicode="&#x201a;" horiz-adv-x="458" 
d="M339 245v-237q0 -119 -25 -163q-43 -76 -174 -76q-16 0 -48 2v107q52 1 77 15q33 19 33 73q0 9 -1 34h-90v245h228z" />
    <glyph glyph-name="quotedblleft" unicode="&#x201c;" horiz-adv-x="770" 
d="M431 917v238q0 118 25 163q43 75 174 75q16 0 48 -2v-107q-52 -1 -77 -15q-33 -19 -33 -73q0 -9 1 -34h90v-245h-228zM83 917v238q0 118 25 163q44 75 174 75q16 0 48 -2v-107q-52 -1 -77 -15q-33 -19 -33 -73q0 -9 1 -34h90v-245h-228z" />
    <glyph glyph-name="quotedblright" unicode="&#x201d;" horiz-adv-x="770" 
d="M339 1365v-238q0 -118 -25 -163q-43 -75 -174 -75q-16 0 -48 2v107q52 1 77 15q33 19 33 73q0 9 -1 34h-90v245h228zM687 1365v-238q0 -118 -25 -163q-43 -75 -174 -75q-16 0 -48 2v107q52 1 77 15q33 19 33 72q0 11 -1 35h-90v245h228z" />
    <glyph glyph-name="quotedblbase" unicode="&#x201e;" horiz-adv-x="770" 
d="M339 245v-237q0 -119 -25 -163q-43 -76 -174 -76q-16 0 -48 2v107q52 1 77 15q33 19 33 73q0 9 -1 34h-90v245h228zM687 245v-237q0 -119 -25 -163q-43 -76 -174 -76q-16 0 -48 2v107q52 1 77 15q33 19 33 72q0 11 -1 35h-90v245h228z" />
    <glyph glyph-name="dagger" unicode="&#x2020;" horiz-adv-x="1283" 
d="M759 1365v-385h335v-175h-335v-1215h-234v1215h-336v175h336v385h234z" />
    <glyph glyph-name="daggerdbl" unicode="&#x2021;" horiz-adv-x="1283" 
d="M759 1365v-385h335v-175h-335v-654h335v-175h-335v-386h-234v386h-336v175h336v654h-336v175h336v385h234z" />
    <glyph glyph-name="bullet" unicode="&#x2022;" horiz-adv-x="1365" 
d="M689 978q113 0 196 -83q84 -83 84 -201t-83 -201t-201 -83q-116 0 -199 82q-85 84 -85 202q0 120 84 202q86 82 204 82z" />
    <glyph glyph-name="ellipsis" unicode="&#x2026;" horiz-adv-x="1299" 
d="M331 249v-249h-228v249h228zM764 249v-249h-228v249h228zM1197 249v-249h-228v249h228z" />
    <glyph glyph-name="perthousand" unicode="&#x2030;" horiz-adv-x="2361" 
d="M354 1369q123 0 165 -16q85 -34 106 -138q8 -38 8 -161q0 -174 -9 -217q-24 -111 -111 -141q-49 -17 -167 -17q-127 0 -172 17q-92 36 -116 147q-11 55 -11 181q0 156 19 213q32 100 129 123q36 9 159 9zM331 1253q-65 0 -86 -7q-45 -14 -53 -82q-3 -23 -3 -85v-46
q1 -135 4 -162t20 -47q16 -19 56 -24q21 -3 99 -3q92 0 111 38q14 28 16 99l1 100q0 120 -2.5 144t-15.5 43q-17 25 -58 29q-29 3 -89 3zM1313 1365l-862 -1365h-131l859 1365h134zM1305 686q121 0 163 -16q85 -34 106 -138q8 -38 8 -146q0 -189 -9 -232q-25 -111 -111 -141
q-49 -17 -167 -17q-127 0 -172 17q-92 36 -115 147q-12 55 -12 180q0 156 19 214q32 99 129 123q36 9 161 9zM1281 570q-58 0 -82 -5.5t-37 -21.5q-24 -28 -24 -147q0 -183 7 -217q11 -51 61 -60q23 -5 110 -5q92 0 112 39q14 27 15 98l2 100q-1 121 -3 144.5t-15 42.5
q-17 24 -58 29q-29 3 -88 3zM2033 686q121 0 163 -16q85 -34 106 -138q8 -38 8 -146q0 -189 -9 -232q-25 -111 -111 -141q-49 -17 -167 -17q-127 0 -172 17q-92 36 -115 147q-12 55 -12 180q0 156 19 214q32 99 129 123q36 9 161 9zM2009 570q-58 0 -82 -5.5t-37 -21.5
q-24 -28 -24 -147q0 -183 7 -217q11 -51 61 -60q23 -5 110 -5q92 0 112 39q14 27 15 98l2 100q-1 121 -3 144.5t-15 42.5q-17 24 -58 29q-29 3 -88 3z" />
    <glyph glyph-name="guilsinglleft" unicode="&#x2039;" horiz-adv-x="590" 
d="M331 996l155 -88l-195 -394l207 -385l-146 -93l-260 478z" />
    <glyph glyph-name="guilsinglright" unicode="&#x203a;" horiz-adv-x="590" 
d="M259 996l240 -482l-260 -478l-146 93l206 385l-194 394z" />
    <glyph glyph-name="franc" unicode="&#x20a3;" horiz-adv-x="1445" 
d="M386 1143v-363h289v-221h-289v-559h-267v1365h807v-222h-540zM744 819h231l-14 -133l5 -2q38 75 79 105q62 45 166 45q176 0 222 -144q18 -55 18 -240h-215v47q0 86 -17 118q-22 38 -89 38q-106 0 -140 -87q-15 -39 -15 -139v-427h-231v819z" />
    <glyph glyph-name="trademark" unicode="&#x2122;" horiz-adv-x="1693" 
d="M394 1222v-635h-166v635h-229v143h629v-143h-234zM1630 1365v-778h-164v424q0 61 6 170l1 22l-7 -21q-40 -119 -56 -160l-176 -435h-146l-177 432q-26 71 -64 181q8 -141 8 -189v-424h-164v778h256l143 -359q16 -39 56 -158l14 -41l13 40q38 117 55 159l141 359h261z" />
    <glyph glyph-name="Omega" unicode="&#x2126;" horiz-adv-x="1365" 
d="M59 0v205h307q-128 79 -194 168q-113 150 -113 375q0 279 182 466q180 184 443 184q262 0 442 -184q181 -187 181 -465q0 -237 -123 -390q-67 -82 -183 -154h306v-205h-546v183q125 70 191 153q121 154 121 387q0 191 -103 321q-116 149 -285 149q-152 0 -266 -119
q-126 -132 -126 -353q0 -365 314 -538v-183h-548z" />
    <glyph glyph-name="partialdiff" unicode="&#x2202;" 
d="M142 1165l30 199q189 -23 325 -75q126 -49 229.5 -144t165.5 -218q88 -175 88 -392q0 -215 -92 -354q-64 -96 -163 -148q-98 -52 -216 -52q-143 0 -261 80q-97 65 -151.5 168t-54.5 220q0 88 34 172t94 145q120 121 296 121q103 0 181 -44q39 -21 85 -67
q-52 116 -114 180q-101 103 -271 165q-88 31 -205 44zM509 719q-101 0 -171 -86q-64 -79 -64 -194q0 -130 81 -217q64 -69 154 -69q107 0 173 89q64 85 64 200q0 140 -85 218q-63 59 -152 59z" />
    <glyph glyph-name="Delta" unicode="&#x2206;" horiz-adv-x="1365" 
d="M41 0l514 1365h248l522 -1365h-1284zM368 214h625l-313 873z" />
    <glyph glyph-name="product" unicode="&#x220f;" horiz-adv-x="1479" 
d="M80 1536h1320v-213h-169v-1621h169v-214h-563v214h165v1621h-525v-1621h164v-214h-561v214h168v1621h-168v213z" />
    <glyph glyph-name="summation" unicode="&#x2211;" horiz-adv-x="1365" 
d="M1255 1536v-500h-205l-24 286h-721l512 -774l-512 -846h741l13 283h215v-497h-1227v237l502 823l-502 751v237h1208z" />
    <glyph glyph-name="minus" unicode="&#x2212;" horiz-adv-x="1285" 
d="M135 789h1016v-213h-1016v213z" />
    <glyph glyph-name="fraction" unicode="&#x2215;" horiz-adv-x="337" 
d="M677 1365l-862 -1365h-155l860 1365h157z" />
    <glyph glyph-name="periodcentered" unicode="&#x2219;" horiz-adv-x="855" 
d="M541 611v-249h-228v249h228z" />
    <glyph glyph-name="radical" unicode="&#x221a;" horiz-adv-x="1365" 
d="M1365 1701v-213h-377l-371 -1488h-298l-133 572h-186v214h374l49 -207q20 -93 38 -295h18q41 333 117 631l194 786h575z" />
    <glyph glyph-name="infinity" unicode="&#x221e;" horiz-adv-x="1365" 
d="M688 547q-146 -178 -326 -178q-156 0 -251 109q-76 87 -76 220q0 156 106 246q94 80 220 80q178 0 317 -177q136 177 325 177q167 0 261 -119q66 -85 66 -208q0 -155 -104 -247q-92 -81 -220 -81q-185 0 -318 178zM796 697q87 -134 178 -134q57 0 96 41q35 38 35 92
q0 65 -48 104q-38 30 -84 30q-72 0 -135 -75q-9 -11 -26 -34t-16 -24zM569 696q-85 134 -178 134q-57 0 -96 -42q-35 -38 -35 -92q0 -65 48 -104q38 -30 84 -30q74 0 135 76q9 11 26 34t16 24z" />
    <glyph glyph-name="integral" unicode="&#x222b;" 
d="M129 -491l43 204q64 -20 107 -20q104 0 115 108q3 29 3 156v1066q0 114 2 189q5 139 64 215q86 109 258 109q69 0 173 -22l-43 -203q-63 19 -107 19q-104 0 -115 -108q-2 -19 -3 -270v-951q0 -199 -8 -256q-38 -256 -321 -256q-91 0 -168 20z" />
    <glyph glyph-name="approxequal" unicode="&#x2248;" 
d="M144 712l-128 84q39 90 75 143q85 126 225 126q71 0 219 -59q100 -40 123 -46q32 -8 60 -8q66 0 107 43q23 23 52 74l132 -77q-71 -147 -139 -198q-81 -62 -177 -62q-41 0 -111 23q-52 16 -187 69q-52 20 -96 20q-63 0 -106 -52q-21 -25 -49 -80zM144 320l-128 83
q39 91 75 144q85 126 226 126q71 0 218 -58q99 -39 123 -45q33 -8 61 -8q65 0 106 42q22 22 52 72l132 -76q-71 -147 -139 -198q-81 -61 -178 -61q-40 0 -110 23q-55 17 -187 68q-53 20 -95 20q-64 0 -107 -53q-21 -25 -49 -79z" />
    <glyph glyph-name="notequal" unicode="&#x2260;" 
d="M543 976l111 223l147 -72l-75 -151h230v-205h-323l-77 -154h400v-205h-493l-104 -208l-147 72l67 136h-211v205h304l77 154h-381v205h475z" />
    <glyph glyph-name="lessequal" unicode="&#x2264;" 
d="M955 1331v-216l-645 -295l645 -293v-217l-887 411v193zM955 251v-213h-887v213h887z" />
    <glyph glyph-name="greaterequal" unicode="&#x2265;" 
d="M68 310v217l645 294l-645 294v216l887 -418v-193zM68 38v213h887v-213h-887z" />
    <glyph glyph-name="lozenge" unicode="&#x25ca;" horiz-adv-x="1365" 
d="M683 1419l531 -736l-531 -736l-532 736zM683 1066l-279 -383l279 -382l278 382z" />
    <glyph glyph-name="apple" unicode="&#xf000;" horiz-adv-x="1365" 
d="M984 1416v-23q0 -159 -127 -263q-80 -65 -146 -68q-14 -1 -31 -1q-1 141 82 239q91 104 222 116zM1276 935q-65 -50 -98 -92q-67 -84 -67 -192q0 -150 112 -250q34 -31 92 -56q-65 -160 -139 -257q-110 -143 -208 -143q-40 0 -82 18l-84 36q-15 7 -74 7q-73 0 -98 -11
l-87 -36q-42 -17 -79 -17q-54 0 -113.5 44t-112.5 123q-172 256 -172 526q0 177 100 307q104 135 281 135q68 0 160 -35q68 -26 101 -26q31 0 85 20q70 27 101 35q36 10 87 10q189 0 295 -146z" />
    <glyph glyph-name="fi" unicode="&#xf001;" horiz-adv-x="1066" 
d="M160 0v781h-135v175h135v102q0 165 56 228q84 93 304 93q39 0 100 -3v-179q-47 8 -83 8q-94 0 -125 -45q-20 -28 -20 -102v-102h235v-175h-235v-781h-232zM953 1365v-198h-232v198h232zM953 956v-956h-232v956h232z" />
    <glyph glyph-name="fl" unicode="&#xf002;" horiz-adv-x="1066" 
d="M160 0v781h-135v175h135v102q0 165 56 228q84 93 304 93q39 0 100 -3v-179q-47 8 -83 8q-94 0 -125 -45q-20 -28 -20 -102v-102h235v-175h-235v-781h-232zM953 1365v-1365h-232v1365h232z" />
    <glyph glyph-name="glyph172" horiz-adv-x="1285" 
 />
    <glyph glyph-name="glyph262" 
d="M512 1468l-324 191l43 91l281 -114l279 114l44 -91z" />
    <glyph glyph-name="glyph263" 
d="M416 1689v-162h-180v162h180zM789 1689v-162h-180v162h180z" />
    <glyph glyph-name="glyph264" 
d="M457 1281v-164h-181v164h181zM748 1281v-164h-181v164h181z" />
    <glyph glyph-name="glyph265" 
d="M196 1739h135q13 -54 42 -82q54 -52 139 -52q83 0 137 51q30 28 43 83h135q-16 -96 -63 -152q-93 -112 -251 -112q-172 0 -263 127q-42 57 -54 137z" />
    <glyph glyph-name="glyph266" 
d="M515 1789q72 0 122 -55q43 -48 43 -112q0 -75 -55 -125q-48 -43 -112 -43q-75 0 -125 55q-43 48 -43 114q0 72 55 123q48 43 115 43zM511 1707q-37 0 -62 -28q-22 -24 -22 -57q0 -39 28 -64q24 -22 58 -22q38 0 63 28q22 24 22 58q0 37 -28 63q-24 22 -59 22z" />
    <glyph glyph-name="glyph267" 
d="M751 1707l114 -64q-90 -158 -208 -158q-64 0 -157 51q-90 50 -128 50q-54 0 -96 -77l-117 63q37 61 64 91q59 64 143 64q55 0 149 -50q98 -53 136 -53q54 0 100 83z" />
    <glyph glyph-name="glyph268" 
d="M512 1753l323 -190l-44 -91l-279 114l-281 -114l-43 91z" />
    <glyph glyph-name="glyph269" 
d="M285 1730l363 -128l-26 -103l-384 65z" />
    <glyph glyph-name="glyph270" 
d="M736 1730l46 -166l-384 -65l-26 103z" />
    <glyph glyph-name="glyph271" 
d="M477 1689v-162h-177v162h177zM723 1689v-162h-177v162h177z" />
    <glyph glyph-name="glyph272" 
d="M602 1689v-162h-180v162h180z" />
    <glyph glyph-name="glyph273" 
d="M563 -102l101 -116l-230 -164l-74 78z" />
    <glyph glyph-name="glyph274" horiz-adv-x="512" 
 />
    </font>
</defs>
</svg>
