<?xml version="1.0" standalone="no"?>
<!DOCTYPE svg PUBLIC "-//W3C//DTD SVG 1.1//EN" "http://www.w3.org/Graphics/SVG/1.1/DTD/svg11.dtd" >
<svg xmlns="http://www.w3.org/2000/svg" xmlns:xlink="http://www.w3.org/1999/xlink" version="1.1">
<metadata>
Created by FontForge 20201107 at Tue Aug 12 13:05:03 2008
 By 
Copyright (c) 2007 - 2008 Linotype GmbH, www.linotype.com. All rights reserved. This font software may not be reproduced, modified, disclosed or transferred without the express written approval of Linotype GmbH. Eurostile is a trademark of Linotype GmbH and may be registered in certain jurisdictions. This typeface is original artwork of Linotype Design Studio. The design may be protected in certain jurisdictions.
</metadata>
<defs>
<font id="EurostileNextLTCom-SmBd" horiz-adv-x="406" >
  <font-face 
    font-family="Eurostile Next LT Com Light"
    font-weight="600"
    font-stretch="normal"
    units-per-em="1000"
    panose-1="2 11 7 4 2 2 2 5 2 4"
    ascent="700"
    descent="-300"
    x-height="480"
    cap-height="680"
    bbox="-104 -241 1036 893"
    underline-thickness="50"
    underline-position="-100"
    unicode-range="U+000D-FB02"
  />
<missing-glyph horiz-adv-x="485" 
d="M210 111v63h53v-63h-53zM211 222v16q0 25 2.5 43t9 32.5t17.5 27.5t28 28q30 30 38 46.5t8 33.5q0 34 -21.5 57t-50.5 23t-50.5 -20.5t-26.5 -69.5l-48 8q7 69 42 99.5t86 30.5q52 0 85 -33.5t33 -90.5q0 -31 -12 -55.5t-48 -57.5q-17 -15 -26 -25.5t-13.5 -21t-5.5 -23
t-1 -31.5v-17h-46zM438 47v585h-391v-585h391zM485 680v-680h-485v680h485z" />
    <glyph glyph-name="IJ" unicode="IJ" horiz-adv-x="816" 
d="M192 0h-130v680h130v-680zM507 -7q-69 0 -111 9t-64.5 33.5t-30 67.5t-7.5 111v38h118v-29q0 -42 3.5 -67t14 -38t30.5 -17t53 -4h13q34 0 54 4t30.5 17t14 37.5t3.5 64.5v460h130v-449q0 -75 -9 -121.5t-34 -72.5t-70 -35t-117 -9h-21z" />
    <glyph glyph-name="ij" unicode="ij" horiz-adv-x="472" 
d="M178 0h-120v480h120v-480zM178 573h-120v107h120v-107zM414 -36q0 -40 -8 -66.5t-24 -42t-40.5 -22t-57.5 -6.5q-21 0 -45 3v87q7 -1 10.5 -1h7.5q21 0 29 12t8 53v499h120v-516zM414 573h-120v107h120v-107z" />
    <glyph glyph-name="napostrophe" unicode="&#x22;n" horiz-adv-x="581" 
d="M526 0h-120v278q0 36 -3.5 59t-13.5 36t-28.5 17.5t-49.5 4.5h-8q-29 0 -49 -5.5t-32.5 -18.5t-18 -36t-5.5 -57v-278h-120v480h118v-76h1q17 43 51 63t99 20h8q50 0 83 -8.5t52.5 -30.5t27.5 -58.5t8 -93.5v-296zM78 595q0 -61 -22 -90t-78 -31v49q20 4 27.5 15.5
t7.5 40.5v8h-33v89h98v-81z" />
    <glyph glyph-name="fi" unicode="fi" horiz-adv-x="540" 
d="M198 0h-119v394h-62v86h62v40q0 48 8.5 80t27.5 51t49 27t73 8q20 0 40.5 -1t38.5 -3v-85q-21 3 -47 3q-21 0 -34.5 -3t-22 -12.5t-11.5 -26.5t-3 -45v-33h110v-86h-110v-394zM482 0h-120v480h120v-480zM482 573h-120v107h120v-107z" />
    <glyph glyph-name="fl" unicode="fl" horiz-adv-x="540" 
d="M198 0h-119v394h-62v86h62v40q0 48 8.5 80t27.5 51t49 27t73 8q20 0 40.5 -1t38.5 -3v-85q-21 3 -47 3q-21 0 -34.5 -3t-22 -12.5t-11.5 -26.5t-3 -45v-33h110v-86h-110v-394zM482 0h-120v680h120v-680z" />
    <glyph glyph-name=".notdef" horiz-adv-x="485" 
d="M210 111v63h53v-63h-53zM211 222v16q0 25 2.5 43t9 32.5t17.5 27.5t28 28q30 30 38 46.5t8 33.5q0 34 -21.5 57t-50.5 23t-50.5 -20.5t-26.5 -69.5l-48 8q7 69 42 99.5t86 30.5q52 0 85 -33.5t33 -90.5q0 -31 -12 -55.5t-48 -57.5q-17 -15 -26 -25.5t-13.5 -21t-5.5 -23
t-1 -31.5v-17h-46zM438 47v585h-391v-585h391zM485 680v-680h-485v680h485z" />
    <glyph glyph-name=".null" horiz-adv-x="500" 
 />
    <glyph glyph-name="nonmarkingreturn" unicode="&#xd;" horiz-adv-x="0" 
 />
    <glyph glyph-name="space" unicode=" " horiz-adv-x="248" 
 />
    <glyph glyph-name="exclam" unicode="!" horiz-adv-x="275" 
d="M199 0h-124v137h124v-137zM192 216h-110l-9 464h128z" />
    <glyph glyph-name="quotedbl" unicode="&#x22;" horiz-adv-x="372" 
d="M151 449h-86v259h86v-259zM308 449h-86v259h86v-259z" />
    <glyph glyph-name="numbersign" unicode="#" horiz-adv-x="633" 
d="M415 0h-90l31 193h-128l-31 -193h-90l31 193h-86v82h100l24 153h-98v82h111l27 170h90l-27 -170h128l28 170h89l-27 -170h95v-82h-108l-24 -153h106v-82h-120zM369 275l25 153h-128l-24 -153h127z" />
    <glyph glyph-name="dollar" unicode="$" horiz-adv-x="654" 
d="M357 -81h-54v74q-80 1 -127.5 9.5t-73 29.5t-33.5 56.5t-8 90.5v36h120v-24q0 -32 4 -51.5t17 -31t37 -15.5t64 -4v209q-74 8 -120.5 20t-72.5 33.5t-35 54.5t-9 83v16q0 51 11 86t38 56.5t72.5 30.5t115.5 9v63h54v-64q73 -1 117.5 -10.5t69 -30.5t32.5 -55.5t8 -86.5
v-26h-118v20q0 27 -4 45t-15.5 29t-33 16t-56.5 6v-195q75 -8 122.5 -19.5t75 -32.5t37.5 -54t10 -84v-18q0 -58 -11 -96t-38.5 -60.5t-75 -31.5t-120.5 -9v-74zM357 89q40 0 64.5 4.5t37.5 15.5t17.5 29.5t4.5 47.5v13q0 22 -4 37.5t-17 26.5t-37.5 17.5t-65.5 10.5v-202z
M185 490q0 -21 3.5 -35t16 -24t36 -16t62.5 -10v189q-37 -1 -60 -5.5t-36 -14.5t-17.5 -27t-4.5 -43v-14z" />
    <glyph glyph-name="percent" unicode="%" horiz-adv-x="772" 
d="M185 360q-38 0 -62.5 6.5t-39 23t-20 45t-5.5 72.5v28q0 44 5.5 72t20 44.5t39 23t62.5 6.5h13q38 0 63 -6.5t39.5 -23t20 -44.5t5.5 -72v-28q0 -44 -5.5 -72.5t-20 -45t-39.5 -23t-63 -6.5h-13zM197 419q15 0 25 3t15 12t7 26t2 44v34q0 27 -2 43.5t-7 25.5t-15 12
t-25 3h-9q-16 0 -25.5 -3t-15 -12t-7.5 -25.5t-2 -43.5v-34q0 -27 2 -44t7.5 -26t15 -12t25.5 -3h9zM287 0h-73l267 680h73zM572 -1q-38 0 -62.5 6.5t-38.5 23t-20 45t-6 72.5v28q0 44 6 72t20 44.5t38.5 23t62.5 6.5h14q38 0 62.5 -6.5t39 -23t20.5 -44.5t6 -72v-28
q0 -44 -6 -72.5t-20.5 -45t-39 -23t-62.5 -6.5h-14zM584 57q16 0 25.5 3t15 12.5t7.5 26.5t2 44v34q0 27 -2 43.5t-7.5 25.5t-15 12t-25.5 3h-9q-16 0 -25.5 -3t-15 -12t-7.5 -25.5t-2 -43.5v-34q0 -27 2 -44t7.5 -26.5t15 -12.5t25.5 -3h9z" />
    <glyph glyph-name="ampersand" unicode="&#x26;" horiz-adv-x="744" 
d="M717 76l-62 -79l-74 58q-10 -19 -27.5 -31t-46 -19t-70 -9.5t-99.5 -2.5h-16q-86 0 -137 8t-78 30t-35 61.5t-8 102.5v17q0 43 5.5 74t18.5 51.5t33.5 31.5t50.5 15q-16 15 -27 28.5t-18.5 28.5t-11 33.5t-3.5 43.5v20q0 43 10 72t35 46t67 24t105 7h18q75 0 119.5 -6.5
t68.5 -26t31.5 -55t7.5 -93.5v-22h-111v26q0 26 -3.5 42.5t-15 25.5t-32.5 12t-57 3h-16q-33 0 -53.5 -3t-32.5 -10.5t-16 -21.5t-4 -36v-9q0 -16 3 -28.5t10.5 -24t19 -23.5t29.5 -26l213 -170q2 14 2 31v37v56h101v-71v-26t-0.5 -40.5t-1 -40.5t-1.5 -25zM339 87
q73 0 108 6t46 32l-252 200q-37 -5 -47 -28.5t-10 -74.5v-13q0 -41 4.5 -65t20 -37t44 -16.5t76.5 -3.5h10z" />
    <glyph glyph-name="quotesingle" unicode="'" horiz-adv-x="215" 
d="M151 449h-86v259h86v-259z" />
    <glyph glyph-name="parenleft" unicode="(" horiz-adv-x="338" 
d="M278 -8h-15q-62 0 -102 9t-63.5 43t-33 101.5t-9.5 184.5v21q0 117 9.5 184.5t33 101t63.5 42.5t102 9h15v-95h-13q-29 0 -47 -6t-28.5 -31t-14.5 -74t-4 -135v-13q0 -86 4 -135.5t14.5 -74t28.5 -30.5t47 -6h13v-96z" />
    <glyph glyph-name="parenright" unicode=")" horiz-adv-x="338" 
d="M60 -8v96h13q28 0 46.5 6t29 30.5t14.5 74t4 135.5v13q0 86 -4 135t-14.5 74t-29 31t-46.5 6h-13v95h15q61 0 101.5 -9t64 -42.5t33 -101t9.5 -184.5v-21q0 -117 -9.5 -184.5t-33 -101.5t-64 -43t-101.5 -9h-15z" />
    <glyph glyph-name="asterisk" unicode="*" horiz-adv-x="447" 
d="M265 695l-10 -124h-63l-10 124h83zM400 570l-107 -51l-27 46l97 69zM363 391l-97 69l27 45l107 -51zM182 329l10 124h63l10 -124h-83zM47 454l107 51l26 -45l-96 -69zM84 634l96 -69l-26 -46l-107 51z" />
    <glyph glyph-name="plus" unicode="+" horiz-adv-x="548" 
d="M322 82h-96v177h-168v91h168v173h96v-173h168v-91h-168v-177z" />
    <glyph glyph-name="comma" unicode="," horiz-adv-x="234" 
d="M179 -3q0 -41 -7 -67.5t-24 -42t-44.5 -22t-69.5 -6.5v67q35 0 47.5 12t12.5 44v18h-39v137h124v-140z" />
    <glyph glyph-name="hyphen" unicode="-" horiz-adv-x="399" 
d="M337 196h-275v106h275v-106z" />
    <glyph glyph-name="period" unicode="." horiz-adv-x="234" 
d="M179 0h-124v137h124v-137z" />
    <glyph glyph-name="slash" unicode="/" horiz-adv-x="442" 
d="M135 -8h-93l265 696h93z" />
    <glyph glyph-name="zero" unicode="0" horiz-adv-x="650" 
d="M332 97q44 0 71.5 6t43.5 26t21.5 58.5t5.5 104.5v96q0 66 -5.5 104.5t-21.5 58.5t-43.5 26t-71.5 6h-14q-44 0 -71.5 -6t-43.5 -26t-21.5 -58.5t-5.5 -104.5v-96q0 -66 5.5 -104.5t21.5 -58.5t43.5 -26t71.5 -6h14zM315 -7q-79 0 -129.5 11.5t-80 44.5t-40.5 93t-11 157
v82q0 97 11 157t40.5 93t80 44.5t129.5 11.5h20q79 0 129.5 -11.5t80 -44.5t40.5 -93t11 -157v-82q0 -97 -11 -157t-40.5 -93t-80 -44.5t-129.5 -11.5h-20z" />
    <glyph glyph-name="one" unicode="1" horiz-adv-x="470" 
d="M356 0h-126v562h-3l-146 -138l-68 80l190 176h153v-680z" />
    <glyph glyph-name="two" unicode="2" horiz-adv-x="634" 
d="M582 0h-525v106q0 63 7 104t32 68t72.5 43.5t127.5 30.5q51 9 82.5 17.5t48 22t22 34t5.5 52.5v16q0 29 -4.5 47.5t-18 29.5t-39 15t-68.5 4h-13q-44 0 -69.5 -4t-39.5 -16t-18 -35t-4 -61v-20h-118v16q0 67 9 109.5t35 66.5t74 32.5t126 8.5h13q80 0 131 -8.5t80 -30
t40 -58t11 -92.5v-20q0 -58 -9.5 -95t-35 -61t-69.5 -38t-113 -26q-61 -11 -95.5 -19.5t-51 -22t-20.5 -34t-4 -53.5v-30h399v-99z" />
    <glyph glyph-name="three" unicode="3" horiz-adv-x="641" 
d="M590 173q0 -54 -11 -89t-41 -55.5t-83.5 -28t-138.5 -7.5h-20q-78 0 -125.5 8t-73 30t-34 62t-8.5 105v27h118v-30q0 -35 4 -55.5t17.5 -31t38.5 -13.5t67 -3h14q48 0 77.5 3t45.5 12.5t21.5 28t5.5 49.5v20q0 28 -4.5 46t-16 28t-30.5 14t-47 4h-118v94h115q27 0 44 4
t27 13.5t14 26t4 42.5v20q0 28 -5 46t-19.5 28.5t-41.5 14t-71 3.5h-12q-41 0 -65.5 -3t-38 -14t-18 -31.5t-4.5 -55.5v-26h-117v25q0 63 9 102.5t34.5 62t72.5 30.5t122 8h18q82 0 133.5 -7.5t80.5 -27.5t39 -55t10 -90v-19q0 -36 -4.5 -60t-15.5 -40t-28.5 -25.5
t-42.5 -16.5v-2q26 -5 45.5 -13.5t32 -25t18.5 -42.5t6 -66v-24z" />
    <glyph glyph-name="four" unicode="4" horiz-adv-x="647" 
d="M526 0h-121v147h-362v129l313 404h170v-436h82v-97h-82v-147zM405 244v341h-3l-254 -337v-4h257z" />
    <glyph glyph-name="five" unicode="5" horiz-adv-x="636" 
d="M303 -7q-79 0 -127 8t-74.5 30t-35 59t-8.5 96v17h116v-13q0 -32 5 -50.5t19.5 -29t42 -13.5t72.5 -3h16q44 0 70.5 4.5t41 17t19 35.5t4.5 61v19q0 39 -3.5 63.5t-17 37.5t-40.5 17.5t-74 4.5h-19q-35 0 -58 -2.5t-37.5 -9.5t-21.5 -18t-10 -29h-116v385h500v-99h-383
v-183h2q8 15 20 25t31 16.5t46 9.5t64 3h25q66 0 108 -8.5t66 -31t33 -61t9 -97.5v-43q0 -66 -10.5 -108.5t-39.5 -67t-80 -33.5t-132 -9h-23z" />
    <glyph glyph-name="six" unicode="6" horiz-adv-x="638" 
d="M310 -7q-82 0 -132 10t-77 38t-36 78.5t-9 132.5v136q0 99 10 158t39 90.5t81 41t135 9.5h19q75 0 121 -8t71 -29t33.5 -58.5t8.5 -95.5v-17h-116v14q0 30 -4 48.5t-17 29t-36.5 14t-63.5 3.5h-13q-48 0 -76.5 -5t-43.5 -22.5t-19.5 -52t-4.5 -93.5v-55h2
q16 29 50.5 43.5t101.5 14.5h18q73 0 119 -7.5t72 -28.5t35.5 -59t9.5 -99v-30q0 -61 -10.5 -100t-39 -61.5t-78.5 -31t-129 -8.5h-21zM327 92q46 0 73.5 4t42 15.5t19 32.5t4.5 56v16q0 35 -4.5 56t-19 32.5t-42 15t-73.5 3.5h-10q-42 0 -69 -4t-42.5 -14.5t-21 -29
t-5.5 -48.5v-15q0 -39 4.5 -63t18.5 -36.5t41.5 -16.5t73.5 -4h10z" />
    <glyph glyph-name="seven" unicode="7" horiz-adv-x="589" 
d="M260 0h-140l294 573v3h-379v104h518v-94z" />
    <glyph glyph-name="eight" unicode="8" horiz-adv-x="639" 
d="M325 397q46 0 73 3t40.5 12.5t17 26.5t3.5 46v20q0 28 -4 45t-18 27t-40.5 13.5t-71.5 3.5h-11q-45 0 -71.5 -3.5t-41 -13.5t-18.5 -27t-4 -45v-20q0 -28 4 -45.5t17.5 -27t40.5 -12.5t73 -3h11zM325 90q45 0 72.5 3t42.5 12.5t19.5 28t4.5 49.5v26q0 31 -4.5 49
t-19.5 28t-42.5 13t-72.5 3h-11q-45 0 -72.5 -3t-42.5 -13t-19.5 -28t-4.5 -49v-26q0 -31 4.5 -49.5t19.5 -28t42.5 -12.5t72.5 -3h11zM310 -7q-78 0 -127.5 6t-78.5 24t-40 51t-11 88v19q0 44 5.5 74t18.5 49t34 29.5t51 15.5v2q-30 4 -49.5 13t-31.5 26t-17 44t-5 68v20
q0 52 10 84.5t38 50.5t76.5 24t125.5 6h21q77 0 125.5 -6t76 -24t37.5 -50.5t10 -84.5v-20q0 -41 -5 -67.5t-17.5 -43.5t-33 -26t-51.5 -14v-2q32 -5 53.5 -15t35 -29.5t19.5 -49.5t6 -74v-19q0 -55 -11 -88t-40 -51t-78.5 -24t-127.5 -6h-19z" />
    <glyph glyph-name="nine" unicode="9" horiz-adv-x="639" 
d="M297 -7q-75 0 -121.5 8t-72.5 29t-35 58t-9 96v17h117v-14q0 -29 4.5 -47.5t18 -28.5t38 -13.5t65.5 -3.5h12q49 0 77.5 4.5t43.5 21.5t19.5 51.5t4.5 93.5v56h-2q-15 -29 -50 -43.5t-102 -14.5h-18q-72 0 -117.5 7.5t-72 29t-36.5 59.5t-10 98v29q0 61 10.5 100t39 61.5
t78.5 31t129 8.5h21q81 0 131 -10t77.5 -38t36.5 -79t9 -132v-136q0 -99 -10 -158t-39 -90.5t-81 -41t-136 -9.5h-20zM323 358q42 0 69 4t42 15t20.5 30t5.5 50v15q0 39 -4.5 62t-18.5 35t-41 16t-73 4h-11q-46 0 -73.5 -4t-42 -15t-19 -31.5t-4.5 -54.5v-16
q0 -36 4.5 -57.5t19 -33t42 -15.5t73.5 -4h11z" />
    <glyph glyph-name="colon" unicode=":" horiz-adv-x="246" 
d="M185 343h-124v137h124v-137zM185 0h-124v137h124v-137z" />
    <glyph glyph-name="semicolon" unicode=";" horiz-adv-x="246" 
d="M185 343h-124v137h124v-137zM185 -3q0 -41 -7 -67.5t-23.5 -42t-44.5 -22t-70 -6.5v67q36 0 48 12t12 44v18h-39v137h124v-140z" />
    <glyph glyph-name="less" unicode="&#x3c;" horiz-adv-x="548" 
d="M490 85l-432 172v90l432 172v-97l-319 -120v-2l319 -118v-97z" />
    <glyph glyph-name="equal" unicode="=" horiz-adv-x="548" 
d="M490 350h-432v91h432v-91zM490 158h-432v91h432v-91z" />
    <glyph glyph-name="greater" unicode="&#x3e;" horiz-adv-x="548" 
d="M490 257l-432 -172v97l319 118v2l-319 120v97l432 -172v-90z" />
    <glyph glyph-name="question" unicode="?" horiz-adv-x="554" 
d="M313 219h-111v27q0 31 4 53t15.5 37.5t31 26t49.5 19.5q32 9 51.5 18t30 20.5t13.5 27.5t3 41v10q0 29 -4.5 47.5t-17 29t-34.5 14.5t-56 4h-13q-38 0 -61 -4t-36 -16.5t-17 -35t-4 -59.5v-22h-108v31q0 60 10 98.5t35.5 61t69 31t111.5 8.5h15q66 0 109 -9t68 -30
t34.5 -55t9.5 -83v-17q0 -43 -5 -73t-19.5 -51.5t-39.5 -36t-64 -25.5q-23 -6 -36.5 -12t-21 -13.5t-10 -18.5t-2.5 -28v-16zM320 0h-124v133h124v-133z" />
    <glyph glyph-name="at" unicode="@" horiz-adv-x="828" 
d="M424 152q25 0 40.5 4t24.5 16.5t12.5 35t3.5 59.5v17q0 35 -3.5 57.5t-13 35t-25.5 17.5t-40 5h-11q-25 0 -41 -4t-25 -16t-12.5 -34.5t-3.5 -60.5v-17q0 -38 3.5 -60.5t12.5 -34.5t25 -16t41 -4h12zM739 9q0 -35 -13 -57.5t-47 -35.5t-93.5 -18.5t-152.5 -5.5h-40
q-70 0 -122.5 4t-89.5 16t-61 33.5t-37.5 58t-19 89t-5.5 125.5v84q0 107 13 172t49 99.5t101 45.5t169 11h39q74 0 128.5 -3.5t92.5 -15.5t61.5 -34t37 -58.5t18 -90t4.5 -128.5v-50q0 -59 -7.5 -95.5t-24 -56t-43.5 -26t-65 -6.5q-55 0 -80.5 14.5t-37.5 56.5h-3
q-6 -21 -14.5 -35t-22 -22.5t-33 -12.5t-48.5 -4h-14q-40 0 -67.5 7t-44 28t-23.5 59t-7 100v31q0 60 7.5 97.5t24 58.5t44 29t67.5 8h14q27 0 46 -3.5t32.5 -11.5t22.5 -22t16 -36h2v65h81v-267q0 -42 10 -55t37 -13q17 0 27.5 3t16 13.5t7.5 31.5t2 57v53q0 95 -7 149.5
t-33.5 81.5t-79.5 33.5t-144 6.5h-39q-85 0 -135.5 -7.5t-76.5 -36t-34 -84.5t-8 -153v-52q0 -95 8 -149.5t34.5 -82.5t77.5 -35.5t137 -7.5h39q74 0 117.5 3t66 9t29 16t6.5 25v7h88v-10z" />
    <glyph glyph-name="A" unicode="A" horiz-adv-x="672" 
d="M661 0h-138l-45 143h-288l-45 -143h-134l234 680h183zM449 239l-111 347h-6l-114 -347h231z" />
    <glyph glyph-name="B" unicode="B" horiz-adv-x="657" 
d="M62 0v680h325q61 0 101.5 -7t65 -26.5t35 -53t10.5 -86.5q0 -39 -5 -65.5t-16.5 -44t-29.5 -27.5t-43 -15v-3q30 -5 51 -15.5t34.5 -29.5t20 -48.5t6.5 -72.5q0 -56 -11 -92t-35.5 -57t-63.5 -29t-95 -8h-350zM386 97q32 0 52 4.5t31.5 16t16 31.5t4.5 51q0 62 -21 83
t-71 21h-210v-207h198zM395 395q22 0 37 3.5t24.5 14t14 29t4.5 48.5t-4.5 49t-15.5 29t-29 13.5t-46 3.5h-192v-190h207z" />
    <glyph glyph-name="C" unicode="C" horiz-adv-x="664" 
d="M329 -7q-86 0 -140.5 12t-86 46t-43.5 94.5t-12 156.5v78q0 94 12 154t43.5 94t86.5 46.5t141 12.5h18q81 0 132.5 -10t81 -33.5t41 -63.5t11.5 -100v-27h-125v20q0 30 -5.5 51t-21 34.5t-43 20t-71.5 6.5h-14q-49 0 -79 -7t-47 -29t-23 -62.5t-6 -107.5v-75
q0 -70 6.5 -111t23.5 -62.5t47 -27.5t77 -6h14q43 0 71.5 4.5t45 17t23 35.5t6.5 59v21h125v-32q0 -62 -12.5 -102.5t-43.5 -64t-83 -33t-131 -9.5h-19z" />
    <glyph glyph-name="D" unicode="D" horiz-adv-x="702" 
d="M653 296q0 -94 -11 -152t-44 -90t-93 -43t-157 -11h-286v680h286q93 0 152.5 -10t93.5 -41.5t46.5 -89t12.5 -151.5v-92zM343 102q57 0 92 7t54 28.5t25.5 62t6.5 107.5v72q0 66 -6.5 105.5t-26 60.5t-54 28t-91.5 7h-151v-478h151z" />
    <glyph glyph-name="E" unicode="E" horiz-adv-x="567" 
d="M534 0h-472v680h466v-100h-336v-183h315v-96h-315v-199h342v-102z" />
    <glyph glyph-name="F" unicode="F" horiz-adv-x="535" 
d="M192 0h-130v680h451v-103h-321v-206h302v-99h-302v-272z" />
    <glyph glyph-name="G" unicode="G" horiz-adv-x="668" 
d="M329 -7q-86 0 -140.5 12t-86 46t-43.5 94.5t-12 157.5v78q0 95 12 154.5t43.5 93.5t86 46t140.5 12h19q77 0 128.5 -9.5t82 -32.5t43.5 -61t13 -95v-20h-126v14q0 30 -5.5 49.5t-20.5 31.5t-43 16.5t-73 4.5h-14q-49 0 -79 -6.5t-46.5 -28.5t-22.5 -62.5t-6 -108.5v-76
q0 -68 5.5 -108.5t22.5 -62t47 -28.5t80 -7h14q46 0 75.5 5t45.5 18.5t22 37t6 60.5v42h-176v95h300v-124q0 -73 -12 -119t-42.5 -72.5t-84 -36.5t-135.5 -10h-18z" />
    <glyph glyph-name="H" unicode="H" horiz-adv-x="688" 
d="M626 0h-130v293h-304v-293h-130v680h130v-273h304v273h130v-680z" />
    <glyph glyph-name="I" unicode="I" horiz-adv-x="254" 
d="M192 0h-130v680h130v-680z" />
    <glyph glyph-name="J" unicode="J" horiz-adv-x="546" 
d="M237 -7q-69 0 -111 9t-64.5 33.5t-30 67.5t-7.5 111v38h118v-29q0 -42 3.5 -67t14 -38t30.5 -17t53 -4h13q34 0 54 4t30.5 17t14 37.5t3.5 64.5v460h130v-449q0 -75 -9 -121.5t-34 -72.5t-70 -35t-117 -9h-21z" />
    <glyph glyph-name="K" unicode="K" horiz-adv-x="651" 
d="M642 0h-163l-225 298h-64v-298h-128v680h128v-283h67l212 283h153l-262 -329z" />
    <glyph glyph-name="L" unicode="L" horiz-adv-x="505" 
d="M490 0h-428v680h130v-577h298v-103z" />
    <glyph glyph-name="M" unicode="M" horiz-adv-x="903" 
d="M841 0h-123l4 571h-3l-207 -571h-122l-207 571h-4l5 -571h-122v680h198l192 -548h3l190 548h196v-680z" />
    <glyph glyph-name="N" unicode="N" horiz-adv-x="733" 
d="M671 0h-189l-298 568h-5l3 -568h-120v680h194l296 -566h4l-6 566h121v-680z" />
    <glyph glyph-name="O" unicode="O" horiz-adv-x="695" 
d="M337 -7q-89 0 -145 13.5t-88.5 48t-44.5 94t-12 152.5v78q0 93 12 152.5t44.5 94t88.5 48t145 13.5h21q88 0 144.5 -13.5t89 -48t44.5 -94t12 -152.5v-78q0 -93 -12 -152.5t-44.5 -94t-89 -48t-144.5 -13.5h-21zM356 97q49 0 80 7t49 29t24.5 63t6.5 108v74
q0 67 -6.5 108t-24.5 63t-49 29t-80 7h-17q-50 0 -81 -7t-48.5 -29t-24 -63t-6.5 -108v-74q0 -67 6.5 -108t24 -63t48.5 -29t81 -7h17z" />
    <glyph glyph-name="P" unicode="P" horiz-adv-x="629" 
d="M333 319q44 0 70.5 5t41 17.5t19 34t4.5 55.5v37q0 35 -5 57t-19 34.5t-41 17t-70 4.5h-143v-262h143zM190 0h-128v680h281q77 0 126 -8.5t77 -32t38.5 -65t10.5 -108.5v-33q0 -67 -11.5 -109t-39.5 -65.5t-75.5 -32t-119.5 -8.5h-159v-218z" />
    <glyph glyph-name="Q" unicode="Q" horiz-adv-x="702" 
d="M337 -7q-89 0 -145 13.5t-88.5 48t-44.5 94t-12 152.5v78q0 93 12 152.5t44.5 94t88.5 48t145 13.5h21q88 0 144.5 -13.5t89 -48t44.5 -94t12 -152.5v-78q0 -61 -5 -106.5t-17 -80.5l71 -48l-61 -84l-65 54q-33 -24 -85 -33.5t-128 -9.5h-21zM356 96q40 0 67.5 4t46.5 16
l-139 103l63 82l119 -100q6 40 6 103v74q0 67 -6.5 108t-24.5 63t-50 29t-82 7h-17q-50 0 -81.5 -7t-49 -29t-24 -63t-6.5 -108v-74q0 -68 6.5 -108.5t24 -63t49 -29.5t81.5 -7h17z" />
    <glyph glyph-name="R" unicode="R" horiz-adv-x="653" 
d="M360 336q32 0 53 5t33.5 18t17.5 33.5t5 52.5v22q0 37 -5 59.5t-19 34.5t-38 16t-63 4h-154v-245h170zM598 0h-128v94q0 48 -4.5 77t-19 44.5t-42 20t-72.5 4.5h-142v-240h-128v680h311q69 0 113 -9.5t69 -32.5t34 -60.5t9 -93.5v-19q0 -80 -23 -118t-74 -49v-4
q30 -5 48.5 -15t29.5 -30t15 -52t4 -81v-116z" />
    <glyph glyph-name="S" unicode="S" horiz-adv-x="640" 
d="M594 190q0 -59 -10.5 -97t-37.5 -60.5t-73.5 -31t-119.5 -8.5h-25q-92 0 -146.5 7.5t-84 28.5t-38.5 58t-9 96v32h122v-24q0 -31 5.5 -50t21 -29.5t44 -14.5t74.5 -4h19q42 0 68.5 3.5t40.5 13.5t19 28.5t5 47.5v13q0 25 -5 42t-22.5 27.5t-50.5 16.5t-89 11
q-79 6 -127.5 18t-75 34.5t-35.5 56.5t-9 84v16q0 50 10.5 85t37 56.5t73 31t118.5 9.5h26q82 0 132.5 -9t78.5 -30t37 -56.5t9 -88.5v-27h-121v21q0 27 -5 44.5t-19 28t-40 15t-68 4.5h-19q-39 0 -64 -3.5t-38.5 -13t-18.5 -26t-5 -42.5v-14q0 -23 4.5 -38.5t21.5 -25
t50 -15.5t89 -10q80 -7 129 -18.5t76 -33t36 -55.5t9 -86v-18z" />
    <glyph glyph-name="T" unicode="T" horiz-adv-x="554" 
d="M342 0h-130v578h-200v102h530v-102h-200v-578z" />
    <glyph glyph-name="U" unicode="U" horiz-adv-x="682" 
d="M332 -7q-85 0 -138.5 9.5t-83.5 35.5t-41 72t-11 118v452h130v-440q0 -47 5.5 -75t21 -43t44 -20t74.5 -5h16q46 0 74.5 5t44 20t21 43t5.5 75v440h130v-452q0 -72 -11 -118t-41 -72t-83.5 -35.5t-138.5 -9.5h-18z" />
    <glyph glyph-name="V" unicode="V" horiz-adv-x="649" 
d="M410 0h-171l-228 680h137l177 -574h3l177 574h133z" />
    <glyph glyph-name="W" unicode="W" horiz-adv-x="946" 
d="M766 0h-162l-129 559h-2l-129 -559h-163l-163 680h130l119 -573h3l132 573h147l133 -573h3l116 573h127z" />
    <glyph glyph-name="X" unicode="X" horiz-adv-x="660" 
d="M646 0h-154l-163 292l-162 -292h-153l215 352l-196 328h149l148 -269l148 269h149l-197 -328z" />
    <glyph glyph-name="Y" unicode="Y" horiz-adv-x="626" 
d="M378 0h-130v229l-240 451h140l165 -335h3l161 335h141l-240 -451v-229z" />
    <glyph glyph-name="Z" unicode="Z" horiz-adv-x="595" 
d="M559 0h-522v102l366 478v1h-354v99h504v-103l-365 -475v-2h371v-100z" />
    <glyph glyph-name="bracketleft" unicode="[" horiz-adv-x="349" 
d="M289 -8h-219v696h219v-95h-104v-506h104v-95z" />
    <glyph glyph-name="backslash" unicode="\" horiz-adv-x="456" 
d="M400 -8h-93l-265 696h93z" />
    <glyph glyph-name="bracketright" unicode="]" horiz-adv-x="349" 
d="M279 -8h-219v95h104v506h-104v95h219v-696z" />
    <glyph glyph-name="asciicircum" unicode="^" horiz-adv-x="581" 
d="M535 302h-107l-137 272h-1l-138 -272h-106l200 378h88z" />
    <glyph glyph-name="underscore" unicode="_" horiz-adv-x="394" 
d="M394 -139h-394v61h394v-61z" />
    <glyph glyph-name="grave" unicode="`" 
d="M262 538l-183 103l53 73l161 -136z" />
    <glyph glyph-name="a" unicode="a" horiz-adv-x="526" 
d="M472 0h-114v52h-2q-8 -15 -19 -26.5t-26.5 -18.5t-37 -10.5t-51.5 -3.5h-14q-49 0 -80.5 7t-50 24t-26 45t-7.5 71v17q0 41 9 68.5t29 44t52 23.5t78 7h8q59 0 89.5 -10t45.5 -33h3v38q0 37 -2.5 59t-12 34t-28 15.5t-49.5 3.5h-12q-27 0 -44.5 -2.5t-27 -9t-13 -17.5
t-3.5 -27v-12h-109v10q0 42 9.5 69t33 42.5t62.5 21t98 5.5h15q63 0 102 -7.5t60 -30.5t28 -65t7 -111v-273zM262 74q29 0 48 3t30 11t15.5 21t4.5 34v14q0 21 -4 34.5t-15.5 21t-31.5 10.5t-51 3h-9q-30 0 -48 -3t-28.5 -11t-14 -21t-3.5 -34v-14q0 -21 3.5 -34.5t14.5 -21
t30 -10.5t51 -3h8z" />
    <glyph glyph-name="b" unicode="b" horiz-adv-x="556" 
d="M322 -7q-60 0 -93 15t-53 57h-2v-65h-116v680h120v-262h1q17 39 50 54t90 15h14q52 0 86.5 -10t55.5 -36t29.5 -70.5t8.5 -112.5v-33q0 -69 -8.5 -113.5t-29.5 -71t-56 -37t-87 -10.5h-10zM292 84q31 0 50.5 5.5t30.5 20.5t15.5 42.5t4.5 72.5v32q0 45 -4.5 72.5
t-15.5 42.5t-30.5 20.5t-50.5 5.5h-15q-30 0 -50 -5.5t-32 -20t-16.5 -40.5t-4.5 -68v-46q0 -41 4.5 -67t16 -41t31.5 -20.5t51 -5.5h15z" />
    <glyph glyph-name="c" unicode="c" horiz-adv-x="520" 
d="M255 -7q-63 0 -104 10t-65 35.5t-33.5 69.5t-9.5 111v43q0 68 10 111.5t34.5 69t66 35t104.5 9.5h20q59 0 97.5 -8.5t61 -28t31.5 -51t9 -76.5v-18h-110v10q0 48 -18 65.5t-72 17.5h-16q-32 0 -51 -5t-29.5 -19.5t-14 -41.5t-3.5 -70v-43q0 -43 4 -69.5t15 -41
t30.5 -19.5t51.5 -5h16q27 0 44 4t27 13.5t13.5 26t3.5 41.5v10h110v-15q0 -48 -9 -80.5t-32.5 -52.5t-62.5 -29t-99 -9h-20z" />
    <glyph glyph-name="d" unicode="d" horiz-adv-x="556" 
d="M498 0h-116v65h-2q-20 -44 -55 -58t-90 -14h-11q-52 0 -87 10.5t-56 37t-29.5 71t-8.5 113.5v33q0 69 8.5 113t29.5 70t55.5 36t85.5 10h15q55 0 89 -14.5t51 -54.5h1v262h120v-680zM279 84q31 0 51 5.5t31.5 20t16 40.5t4.5 68v46q0 41 -4.5 67t-16 41t-31.5 20.5
t-51 5.5h-15q-30 0 -50 -5.5t-31 -20.5t-15.5 -42.5t-4.5 -72.5v-32q0 -44 4.5 -71.5t15.5 -43t31 -21t50 -5.5h15z" />
    <glyph glyph-name="e" unicode="e" horiz-adv-x="522" 
d="M254 -7q-63 0 -104 9.5t-65 35t-33 69.5t-9 112v43q0 69 10.5 113t35 68.5t64.5 34t99 9.5h19q61 0 101 -9t63.5 -32t33 -62.5t9.5 -100.5v-66h-320v-20q0 -39 3.5 -62.5t15 -36.5t32 -17t53.5 -4h13q30 0 48.5 3t29 11.5t14 22.5t3.5 37v9h110v-11q0 -44 -11 -74
t-35 -48t-62.5 -26t-94.5 -8h-23zM368 288v15q0 32 -3.5 52.5t-14.5 32t-30.5 16t-50.5 4.5h-9q-33 0 -53 -4.5t-31 -17.5t-15 -36.5t-4 -61.5h211z" />
    <glyph glyph-name="f" unicode="f" horiz-adv-x="304" 
d="M198 0h-119v394h-62v86h62v40q0 48 8.5 80t27.5 51t49 27t73 8q20 0 40.5 -1t38.5 -3v-85q-21 3 -47 3q-21 0 -34.5 -3t-22 -12.5t-11.5 -26.5t-3 -45v-33h110v-86h-110v-394z" />
    <glyph glyph-name="g" unicode="g" horiz-adv-x="551" 
d="M255 -178q-59 0 -97.5 5.5t-61.5 21t-32 43t-9 71.5v12h111v-7q0 -18 3.5 -29.5t13 -19t27 -10.5t45.5 -3h17q35 0 55.5 4t31.5 16t14.5 35t3.5 62v71h-3q-17 -38 -50.5 -54t-93.5 -16h-10q-50 0 -83.5 9t-54.5 33t-30 65.5t-9 106.5v29q0 66 9 108.5t30 67t54.5 34.5
t83.5 10h11q56 0 91 -14t55 -55h1v62h116v-447q0 -67 -10 -108.5t-35 -64t-68 -30.5t-109 -8h-17zM275 111q31 0 51.5 5.5t31.5 20t15.5 39.5t4.5 65v24q0 41 -4.5 67t-15.5 40.5t-31.5 20t-51.5 5.5h-14q-29 0 -48.5 -5t-30.5 -19.5t-15.5 -40.5t-4.5 -68v-24
q0 -40 4.5 -65.5t15.5 -39.5t30 -19.5t49 -5.5h14z" />
    <glyph glyph-name="h" unicode="h" horiz-adv-x="561" 
d="M506 0h-120v278q0 37 -3.5 59.5t-13.5 35.5t-28.5 17.5t-49.5 4.5h-8q-30 0 -50 -5.5t-32 -18.5t-17.5 -36t-5.5 -57v-278h-120v680h120v-276h1q17 43 50 63t98 20h8q50 0 83 -8.5t52.5 -30t27.5 -58.5t8 -94v-296z" />
    <glyph glyph-name="i" unicode="i" horiz-adv-x="236" 
d="M178 0h-120v480h120v-480zM178 573h-120v107h120v-107z" />
    <glyph glyph-name="j" unicode="j" horiz-adv-x="236" 
d="M178 -36q0 -40 -8 -66.5t-24 -42t-40.5 -22t-57.5 -6.5q-21 0 -45 3v87q7 -1 10.5 -1h7.5q21 0 29 12t8 53v499h120v-516zM178 573h-120v107h120v-107z" />
    <glyph glyph-name="k" unicode="k" horiz-adv-x="504" 
d="M496 0h-140l-158 220h-21v-220h-119v680h119v-390h25l141 190h134l-176 -223z" />
    <glyph glyph-name="l" unicode="l" horiz-adv-x="236" 
d="M178 0h-120v680h120v-680z" />
    <glyph glyph-name="m" unicode="m" horiz-adv-x="847" 
d="M792 0h-120v278q0 36 -3.5 59t-13 36t-26.5 17.5t-44 4.5h-9q-25 0 -42 -5t-28 -18t-16 -35t-5 -55v-282h-120v278q0 37 -3.5 59.5t-13 35.5t-25 17.5t-39.5 4.5h-9q-28 0 -46.5 -5t-30 -18.5t-16 -36t-4.5 -57.5v-278h-120v480h118v-76h1q14 39 47.5 61t93.5 22h9
q68 0 101.5 -20.5t44.5 -71.5h1q15 43 49.5 67.5t99.5 24.5h9q48 0 79 -9t49 -30.5t25 -58.5t7 -92v-297z" />
    <glyph glyph-name="n" unicode="n" horiz-adv-x="561" 
d="M506 0h-120v278q0 36 -3.5 59t-13.5 36t-28.5 17.5t-49.5 4.5h-8q-29 0 -49 -5.5t-32.5 -18.5t-18 -36t-5.5 -57v-278h-120v480h118v-76h1q17 43 51 63t99 20h8q50 0 83 -8.5t52.5 -30.5t27.5 -58.5t8 -93.5v-296z" />
    <glyph glyph-name="o" unicode="o" horiz-adv-x="544" 
d="M262 -7q-64 0 -106.5 10.5t-67.5 36t-35 69t-10 110.5v43q0 66 10 109.5t35 69t67.5 36t106.5 10.5h20q64 0 106.5 -10.5t67.5 -36t35 -69t10 -109.5v-43q0 -67 -10 -110.5t-35 -69t-67.5 -36t-106.5 -10.5h-20zM279 84q32 0 52 5.5t31.5 20.5t16 41.5t4.5 67.5v43
q0 42 -4.5 68.5t-16 41.5t-31.5 20.5t-52 5.5h-14q-32 0 -52 -5.5t-31.5 -20.5t-16 -41.5t-4.5 -68.5v-43q0 -41 4.5 -67.5t16 -41.5t31.5 -20.5t52 -5.5h14z" />
    <glyph glyph-name="p" unicode="p" horiz-adv-x="556" 
d="M178 -170h-120v650h116v-62h2q19 41 54 55t92 14h11q52 0 86.5 -10t55.5 -36t29.5 -70.5t8.5 -112.5v-33q0 -69 -8.5 -113.5t-29.5 -71t-56 -37t-87 -10.5h-13q-54 0 -87 14t-52 58h-2v-235zM292 84q31 0 50.5 5.5t30.5 20.5t15.5 42.5t4.5 72.5v32q0 45 -4.5 72.5
t-15.5 42.5t-30.5 20.5t-50.5 5.5h-15q-30 0 -50 -5.5t-32 -20t-16.5 -40.5t-4.5 -68v-46q0 -41 4.5 -67t16 -41t31.5 -20.5t51 -5.5h15z" />
    <glyph glyph-name="q" unicode="q" horiz-adv-x="556" 
d="M498 -170h-120v235h-2q-19 -44 -52 -58t-87 -14h-13q-52 0 -87 10.5t-56 37t-29.5 71t-8.5 113.5v33q0 69 8.5 113t29.5 70t55.5 36t85.5 10h13q57 0 91.5 -13.5t54.5 -55.5h1v62h116v-650zM279 84q31 0 51 5.5t31.5 20t16 40.5t4.5 68v46q0 41 -4.5 67t-16 41
t-31.5 20.5t-51 5.5h-15q-30 0 -50 -5.5t-31 -20.5t-15.5 -42.5t-4.5 -72.5v-32q0 -44 4 -71.5t15.5 -43t31 -21t50.5 -5.5h15z" />
    <glyph glyph-name="r" unicode="r" horiz-adv-x="462" 
d="M178 0h-120v480h116v-87h3q14 49 44 71.5t90 22.5h6q37 0 61 -7.5t38 -25t19 -46t5 -70.5v-22t-1 -33h-102v28q0 24 -3 39.5t-10.5 24t-21 12t-34.5 3.5h-8q-21 0 -36.5 -5.5t-25.5 -19.5t-15 -37.5t-5 -60.5v-267z" />
    <glyph glyph-name="s" unicode="s" horiz-adv-x="511" 
d="M250 -7q-65 0 -104.5 6.5t-62 22t-30 42t-7.5 65.5v19h111v-8q0 -20 3.5 -32t13 -19t28 -9.5t48.5 -2.5h23q27 0 44.5 2.5t27.5 8.5t14 17t4 29v7q0 16 -4 27t-17.5 18.5t-39.5 12.5t-70 8q-56 4 -91 12.5t-55 24t-27 40t-7 59.5v11q0 37 8.5 62.5t29.5 41t56 22.5t89 7
h20q63 0 102.5 -6t61.5 -21t30 -41t8 -66v-12h-108v6q0 18 -3 29.5t-12 18.5t-26 9.5t-45 2.5h-15q-27 0 -44 -2.5t-26.5 -8.5t-12.5 -16.5t-3 -25.5v-9q0 -13 3.5 -21.5t15 -14t33 -8.5t57.5 -6q61 -5 100.5 -14t62 -25.5t31 -41.5t8.5 -61v-15q0 -42 -10 -70t-33 -44.5
t-61 -23.5t-94 -7h-25z" />
    <glyph glyph-name="t" unicode="t" horiz-adv-x="433" 
d="M233 -7q-48 0 -78 7t-47 27.5t-23.5 58t-6.5 98.5v210h-66v86h66v125h117v-125h208v-86h-208v-199q0 -39 2 -61t8 -33.5t17.5 -14t29.5 -2.5h9q19 0 30 3t17 14t7.5 31t1.5 55v27h94v-49q0 -53 -7 -86t-25 -52.5t-49.5 -26.5t-80.5 -7h-16z" />
    <glyph glyph-name="u" unicode="u" horiz-adv-x="557" 
d="M499 0h-118v77h-1q-17 -44 -50.5 -64t-99.5 -20h-8q-49 0 -82 9t-52.5 31t-27.5 59.5t-8 94.5v293h120v-277q0 -38 3 -61t13 -36t28.5 -17.5t49.5 -4.5h9q29 0 49 5t32 18.5t17.5 36.5t5.5 59v277h120v-480z" />
    <glyph glyph-name="v" unicode="v" horiz-adv-x="499" 
d="M330 0h-161l-160 480h127l114 -390h3l114 390h123z" />
    <glyph glyph-name="w" unicode="w" horiz-adv-x="783" 
d="M636 0h-161l-82 363h-3l-82 -363h-161l-133 480h125l90 -393h4l94 393h132l96 -393h3l89 393h122z" />
    <glyph glyph-name="x" unicode="x" horiz-adv-x="518" 
d="M500 0h-134l-108 198l-106 -198h-134l152 249l-139 231h133l95 -183l96 183h132l-140 -231z" />
    <glyph glyph-name="y" unicode="y" horiz-adv-x="488" 
d="M80 -81q9 -2 20 -2h16q23 0 39 3.5t28 14t22 30t20 50.5h-65l-151 465h125l112 -382h5l106 382h122l-133 -426q-24 -77 -43.5 -122t-42 -68t-51 -30t-70.5 -7q-31 0 -59 3v89z" />
    <glyph glyph-name="z" unicode="z" horiz-adv-x="441" 
d="M415 0h-387v89l240 302v2h-228v87h368v-92l-237 -298v-2h244v-88z" />
    <glyph glyph-name="braceleft" unicode="{" horiz-adv-x="351" 
d="M291 -8h-78q-30 0 -52.5 5.5t-37 19t-22 36.5t-7.5 58v118q0 38 -11.5 59.5t-46.5 21.5v66q35 0 46.5 21.5t11.5 59.5v112q0 35 7.5 58t22 36.5t37 19t52.5 5.5h78v-78h-23q-38 0 -50 -13.5t-12 -48.5v-88q0 -26 -1.5 -46t-8.5 -34.5t-22 -23.5t-41 -12v-2q26 -3 41 -12
t22 -23.5t8.5 -34.5t1.5 -46v-94q0 -35 12 -48.5t50 -13.5h23v-78z" />
    <glyph glyph-name="bar" unicode="|" horiz-adv-x="300" 
d="M193 -70h-86v820h86v-820z" />
    <glyph glyph-name="braceright" unicode="}" horiz-adv-x="351" 
d="M60 -8v78h23q38 0 50 13.5t12 48.5v94q0 26 1.5 46t9 34.5t22.5 23.5t41 12v2q-26 3 -41 12t-22.5 23.5t-9 34.5t-1.5 46v88q0 35 -12 48.5t-50 13.5h-23v78h78q30 0 52.5 -5.5t37 -19t22 -36.5t7.5 -58v-112q0 -38 11.5 -59.5t46.5 -21.5v-66q-35 0 -46.5 -21.5
t-11.5 -59.5v-118q0 -35 -7.5 -58t-22 -36.5t-37 -19t-52.5 -5.5h-78z" />
    <glyph glyph-name="asciitilde" unicode="~" horiz-adv-x="548" 
d="M488 334q-23 -51 -51 -78t-73 -27q-27 0 -49 8.5t-42 20.5q-20 11 -40 20t-43 9q-25 0 -39.5 -14t-26.5 -42l-64 36q23 53 51.5 79t73.5 26q26 0 47.5 -8.5t42.5 -19.5q20 -11 40.5 -20t41.5 -9q26 0 40.5 14.5t26.5 40.5z" />
    <glyph glyph-name="uni00A0" unicode="&#xa0;" horiz-adv-x="248" 
 />
    <glyph glyph-name="exclamdown" unicode="&#xa1;" horiz-adv-x="275" 
d="M199 343h-124v137h124v-137zM201 -200h-128l9 464h110z" />
    <glyph glyph-name="cent" unicode="&#xa2;" horiz-adv-x="585" 
d="M325 -35h-54v116q-63 1 -103.5 10.5t-63.5 34t-32 66.5t-9 108v57q0 66 9 108t32.5 66t64 33.5t102.5 10.5v105h54v-105q58 0 96 -8t60.5 -26.5t31.5 -49.5t9 -78v-20h-106v14q0 24 -3.5 39t-13.5 24t-28 12.5t-46 3.5v-315q29 0 47 4.5t28 14t13.5 25.5t3.5 39v13h106
v-21q0 -47 -9 -78.5t-31.5 -50.5t-61 -27.5t-96.5 -8.5v-116zM177 300q0 -41 3.5 -66t13.5 -39t28.5 -18.5t48.5 -5.5v315q-30 0 -48.5 -5t-28.5 -18.5t-13.5 -38.5t-3.5 -67v-57z" />
    <glyph glyph-name="sterling" unicode="&#xa3;" horiz-adv-x="652" 
d="M599 0h-541v100q22 4 36 13t23 28t13 51t5 82h-80v88h81v38q0 91 9 147.5t33.5 87.5t67 41.5t110.5 10.5h21q61 0 101.5 -7.5t64.5 -27.5t34 -56.5t10 -94.5v-15h-116v14q0 28 -3.5 45.5t-14 27.5t-29.5 13.5t-49 3.5h-13q-35 0 -56.5 -5t-33 -23t-15.5 -52.5t-4 -93.5
v-54h215v-88h-217q-2 -45 -7.5 -74.5t-15 -48t-24 -29.5t-35.5 -19v-3h430v-100z" />
    <glyph glyph-name="currency" unicode="&#xa4;" horiz-adv-x="597" 
d="M492 66l-82 82q-23 -15 -50.5 -23.5t-59.5 -8.5q-60 0 -112 34l-83 -83q-13 13 -25.5 26t-26.5 26l81 82q-32 44 -32 113q0 63 30 110l-79 80l52 53l81 -81q48 34 114 34q64 0 113 -32l78 79l53 -53l-77 -78q16 -22 24.5 -50t8.5 -62t-9 -63t-26 -52l80 -80zM300 203
q50 0 78.5 31.5t28.5 79.5q0 47 -29 79t-78 32t-78 -32t-29 -79q0 -48 29 -79.5t78 -31.5z" />
    <glyph glyph-name="yen" unicode="&#xa5;" horiz-adv-x="645" 
d="M385 0h-125v197h-187v63h185v7l-48 90h-137v63h104l-140 260h134l152 -334h2l149 334h134l-140 -260h104v-63h-138l-48 -90v-7h186v-63h-187v-197z" />
    <glyph glyph-name="brokenbar" unicode="&#xa6;" horiz-adv-x="300" 
d="M193 427h-86v323h86v-323zM193 -70h-86v329h86v-329z" />
    <glyph glyph-name="section" unicode="&#xa7;" horiz-adv-x="657" 
d="M593 -40q0 -48 -10.5 -80t-38 -51t-75.5 -27t-123 -8h-25q-84 0 -134.5 7t-77 26.5t-34.5 54.5t-8 91v20h120v-11q0 -29 4.5 -47t18.5 -28t41 -13.5t72 -3.5h12q45 0 71.5 3.5t40 13t17.5 26t4 42.5v8q0 23 -4.5 38t-18.5 24t-39.5 13t-68.5 4h-27q-72 0 -118.5 8.5
t-73.5 27t-37.5 48.5t-10.5 73v15q0 29 4.5 51t15.5 37.5t29.5 26t46.5 15.5v2q-29 5 -47.5 16t-29.5 28t-15 41t-4 54v11q0 51 10 84t37 52.5t74.5 27t121.5 7.5h28q84 0 133 -8t74 -28.5t32 -56.5t7 -92v-20h-118v12q0 31 -4 50.5t-17.5 30t-38.5 14t-66 3.5h-17
q-44 0 -70 -3.5t-40 -12.5t-18.5 -25t-4.5 -42v-10q0 -22 4.5 -37t18.5 -24.5t41.5 -14t72.5 -4.5h17q74 0 122 -7.5t75.5 -25.5t38 -48t10.5 -75v-13q0 -65 -22 -96t-78 -39v-1q28 -6 47.5 -16t31 -26.5t16.5 -40.5t5 -59v-12zM336 152q44 0 70 3.5t40 12.5t18 25t4 42v11
q0 25 -4 41.5t-18 26.5t-40 13.5t-69 3.5h-11q-44 0 -70 -3.5t-40 -13t-18.5 -26t-4.5 -41.5v-11q0 -25 4 -41.5t17.5 -26t39 -13t68.5 -3.5h14z" />
    <glyph glyph-name="dieresis" unicode="&#xa8;" 
d="M158 573h-102v107h102v-107zM350 573h-102v107h102v-107z" />
    <glyph glyph-name="copyright" unicode="&#xa9;" horiz-adv-x="812" 
d="M410 138q-53 0 -87.5 6.5t-54 26t-27 55t-7.5 92.5v47q0 56 7.5 91t27 54.5t54 26t87.5 6.5h11q46 0 76.5 -6t48.5 -21.5t25.5 -41t7.5 -64.5v-18h-92v13q0 37 -13.5 49t-55.5 12h-7q-26 0 -42 -3.5t-24.5 -14t-11 -30.5t-2.5 -53v-47q0 -34 2.5 -54.5t11 -31t24 -13.5
t42.5 -3h8q43 0 56 14t13 51v12h91v-19q0 -40 -7.5 -66.5t-26 -42t-48.5 -21.5t-75 -6h-12zM420 39q63 0 108.5 3t77 13.5t50 30.5t29 52.5t13.5 80.5t3 115v12q0 100 -8.5 159t-37.5 89t-84.5 38.5t-150.5 8.5h-28q-95 0 -150.5 -8.5t-84.5 -38.5t-37 -89t-8 -159v-12
q0 -67 3 -115t13 -80.5t29 -52.5t50 -30.5t76.5 -13.5t108.5 -3h28zM392 -7q-71 0 -123 4t-89 16.5t-60.5 35.5t-36.5 60.5t-18 91.5t-5 129v20q0 75 5 129t18 91.5t36.5 60.5t60.5 35.5t89 16.5t123 4h28q106 0 171.5 -10.5t101.5 -45.5t48 -102t12 -179v-20q0 -75 -5 -129
t-18.5 -91.5t-36.5 -60.5t-60 -35.5t-89.5 -16.5t-123.5 -4h-28z" />
    <glyph glyph-name="ordfeminine" unicode="&#xaa;" horiz-adv-x="375" 
d="M187 426q37 0 50 8t13 33v6q0 26 -13.5 33.5t-51.5 7.5h-9q-35 0 -45.5 -8t-10.5 -34v-5q0 -12 2 -20t8 -12.5t17.5 -6.5t30.5 -2h9zM322 379h-71v30q-11 -17 -31 -25.5t-58 -8.5h-12q-30 0 -49.5 4.5t-31.5 14.5t-16.5 26.5t-4.5 40.5v15q0 49 24.5 67t79.5 18h11
q35 0 55.5 -5.5t30.5 -19.5v22q0 22 -2 36t-8 21.5t-18 10t-31 2.5h-11q-31 0 -41.5 -8t-10.5 -28v-5h-70v5q0 27 6 44t21 26.5t39.5 13.5t61.5 4h14q38 0 62 -5t37.5 -19t18.5 -39.5t5 -65.5v-172z" />
    <glyph glyph-name="guillemotleft" unicode="&#xab;" horiz-adv-x="462" 
d="M231 102l-82 -31l-101 200l101 201l82 -31l-85 -170zM412 102l-82 -31l-101 200l101 201l82 -31l-85 -170z" />
    <glyph glyph-name="logicalnot" unicode="&#xac;" horiz-adv-x="548" 
d="M490 181h-97v159h-335v90h432v-249z" />
    <glyph glyph-name="uni00AD" unicode="&#xad;" horiz-adv-x="399" 
d="M335 196h-273v106h273v-106z" />
    <glyph glyph-name="registered" unicode="&#xae;" horiz-adv-x="555" 
d="M291 476q20 0 29 7.5t9 26.5v9q0 23 -8.5 30.5t-32.5 7.5h-50v-81h53zM385 351h-55v34q0 32 -9.5 41t-41.5 9h-41v-84h-55v245h123q43 0 60 -14.5t17 -56.5v-9q0 -25 -8.5 -38.5t-23.5 -18.5v-1q19 -5 26.5 -18.5t7.5 -45.5v-43zM286 304q55 0 89 5.5t52.5 22.5
t24.5 49.5t6 86.5v11q0 54 -6 87t-24.5 50t-52.5 22.5t-89 5.5h-16q-56 0 -90 -5.5t-52.5 -22.5t-24.5 -50t-6 -87v-11q0 -54 6 -86.5t24.5 -49.5t52.5 -22.5t90 -5.5h16zM270 266q-66 0 -108 7t-66 28.5t-33 61.5t-9 105v11q0 66 9 105.5t33 61t66 28.5t108 7h16
q66 0 107.5 -7t65.5 -28.5t33 -61t9 -105.5v-11q0 -65 -9 -105t-33 -61.5t-65.5 -28.5t-107.5 -7h-16z" />
    <glyph glyph-name="macron" unicode="&#xaf;" 
d="M329 589h-253v73h253v-73z" />
    <glyph glyph-name="degree" unicode="&#xb0;" horiz-adv-x="365" 
d="M182 411q-31 0 -57 10.5t-45.5 29.5t-30.5 45.5t-11 57.5t11 57.5t30.5 45.5t45.5 29.5t57 10.5t58 -10.5t46 -29.5t30 -45.5t11 -57.5t-11 -57.5t-30 -45.5t-46 -29.5t-58 -10.5zM182 471q37 0 60 23.5t23 60.5q0 35 -23 59t-60 24q-35 0 -58.5 -24t-23.5 -59
q0 -37 23.5 -60.5t58.5 -23.5z" />
    <glyph glyph-name="plusminus" unicode="&#xb1;" horiz-adv-x="548" 
d="M490 10h-432v92h432v-92zM490 320h-168v-157h-96v157h-168v91h168v157h96v-157h168v-91z" />
    <glyph glyph-name="twosuperior" unicode="&#xb2;" horiz-adv-x="394" 
d="M361 453h-319v63q0 35 6 58t22.5 38t45.5 23.5t74 15.5q29 4 46 8.5t26 11t12 15.5t3 23v13q0 14 -3 23t-11 14t-24 7t-41 2h-7q-23 0 -36.5 -2.5t-21 -8.5t-10 -16.5t-2.5 -27.5v-15h-78v17q0 34 5.5 56.5t22 35t45 17.5t75.5 5h9q49 0 80.5 -4.5t48.5 -16.5t23.5 -32.5
t6.5 -52.5v-10q0 -31 -5.5 -51.5t-21 -34t-44 -22t-74.5 -15.5q-30 -5 -48.5 -9t-28 -10t-13 -16t-3.5 -26v-13h240v-63z" />
    <glyph glyph-name="threesuperior" unicode="&#xb3;" horiz-adv-x="399" 
d="M191 449q-48 0 -78 4.5t-46.5 17t-22 35t-5.5 57.5v16h76v-17q0 -17 2.5 -27t10.5 -15.5t23 -7.5t40 -2h7q28 0 45 2t26 7t11.5 14t2.5 23v12q0 26 -11 36t-44 10h-72v55h72q29 0 38 9t9 34v13q0 13 -3 21.5t-11 13t-23.5 6.5t-40.5 2h-6q-23 0 -37.5 -1.5t-22.5 -7
t-10.5 -15t-2.5 -25.5v-18h-75v17q0 34 5.5 55.5t22 34t45.5 17t76 4.5h10q49 0 79 -4.5t47 -15.5t23 -30t6 -47v-9q0 -39 -10.5 -55.5t-36.5 -24.5v-1q27 -5 41 -21.5t14 -57.5v-13q0 -30 -7 -49.5t-25 -31t-49.5 -16t-80.5 -4.5h-12z" />
    <glyph glyph-name="acute" unicode="&#xb4;" 
d="M143 538l-30 40l161 136l53 -73z" />
    <glyph glyph-name="mu" unicode="&#xb5;" horiz-adv-x="568" 
d="M510 0h-118v75h-1q-14 -40 -43.5 -59.5t-82.5 -19.5h-6q-61 0 -79 30h-2v-201h-120v655h120v-281q0 -36 5 -58t16 -35t30 -17.5t48 -4.5h9q28 0 48 5t32.5 18.5t18 36t5.5 58.5v278h120v-480z" />
    <glyph glyph-name="paragraph" unicode="&#xb6;" horiz-adv-x="604" 
d="M541 -164h-86v777h-63v-777h-86v381h-40q-63 0 -103 11t-63 36.5t-31.5 67t-8.5 101.5v33q0 65 9.5 106.5t37 65.5t76.5 33t128 9h230v-844z" />
    <glyph glyph-name="periodcentered" unicode="&#xb7;" horiz-adv-x="234" 
d="M179 198h-124v137h124v-137z" />
    <glyph glyph-name="cedilla" unicode="&#xb8;" horiz-adv-x="385" 
d="M103 -193l-35 38l147 147l61 -67z" />
    <glyph glyph-name="onesuperior" unicode="&#xb9;" horiz-adv-x="304" 
d="M219 453h-84v296h-2l-82 -73l-41 53l112 96h97v-372z" />
    <glyph glyph-name="ordmasculine" unicode="&#xba;" horiz-adv-x="379" 
d="M197 435q20 0 32.5 3.5t19 12.5t9 24t2.5 39v29q0 23 -2.5 38t-9 24t-19 12.5t-32.5 3.5h-14q-20 0 -32.5 -3.5t-19 -12.5t-9 -24t-2.5 -38v-29q0 -24 2.5 -39t9 -24t19 -12.5t32.5 -3.5h14zM179 375q-40 0 -66 6t-41 22t-21 43t-6 68v29q0 41 6 67.5t21 42t41 21.5t66 6
h20q40 0 66.5 -6t42 -21.5t21.5 -42t6 -67.5v-29q0 -41 -6 -68t-21.5 -43t-42 -22t-66.5 -6h-20z" />
    <glyph glyph-name="guillemotright" unicode="&#xbb;" horiz-adv-x="463" 
d="M132 72l-82 31l85 169l-85 169l82 32l102 -201zM313 72l-82 31l85 169l-85 169l82 32l102 -201z" />
    <glyph glyph-name="onequarter" unicode="&#xbc;" horiz-adv-x="858" 
d="M265 308h-84v296h-2l-84 -78l-41 53l114 101h97v-372zM305 0h-73l267 680h73zM757 0h-81v79h-224v76l191 217h114v-234h48v-59h-48v-79zM676 138v177h-4l-150 -176v-1h154z" />
    <glyph glyph-name="onehalf" unicode="&#xbd;" horiz-adv-x="873" 
d="M265 308h-84v296h-2l-84 -78l-41 53l114 101h97v-372zM305 0h-73l267 680h73zM817 0h-319v63q0 35 6 58t22.5 38t45.5 23.5t74 15.5q29 4 46 8.5t26 11t12 15.5t3 23v13q0 14 -3 23t-11 14t-24 7t-41 2h-7q-23 0 -36.5 -2.5t-21 -8.5t-10 -16.5t-2.5 -27.5v-15h-78v17
q0 34 5.5 56.5t22 35t45 17.5t75.5 5h9q49 0 80.5 -4.5t48.5 -16.5t23.5 -32.5t6.5 -52.5v-10q0 -31 -5.5 -51.5t-21 -34t-44 -22t-74.5 -15.5q-30 -5 -48.5 -9t-28 -10t-13 -16t-3.5 -26v-13h240v-63z" />
    <glyph glyph-name="threequarters" unicode="&#xbe;" horiz-adv-x="954" 
d="M395 405q0 -30 -7 -49.5t-25 -31t-49.5 -16t-80.5 -4.5h-12q-48 0 -78 4.5t-46.5 17t-22 35t-5.5 57.5v16h76v-17q0 -17 2.5 -27t10.5 -15.5t23 -7.5t40 -2h7q28 0 45 2t26 7t11.5 14t2.5 23v12q0 26 -11 36t-44 10h-72v55h72q29 0 38 9t9 34v13q0 13 -3 21.5t-11 13
t-23.5 6.5t-40.5 2h-6q-23 0 -37.5 -1.5t-22.5 -7t-10.5 -15t-2.5 -25.5v-18h-75v17q0 34 5.5 55.5t22 34t45.5 17t76 4.5h10q49 0 79 -4.5t47 -15.5t23 -30t6 -47v-9q0 -39 -10.5 -55.5t-36.5 -24.5v-1q27 -5 41 -21.5t14 -57.5v-13zM402 0h-74l268 680h73zM853 0h-81v79
h-224v76l191 217h114v-234h48v-59h-48v-79zM772 138v177h-4l-150 -176v-1h154z" />
    <glyph glyph-name="questiondown" unicode="&#xbf;" horiz-adv-x="553" 
d="M241 261h111v-27q0 -32 -4 -53.5t-15.5 -37t-31 -26t-49.5 -19.5q-32 -9 -51.5 -18t-30 -20.5t-13.5 -27.5t-3 -41v-10q0 -29 4.5 -47.5t17 -29t34 -14.5t56.5 -4h13q38 0 61 4t36 16.5t17 35t4 59.5v22h108v-31q0 -60 -10 -98.5t-35.5 -61t-69 -31t-111.5 -8.5h-15
q-66 0 -109 9t-68 30t-34.5 54.5t-9.5 83.5v17q0 43 5 73t19.5 51.5t39.5 36t64 25.5q22 6 36 12t21.5 13.5t10 18.5t2.5 28v16zM358 347h-124v133h124v-133z" />
    <glyph glyph-name="Agrave" unicode="&#xc0;" horiz-adv-x="672" 
d="M661 0h-138l-45 143h-288l-45 -143h-134l234 680h183zM449 239l-111 347h-6l-114 -347h231zM382 733l-198 74l41 79l181 -109z" />
    <glyph glyph-name="Aacute" unicode="&#xc1;" horiz-adv-x="672" 
d="M661 0h-138l-45 143h-288l-45 -143h-134l234 680h183zM449 239l-111 347h-6l-114 -347h231zM481 807l-197 -74l-25 43l181 110z" />
    <glyph glyph-name="Acircumflex" unicode="&#xc2;" horiz-adv-x="672" 
d="M661 0h-138l-45 143h-288l-45 -143h-134l234 680h183zM449 239l-111 347h-6l-114 -347h231zM443 737l-107 69l-108 -69l-38 41l146 115l146 -115z" />
    <glyph glyph-name="Atilde" unicode="&#xc3;" horiz-adv-x="672" 
d="M661 0h-138l-45 143h-288l-45 -143h-134l234 680h183zM449 239l-111 347h-6l-114 -347h231zM472 856q-3 -50 -21.5 -78t-59.5 -28q-19 0 -33.5 6.5t-28.5 15.5q-14 8 -25 13t-23 5q-14 0 -23.5 -8.5t-13.5 -32.5l-46 11q2 48 21.5 76t58.5 28q17 0 31.5 -5.5t29.5 -15.5
q14 -9 26 -14.5t24 -5.5q31 0 35 43z" />
    <glyph glyph-name="Adieresis" unicode="&#xc4;" horiz-adv-x="672" 
d="M661 0h-138l-45 143h-288l-45 -143h-134l234 680h183zM449 239l-111 347h-6l-114 -347h231zM290 752h-102v106h102v-106zM483 752h-101v106h101v-106z" />
    <glyph glyph-name="Aring" unicode="&#xc5;" horiz-adv-x="672" 
d="M661 0h-138l-45 143h-288l-45 -143h-134l234 680h183zM449 239l-111 347h-6l-114 -347h231zM332 720q-61 0 -84 18t-23 63q0 51 23 68.5t84 17.5q66 0 89 -18t23 -68q0 -45 -22.5 -63t-89.5 -18zM337 759q34 0 46 9t12 33q0 29 -12 38t-51 9q-34 0 -45.5 -9t-11.5 -38
q0 -24 11.5 -33t50.5 -9z" />
    <glyph glyph-name="AE" unicode="&#xc6;" horiz-adv-x="967" 
d="M934 0h-469v143h-255l-64 -143h-137l312 680h607v-100h-335v-183h314v-96h-314v-199h341v-102zM465 239v342h-60l-152 -342h212z" />
    <glyph glyph-name="Ccedilla" unicode="&#xc7;" horiz-adv-x="664" 
d="M329 -7q-86 0 -140.5 12t-86 46t-43.5 94.5t-12 156.5v78q0 94 12 154t43.5 94t86.5 46.5t141 12.5h18q81 0 132.5 -10t81 -33.5t41 -63.5t11.5 -100v-27h-125v20q0 30 -5.5 51t-21 34.5t-43 20t-71.5 6.5h-14q-49 0 -79 -7t-47 -29t-23 -62.5t-6 -107.5v-75
q0 -70 6.5 -111t23.5 -62.5t47 -27.5t77 -6h14q43 0 71.5 4.5t45 17t23 35.5t6.5 59v21h125v-32q0 -62 -12.5 -102.5t-43.5 -64t-83 -33t-131 -9.5h-19zM243 -193l-35 38l147 147l61 -67z" />
    <glyph glyph-name="Egrave" unicode="&#xc8;" horiz-adv-x="567" 
d="M534 0h-472v680h466v-100h-336v-183h315v-96h-315v-199h342v-102zM368 733l-198 74l41 79l181 -109z" />
    <glyph glyph-name="Eacute" unicode="&#xc9;" horiz-adv-x="567" 
d="M534 0h-472v680h466v-100h-336v-183h315v-96h-315v-199h342v-102zM411 807l-197 -74l-25 43l181 110z" />
    <glyph glyph-name="Ecircumflex" unicode="&#xca;" horiz-adv-x="567" 
d="M534 0h-472v680h466v-100h-336v-183h315v-96h-315v-199h342v-102zM403 737l-107 69l-108 -69l-38 41l146 115l146 -115z" />
    <glyph glyph-name="Edieresis" unicode="&#xcb;" horiz-adv-x="567" 
d="M534 0h-472v680h466v-100h-336v-183h315v-96h-315v-199h342v-102zM247 752h-102v106h102v-106zM440 752h-101v106h101v-106z" />
    <glyph glyph-name="Igrave" unicode="&#xcc;" horiz-adv-x="254" 
d="M192 0h-130v680h130v-680zM159 733l-198 74l41 79l181 -109z" />
    <glyph glyph-name="Iacute" unicode="&#xcd;" horiz-adv-x="254" 
d="M192 0h-130v680h130v-680zM293 807l-197 -74l-25 43l181 110z" />
    <glyph glyph-name="Icircumflex" unicode="&#xce;" horiz-adv-x="254" 
d="M192 0h-130v680h130v-680zM235 737l-107 69l-108 -69l-38 41l146 115l146 -115z" />
    <glyph glyph-name="Idieresis" unicode="&#xcf;" horiz-adv-x="254" 
d="M192 0h-130v680h130v-680zM83 752h-102v106h102v-106zM276 752h-101v106h101v-106z" />
    <glyph glyph-name="Eth" unicode="&#xd0;" horiz-adv-x="702" 
d="M14 386h48v294h286q93 0 152.5 -10t93.5 -41.5t46.5 -89t12.5 -151.5v-92q0 -94 -11 -152t-44 -90t-93 -43t-157 -11h-286v312h-48v74zM343 102q57 0 92 7t54 28.5t25.5 62t6.5 107.5v72q0 66 -6.5 105.5t-26 60.5t-54 28t-91.5 7h-151v-194h139v-74h-139v-210h151z" />
    <glyph glyph-name="Ntilde" unicode="&#xd1;" horiz-adv-x="733" 
d="M671 0h-189l-298 568h-5l3 -568h-120v680h194l296 -566h4l-6 566h121v-680zM508 856q-3 -50 -21.5 -78t-59.5 -28q-19 0 -33.5 6.5t-28.5 15.5q-14 8 -25 13t-23 5q-14 0 -23.5 -8.5t-13.5 -32.5l-46 11q2 48 21.5 76t58.5 28q17 0 31.5 -5.5t29.5 -15.5q14 -9 26 -14.5
t24 -5.5q31 0 35 43z" />
    <glyph glyph-name="Ograve" unicode="&#xd2;" horiz-adv-x="695" 
d="M337 -7q-89 0 -145 13.5t-88.5 48t-44.5 94t-12 152.5v78q0 93 12 152.5t44.5 94t88.5 48t145 13.5h21q88 0 144.5 -13.5t89 -48t44.5 -94t12 -152.5v-78q0 -93 -12 -152.5t-44.5 -94t-89 -48t-144.5 -13.5h-21zM356 97q49 0 80 7t49 29t24.5 63t6.5 108v74
q0 67 -6.5 108t-24.5 63t-49 29t-80 7h-17q-50 0 -81 -7t-48.5 -29t-24 -63t-6.5 -108v-74q0 -67 6.5 -108t24 -63t48.5 -29t81 -7h17zM424 733l-198 74l41 79l181 -109z" />
    <glyph glyph-name="Oacute" unicode="&#xd3;" horiz-adv-x="695" 
d="M337 -7q-89 0 -145 13.5t-88.5 48t-44.5 94t-12 152.5v78q0 93 12 152.5t44.5 94t88.5 48t145 13.5h21q88 0 144.5 -13.5t89 -48t44.5 -94t12 -152.5v-78q0 -93 -12 -152.5t-44.5 -94t-89 -48t-144.5 -13.5h-21zM356 97q49 0 80 7t49 29t24.5 63t6.5 108v74
q0 67 -6.5 108t-24.5 63t-49 29t-80 7h-17q-50 0 -81 -7t-48.5 -29t-24 -63t-6.5 -108v-74q0 -67 6.5 -108t24 -63t48.5 -29t81 -7h17zM465 807l-197 -74l-25 43l181 110z" />
    <glyph glyph-name="Ocircumflex" unicode="&#xd4;" horiz-adv-x="695" 
d="M337 -7q-89 0 -145 13.5t-88.5 48t-44.5 94t-12 152.5v78q0 93 12 152.5t44.5 94t88.5 48t145 13.5h21q88 0 144.5 -13.5t89 -48t44.5 -94t12 -152.5v-78q0 -93 -12 -152.5t-44.5 -94t-89 -48t-144.5 -13.5h-21zM356 97q49 0 80 7t49 29t24.5 63t6.5 108v74
q0 67 -6.5 108t-24.5 63t-49 29t-80 7h-17q-50 0 -81 -7t-48.5 -29t-24 -63t-6.5 -108v-74q0 -67 6.5 -108t24 -63t48.5 -29t81 -7h17zM454 737l-107 69l-108 -69l-38 41l146 115l146 -115z" />
    <glyph glyph-name="Otilde" unicode="&#xd5;" horiz-adv-x="695" 
d="M337 -7q-89 0 -145 13.5t-88.5 48t-44.5 94t-12 152.5v78q0 93 12 152.5t44.5 94t88.5 48t145 13.5h21q88 0 144.5 -13.5t89 -48t44.5 -94t12 -152.5v-78q0 -93 -12 -152.5t-44.5 -94t-89 -48t-144.5 -13.5h-21zM356 97q49 0 80 7t49 29t24.5 63t6.5 108v74
q0 67 -6.5 108t-24.5 63t-49 29t-80 7h-17q-50 0 -81 -7t-48.5 -29t-24 -63t-6.5 -108v-74q0 -67 6.5 -108t24 -63t48.5 -29t81 -7h17zM484 856q-3 -50 -21.5 -78t-59.5 -28q-19 0 -33.5 6.5t-28.5 15.5q-14 8 -25 13t-23 5q-14 0 -23.5 -8.5t-13.5 -32.5l-46 11
q2 48 21.5 76t58.5 28q17 0 31.5 -5.5t29.5 -15.5q14 -9 26 -14.5t24 -5.5q31 0 35 43z" />
    <glyph glyph-name="Odieresis" unicode="&#xd6;" horiz-adv-x="695" 
d="M337 -7q-89 0 -145 13.5t-88.5 48t-44.5 94t-12 152.5v78q0 93 12 152.5t44.5 94t88.5 48t145 13.5h21q88 0 144.5 -13.5t89 -48t44.5 -94t12 -152.5v-78q0 -93 -12 -152.5t-44.5 -94t-89 -48t-144.5 -13.5h-21zM356 97q49 0 80 7t49 29t24.5 63t6.5 108v74
q0 67 -6.5 108t-24.5 63t-49 29t-80 7h-17q-50 0 -81 -7t-48.5 -29t-24 -63t-6.5 -108v-74q0 -67 6.5 -108t24 -63t48.5 -29t81 -7h17zM302 752h-102v106h102v-106zM495 752h-101v106h101v-106z" />
    <glyph glyph-name="multiply" unicode="&#xd7;" horiz-adv-x="548" 
d="M481 150l-66 -63l-142 147l-141 -147l-65 62l144 150l-141 146l66 62l138 -144l138 144l65 -61l-141 -147z" />
    <glyph glyph-name="Oslash" unicode="&#xd8;" horiz-adv-x="695" 
d="M622 701l46 -39l-57 -64q21 -36 29 -89t8 -130v-78q0 -93 -12 -152.5t-44.5 -94t-89 -48t-144.5 -13.5h-21q-75 0 -126 9t-85 32l-51 -58l-45 40l55 63q-22 35 -30 89.5t-8 132.5v78q0 93 12 152.5t44.5 94t88.5 48t145 13.5h21q76 0 128 -9.5t85 -34.5zM339 585
q-50 0 -81 -7t-48.5 -29t-24 -63t-6.5 -108v-74q0 -35 1.5 -63t5.5 -49l300 355q-9 11 -19 18.5t-24.5 12t-35.5 6t-51 1.5h-17zM356 97q49 0 80 7t49 29t24.5 63t6.5 108v74q0 63 -6 105l-298 -353q18 -20 48.5 -26.5t78.5 -6.5h17z" />
    <glyph glyph-name="Ugrave" unicode="&#xd9;" horiz-adv-x="682" 
d="M332 -7q-85 0 -138.5 9.5t-83.5 35.5t-41 72t-11 118v452h130v-440q0 -47 5.5 -75t21 -43t44 -20t74.5 -5h16q46 0 74.5 5t44 20t21 43t5.5 75v440h130v-452q0 -72 -11 -118t-41 -72t-83.5 -35.5t-138.5 -9.5h-18zM416 733l-198 74l41 79l181 -109z" />
    <glyph glyph-name="Uacute" unicode="&#xda;" horiz-adv-x="682" 
d="M332 -7q-85 0 -138.5 9.5t-83.5 35.5t-41 72t-11 118v452h130v-440q0 -47 5.5 -75t21 -43t44 -20t74.5 -5h16q46 0 74.5 5t44 20t21 43t5.5 75v440h130v-452q0 -72 -11 -118t-41 -72t-83.5 -35.5t-138.5 -9.5h-18zM455 807l-197 -74l-25 43l181 110z" />
    <glyph glyph-name="Ucircumflex" unicode="&#xdb;" horiz-adv-x="682" 
d="M332 -7q-85 0 -138.5 9.5t-83.5 35.5t-41 72t-11 118v452h130v-440q0 -47 5.5 -75t21 -43t44 -20t74.5 -5h16q46 0 74.5 5t44 20t21 43t5.5 75v440h130v-452q0 -72 -11 -118t-41 -72t-83.5 -35.5t-138.5 -9.5h-18zM448 737l-107 69l-108 -69l-38 41l146 115l146 -115z
" />
    <glyph glyph-name="Udieresis" unicode="&#xdc;" horiz-adv-x="682" 
d="M332 -7q-85 0 -138.5 9.5t-83.5 35.5t-41 72t-11 118v452h130v-440q0 -47 5.5 -75t21 -43t44 -20t74.5 -5h16q46 0 74.5 5t44 20t21 43t5.5 75v440h130v-452q0 -72 -11 -118t-41 -72t-83.5 -35.5t-138.5 -9.5h-18zM296 752h-102v106h102v-106zM489 752h-101v106h101v-106
z" />
    <glyph glyph-name="Yacute" unicode="&#xdd;" horiz-adv-x="626" 
d="M378 0h-130v229l-240 451h140l165 -335h3l161 335h141l-240 -451v-229zM461 807l-197 -74l-25 43l181 110z" />
    <glyph glyph-name="Thorn" unicode="&#xde;" horiz-adv-x="630" 
d="M190 0h-128v680h128v-98h153q77 0 126 -8.5t77 -32t38.5 -65t10.5 -108.5v-33q0 -67 -11.5 -109t-39.5 -65.5t-75.5 -32t-119.5 -8.5h-159v-120zM333 221q44 0 70.5 5t41 17.5t19 34t4.5 55.5v37q0 35 -5 57t-19 34.5t-41 17t-70 4.5h-143v-262h143z" />
    <glyph glyph-name="germandbls" unicode="&#xdf;" horiz-adv-x="575" 
d="M348 -7q-45 0 -72 5t-45 13l10 85q12 -6 33 -10t54 -4q25 0 41.5 5t26 19.5t13 41.5t3.5 71v40q0 42 -4 67t-15.5 39t-31.5 18.5t-52 4.5h-37v80h27q44 0 58.5 13.5t14.5 48.5v12q0 35 -17 48.5t-69 13.5h-20q-27 0 -44 -4t-27 -15.5t-14 -32.5t-4 -54v-498h-119v498
q0 54 10 90.5t33 58t61 30.5t94 9h36q53 0 90 -7t60 -23t33 -40.5t10 -58.5v-15q0 -51 -19.5 -73t-59.5 -30l1 -2q32 -3 55 -12.5t38 -30.5t22.5 -55.5t7.5 -87.5v-42q0 -63 -9.5 -104.5t-31.5 -66t-56.5 -35t-84.5 -10.5z" />
    <glyph glyph-name="agrave" unicode="&#xe0;" horiz-adv-x="526" 
d="M472 0h-114v52h-2q-8 -15 -19 -26.5t-26.5 -18.5t-37 -10.5t-51.5 -3.5h-14q-49 0 -80.5 7t-50 24t-26 45t-7.5 71v17q0 41 9 68.5t29 44t52 23.5t78 7h8q59 0 89.5 -10t45.5 -33h3v38q0 37 -2.5 59t-12 34t-28 15.5t-49.5 3.5h-12q-27 0 -44.5 -2.5t-27 -9t-13 -17.5
t-3.5 -27v-12h-109v10q0 42 9.5 69t33 42.5t62.5 21t98 5.5h15q63 0 102 -7.5t60 -30.5t28 -65t7 -111v-273zM262 74q29 0 48 3t30 11t15.5 21t4.5 34v14q0 21 -4 34.5t-15.5 21t-31.5 10.5t-51 3h-9q-30 0 -48 -3t-28.5 -11t-14 -21t-3.5 -34v-14q0 -21 3.5 -34.5t14.5 -21
t30 -10.5t51 -3h8zM336 538l-183 103l53 73l161 -136z" />
    <glyph glyph-name="aacute" unicode="&#xe1;" horiz-adv-x="526" 
d="M472 0h-114v52h-2q-8 -15 -19 -26.5t-26.5 -18.5t-37 -10.5t-51.5 -3.5h-14q-49 0 -80.5 7t-50 24t-26 45t-7.5 71v17q0 41 9 68.5t29 44t52 23.5t78 7h8q59 0 89.5 -10t45.5 -33h3v38q0 37 -2.5 59t-12 34t-28 15.5t-49.5 3.5h-12q-27 0 -44.5 -2.5t-27 -9t-13 -17.5
t-3.5 -27v-12h-109v10q0 42 9.5 69t33 42.5t62.5 21t98 5.5h15q63 0 102 -7.5t60 -30.5t28 -65t7 -111v-273zM262 74q29 0 48 3t30 11t15.5 21t4.5 34v14q0 21 -4 34.5t-15.5 21t-31.5 10.5t-51 3h-9q-30 0 -48 -3t-28.5 -11t-14 -21t-3.5 -34v-14q0 -21 3.5 -34.5t14.5 -21
t30 -10.5t51 -3h8zM195 538l-30 40l161 136l53 -73z" />
    <glyph glyph-name="acircumflex" unicode="&#xe2;" horiz-adv-x="526" 
d="M472 0h-114v52h-2q-8 -15 -19 -26.5t-26.5 -18.5t-37 -10.5t-51.5 -3.5h-14q-49 0 -80.5 7t-50 24t-26 45t-7.5 71v17q0 41 9 68.5t29 44t52 23.5t78 7h8q59 0 89.5 -10t45.5 -33h3v38q0 37 -2.5 59t-12 34t-28 15.5t-49.5 3.5h-12q-27 0 -44.5 -2.5t-27 -9t-13 -17.5
t-3.5 -27v-12h-109v10q0 42 9.5 69t33 42.5t62.5 21t98 5.5h15q63 0 102 -7.5t60 -30.5t28 -65t7 -111v-273zM262 74q29 0 48 3t30 11t15.5 21t4.5 34v14q0 21 -4 34.5t-15.5 21t-31.5 10.5t-51 3h-9q-30 0 -48 -3t-28.5 -11t-14 -21t-3.5 -34v-14q0 -21 3.5 -34.5t14.5 -21
t30 -10.5t51 -3h8zM370 548l-106 75l-106 -75l-38 42l144 121l144 -121z" />
    <glyph glyph-name="atilde" unicode="&#xe3;" horiz-adv-x="526" 
d="M472 0h-114v52h-2q-8 -15 -19 -26.5t-26.5 -18.5t-37 -10.5t-51.5 -3.5h-14q-49 0 -80.5 7t-50 24t-26 45t-7.5 71v17q0 41 9 68.5t29 44t52 23.5t78 7h8q59 0 89.5 -10t45.5 -33h3v38q0 37 -2.5 59t-12 34t-28 15.5t-49.5 3.5h-12q-27 0 -44.5 -2.5t-27 -9t-13 -17.5
t-3.5 -27v-12h-109v10q0 42 9.5 69t33 42.5t62.5 21t98 5.5h15q63 0 102 -7.5t60 -30.5t28 -65t7 -111v-273zM262 74q29 0 48 3t30 11t15.5 21t4.5 34v14q0 21 -4 34.5t-15.5 21t-31.5 10.5t-51 3h-9q-30 0 -48 -3t-28.5 -11t-14 -21t-3.5 -34v-14q0 -21 3.5 -34.5t14.5 -21
t30 -10.5t51 -3h8zM396 673q-3 -50 -21.5 -78t-59.5 -28q-19 0 -33.5 6.5t-28.5 15.5q-14 8 -25 13t-23 5q-14 0 -23.5 -8.5t-13.5 -32.5l-46 11q2 48 21.5 76t58.5 28q17 0 31.5 -5.5t29.5 -15.5q14 -9 26 -14.5t24 -5.5q31 0 35 43z" />
    <glyph glyph-name="adieresis" unicode="&#xe4;" horiz-adv-x="526" 
d="M472 0h-114v52h-2q-8 -15 -19 -26.5t-26.5 -18.5t-37 -10.5t-51.5 -3.5h-14q-49 0 -80.5 7t-50 24t-26 45t-7.5 71v17q0 41 9 68.5t29 44t52 23.5t78 7h8q59 0 89.5 -10t45.5 -33h3v38q0 37 -2.5 59t-12 34t-28 15.5t-49.5 3.5h-12q-27 0 -44.5 -2.5t-27 -9t-13 -17.5
t-3.5 -27v-12h-109v10q0 42 9.5 69t33 42.5t62.5 21t98 5.5h15q63 0 102 -7.5t60 -30.5t28 -65t7 -111v-273zM262 74q29 0 48 3t30 11t15.5 21t4.5 34v14q0 21 -4 34.5t-15.5 21t-31.5 10.5t-51 3h-9q-30 0 -48 -3t-28.5 -11t-14 -21t-3.5 -34v-14q0 -21 3.5 -34.5t14.5 -21
t30 -10.5t51 -3h8zM218 573h-102v107h102v-107zM410 573h-102v107h102v-107z" />
    <glyph glyph-name="aring" unicode="&#xe5;" horiz-adv-x="526" 
d="M472 0h-114v52h-2q-8 -15 -19 -26.5t-26.5 -18.5t-37 -10.5t-51.5 -3.5h-14q-49 0 -80.5 7t-50 24t-26 45t-7.5 71v17q0 41 9 68.5t29 44t52 23.5t78 7h8q59 0 89.5 -10t45.5 -33h3v38q0 37 -2.5 59t-12 34t-28 15.5t-49.5 3.5h-12q-27 0 -44.5 -2.5t-27 -9t-13 -17.5
t-3.5 -27v-12h-109v10q0 42 9.5 69t33 42.5t62.5 21t98 5.5h15q63 0 102 -7.5t60 -30.5t28 -65t7 -111v-273zM262 74q29 0 48 3t30 11t15.5 21t4.5 34v14q0 21 -4 34.5t-15.5 21t-31.5 10.5t-51 3h-9q-30 0 -48 -3t-28.5 -11t-14 -21t-3.5 -34v-14q0 -21 3.5 -34.5t14.5 -21
t30 -10.5t51 -3h8zM262 544q-61 0 -84 18t-23 63v6q0 44 23 62t84 18h5q62 0 84.5 -18t22.5 -62v-6q0 -45 -22.5 -63t-84.5 -18h-5zM267 583q34 0 46 8.5t12 32.5v6q0 24 -12 32.5t-46 8.5h-5q-34 0 -45.5 -8.5t-11.5 -32.5v-6q0 -24 11.5 -32.5t45.5 -8.5h5z" />
    <glyph glyph-name="ae" unicode="&#xe6;" horiz-adv-x="834" 
d="M680 288v16q0 31 -3.5 51t-14 32t-29.5 16.5t-51 4.5h-9q-32 0 -52 -4t-30.5 -16.5t-14.5 -36.5t-4 -63h208zM208 -7q-49 0 -80.5 7t-50 24t-26 45t-7.5 71v17q0 41 9 68.5t28.5 44t51.5 23.5t78 7h11q58 0 88 -10t45 -33h3v37q0 37 -2.5 59t-12 34t-27.5 16t-48 4h-11
q-28 0 -46 -2.5t-28 -8.5t-13.5 -17t-3.5 -28v-12h-109v10q0 42 9.5 69t33 42.5t62 21t96.5 5.5h15q70 0 102.5 -14t43.5 -46h2q14 32 47 46t98 14h19q58 0 97.5 -8t63.5 -30.5t34 -62t10 -102.5v-67h-317v-28q0 -37 4 -59t15.5 -34t31 -15.5t51.5 -3.5h14q29 0 47 3
t28.5 11t14 22.5t3.5 37.5v9h110v-11q0 -46 -12 -76t-36 -48t-60.5 -25t-85.5 -7h-24q-42 0 -73.5 4t-54 14t-37 27.5t-22.5 44.5h-2q-9 -28 -23.5 -45.5t-34.5 -27.5t-46 -13.5t-57 -3.5h-16zM262 74q29 0 48 3t30 11t15.5 21t4.5 34v14q0 21 -4 34.5t-15.5 21t-31.5 10.5
t-51 3h-9q-30 0 -48 -3t-28.5 -11t-14 -21t-3.5 -34v-14q0 -21 3.5 -34.5t14.5 -21t30 -10.5t51 -3h8z" />
    <glyph glyph-name="ccedilla" unicode="&#xe7;" horiz-adv-x="520" 
d="M255 -7q-63 0 -104 10t-65 35.5t-33.5 69.5t-9.5 111v43q0 68 10 111.5t34.5 69t66 35t104.5 9.5h20q59 0 97.5 -8.5t61 -28t31.5 -51t9 -76.5v-18h-110v10q0 48 -18 65.5t-72 17.5h-16q-32 0 -51 -5t-29.5 -19.5t-14 -41.5t-3.5 -70v-43q0 -43 4 -69.5t15 -41
t30.5 -19.5t51.5 -5h16q27 0 44 4t27 13.5t13.5 26t3.5 41.5v10h110v-15q0 -48 -9 -80.5t-32.5 -52.5t-62.5 -29t-99 -9h-20zM168 -193l-35 38l147 147l61 -67z" />
    <glyph glyph-name="egrave" unicode="&#xe8;" horiz-adv-x="522" 
d="M254 -7q-63 0 -104 9.5t-65 35t-33 69.5t-9 112v43q0 69 10.5 113t35 68.5t64.5 34t99 9.5h19q61 0 101 -9t63.5 -32t33 -62.5t9.5 -100.5v-66h-320v-20q0 -39 3.5 -62.5t15 -36.5t32 -17t53.5 -4h13q30 0 48.5 3t29 11.5t14 22.5t3.5 37v9h110v-11q0 -44 -11 -74
t-35 -48t-62.5 -26t-94.5 -8h-23zM368 288v15q0 32 -3.5 52.5t-14.5 32t-30.5 16t-50.5 4.5h-9q-33 0 -53 -4.5t-31 -17.5t-15 -36.5t-4 -61.5h211zM336 538l-183 103l53 73l161 -136z" />
    <glyph glyph-name="eacute" unicode="&#xe9;" horiz-adv-x="522" 
d="M254 -7q-63 0 -104 9.5t-65 35t-33 69.5t-9 112v43q0 69 10.5 113t35 68.5t64.5 34t99 9.5h19q61 0 101 -9t63.5 -32t33 -62.5t9.5 -100.5v-66h-320v-20q0 -39 3.5 -62.5t15 -36.5t32 -17t53.5 -4h13q30 0 48.5 3t29 11.5t14 22.5t3.5 37v9h110v-11q0 -44 -11 -74
t-35 -48t-62.5 -26t-94.5 -8h-23zM368 288v15q0 32 -3.5 52.5t-14.5 32t-30.5 16t-50.5 4.5h-9q-33 0 -53 -4.5t-31 -17.5t-15 -36.5t-4 -61.5h211zM192 538l-30 40l161 136l53 -73z" />
    <glyph glyph-name="ecircumflex" unicode="&#xea;" horiz-adv-x="522" 
d="M254 -7q-63 0 -104 9.5t-65 35t-33 69.5t-9 112v43q0 69 10.5 113t35 68.5t64.5 34t99 9.5h19q61 0 101 -9t63.5 -32t33 -62.5t9.5 -100.5v-66h-320v-20q0 -39 3.5 -62.5t15 -36.5t32 -17t53.5 -4h13q30 0 48.5 3t29 11.5t14 22.5t3.5 37v9h110v-11q0 -44 -11 -74
t-35 -48t-62.5 -26t-94.5 -8h-23zM368 288v15q0 32 -3.5 52.5t-14.5 32t-30.5 16t-50.5 4.5h-9q-33 0 -53 -4.5t-31 -17.5t-15 -36.5t-4 -61.5h211zM369 548l-106 75l-106 -75l-38 42l144 121l144 -121z" />
    <glyph glyph-name="edieresis" unicode="&#xeb;" horiz-adv-x="522" 
d="M254 -7q-63 0 -104 9.5t-65 35t-33 69.5t-9 112v43q0 69 10.5 113t35 68.5t64.5 34t99 9.5h19q61 0 101 -9t63.5 -32t33 -62.5t9.5 -100.5v-66h-320v-20q0 -39 3.5 -62.5t15 -36.5t32 -17t53.5 -4h13q30 0 48.5 3t29 11.5t14 22.5t3.5 37v9h110v-11q0 -44 -11 -74
t-35 -48t-62.5 -26t-94.5 -8h-23zM368 288v15q0 32 -3.5 52.5t-14.5 32t-30.5 16t-50.5 4.5h-9q-33 0 -53 -4.5t-31 -17.5t-15 -36.5t-4 -61.5h211zM219 573h-102v107h102v-107zM411 573h-102v107h102v-107z" />
    <glyph glyph-name="igrave" unicode="&#xec;" horiz-adv-x="236" 
d="M178 0h-120v480h120v-480zM141 538l-183 103l53 73l161 -136z" />
    <glyph glyph-name="iacute" unicode="&#xed;" horiz-adv-x="236" 
d="M178 0h-120v480h120v-480zM94 538l-30 40l161 136l53 -73z" />
    <glyph glyph-name="icircumflex" unicode="&#xee;" horiz-adv-x="236" 
d="M178 0h-120v480h120v-480zM225 548l-106 75l-106 -75l-38 42l144 121l144 -121z" />
    <glyph glyph-name="idieresis" unicode="&#xef;" horiz-adv-x="236" 
d="M178 0h-120v480h120v-480zM78 573h-102v107h102v-107zM260 573h-102v107h102v-107z" />
    <glyph glyph-name="eth" unicode="&#xf0;" horiz-adv-x="542" 
d="M255 -7q-63 0 -104 10.5t-65 36.5t-33.5 69t-9.5 108v28q0 63 9.5 105t31.5 67.5t57 36t85 10.5h13q54 0 89.5 -15.5t50.5 -50.5h1q-5 62 -32.5 102t-75.5 63l-102 -49l-21 43l63 30q-29 11 -64 17t-77 10l36 73q65 -5 115 -15.5t89 -27.5l99 47l21 -43l-67 -32
q41 -26 67 -62t41 -82.5t21 -104t6 -127.5v-15q0 -67 -10 -111.5t-34.5 -71.5t-67.5 -38t-109 -11h-23zM159 219q0 -42 4.5 -68t16 -41t31.5 -20.5t52 -5.5h15q32 0 52 5.5t31.5 20.5t16 41t4.5 68v22q0 42 -4.5 68t-16 41t-31.5 20.5t-52 5.5h-15q-32 0 -52 -5.5
t-31.5 -20.5t-16 -41t-4.5 -68v-22z" />
    <glyph glyph-name="ntilde" unicode="&#xf1;" horiz-adv-x="561" 
d="M506 0h-120v278q0 36 -3.5 59t-13.5 36t-28.5 17.5t-49.5 4.5h-8q-29 0 -49 -5.5t-32.5 -18.5t-18 -36t-5.5 -57v-278h-120v480h118v-76h1q17 43 51 63t99 20h8q50 0 83 -8.5t52.5 -30.5t27.5 -58.5t8 -93.5v-296zM424 673q-3 -50 -21.5 -78t-59.5 -28q-19 0 -33.5 6.5
t-28.5 15.5q-14 8 -25 13t-23 5q-14 0 -23.5 -8.5t-13.5 -32.5l-46 11q2 48 21.5 76t58.5 28q17 0 31.5 -5.5t29.5 -15.5q14 -9 26 -14.5t24 -5.5q31 0 35 43z" />
    <glyph glyph-name="ograve" unicode="&#xf2;" horiz-adv-x="544" 
d="M262 -7q-64 0 -106.5 10.5t-67.5 36t-35 69t-10 110.5v43q0 66 10 109.5t35 69t67.5 36t106.5 10.5h20q64 0 106.5 -10.5t67.5 -36t35 -69t10 -109.5v-43q0 -67 -10 -110.5t-35 -69t-67.5 -36t-106.5 -10.5h-20zM279 84q32 0 52 5.5t31.5 20.5t16 41.5t4.5 67.5v43
q0 42 -4.5 68.5t-16 41.5t-31.5 20.5t-52 5.5h-14q-32 0 -52 -5.5t-31.5 -20.5t-16 -41.5t-4.5 -68.5v-43q0 -41 4.5 -67.5t16 -41.5t31.5 -20.5t52 -5.5h14zM353 538l-183 103l53 73l161 -136z" />
    <glyph glyph-name="oacute" unicode="&#xf3;" horiz-adv-x="544" 
d="M262 -7q-64 0 -106.5 10.5t-67.5 36t-35 69t-10 110.5v43q0 66 10 109.5t35 69t67.5 36t106.5 10.5h20q64 0 106.5 -10.5t67.5 -36t35 -69t10 -109.5v-43q0 -67 -10 -110.5t-35 -69t-67.5 -36t-106.5 -10.5h-20zM279 84q32 0 52 5.5t31.5 20.5t16 41.5t4.5 67.5v43
q0 42 -4.5 68.5t-16 41.5t-31.5 20.5t-52 5.5h-14q-32 0 -52 -5.5t-31.5 -20.5t-16 -41.5t-4.5 -68.5v-43q0 -41 4.5 -67.5t16 -41.5t31.5 -20.5t52 -5.5h14zM201 538l-30 40l161 136l53 -73z" />
    <glyph glyph-name="ocircumflex" unicode="&#xf4;" horiz-adv-x="544" 
d="M262 -7q-64 0 -106.5 10.5t-67.5 36t-35 69t-10 110.5v43q0 66 10 109.5t35 69t67.5 36t106.5 10.5h20q64 0 106.5 -10.5t67.5 -36t35 -69t10 -109.5v-43q0 -67 -10 -110.5t-35 -69t-67.5 -36t-106.5 -10.5h-20zM279 84q32 0 52 5.5t31.5 20.5t16 41.5t4.5 67.5v43
q0 42 -4.5 68.5t-16 41.5t-31.5 20.5t-52 5.5h-14q-32 0 -52 -5.5t-31.5 -20.5t-16 -41.5t-4.5 -68.5v-43q0 -41 4.5 -67.5t16 -41.5t31.5 -20.5t52 -5.5h14zM378 548l-106 75l-106 -75l-38 42l144 121l144 -121z" />
    <glyph glyph-name="otilde" unicode="&#xf5;" horiz-adv-x="544" 
d="M262 -7q-64 0 -106.5 10.5t-67.5 36t-35 69t-10 110.5v43q0 66 10 109.5t35 69t67.5 36t106.5 10.5h20q64 0 106.5 -10.5t67.5 -36t35 -69t10 -109.5v-43q0 -67 -10 -110.5t-35 -69t-67.5 -36t-106.5 -10.5h-20zM279 84q32 0 52 5.5t31.5 20.5t16 41.5t4.5 67.5v43
q0 42 -4.5 68.5t-16 41.5t-31.5 20.5t-52 5.5h-14q-32 0 -52 -5.5t-31.5 -20.5t-16 -41.5t-4.5 -68.5v-43q0 -41 4.5 -67.5t16 -41.5t31.5 -20.5t52 -5.5h14zM409 673q-3 -50 -21.5 -78t-59.5 -28q-19 0 -33.5 6.5t-28.5 15.5q-14 8 -25 13t-23 5q-14 0 -23.5 -8.5
t-13.5 -32.5l-46 11q2 48 21.5 76t58.5 28q17 0 31.5 -5.5t29.5 -15.5q14 -9 26 -14.5t24 -5.5q31 0 35 43z" />
    <glyph glyph-name="odieresis" unicode="&#xf6;" horiz-adv-x="544" 
d="M262 -7q-64 0 -106.5 10.5t-67.5 36t-35 69t-10 110.5v43q0 66 10 109.5t35 69t67.5 36t106.5 10.5h20q64 0 106.5 -10.5t67.5 -36t35 -69t10 -109.5v-43q0 -67 -10 -110.5t-35 -69t-67.5 -36t-106.5 -10.5h-20zM279 84q32 0 52 5.5t31.5 20.5t16 41.5t4.5 67.5v43
q0 42 -4.5 68.5t-16 41.5t-31.5 20.5t-52 5.5h-14q-32 0 -52 -5.5t-31.5 -20.5t-16 -41.5t-4.5 -68.5v-43q0 -41 4.5 -67.5t16 -41.5t31.5 -20.5t52 -5.5h14zM227 573h-102v107h102v-107zM419 573h-102v107h102v-107z" />
    <glyph glyph-name="divide" unicode="&#xf7;" horiz-adv-x="548" 
d="M336 476q0 -26 -18 -44t-44 -18t-44.5 18t-18.5 44t18.5 44t44.5 18t44 -18t18 -44zM336 130q0 -26 -18 -44t-44 -18t-44.5 18t-18.5 44t18.5 44t44.5 18t44 -18t18 -44zM490 258h-432v91h432v-91z" />
    <glyph glyph-name="oslash" unicode="&#xf8;" horiz-adv-x="542" 
d="M472 502l36 -35l-40 -45q17 -26 24 -65t7 -95v-43q0 -67 -10 -110.5t-35 -69t-67 -36t-106 -10.5h-20q-50 0 -85.5 5.5t-60.5 19.5l-41 -46l-38 33l41 47q-19 26 -26.5 66.5t-7.5 100.5v43q0 66 10 109.5t35 69t67 36t106 10.5h20q52 0 89 -7t62 -23zM264 400
q-33 0 -53.5 -5.5t-32 -20.5t-16 -42t-4.5 -70v-43q0 -21 1 -38t3 -31l198 228q-12 13 -32 17.5t-50 4.5h-14zM278 82q33 0 53.5 5.5t32 21t16 42t4.5 68.5v43q0 19 -1 34.5t-3 29.5l-194 -226q12 -11 31 -14.5t47 -3.5h14z" />
    <glyph glyph-name="ugrave" unicode="&#xf9;" horiz-adv-x="557" 
d="M499 0h-118v77h-1q-17 -44 -50.5 -64t-99.5 -20h-8q-49 0 -82 9t-52.5 31t-27.5 59.5t-8 94.5v293h120v-277q0 -38 3 -61t13 -36t28.5 -17.5t49.5 -4.5h9q29 0 49 5t32 18.5t17.5 36.5t5.5 59v277h120v-480zM357 538l-183 103l53 73l161 -136z" />
    <glyph glyph-name="uacute" unicode="&#xfa;" horiz-adv-x="557" 
d="M499 0h-118v77h-1q-17 -44 -50.5 -64t-99.5 -20h-8q-49 0 -82 9t-52.5 31t-27.5 59.5t-8 94.5v293h120v-277q0 -38 3 -61t13 -36t28.5 -17.5t49.5 -4.5h9q29 0 49 5t32 18.5t17.5 36.5t5.5 59v277h120v-480zM207 538l-30 40l161 136l53 -73z" />
    <glyph glyph-name="ucircumflex" unicode="&#xfb;" horiz-adv-x="557" 
d="M499 0h-118v77h-1q-17 -44 -50.5 -64t-99.5 -20h-8q-49 0 -82 9t-52.5 31t-27.5 59.5t-8 94.5v293h120v-277q0 -38 3 -61t13 -36t28.5 -17.5t49.5 -4.5h9q29 0 49 5t32 18.5t17.5 36.5t5.5 59v277h120v-480zM383 548l-106 75l-106 -75l-38 42l144 121l144 -121z" />
    <glyph glyph-name="udieresis" unicode="&#xfc;" horiz-adv-x="557" 
d="M499 0h-118v77h-1q-17 -44 -50.5 -64t-99.5 -20h-8q-49 0 -82 9t-52.5 31t-27.5 59.5t-8 94.5v293h120v-277q0 -38 3 -61t13 -36t28.5 -17.5t49.5 -4.5h9q29 0 49 5t32 18.5t17.5 36.5t5.5 59v277h120v-480zM236 573h-102v107h102v-107zM428 573h-102v107h102v-107z" />
    <glyph glyph-name="yacute" unicode="&#xfd;" horiz-adv-x="488" 
d="M80 -81q9 -2 20 -2h16q23 0 39 3.5t28 14t22 30t20 50.5h-65l-151 465h125l112 -382h5l106 382h122l-133 -426q-24 -77 -43.5 -122t-42 -68t-51 -30t-70.5 -7q-31 0 -59 3v89zM206 538l-30 40l161 136l53 -73z" />
    <glyph glyph-name="thorn" unicode="&#xfe;" horiz-adv-x="556" 
d="M322 -7q-59 0 -91 14.5t-51 57.5h-2v-235h-120v850h120v-262h1q17 39 50 54t90 15h14q52 0 86.5 -10t55.5 -36t29.5 -70.5t8.5 -112.5v-33q0 -69 -8.5 -113.5t-29.5 -71t-56 -37t-87 -10.5h-10zM292 84q31 0 50.5 5.5t30.5 20.5t15.5 42.5t4.5 72.5v32q0 45 -4.5 72.5
t-15.5 42.5t-30.5 20.5t-50.5 5.5h-15q-30 0 -50 -5.5t-32 -20t-16.5 -40.5t-4.5 -68v-46q0 -41 4.5 -67t16 -41t31.5 -20.5t51 -5.5h15z" />
    <glyph glyph-name="ydieresis" unicode="&#xff;" horiz-adv-x="488" 
d="M80 -81q9 -2 20 -2h16q23 0 39 3.5t28 14t22 30t20 50.5h-65l-151 465h125l112 -382h5l106 382h122l-133 -426q-24 -77 -43.5 -122t-42 -68t-51 -30t-70.5 -7q-31 0 -59 3v89zM203 573h-102v107h102v-107zM395 573h-102v107h102v-107z" />
    <glyph glyph-name="Amacron" unicode="&#x100;" horiz-adv-x="672" 
d="M661 0h-138l-45 143h-288l-45 -143h-134l234 680h183zM449 239l-111 347h-6l-114 -347h231zM463 767h-255v73h255v-73z" />
    <glyph glyph-name="amacron" unicode="&#x101;" horiz-adv-x="526" 
d="M472 0h-114v52h-2q-8 -15 -19 -26.5t-26.5 -18.5t-37 -10.5t-51.5 -3.5h-14q-49 0 -80.5 7t-50 24t-26 45t-7.5 71v17q0 41 9 68.5t29 44t52 23.5t78 7h8q59 0 89.5 -10t45.5 -33h3v38q0 37 -2.5 59t-12 34t-28 15.5t-49.5 3.5h-12q-27 0 -44.5 -2.5t-27 -9t-13 -17.5
t-3.5 -27v-12h-109v10q0 42 9.5 69t33 42.5t62.5 21t98 5.5h15q63 0 102 -7.5t60 -30.5t28 -65t7 -111v-273zM262 74q29 0 48 3t30 11t15.5 21t4.5 34v14q0 21 -4 34.5t-15.5 21t-31.5 10.5t-51 3h-9q-30 0 -48 -3t-28.5 -11t-14 -21t-3.5 -34v-14q0 -21 3.5 -34.5t14.5 -21
t30 -10.5t51 -3h8zM388 589h-253v73h253v-73z" />
    <glyph glyph-name="Abreve" unicode="&#x102;" horiz-adv-x="672" 
d="M661 0h-138l-45 143h-288l-45 -143h-134l234 680h183zM449 239l-111 347h-6l-114 -347h231zM480 864q-1 -68 -40 -99t-105 -31q-67 0 -105.5 31.5t-40.5 98.5h61q5 -35 26.5 -47.5t58.5 -12.5q38 0 58.5 12t26.5 48h60z" />
    <glyph glyph-name="abreve" unicode="&#x103;" horiz-adv-x="526" 
d="M472 0h-114v52h-2q-8 -15 -19 -26.5t-26.5 -18.5t-37 -10.5t-51.5 -3.5h-14q-49 0 -80.5 7t-50 24t-26 45t-7.5 71v17q0 41 9 68.5t29 44t52 23.5t78 7h8q59 0 89.5 -10t45.5 -33h3v38q0 37 -2.5 59t-12 34t-28 15.5t-49.5 3.5h-12q-27 0 -44.5 -2.5t-27 -9t-13 -17.5
t-3.5 -27v-12h-109v10q0 42 9.5 69t33 42.5t62.5 21t98 5.5h15q63 0 102 -7.5t60 -30.5t28 -65t7 -111v-273zM262 74q29 0 48 3t30 11t15.5 21t4.5 34v14q0 21 -4 34.5t-15.5 21t-31.5 10.5t-51 3h-9q-30 0 -48 -3t-28.5 -11t-14 -21t-3.5 -34v-14q0 -21 3.5 -34.5t14.5 -21
t30 -10.5t51 -3h8zM409 682q-2 -67 -41 -98.5t-105 -31.5q-67 0 -105.5 31.5t-39.5 98.5h60q5 -35 26.5 -47.5t58.5 -12.5q38 0 59 12t26 48h61z" />
    <glyph glyph-name="Aogonek" unicode="&#x104;" horiz-adv-x="672" 
d="M145 0h-134l234 680h183l233 -680h-22q-48 -26 -68.5 -51t-20.5 -50q0 -20 10.5 -27t32.5 -7q14 0 28.5 2t28.5 5v-57q-18 -6 -39.5 -10t-44.5 -4q-47 0 -70.5 17.5t-23.5 56.5q0 37 21.5 65.5t66.5 59.5h-37l-45 143h-288zM449 239l-111 347h-6l-114 -347h231z" />
    <glyph glyph-name="aogonek" unicode="&#x105;" horiz-adv-x="526" 
d="M472 0h-17q-46 -25 -66.5 -51t-20.5 -50q0 -20 10.5 -27t31.5 -7q14 0 29 2t28 5v-57q-18 -6 -39.5 -10t-44.5 -4q-46 0 -69.5 17.5t-23.5 56.5q0 36 21.5 65t66.5 60h-20v52h-2q-8 -15 -19 -26.5t-26.5 -18.5t-37 -10.5t-51.5 -3.5h-14q-49 0 -80.5 7t-50 24t-26 45
t-7.5 71v17q0 41 9 68.5t29 44t52 23.5t78 7h8q59 0 89.5 -10t45.5 -33h3v38q0 37 -2.5 59t-12 34t-28 15.5t-49.5 3.5h-12q-27 0 -44.5 -2.5t-27 -9t-13 -17.5t-3.5 -27v-12h-109v10q0 42 9.5 69t33 42.5t62.5 21t98 5.5h15q63 0 102 -7.5t60 -30.5t28 -65t7 -111v-273z
M262 74q29 0 48 3t30 11t15.5 21t4.5 34v14q0 21 -4 34.5t-15.5 21t-31.5 10.5t-51 3h-9q-30 0 -48 -3t-28.5 -11t-14 -21t-3.5 -34v-14q0 -21 3.5 -34.5t14.5 -21t30 -10.5t51 -3h8z" />
    <glyph glyph-name="Cacute" unicode="&#x106;" horiz-adv-x="664" 
d="M329 -7q-86 0 -140.5 12t-86 46t-43.5 94.5t-12 156.5v78q0 94 12 154t43.5 94t86.5 46.5t141 12.5h18q81 0 132.5 -10t81 -33.5t41 -63.5t11.5 -100v-27h-125v20q0 30 -5.5 51t-21 34.5t-43 20t-71.5 6.5h-14q-49 0 -79 -7t-47 -29t-23 -62.5t-6 -107.5v-75
q0 -70 6.5 -111t23.5 -62.5t47 -27.5t77 -6h14q43 0 71.5 4.5t45 17t23 35.5t6.5 59v21h125v-32q0 -62 -12.5 -102.5t-43.5 -64t-83 -33t-131 -9.5h-19zM459 807l-197 -74l-25 43l181 110z" />
    <glyph glyph-name="cacute" unicode="&#x107;" horiz-adv-x="520" 
d="M255 -7q-63 0 -104 10t-65 35.5t-33.5 69.5t-9.5 111v43q0 68 10 111.5t34.5 69t66 35t104.5 9.5h20q59 0 97.5 -8.5t61 -28t31.5 -51t9 -76.5v-18h-110v10q0 48 -18 65.5t-72 17.5h-16q-32 0 -51 -5t-29.5 -19.5t-14 -41.5t-3.5 -70v-43q0 -43 4 -69.5t15 -41
t30.5 -19.5t51.5 -5h16q27 0 44 4t27 13.5t13.5 26t3.5 41.5v10h110v-15q0 -48 -9 -80.5t-32.5 -52.5t-62.5 -29t-99 -9h-20zM205 538l-30 40l161 136l53 -73z" />
    <glyph glyph-name="Ccircumflex" unicode="&#x108;" horiz-adv-x="664" 
d="M329 -7q-86 0 -140.5 12t-86 46t-43.5 94.5t-12 156.5v78q0 94 12 154t43.5 94t86.5 46.5t141 12.5h18q81 0 132.5 -10t81 -33.5t41 -63.5t11.5 -100v-27h-125v20q0 30 -5.5 51t-21 34.5t-43 20t-71.5 6.5h-14q-49 0 -79 -7t-47 -29t-23 -62.5t-6 -107.5v-75
q0 -70 6.5 -111t23.5 -62.5t47 -27.5t77 -6h14q43 0 71.5 4.5t45 17t23 35.5t6.5 59v21h125v-32q0 -62 -12.5 -102.5t-43.5 -64t-83 -33t-131 -9.5h-19zM441 737l-107 69l-108 -69l-38 41l146 115l146 -115z" />
    <glyph glyph-name="ccircumflex" unicode="&#x109;" horiz-adv-x="520" 
d="M255 -7q-63 0 -104 10t-65 35.5t-33.5 69.5t-9.5 111v43q0 68 10 111.5t34.5 69t66 35t104.5 9.5h20q59 0 97.5 -8.5t61 -28t31.5 -51t9 -76.5v-18h-110v10q0 48 -18 65.5t-72 17.5h-16q-32 0 -51 -5t-29.5 -19.5t-14 -41.5t-3.5 -70v-43q0 -43 4 -69.5t15 -41
t30.5 -19.5t51.5 -5h16q27 0 44 4t27 13.5t13.5 26t3.5 41.5v10h110v-15q0 -48 -9 -80.5t-32.5 -52.5t-62.5 -29t-99 -9h-20zM368 548l-106 75l-106 -75l-38 42l144 121l144 -121z" />
    <glyph glyph-name="Cdotaccent" unicode="&#x10a;" horiz-adv-x="664" 
d="M329 -7q-86 0 -140.5 12t-86 46t-43.5 94.5t-12 156.5v78q0 94 12 154t43.5 94t86.5 46.5t141 12.5h18q81 0 132.5 -10t81 -33.5t41 -63.5t11.5 -100v-27h-125v20q0 30 -5.5 51t-21 34.5t-43 20t-71.5 6.5h-14q-49 0 -79 -7t-47 -29t-23 -62.5t-6 -107.5v-75
q0 -70 6.5 -111t23.5 -62.5t47 -27.5t77 -6h14q43 0 71.5 4.5t45 17t23 35.5t6.5 59v21h125v-32q0 -62 -12.5 -102.5t-43.5 -64t-83 -33t-131 -9.5h-19zM394 752h-120v106h120v-106z" />
    <glyph glyph-name="cdotaccent" unicode="&#x10b;" horiz-adv-x="520" 
d="M255 -7q-63 0 -104 10t-65 35.5t-33.5 69.5t-9.5 111v43q0 68 10 111.5t34.5 69t66 35t104.5 9.5h20q59 0 97.5 -8.5t61 -28t31.5 -51t9 -76.5v-18h-110v10q0 48 -18 65.5t-72 17.5h-16q-32 0 -51 -5t-29.5 -19.5t-14 -41.5t-3.5 -70v-43q0 -43 4 -69.5t15 -41
t30.5 -19.5t51.5 -5h16q27 0 44 4t27 13.5t13.5 26t3.5 41.5v10h110v-15q0 -48 -9 -80.5t-32.5 -52.5t-62.5 -29t-99 -9h-20zM322 573h-120v107h120v-107z" />
    <glyph glyph-name="Ccaron" unicode="&#x10c;" horiz-adv-x="664" 
d="M329 -7q-86 0 -140.5 12t-86 46t-43.5 94.5t-12 156.5v78q0 94 12 154t43.5 94t86.5 46.5t141 12.5h18q81 0 132.5 -10t81 -33.5t41 -63.5t11.5 -100v-27h-125v20q0 30 -5.5 51t-21 34.5t-43 20t-71.5 6.5h-14q-49 0 -79 -7t-47 -29t-23 -62.5t-6 -107.5v-75
q0 -70 6.5 -111t23.5 -62.5t47 -27.5t77 -6h14q43 0 71.5 4.5t45 17t23 35.5t6.5 59v21h125v-32q0 -62 -12.5 -102.5t-43.5 -64t-83 -33t-131 -9.5h-19zM335 721l-146 115l38 41l108 -69l107 69l39 -41z" />
    <glyph glyph-name="ccaron" unicode="&#x10d;" horiz-adv-x="520" 
d="M255 -7q-63 0 -104 10t-65 35.5t-33.5 69.5t-9.5 111v43q0 68 10 111.5t34.5 69t66 35t104.5 9.5h20q59 0 97.5 -8.5t61 -28t31.5 -51t9 -76.5v-18h-110v10q0 48 -18 65.5t-72 17.5h-16q-32 0 -51 -5t-29.5 -19.5t-14 -41.5t-3.5 -70v-43q0 -43 4 -69.5t15 -41
t30.5 -19.5t51.5 -5h16q27 0 44 4t27 13.5t13.5 26t3.5 41.5v10h110v-15q0 -48 -9 -80.5t-32.5 -52.5t-62.5 -29t-99 -9h-20zM260 534l-144 121l38 41l106 -74l106 74l38 -41z" />
    <glyph glyph-name="Dcaron" unicode="&#x10e;" horiz-adv-x="702" 
d="M653 296q0 -94 -11 -152t-44 -90t-93 -43t-157 -11h-286v680h286q93 0 152.5 -10t93.5 -41.5t46.5 -89t12.5 -151.5v-92zM343 102q57 0 92 7t54 28.5t25.5 62t6.5 107.5v72q0 66 -6.5 105.5t-26 60.5t-54 28t-91.5 7h-151v-478h151zM343 721l-146 115l38 41l108 -69
l107 69l39 -41z" />
    <glyph glyph-name="dcaron" unicode="&#x10f;" horiz-adv-x="556" 
d="M498 0h-116v65h-2q-20 -44 -55 -58t-90 -14h-11q-52 0 -87 10.5t-56 37t-29.5 71t-8.5 113.5v33q0 69 8.5 113t29.5 70t55.5 36t85.5 10h15q55 0 89 -14.5t51 -54.5h1v262h120v-680zM279 84q31 0 51 5.5t31.5 20t16 40.5t4.5 68v46q0 41 -4.5 67t-16 41t-31.5 20.5
t-51 5.5h-15q-30 0 -50 -5.5t-31 -20.5t-15.5 -42.5t-4.5 -72.5v-32q0 -44 4.5 -71.5t15.5 -43t31 -21t50 -5.5h15zM650 599q0 -61 -22 -90t-78 -31v49q20 4 27.5 15.5t7.5 40.5v8h-33v89h98v-81z" />
    <glyph glyph-name="Dcroat" unicode="&#x110;" horiz-adv-x="702" 
d="M14 386h48v294h286q93 0 152.5 -10t93.5 -41.5t46.5 -89t12.5 -151.5v-92q0 -94 -11 -152t-44 -90t-93 -43t-157 -11h-286v312h-48v74zM343 102q57 0 92 7t54 28.5t25.5 62t6.5 107.5v72q0 66 -6.5 105.5t-26 60.5t-54 28t-91.5 7h-151v-194h139v-74h-139v-210h151z" />
    <glyph glyph-name="dcroat" unicode="&#x111;" horiz-adv-x="556" 
d="M233 611h145v69h120v-69h37v-70h-37v-541h-116v65h-2q-20 -44 -55 -58t-90 -14h-11q-52 0 -87 10.5t-56 37t-29.5 71t-8.5 113.5v33q0 69 8.5 113t29.5 70t55.5 36t85.5 10h15q55 0 89 -14.5t51 -54.5h1v123h-145v70zM279 84q31 0 51 5.5t31.5 20t16 40.5t4.5 68v46
q0 41 -4.5 67t-16 41t-31.5 20.5t-51 5.5h-15q-30 0 -50 -5.5t-31 -20.5t-15.5 -42.5t-4.5 -72.5v-32q0 -44 4.5 -71.5t15.5 -43t31 -21t50 -5.5h15z" />
    <glyph glyph-name="Emacron" unicode="&#x112;" horiz-adv-x="567" 
d="M534 0h-472v680h466v-100h-336v-183h315v-96h-315v-199h342v-102zM420 767h-255v73h255v-73z" />
    <glyph glyph-name="emacron" unicode="&#x113;" horiz-adv-x="522" 
d="M254 -7q-63 0 -104 9.5t-65 35t-33 69.5t-9 112v43q0 69 10.5 113t35 68.5t64.5 34t99 9.5h19q61 0 101 -9t63.5 -32t33 -62.5t9.5 -100.5v-66h-320v-20q0 -39 3.5 -62.5t15 -36.5t32 -17t53.5 -4h13q30 0 48.5 3t29 11.5t14 22.5t3.5 37v9h110v-11q0 -44 -11 -74
t-35 -48t-62.5 -26t-94.5 -8h-23zM368 288v15q0 32 -3.5 52.5t-14.5 32t-30.5 16t-50.5 4.5h-9q-33 0 -53 -4.5t-31 -17.5t-15 -36.5t-4 -61.5h211zM388 589h-253v73h253v-73z" />
    <glyph glyph-name="Ebreve" unicode="&#x114;" horiz-adv-x="567" 
d="M534 0h-472v680h466v-100h-336v-183h315v-96h-315v-199h342v-102zM436 864q-1 -68 -40 -99t-105 -31q-67 0 -105.5 31.5t-40.5 98.5h61q5 -35 26.5 -47.5t58.5 -12.5q38 0 58.5 12t26.5 48h60z" />
    <glyph glyph-name="ebreve" unicode="&#x115;" horiz-adv-x="522" 
d="M254 -7q-63 0 -104 9.5t-65 35t-33 69.5t-9 112v43q0 69 10.5 113t35 68.5t64.5 34t99 9.5h19q61 0 101 -9t63.5 -32t33 -62.5t9.5 -100.5v-66h-320v-20q0 -39 3.5 -62.5t15 -36.5t32 -17t53.5 -4h13q30 0 48.5 3t29 11.5t14 22.5t3.5 37v9h110v-11q0 -44 -11 -74
t-35 -48t-62.5 -26t-94.5 -8h-23zM368 288v15q0 32 -3.5 52.5t-14.5 32t-30.5 16t-50.5 4.5h-9q-33 0 -53 -4.5t-31 -17.5t-15 -36.5t-4 -61.5h211zM407 682q-2 -67 -41 -98.5t-105 -31.5q-67 0 -105.5 31.5t-39.5 98.5h60q5 -35 26.5 -47.5t58.5 -12.5q38 0 59 12t26 48h61
z" />
    <glyph glyph-name="Edotaccent" unicode="&#x116;" horiz-adv-x="567" 
d="M534 0h-472v680h466v-100h-336v-183h315v-96h-315v-199h342v-102zM349 752h-120v106h120v-106z" />
    <glyph glyph-name="edotaccent" unicode="&#x117;" horiz-adv-x="522" 
d="M254 -7q-63 0 -104 9.5t-65 35t-33 69.5t-9 112v43q0 69 10.5 113t35 68.5t64.5 34t99 9.5h19q61 0 101 -9t63.5 -32t33 -62.5t9.5 -100.5v-66h-320v-20q0 -39 3.5 -62.5t15 -36.5t32 -17t53.5 -4h13q30 0 48.5 3t29 11.5t14 22.5t3.5 37v9h110v-11q0 -44 -11 -74
t-35 -48t-62.5 -26t-94.5 -8h-23zM368 288v15q0 32 -3.5 52.5t-14.5 32t-30.5 16t-50.5 4.5h-9q-33 0 -53 -4.5t-31 -17.5t-15 -36.5t-4 -61.5h211zM322 573h-120v107h120v-107z" />
    <glyph glyph-name="Eogonek" unicode="&#x118;" horiz-adv-x="567" 
d="M518 -185q-18 -6 -39.5 -10t-44.5 -4q-47 0 -70.5 17.5t-23.5 56.5q0 36 22 66t62 59h-362v680h466v-100h-336v-183h315v-96h-315v-199h342v-102h-34q-82 -49 -82 -101q0 -20 10.5 -27t32.5 -7q14 0 28.5 2t28.5 5v-57z" />
    <glyph glyph-name="eogonek" unicode="&#x119;" horiz-adv-x="522" 
d="M254 -7q-63 0 -104 9.5t-65 35t-33 69.5t-9 112v43q0 69 10.5 113t35 68.5t64.5 34t99 9.5h19q61 0 101 -9t63.5 -32t33 -62.5t9.5 -100.5v-66h-320v-20q0 -39 3.5 -62.5t15 -36.5t32 -17t53.5 -4h13q30 0 48.5 3t29 11.5t14 22.5t3.5 37v9h110v-11q0 -63 -21.5 -97
t-71.5 -48q-48 -32 -66.5 -58t-18.5 -47q0 -20 10.5 -27t32.5 -7q14 0 29 2t28 5v-57q-18 -6 -39.5 -10t-44.5 -4q-47 0 -70.5 17.5t-23.5 56.5q0 34 19.5 62t57.5 57q-6 -1 -15 -1h-32zM368 288v15q0 32 -3.5 52.5t-14.5 32t-30.5 16t-50.5 4.5h-9q-33 0 -53 -4.5
t-31 -17.5t-15 -36.5t-4 -61.5h211z" />
    <glyph glyph-name="Ecaron" unicode="&#x11a;" horiz-adv-x="567" 
d="M534 0h-472v680h466v-100h-336v-183h315v-96h-315v-199h342v-102zM292 721l-146 115l38 41l108 -69l107 69l39 -41z" />
    <glyph glyph-name="ecaron" unicode="&#x11b;" horiz-adv-x="522" 
d="M254 -7q-63 0 -104 9.5t-65 35t-33 69.5t-9 112v43q0 69 10.5 113t35 68.5t64.5 34t99 9.5h19q61 0 101 -9t63.5 -32t33 -62.5t9.5 -100.5v-66h-320v-20q0 -39 3.5 -62.5t15 -36.5t32 -17t53.5 -4h13q30 0 48.5 3t29 11.5t14 22.5t3.5 37v9h110v-11q0 -44 -11 -74
t-35 -48t-62.5 -26t-94.5 -8h-23zM368 288v15q0 32 -3.5 52.5t-14.5 32t-30.5 16t-50.5 4.5h-9q-33 0 -53 -4.5t-31 -17.5t-15 -36.5t-4 -61.5h211zM263 534l-144 121l38 41l106 -74l106 74l38 -41z" />
    <glyph glyph-name="Gcircumflex" unicode="&#x11c;" horiz-adv-x="668" 
d="M329 -7q-86 0 -140.5 12t-86 46t-43.5 94.5t-12 157.5v78q0 95 12 154.5t43.5 93.5t86 46t140.5 12h19q77 0 128.5 -9.5t82 -32.5t43.5 -61t13 -95v-20h-126v14q0 30 -5.5 49.5t-20.5 31.5t-43 16.5t-73 4.5h-14q-49 0 -79 -6.5t-46.5 -28.5t-22.5 -62.5t-6 -108.5v-76
q0 -68 5.5 -108.5t22.5 -62t47 -28.5t80 -7h14q46 0 75.5 5t45.5 18.5t22 37t6 60.5v42h-176v95h300v-124q0 -73 -12 -119t-42.5 -72.5t-84 -36.5t-135.5 -10h-18zM441 737l-107 69l-108 -69l-38 41l146 115l146 -115z" />
    <glyph glyph-name="gcircumflex" unicode="&#x11d;" horiz-adv-x="551" 
d="M255 -178q-59 0 -97.5 5.5t-61.5 21t-32 43t-9 71.5v12h111v-7q0 -18 3.5 -29.5t13 -19t27 -10.5t45.5 -3h17q35 0 55.5 4t31.5 16t14.5 35t3.5 62v71h-3q-17 -38 -50.5 -54t-93.5 -16h-10q-50 0 -83.5 9t-54.5 33t-30 65.5t-9 106.5v29q0 66 9 108.5t30 67t54.5 34.5
t83.5 10h11q56 0 91 -14t55 -55h1v62h116v-447q0 -67 -10 -108.5t-35 -64t-68 -30.5t-109 -8h-17zM275 111q31 0 51.5 5.5t31.5 20t15.5 39.5t4.5 65v24q0 41 -4.5 67t-15.5 40.5t-31.5 20t-51.5 5.5h-14q-29 0 -48.5 -5t-30.5 -19.5t-15.5 -40.5t-4.5 -68v-24
q0 -40 4.5 -65.5t15.5 -39.5t30 -19.5t49 -5.5h14zM368 548l-106 75l-106 -75l-38 42l144 121l144 -121z" />
    <glyph glyph-name="Gbreve" unicode="&#x11e;" horiz-adv-x="668" 
d="M329 -7q-86 0 -140.5 12t-86 46t-43.5 94.5t-12 157.5v78q0 95 12 154.5t43.5 93.5t86 46t140.5 12h19q77 0 128.5 -9.5t82 -32.5t43.5 -61t13 -95v-20h-126v14q0 30 -5.5 49.5t-20.5 31.5t-43 16.5t-73 4.5h-14q-49 0 -79 -6.5t-46.5 -28.5t-22.5 -62.5t-6 -108.5v-76
q0 -68 5.5 -108.5t22.5 -62t47 -28.5t80 -7h14q46 0 75.5 5t45.5 18.5t22 37t6 60.5v42h-176v95h300v-124q0 -73 -12 -119t-42.5 -72.5t-84 -36.5t-135.5 -10h-18zM480 864q-1 -68 -40 -99t-105 -31q-67 0 -105.5 31.5t-40.5 98.5h61q5 -35 26.5 -47.5t58.5 -12.5
q38 0 58.5 12t26.5 48h60z" />
    <glyph glyph-name="gbreve" unicode="&#x11f;" horiz-adv-x="551" 
d="M255 -178q-59 0 -97.5 5.5t-61.5 21t-32 43t-9 71.5v12h111v-7q0 -18 3.5 -29.5t13 -19t27 -10.5t45.5 -3h17q35 0 55.5 4t31.5 16t14.5 35t3.5 62v71h-3q-17 -38 -50.5 -54t-93.5 -16h-10q-50 0 -83.5 9t-54.5 33t-30 65.5t-9 106.5v29q0 66 9 108.5t30 67t54.5 34.5
t83.5 10h11q56 0 91 -14t55 -55h1v62h116v-447q0 -67 -10 -108.5t-35 -64t-68 -30.5t-109 -8h-17zM275 111q31 0 51.5 5.5t31.5 20t15.5 39.5t4.5 65v24q0 41 -4.5 67t-15.5 40.5t-31.5 20t-51.5 5.5h-14q-29 0 -48.5 -5t-30.5 -19.5t-15.5 -40.5t-4.5 -68v-24
q0 -40 4.5 -65.5t15.5 -39.5t30 -19.5t49 -5.5h14zM406 682q-2 -67 -41 -98.5t-105 -31.5q-67 0 -105.5 31.5t-39.5 98.5h60q5 -35 26.5 -47.5t58.5 -12.5q38 0 59 12t26 48h61z" />
    <glyph glyph-name="Gdotaccent" unicode="&#x120;" horiz-adv-x="668" 
d="M329 -7q-86 0 -140.5 12t-86 46t-43.5 94.5t-12 157.5v78q0 95 12 154.5t43.5 93.5t86 46t140.5 12h19q77 0 128.5 -9.5t82 -32.5t43.5 -61t13 -95v-20h-126v14q0 30 -5.5 49.5t-20.5 31.5t-43 16.5t-73 4.5h-14q-49 0 -79 -6.5t-46.5 -28.5t-22.5 -62.5t-6 -108.5v-76
q0 -68 5.5 -108.5t22.5 -62t47 -28.5t80 -7h14q46 0 75.5 5t45.5 18.5t22 37t6 60.5v42h-176v95h300v-124q0 -73 -12 -119t-42.5 -72.5t-84 -36.5t-135.5 -10h-18zM395 752h-120v106h120v-106z" />
    <glyph glyph-name="gdotaccent" unicode="&#x121;" horiz-adv-x="551" 
d="M255 -178q-59 0 -97.5 5.5t-61.5 21t-32 43t-9 71.5v12h111v-7q0 -18 3.5 -29.5t13 -19t27 -10.5t45.5 -3h17q35 0 55.5 4t31.5 16t14.5 35t3.5 62v71h-3q-17 -38 -50.5 -54t-93.5 -16h-10q-50 0 -83.5 9t-54.5 33t-30 65.5t-9 106.5v29q0 66 9 108.5t30 67t54.5 34.5
t83.5 10h11q56 0 91 -14t55 -55h1v62h116v-447q0 -67 -10 -108.5t-35 -64t-68 -30.5t-109 -8h-17zM275 111q31 0 51.5 5.5t31.5 20t15.5 39.5t4.5 65v24q0 41 -4.5 67t-15.5 40.5t-31.5 20t-51.5 5.5h-14q-29 0 -48.5 -5t-30.5 -19.5t-15.5 -40.5t-4.5 -68v-24
q0 -40 4.5 -65.5t15.5 -39.5t30 -19.5t49 -5.5h14zM322 573h-120v107h120v-107z" />
    <glyph glyph-name="Gcommaaccent" unicode="&#x122;" horiz-adv-x="668" 
d="M329 -7q-86 0 -140.5 12t-86 46t-43.5 94.5t-12 157.5v78q0 95 12 154.5t43.5 93.5t86 46t140.5 12h19q77 0 128.5 -9.5t82 -32.5t43.5 -61t13 -95v-20h-126v14q0 30 -5.5 49.5t-20.5 31.5t-43 16.5t-73 4.5h-14q-49 0 -79 -6.5t-46.5 -28.5t-22.5 -62.5t-6 -108.5v-76
q0 -68 5.5 -108.5t22.5 -62t47 -28.5t80 -7h14q46 0 75.5 5t45.5 18.5t22 37t6 60.5v42h-176v95h300v-124q0 -73 -12 -119t-42.5 -72.5t-84 -36.5t-135.5 -10h-18zM393 -136q0 -29 -5 -48.5t-17.5 -32t-34.5 -18t-56 -6.5v44q28 2 37.5 12t9.5 40v7h-32v89h98v-87z" />
    <glyph glyph-name="gcommaaccent" unicode="&#x123;" horiz-adv-x="551" 
d="M255 -178q-59 0 -97.5 5.5t-61.5 21t-32 43t-9 71.5v12h111v-7q0 -18 3.5 -29.5t13 -19t27 -10.5t45.5 -3h17q35 0 55.5 4t31.5 16t14.5 35t3.5 62v71h-3q-17 -38 -50.5 -54t-93.5 -16h-10q-50 0 -83.5 9t-54.5 33t-30 65.5t-9 106.5v29q0 66 9 108.5t30 67t54.5 34.5
t83.5 10h11q56 0 91 -14t55 -55h1v62h116v-447q0 -67 -10 -108.5t-35 -64t-68 -30.5t-109 -8h-17zM275 111q31 0 51.5 5.5t31.5 20t15.5 39.5t4.5 65v24q0 41 -4.5 67t-15.5 40.5t-31.5 20t-51.5 5.5h-14q-29 0 -48.5 -5t-30.5 -19.5t-15.5 -40.5t-4.5 -68v-24
q0 -40 4.5 -65.5t15.5 -39.5t30 -19.5t49 -5.5h14zM304 545h-98v87q0 29 5 48.5t17.5 32t34.5 18t56 6.5v-43q-28 -2 -37.5 -12.5t-9.5 -39.5v-7h32v-90z" />
    <glyph glyph-name="Hcircumflex" unicode="&#x124;" horiz-adv-x="688" 
d="M626 0h-130v293h-304v-293h-130v680h130v-273h304v273h130v-680zM451 737l-107 69l-108 -69l-38 41l146 115l146 -115z" />
    <glyph glyph-name="hcircumflex" unicode="&#x125;" horiz-adv-x="561" 
d="M506 0h-120v278q0 37 -3.5 59.5t-13.5 35.5t-28.5 17.5t-49.5 4.5h-8q-30 0 -50 -5.5t-32 -18.5t-17.5 -36t-5.5 -57v-278h-120v680h120v-276h1q17 43 50 63t98 20h8q50 0 83 -8.5t52.5 -30t27.5 -58.5t8 -94v-296zM228 737l-107 69l-108 -69l-38 41l146 115l146 -115z
" />
    <glyph glyph-name="Hbar" unicode="&#x126;" horiz-adv-x="688" 
d="M626 0h-130v293h-304v-293h-130v504h-42v70h42v106h130v-106h304v106h130v-106h42v-70h-42v-504zM496 407v97h-304v-97h304z" />
    <glyph glyph-name="hbar" unicode="&#x127;" horiz-adv-x="561" 
d="M506 0h-120v279q0 37 -3.5 59.5t-13.5 35t-29 17t-49 4.5h-8q-30 0 -50 -5.5t-32 -18.5t-17.5 -36t-5.5 -57v-278h-120v541h-40v70h40v69h120v-69h143v-70h-143v-137h1q17 42 50 62.5t98 20.5h8q50 0 83 -8.5t52.5 -30t27.5 -58.5t8 -94v-296z" />
    <glyph glyph-name="Itilde" unicode="&#x128;" horiz-adv-x="254" 
d="M192 0h-130v680h130v-680zM265 856q-3 -50 -21.5 -78t-59.5 -28q-19 0 -33.5 6.5t-28.5 15.5q-14 8 -25 13t-23 5q-14 0 -23.5 -8.5t-13.5 -32.5l-46 11q2 48 21.5 76t58.5 28q17 0 31.5 -5.5t29.5 -15.5q14 -9 26 -14.5t24 -5.5q31 0 35 43z" />
    <glyph glyph-name="itilde" unicode="&#x129;" horiz-adv-x="236" 
d="M178 0h-120v480h120v-480zM255 673q-3 -50 -21.5 -78t-59.5 -28q-19 0 -33.5 6.5t-28.5 15.5q-14 8 -25 13t-23 5q-14 0 -23.5 -8.5t-13.5 -32.5l-46 11q2 48 21.5 76t58.5 28q17 0 31.5 -5.5t29.5 -15.5q14 -9 26 -14.5t24 -5.5q31 0 35 43z" />
    <glyph glyph-name="Imacron" unicode="&#x12a;" horiz-adv-x="254" 
d="M192 0h-130v680h130v-680zM256 767h-255v73h255v-73z" />
    <glyph glyph-name="imacron" unicode="&#x12b;" horiz-adv-x="236" 
d="M178 0h-120v480h120v-480zM246 589h-253v73h253v-73z" />
    <glyph glyph-name="Iogonek" unicode="&#x12e;" horiz-adv-x="254" 
d="M201 -186q-18 -6 -38 -9.5t-43 -3.5q-43 0 -68 16t-25 58q0 36 19.5 65t55.5 60h-40v680h130v-680h-26q-35 -33 -48 -57.5t-13 -43.5q0 -20 10 -27t32 -7q14 0 27.5 2t26.5 4v-57z" />
    <glyph glyph-name="iogonek" unicode="&#x12f;" horiz-adv-x="236" 
d="M190 -186q-18 -6 -38 -9.5t-43 -3.5q-44 0 -68.5 16t-24.5 58q0 35 19.5 64.5t55.5 60.5h-33v480h120v-480h-23q-35 -33 -48 -57.5t-13 -43.5q0 -20 10.5 -27t31.5 -7q14 0 27.5 2t26.5 4v-57zM178 573h-120v107h120v-107z" />
    <glyph glyph-name="Idotaccent" unicode="&#x130;" horiz-adv-x="254" 
d="M192 0h-130v680h130v-680zM188 752h-120v106h120v-106z" />
    <glyph glyph-name="dotlessi" unicode="&#x131;" horiz-adv-x="236" 
d="M178 0h-120v480h120v-480z" />
    <glyph glyph-name="Jcircumflex" unicode="&#x134;" horiz-adv-x="546" 
d="M237 -7q-69 0 -111 9t-64.5 33.5t-30 67.5t-7.5 111v38h118v-29q0 -42 3.5 -67t14 -38t30.5 -17t53 -4h13q34 0 54 4t30.5 17t14 37.5t3.5 64.5v460h130v-449q0 -75 -9 -121.5t-34 -72.5t-70 -35t-117 -9h-21zM527 737l-107 69l-108 -69l-38 41l146 115l146 -115z" />
    <glyph glyph-name="jcircumflex" unicode="&#x135;" horiz-adv-x="236" 
d="M178 -36q0 -40 -8 -66.5t-24 -42t-40.5 -22t-57.5 -6.5q-21 0 -45 3v87q7 -1 10.5 -1h7.5q21 0 29 12t8 53v499h120v-516zM224 548l-106 75l-106 -75l-38 42l144 121l144 -121z" />
    <glyph glyph-name="Kcommaaccent" unicode="&#x136;" horiz-adv-x="651" 
d="M642 0h-163l-225 298h-64v-298h-128v680h128v-283h67l212 283h153l-262 -329zM369 -136q0 -29 -5 -48.5t-17.5 -32t-34.5 -18t-56 -6.5v44q28 2 37.5 12t9.5 40v7h-32v89h98v-87z" />
    <glyph glyph-name="kcommaaccent" unicode="&#x137;" horiz-adv-x="504" 
d="M496 0h-140l-158 220h-21v-220h-119v680h119v-390h25l141 190h134l-176 -223zM302 -136q0 -29 -5 -48.5t-17.5 -32t-34.5 -18t-56 -6.5v44q28 2 37.5 12t9.5 40v7h-32v89h98v-87z" />
    <glyph glyph-name="Lacute" unicode="&#x139;" horiz-adv-x="505" 
d="M490 0h-428v680h130v-577h298v-103zM314 807l-197 -74l-25 43l181 110z" />
    <glyph glyph-name="lacute" unicode="&#x13a;" horiz-adv-x="236" 
d="M178 0h-120v680h120v-680zM293 807l-197 -74l-25 43l181 110z" />
    <glyph glyph-name="Lcommaaccent" unicode="&#x13b;" horiz-adv-x="505" 
d="M490 0h-428v680h130v-577h298v-103zM327 -136q0 -29 -5 -48.5t-17.5 -32t-34.5 -18t-56 -6.5v44q28 2 37.5 12t9.5 40v7h-32v89h98v-87z" />
    <glyph glyph-name="lcommaaccent" unicode="&#x13c;" horiz-adv-x="236" 
d="M178 0h-120v680h120v-680zM170 -136q0 -29 -5 -48.5t-17.5 -32t-34.5 -18t-56 -6.5v44q28 2 37.5 12t9.5 40v7h-32v89h98v-87z" />
    <glyph glyph-name="Lcaron" unicode="&#x13d;" horiz-adv-x="505" 
d="M490 0h-428v680h130v-577h298v-103zM361 599q0 -61 -22 -90t-78 -31v49q20 4 27.5 15.5t7.5 40.5v8h-33v89h98v-81z" />
    <glyph glyph-name="lcaron" unicode="&#x13e;" horiz-adv-x="236" 
d="M178 0h-120v680h120v-680zM329 599q0 -61 -22 -90t-78 -31v49q20 4 27.5 15.5t7.5 40.5v8h-33v89h98v-81z" />
    <glyph glyph-name="Ldot" unicode="&#x13f;" horiz-adv-x="505" 
d="M490 0h-428v680h130v-577h298v-103zM446 295h-124v137h124v-137z" />
    <glyph glyph-name="ldot" unicode="&#x140;" horiz-adv-x="378" 
d="M178 0h-120v680h120v-680zM369 278h-124v137h124v-137z" />
    <glyph glyph-name="Lslash" unicode="&#x141;" horiz-adv-x="505" 
d="M490 0h-428v268l-55 -27v82l55 27v330h130v-270l141 69v-82l-141 -69v-225h298v-103z" />
    <glyph glyph-name="lslash" unicode="&#x142;" horiz-adv-x="236" 
d="M178 0h-120v270l-44 -33v81l44 33v329h120v-270l44 36v-79l-44 -37v-330z" />
    <glyph glyph-name="Nacute" unicode="&#x143;" horiz-adv-x="733" 
d="M671 0h-189l-298 568h-5l3 -568h-120v680h194l296 -566h4l-6 566h121v-680zM488 807l-197 -74l-25 43l181 110z" />
    <glyph glyph-name="nacute" unicode="&#x144;" horiz-adv-x="561" 
d="M506 0h-120v278q0 36 -3.5 59t-13.5 36t-28.5 17.5t-49.5 4.5h-8q-29 0 -49 -5.5t-32.5 -18.5t-18 -36t-5.5 -57v-278h-120v480h118v-76h1q17 43 51 63t99 20h8q50 0 83 -8.5t52.5 -30.5t27.5 -58.5t8 -93.5v-296zM226 538l-30 40l161 136l53 -73z" />
    <glyph glyph-name="Ncommaaccent" unicode="&#x145;" horiz-adv-x="733" 
d="M671 0h-189l-298 568h-5l3 -568h-120v680h194l296 -566h4l-6 566h121v-680zM427 -136q0 -29 -5 -48.5t-17.5 -32t-34.5 -18t-56 -6.5v44q28 2 37.5 12t9.5 40v7h-32v89h98v-87z" />
    <glyph glyph-name="ncommaaccent" unicode="&#x146;" horiz-adv-x="561" 
d="M506 0h-120v278q0 36 -3.5 59t-13.5 36t-28.5 17.5t-49.5 4.5h-8q-29 0 -49 -5.5t-32.5 -18.5t-18 -36t-5.5 -57v-278h-120v480h118v-76h1q17 43 51 63t99 20h8q50 0 83 -8.5t52.5 -30.5t27.5 -58.5t8 -93.5v-296zM336 -136q0 -29 -5 -48.5t-17.5 -32t-34.5 -18t-56 -6.5
v44q28 2 37.5 12t9.5 40v7h-32v89h98v-87z" />
    <glyph glyph-name="Ncaron" unicode="&#x147;" horiz-adv-x="733" 
d="M671 0h-189l-298 568h-5l3 -568h-120v680h194l296 -566h4l-6 566h121v-680zM371 721l-146 115l38 41l108 -69l107 69l39 -41z" />
    <glyph glyph-name="ncaron" unicode="&#x148;" horiz-adv-x="561" 
d="M506 0h-120v278q0 36 -3.5 59t-13.5 36t-28.5 17.5t-49.5 4.5h-8q-29 0 -49 -5.5t-32.5 -18.5t-18 -36t-5.5 -57v-278h-120v480h118v-76h1q17 43 51 63t99 20h8q50 0 83 -8.5t52.5 -30.5t27.5 -58.5t8 -93.5v-296zM291 534l-144 121l38 41l106 -74l106 74l38 -41z" />
    <glyph glyph-name="Omacron" unicode="&#x14c;" horiz-adv-x="695" 
d="M337 -7q-89 0 -145 13.5t-88.5 48t-44.5 94t-12 152.5v78q0 93 12 152.5t44.5 94t88.5 48t145 13.5h21q88 0 144.5 -13.5t89 -48t44.5 -94t12 -152.5v-78q0 -93 -12 -152.5t-44.5 -94t-89 -48t-144.5 -13.5h-21zM356 97q49 0 80 7t49 29t24.5 63t6.5 108v74
q0 67 -6.5 108t-24.5 63t-49 29t-80 7h-17q-50 0 -81 -7t-48.5 -29t-24 -63t-6.5 -108v-74q0 -67 6.5 -108t24 -63t48.5 -29t81 -7h17zM475 767h-255v73h255v-73z" />
    <glyph glyph-name="omacron" unicode="&#x14d;" horiz-adv-x="544" 
d="M262 -7q-64 0 -106.5 10.5t-67.5 36t-35 69t-10 110.5v43q0 66 10 109.5t35 69t67.5 36t106.5 10.5h20q64 0 106.5 -10.5t67.5 -36t35 -69t10 -109.5v-43q0 -67 -10 -110.5t-35 -69t-67.5 -36t-106.5 -10.5h-20zM279 84q32 0 52 5.5t31.5 20.5t16 41.5t4.5 67.5v43
q0 42 -4.5 68.5t-16 41.5t-31.5 20.5t-52 5.5h-14q-32 0 -52 -5.5t-31.5 -20.5t-16 -41.5t-4.5 -68.5v-43q0 -41 4.5 -67.5t16 -41.5t31.5 -20.5t52 -5.5h14zM399 589h-253v73h253v-73z" />
    <glyph glyph-name="Obreve" unicode="&#x14e;" horiz-adv-x="695" 
d="M337 -7q-89 0 -145 13.5t-88.5 48t-44.5 94t-12 152.5v78q0 93 12 152.5t44.5 94t88.5 48t145 13.5h21q88 0 144.5 -13.5t89 -48t44.5 -94t12 -152.5v-78q0 -93 -12 -152.5t-44.5 -94t-89 -48t-144.5 -13.5h-21zM356 97q49 0 80 7t49 29t24.5 63t6.5 108v74
q0 67 -6.5 108t-24.5 63t-49 29t-80 7h-17q-50 0 -81 -7t-48.5 -29t-24 -63t-6.5 -108v-74q0 -67 6.5 -108t24 -63t48.5 -29t81 -7h17zM493 864q-1 -68 -40 -99t-105 -31q-67 0 -105.5 31.5t-40.5 98.5h61q5 -35 26.5 -47.5t58.5 -12.5q38 0 58.5 12t26.5 48h60z" />
    <glyph glyph-name="obreve" unicode="&#x14f;" horiz-adv-x="544" 
d="M262 -7q-64 0 -106.5 10.5t-67.5 36t-35 69t-10 110.5v43q0 66 10 109.5t35 69t67.5 36t106.5 10.5h20q64 0 106.5 -10.5t67.5 -36t35 -69t10 -109.5v-43q0 -67 -10 -110.5t-35 -69t-67.5 -36t-106.5 -10.5h-20zM279 84q32 0 52 5.5t31.5 20.5t16 41.5t4.5 67.5v43
q0 42 -4.5 68.5t-16 41.5t-31.5 20.5t-52 5.5h-14q-32 0 -52 -5.5t-31.5 -20.5t-16 -41.5t-4.5 -68.5v-43q0 -41 4.5 -67.5t16 -41.5t31.5 -20.5t52 -5.5h14zM418 682q-2 -67 -41 -98.5t-105 -31.5q-67 0 -105.5 31.5t-39.5 98.5h60q5 -35 26.5 -47.5t58.5 -12.5q38 0 59 12
t26 48h61z" />
    <glyph glyph-name="Ohungarumlaut" unicode="&#x150;" horiz-adv-x="695" 
d="M337 -7q-89 0 -145 13.5t-88.5 48t-44.5 94t-12 152.5v78q0 93 12 152.5t44.5 94t88.5 48t145 13.5h21q88 0 144.5 -13.5t89 -48t44.5 -94t12 -152.5v-78q0 -93 -12 -152.5t-44.5 -94t-89 -48t-144.5 -13.5h-21zM356 97q49 0 80 7t49 29t24.5 63t6.5 108v74
q0 67 -6.5 108t-24.5 63t-49 29t-80 7h-17q-50 0 -81 -7t-48.5 -29t-24 -63t-6.5 -108v-74q0 -67 6.5 -108t24 -63t48.5 -29t81 -7h17zM252 722l-32 40l134 128l49 -56zM416 721l-31 39l136 129l49 -56z" />
    <glyph glyph-name="ohungarumlaut" unicode="&#x151;" horiz-adv-x="544" 
d="M262 -7q-64 0 -106.5 10.5t-67.5 36t-35 69t-10 110.5v43q0 66 10 109.5t35 69t67.5 36t106.5 10.5h20q64 0 106.5 -10.5t67.5 -36t35 -69t10 -109.5v-43q0 -67 -10 -110.5t-35 -69t-67.5 -36t-106.5 -10.5h-20zM279 84q32 0 52 5.5t31.5 20.5t16 41.5t4.5 67.5v43
q0 42 -4.5 68.5t-16 41.5t-31.5 20.5t-52 5.5h-14q-32 0 -52 -5.5t-31.5 -20.5t-16 -41.5t-4.5 -68.5v-43q0 -41 4.5 -67.5t16 -41.5t31.5 -20.5t52 -5.5h14zM331 660l-145 -120l-33 38l126 135zM494 659l-148 -120l-33 39l129 135z" />
    <glyph glyph-name="OE" unicode="&#x152;" horiz-adv-x="1016" 
d="M983 0h-462v61h-2q-18 -39 -61.5 -53.5t-123.5 -14.5h-18q-81 0 -133 13.5t-82 48t-42 94.5t-12 152v74q0 97 13 158t44 95.5t82 46.5t127 12h18q45 0 77 -4t54 -12.5t35.5 -22t21.5 -32.5h2v64h455v-100h-336v-183h316v-96h-316v-199h343v-102zM356 97q49 0 80 7t49 29
t24.5 63t6.5 108v74q0 67 -6.5 108t-24.5 63t-49 29t-80 7h-17q-50 0 -81 -7t-48.5 -29t-24 -63t-6.5 -108v-74q0 -67 6.5 -108t24 -63t48.5 -29t81 -7h17z" />
    <glyph glyph-name="oe" unicode="&#x153;" horiz-adv-x="861" 
d="M819 149q0 -46 -11.5 -76t-35.5 -48t-61 -25t-88 -7h-24q-69 0 -103.5 11.5t-51.5 43.5h-1q-11 -16 -25.5 -26.5t-34 -17t-45.5 -9t-60 -2.5h-21q-63 0 -104.5 10t-65.5 35.5t-34 69.5t-10 111v44q0 67 10.5 110t35.5 68.5t66 35.5t102 10h21q72 0 110.5 -13t53.5 -42h1
q20 28 53 41.5t96 13.5h19q58 0 97.5 -8t63.5 -30.5t34.5 -62t10.5 -102.5v-67h-320v-20q0 -39 4 -62.5t15.5 -36t32 -17t53.5 -4.5h14q29 0 47 3t28.5 11.5t14.5 22.5t4 37v9h109v-11zM707 288v16q0 31 -3.5 51.5t-14 32t-30 16t-50.5 4.5h-9q-32 0 -52 -4t-31.5 -16.5
t-15.5 -36.5t-4 -63h210zM278 84q32 0 52 5.5t31.5 20.5t16 41.5t4.5 67.5v43q0 42 -4.5 68.5t-16 41.5t-31.5 20.5t-52 5.5h-14q-32 0 -52 -5.5t-31.5 -20.5t-16 -41.5t-4.5 -68.5v-43q0 -41 4.5 -67.5t16 -41.5t31.5 -20.5t52 -5.5h14z" />
    <glyph glyph-name="Racute" unicode="&#x154;" horiz-adv-x="653" 
d="M360 336q32 0 53 5t33.5 18t17.5 33.5t5 52.5v22q0 37 -5 59.5t-19 34.5t-38 16t-63 4h-154v-245h170zM598 0h-128v94q0 48 -4.5 77t-19 44.5t-42 20t-72.5 4.5h-142v-240h-128v680h311q69 0 113 -9.5t69 -32.5t34 -60.5t9 -93.5v-19q0 -80 -23 -118t-74 -49v-4
q30 -5 48.5 -15t29.5 -30t15 -52t4 -81v-116zM442 807l-197 -74l-25 43l181 110z" />
    <glyph glyph-name="racute" unicode="&#x155;" horiz-adv-x="462" 
d="M178 0h-120v480h116v-87h3q14 49 44 71.5t90 22.5h6q37 0 61 -7.5t38 -25t19 -46t5 -70.5v-22t-1 -33h-102v28q0 24 -3 39.5t-10.5 24t-21 12t-34.5 3.5h-8q-21 0 -36.5 -5.5t-25.5 -19.5t-15 -37.5t-5 -60.5v-267zM177 538l-30 40l161 136l53 -73z" />
    <glyph glyph-name="Rcommaaccent" unicode="&#x156;" horiz-adv-x="653" 
d="M360 336q32 0 53 5t33.5 18t17.5 33.5t5 52.5v22q0 37 -5 59.5t-19 34.5t-38 16t-63 4h-154v-245h170zM598 0h-128v94q0 48 -4.5 77t-19 44.5t-42 20t-72.5 4.5h-142v-240h-128v680h311q69 0 113 -9.5t69 -32.5t34 -60.5t9 -93.5v-19q0 -80 -23 -118t-74 -49v-4
q30 -5 48.5 -15t29.5 -30t15 -52t4 -81v-116zM383 -136q0 -29 -5 -48.5t-17.5 -32t-34.5 -18t-56 -6.5v44q28 2 37.5 12t9.5 40v7h-32v89h98v-87z" />
    <glyph glyph-name="rcommaaccent" unicode="&#x157;" horiz-adv-x="462" 
d="M178 0h-120v480h116v-87h3q14 49 44 71.5t90 22.5h6q37 0 61 -7.5t38 -25t19 -46t5 -70.5v-22t-1 -33h-102v28q0 24 -3 39.5t-10.5 24t-21 12t-34.5 3.5h-8q-21 0 -36.5 -5.5t-25.5 -19.5t-15 -37.5t-5 -60.5v-267zM169 -136q0 -29 -5 -48.5t-17.5 -32t-34.5 -18
t-56 -6.5v44q28 2 37.5 12t9.5 40v7h-32v89h98v-87z" />
    <glyph glyph-name="Rcaron" unicode="&#x158;" horiz-adv-x="653" 
d="M360 336q32 0 53 5t33.5 18t17.5 33.5t5 52.5v22q0 37 -5 59.5t-19 34.5t-38 16t-63 4h-154v-245h170zM598 0h-128v94q0 48 -4.5 77t-19 44.5t-42 20t-72.5 4.5h-142v-240h-128v680h311q69 0 113 -9.5t69 -32.5t34 -60.5t9 -93.5v-19q0 -80 -23 -118t-74 -49v-4
q30 -5 48.5 -15t29.5 -30t15 -52t4 -81v-116zM321 721l-146 115l38 41l108 -69l107 69l39 -41z" />
    <glyph glyph-name="rcaron" unicode="&#x159;" horiz-adv-x="462" 
d="M178 0h-120v480h116v-87h3q14 49 44 71.5t90 22.5h6q37 0 61 -7.5t38 -25t19 -46t5 -70.5v-22t-1 -33h-102v28q0 24 -3 39.5t-10.5 24t-21 12t-34.5 3.5h-8q-21 0 -36.5 -5.5t-25.5 -19.5t-15 -37.5t-5 -60.5v-267zM238 534l-144 121l38 41l106 -74l106 74l38 -41z" />
    <glyph glyph-name="Sacute" unicode="&#x15a;" horiz-adv-x="640" 
d="M594 190q0 -59 -10.5 -97t-37.5 -60.5t-73.5 -31t-119.5 -8.5h-25q-92 0 -146.5 7.5t-84 28.5t-38.5 58t-9 96v32h122v-24q0 -31 5.5 -50t21 -29.5t44 -14.5t74.5 -4h19q42 0 68.5 3.5t40.5 13.5t19 28.5t5 47.5v13q0 25 -5 42t-22.5 27.5t-50.5 16.5t-89 11
q-79 6 -127.5 18t-75 34.5t-35.5 56.5t-9 84v16q0 50 10.5 85t37 56.5t73 31t118.5 9.5h26q82 0 132.5 -9t78.5 -30t37 -56.5t9 -88.5v-27h-121v21q0 27 -5 44.5t-19 28t-40 15t-68 4.5h-19q-39 0 -64 -3.5t-38.5 -13t-18.5 -26t-5 -42.5v-14q0 -23 4.5 -38.5t21.5 -25
t50 -15.5t89 -10q80 -7 129 -18.5t76 -33t36 -55.5t9 -86v-18zM445 807l-197 -74l-25 43l181 110z" />
    <glyph glyph-name="sacute" unicode="&#x15b;" horiz-adv-x="511" 
d="M250 -7q-65 0 -104.5 6.5t-62 22t-30 42t-7.5 65.5v19h111v-8q0 -20 3.5 -32t13 -19t28 -9.5t48.5 -2.5h23q27 0 44.5 2.5t27.5 8.5t14 17t4 29v7q0 16 -4 27t-17.5 18.5t-39.5 12.5t-70 8q-56 4 -91 12.5t-55 24t-27 40t-7 59.5v11q0 37 8.5 62.5t29.5 41t56 22.5t89 7
h20q63 0 102.5 -6t61.5 -21t30 -41t8 -66v-12h-108v6q0 18 -3 29.5t-12 18.5t-26 9.5t-45 2.5h-15q-27 0 -44 -2.5t-26.5 -8.5t-12.5 -16.5t-3 -25.5v-9q0 -13 3.5 -21.5t15 -14t33 -8.5t57.5 -6q61 -5 100.5 -14t62 -25.5t31 -41.5t8.5 -61v-15q0 -42 -10 -70t-33 -44.5
t-61 -23.5t-94 -7h-25zM191 538l-30 40l161 136l53 -73z" />
    <glyph glyph-name="Scircumflex" unicode="&#x15c;" horiz-adv-x="640" 
d="M594 190q0 -59 -10.5 -97t-37.5 -60.5t-73.5 -31t-119.5 -8.5h-25q-92 0 -146.5 7.5t-84 28.5t-38.5 58t-9 96v32h122v-24q0 -31 5.5 -50t21 -29.5t44 -14.5t74.5 -4h19q42 0 68.5 3.5t40.5 13.5t19 28.5t5 47.5v13q0 25 -5 42t-22.5 27.5t-50.5 16.5t-89 11
q-79 6 -127.5 18t-75 34.5t-35.5 56.5t-9 84v16q0 50 10.5 85t37 56.5t73 31t118.5 9.5h26q82 0 132.5 -9t78.5 -30t37 -56.5t9 -88.5v-27h-121v21q0 27 -5 44.5t-19 28t-40 15t-68 4.5h-19q-39 0 -64 -3.5t-38.5 -13t-18.5 -26t-5 -42.5v-14q0 -23 4.5 -38.5t21.5 -25
t50 -15.5t89 -10q80 -7 129 -18.5t76 -33t36 -55.5t9 -86v-18zM426 737l-107 69l-108 -69l-38 41l146 115l146 -115z" />
    <glyph glyph-name="scircumflex" unicode="&#x15d;" horiz-adv-x="511" 
d="M250 -7q-65 0 -104.5 6.5t-62 22t-30 42t-7.5 65.5v19h111v-8q0 -20 3.5 -32t13 -19t28 -9.5t48.5 -2.5h23q27 0 44.5 2.5t27.5 8.5t14 17t4 29v7q0 16 -4 27t-17.5 18.5t-39.5 12.5t-70 8q-56 4 -91 12.5t-55 24t-27 40t-7 59.5v11q0 37 8.5 62.5t29.5 41t56 22.5t89 7
h20q63 0 102.5 -6t61.5 -21t30 -41t8 -66v-12h-108v6q0 18 -3 29.5t-12 18.5t-26 9.5t-45 2.5h-15q-27 0 -44 -2.5t-26.5 -8.5t-12.5 -16.5t-3 -25.5v-9q0 -13 3.5 -21.5t15 -14t33 -8.5t57.5 -6q61 -5 100.5 -14t62 -25.5t31 -41.5t8.5 -61v-15q0 -42 -10 -70t-33 -44.5
t-61 -23.5t-94 -7h-25zM358 548l-106 75l-106 -75l-38 42l144 121l144 -121z" />
    <glyph glyph-name="Scedilla" unicode="&#x15e;" horiz-adv-x="640" 
d="M594 190q0 -59 -10.5 -97t-37.5 -60.5t-73.5 -31t-119.5 -8.5h-25q-92 0 -146.5 7.5t-84 28.5t-38.5 58t-9 96v32h122v-24q0 -31 5.5 -50t21 -29.5t44 -14.5t74.5 -4h19q42 0 68.5 3.5t40.5 13.5t19 28.5t5 47.5v13q0 25 -5 42t-22.5 27.5t-50.5 16.5t-89 11
q-79 6 -127.5 18t-75 34.5t-35.5 56.5t-9 84v16q0 50 10.5 85t37 56.5t73 31t118.5 9.5h26q82 0 132.5 -9t78.5 -30t37 -56.5t9 -88.5v-27h-121v21q0 27 -5 44.5t-19 28t-40 15t-68 4.5h-19q-39 0 -64 -3.5t-38.5 -13t-18.5 -26t-5 -42.5v-14q0 -23 4.5 -38.5t21.5 -25
t50 -15.5t89 -10q80 -7 129 -18.5t76 -33t36 -55.5t9 -86v-18zM225 -193l-35 38l147 147l61 -67z" />
    <glyph glyph-name="scedilla" unicode="&#x15f;" horiz-adv-x="511" 
d="M250 -7q-65 0 -104.5 6.5t-62 22t-30 42t-7.5 65.5v19h111v-8q0 -20 3.5 -32t13 -19t28 -9.5t48.5 -2.5h23q27 0 44.5 2.5t27.5 8.5t14 17t4 29v7q0 16 -4 27t-17.5 18.5t-39.5 12.5t-70 8q-56 4 -91 12.5t-55 24t-27 40t-7 59.5v11q0 37 8.5 62.5t29.5 41t56 22.5t89 7
h20q63 0 102.5 -6t61.5 -21t30 -41t8 -66v-12h-108v6q0 18 -3 29.5t-12 18.5t-26 9.5t-45 2.5h-15q-27 0 -44 -2.5t-26.5 -8.5t-12.5 -16.5t-3 -25.5v-9q0 -13 3.5 -21.5t15 -14t33 -8.5t57.5 -6q61 -5 100.5 -14t62 -25.5t31 -41.5t8.5 -61v-15q0 -42 -10 -70t-33 -44.5
t-61 -23.5t-94 -7h-25zM163 -193l-35 38l147 147l61 -67z" />
    <glyph glyph-name="Scaron" unicode="&#x160;" horiz-adv-x="640" 
d="M594 190q0 -59 -10.5 -97t-37.5 -60.5t-73.5 -31t-119.5 -8.5h-25q-92 0 -146.5 7.5t-84 28.5t-38.5 58t-9 96v32h122v-24q0 -31 5.5 -50t21 -29.5t44 -14.5t74.5 -4h19q42 0 68.5 3.5t40.5 13.5t19 28.5t5 47.5v13q0 25 -5 42t-22.5 27.5t-50.5 16.5t-89 11
q-79 6 -127.5 18t-75 34.5t-35.5 56.5t-9 84v16q0 50 10.5 85t37 56.5t73 31t118.5 9.5h26q82 0 132.5 -9t78.5 -30t37 -56.5t9 -88.5v-27h-121v21q0 27 -5 44.5t-19 28t-40 15t-68 4.5h-19q-39 0 -64 -3.5t-38.5 -13t-18.5 -26t-5 -42.5v-14q0 -23 4.5 -38.5t21.5 -25
t50 -15.5t89 -10q80 -7 129 -18.5t76 -33t36 -55.5t9 -86v-18zM318 721l-146 115l38 41l108 -69l107 69l39 -41z" />
    <glyph glyph-name="scaron" unicode="&#x161;" horiz-adv-x="511" 
d="M250 -7q-65 0 -104.5 6.5t-62 22t-30 42t-7.5 65.5v19h111v-8q0 -20 3.5 -32t13 -19t28 -9.5t48.5 -2.5h23q27 0 44.5 2.5t27.5 8.5t14 17t4 29v7q0 16 -4 27t-17.5 18.5t-39.5 12.5t-70 8q-56 4 -91 12.5t-55 24t-27 40t-7 59.5v11q0 37 8.5 62.5t29.5 41t56 22.5t89 7
h20q63 0 102.5 -6t61.5 -21t30 -41t8 -66v-12h-108v6q0 18 -3 29.5t-12 18.5t-26 9.5t-45 2.5h-15q-27 0 -44 -2.5t-26.5 -8.5t-12.5 -16.5t-3 -25.5v-9q0 -13 3.5 -21.5t15 -14t33 -8.5t57.5 -6q61 -5 100.5 -14t62 -25.5t31 -41.5t8.5 -61v-15q0 -42 -10 -70t-33 -44.5
t-61 -23.5t-94 -7h-25zM254 534l-144 121l38 41l106 -74l106 74l38 -41z" />
    <glyph glyph-name="Tcommaaccent" unicode="&#x162;" horiz-adv-x="554" 
d="M342 0h-130v578h-200v102h530v-102h-200v-578zM328 -136q0 -29 -5 -48.5t-17.5 -32t-34.5 -18t-56 -6.5v44q28 2 37.5 12t9.5 40v7h-32v89h98v-87z" />
    <glyph glyph-name="tcommaaccent" unicode="&#x163;" horiz-adv-x="433" 
d="M233 -7q-48 0 -78 7t-47 27.5t-23.5 58t-6.5 98.5v210h-66v86h66v125h117v-125h208v-86h-208v-199q0 -39 2 -61t8 -33.5t17.5 -14t29.5 -2.5h9q19 0 30 3t17 14t7.5 31t1.5 55v27h94v-49q0 -53 -7 -86t-25 -52.5t-49.5 -26.5t-80.5 -7h-16zM296 -136q0 -29 -5 -48.5
t-17.5 -32t-34.5 -18t-56 -6.5v44q28 2 37.5 12t9.5 40v7h-32v89h98v-87z" />
    <glyph glyph-name="Tcaron" unicode="&#x164;" horiz-adv-x="554" 
d="M342 0h-130v578h-200v102h530v-102h-200v-578zM277 721l-146 115l38 41l108 -69l107 69l39 -41z" />
    <glyph glyph-name="tcaron" unicode="&#x165;" horiz-adv-x="433" 
d="M236 -7q-49 0 -79.5 7t-48 27.5t-24 58t-6.5 98.5v210h-66v86h66v125h117v-125h156v-86h-156v-199q0 -39 2 -61t8 -33.5t17.5 -14t29.5 -2.5h9q19 0 30 3t17 14t7.5 31t1.5 55v27h94v-49q0 -53 -7 -86t-24.5 -52.5t-48 -26.5t-78.5 -7h-17zM480 599q0 -61 -22 -90
t-78 -31v49q20 4 27.5 15.5t7.5 40.5v8h-33v89h98v-81z" />
    <glyph glyph-name="Tbar" unicode="&#x166;" horiz-adv-x="554" 
d="M342 0h-130v394h-143v73h143v111h-200v102h530v-102h-200v-111h147v-73h-147v-394z" />
    <glyph glyph-name="tbar" unicode="&#x167;" horiz-adv-x="433" 
d="M411 165q0 -53 -7 -86t-25 -52.5t-49.5 -26.5t-80.5 -7h-16q-48 0 -78 7t-47.5 27.5t-23.5 58t-6 98.5v99h-50v53h50v58h-66v86h66v125h117v-125h208v-86h-208v-58h120v-53h-120v-88q0 -39 2 -61t8 -33.5t17 -14t30 -2.5h9q19 0 30 3t17 14t7.5 31t1.5 55v27h94v-49z" />
    <glyph glyph-name="Utilde" unicode="&#x168;" horiz-adv-x="682" 
d="M332 -7q-85 0 -138.5 9.5t-83.5 35.5t-41 72t-11 118v452h130v-440q0 -47 5.5 -75t21 -43t44 -20t74.5 -5h16q46 0 74.5 5t44 20t21 43t5.5 75v440h130v-452q0 -72 -11 -118t-41 -72t-83.5 -35.5t-138.5 -9.5h-18zM478 856q-3 -50 -21.5 -78t-59.5 -28q-19 0 -33.5 6.5
t-28.5 15.5q-14 8 -25 13t-23 5q-14 0 -23.5 -8.5t-13.5 -32.5l-46 11q2 48 21.5 76t58.5 28q17 0 31.5 -5.5t29.5 -15.5q14 -9 26 -14.5t24 -5.5q31 0 35 43z" />
    <glyph glyph-name="utilde" unicode="&#x169;" horiz-adv-x="557" 
d="M499 0h-118v77h-1q-17 -44 -50.5 -64t-99.5 -20h-8q-49 0 -82 9t-52.5 31t-27.5 59.5t-8 94.5v293h120v-277q0 -38 3 -61t13 -36t28.5 -17.5t49.5 -4.5h9q29 0 49 5t32 18.5t17.5 36.5t5.5 59v277h120v-480zM414 673q-3 -50 -21.5 -78t-59.5 -28q-19 0 -33.5 6.5
t-28.5 15.5q-14 8 -25 13t-23 5q-14 0 -23.5 -8.5t-13.5 -32.5l-46 11q2 48 21.5 76t58.5 28q17 0 31.5 -5.5t29.5 -15.5q14 -9 26 -14.5t24 -5.5q31 0 35 43z" />
    <glyph glyph-name="Umacron" unicode="&#x16a;" horiz-adv-x="682" 
d="M332 -7q-85 0 -138.5 9.5t-83.5 35.5t-41 72t-11 118v452h130v-440q0 -47 5.5 -75t21 -43t44 -20t74.5 -5h16q46 0 74.5 5t44 20t21 43t5.5 75v440h130v-452q0 -72 -11 -118t-41 -72t-83.5 -35.5t-138.5 -9.5h-18zM469 767h-255v73h255v-73z" />
    <glyph glyph-name="umacron" unicode="&#x16b;" horiz-adv-x="557" 
d="M499 0h-118v77h-1q-17 -44 -50.5 -64t-99.5 -20h-8q-49 0 -82 9t-52.5 31t-27.5 59.5t-8 94.5v293h120v-277q0 -38 3 -61t13 -36t28.5 -17.5t49.5 -4.5h9q29 0 49 5t32 18.5t17.5 36.5t5.5 59v277h120v-480zM403 589h-253v73h253v-73z" />
    <glyph glyph-name="Ubreve" unicode="&#x16c;" horiz-adv-x="682" 
d="M332 -7q-85 0 -138.5 9.5t-83.5 35.5t-41 72t-11 118v452h130v-440q0 -47 5.5 -75t21 -43t44 -20t74.5 -5h16q46 0 74.5 5t44 20t21 43t5.5 75v440h130v-452q0 -72 -11 -118t-41 -72t-83.5 -35.5t-138.5 -9.5h-18zM487 864q-1 -68 -40 -99t-105 -31q-67 0 -105.5 31.5
t-40.5 98.5h61q5 -35 26.5 -47.5t58.5 -12.5q38 0 58.5 12t26.5 48h60z" />
    <glyph glyph-name="ubreve" unicode="&#x16d;" horiz-adv-x="557" 
d="M499 0h-118v77h-1q-17 -44 -50.5 -64t-99.5 -20h-8q-49 0 -82 9t-52.5 31t-27.5 59.5t-8 94.5v293h120v-277q0 -38 3 -61t13 -36t28.5 -17.5t49.5 -4.5h9q29 0 49 5t32 18.5t17.5 36.5t5.5 59v277h120v-480zM423 682q-2 -67 -41 -98.5t-105 -31.5q-67 0 -105.5 31.5
t-39.5 98.5h60q5 -35 26.5 -47.5t58.5 -12.5q38 0 59 12t26 48h61z" />
    <glyph glyph-name="Uring" unicode="&#x16e;" horiz-adv-x="682" 
d="M332 -7q-85 0 -138.5 9.5t-83.5 35.5t-41 72t-11 118v452h130v-440q0 -47 5.5 -75t21 -43t44 -20t74.5 -5h16q46 0 74.5 5t44 20t21 43t5.5 75v440h130v-452q0 -72 -11 -118t-41 -72t-83.5 -35.5t-138.5 -9.5h-18zM339 720q-61 0 -84 18t-23 63q0 51 23 68.5t84 17.5
q66 0 89 -18t23 -68q0 -45 -22.5 -63t-89.5 -18zM344 759q34 0 46 9t12 33q0 29 -12 38t-51 9q-34 0 -45.5 -9t-11.5 -38q0 -24 11.5 -33t50.5 -9z" />
    <glyph glyph-name="uring" unicode="&#x16f;" horiz-adv-x="557" 
d="M499 0h-118v77h-1q-17 -44 -50.5 -64t-99.5 -20h-8q-49 0 -82 9t-52.5 31t-27.5 59.5t-8 94.5v293h120v-277q0 -38 3 -61t13 -36t28.5 -17.5t49.5 -4.5h9q29 0 49 5t32 18.5t17.5 36.5t5.5 59v277h120v-480zM274 544q-61 0 -84 18t-23 63v6q0 44 23 62t84 18h5
q62 0 84.5 -18t22.5 -62v-6q0 -45 -22.5 -63t-84.5 -18h-5zM279 583q34 0 46 8.5t12 32.5v6q0 24 -12 32.5t-46 8.5h-5q-34 0 -45.5 -8.5t-11.5 -32.5v-6q0 -24 11.5 -32.5t45.5 -8.5h5z" />
    <glyph glyph-name="Uhungarumlaut" unicode="&#x170;" horiz-adv-x="682" 
d="M332 -7q-85 0 -138.5 9.5t-83.5 35.5t-41 72t-11 118v452h130v-440q0 -47 5.5 -75t21 -43t44 -20t74.5 -5h16q46 0 74.5 5t44 20t21 43t5.5 75v440h130v-452q0 -72 -11 -118t-41 -72t-83.5 -35.5t-138.5 -9.5h-18zM242 722l-32 40l134 128l49 -56zM406 721l-31 39
l136 129l49 -56z" />
    <glyph glyph-name="uhungarumlaut" unicode="&#x171;" horiz-adv-x="557" 
d="M499 0h-118v77h-1q-17 -44 -50.5 -64t-99.5 -20h-8q-49 0 -82 9t-52.5 31t-27.5 59.5t-8 94.5v293h120v-277q0 -38 3 -61t13 -36t28.5 -17.5t49.5 -4.5h9q29 0 49 5t32 18.5t17.5 36.5t5.5 59v277h120v-480zM333 660l-145 -120l-33 38l126 135zM496 659l-148 -120l-33 39
l129 135z" />
    <glyph glyph-name="Uogonek" unicode="&#x172;" horiz-adv-x="682" 
d="M432 -185q-18 -6 -39.5 -10t-44.5 -4q-48 0 -71 17.5t-23 56.5q0 35 19 62.5t54 55.5h-11q-79 0 -129 10.5t-78.5 36.5t-39.5 71.5t-11 116.5v452h130v-440q0 -47 5.5 -75t21 -43t44 -20t74.5 -5h16q46 0 74.5 5t44 20t21 43t5.5 75v440h130v-452q0 -67 -9.5 -111
t-34.5 -70.5t-69.5 -38.5t-114.5 -14q-34 -27 -49 -50t-15 -45q0 -20 10.5 -27t32.5 -7q14 0 28.5 2t28.5 5v-57z" />
    <glyph glyph-name="uogonek" unicode="&#x173;" horiz-adv-x="557" 
d="M499 0h-19q-46 -25 -66.5 -51t-20.5 -50q0 -20 10.5 -27t32.5 -7q14 0 28.5 2t27.5 5v-57q-18 -6 -39.5 -10t-44.5 -4q-46 0 -69.5 17.5t-23.5 56.5q0 36 21.5 64.5t66.5 60.5h-22v77h-1q-17 -44 -50.5 -64t-99.5 -20h-8q-49 0 -82 9t-52.5 31t-27.5 59.5t-8 94.5v293
h120v-277q0 -38 3 -61t13 -36t28.5 -17.5t49.5 -4.5h9q29 0 49 5t32 18.5t17.5 36.5t5.5 59v277h120v-480z" />
    <glyph glyph-name="Wcircumflex" unicode="&#x174;" horiz-adv-x="946" 
d="M766 0h-162l-129 559h-2l-129 -559h-163l-163 680h130l119 -573h3l132 573h147l133 -573h3l116 573h127zM582 737l-107 69l-108 -69l-38 41l146 115l146 -115z" />
    <glyph glyph-name="wcircumflex" unicode="&#x175;" horiz-adv-x="783" 
d="M636 0h-161l-82 363h-3l-82 -363h-161l-133 480h125l90 -393h4l94 393h132l96 -393h3l89 393h122zM497 548l-106 75l-106 -75l-38 42l144 121l144 -121z" />
    <glyph glyph-name="Ycircumflex" unicode="&#x176;" horiz-adv-x="626" 
d="M378 0h-130v229l-240 451h140l165 -335h3l161 335h141l-240 -451v-229zM422 737l-107 69l-108 -69l-38 41l146 115l146 -115z" />
    <glyph glyph-name="ycircumflex" unicode="&#x177;" horiz-adv-x="488" 
d="M80 -81q9 -2 20 -2h16q23 0 39 3.5t28 14t22 30t20 50.5h-65l-151 465h125l112 -382h5l106 382h122l-133 -426q-24 -77 -43.5 -122t-42 -68t-51 -30t-70.5 -7q-31 0 -59 3v89zM354 548l-106 75l-106 -75l-38 42l144 121l144 -121z" />
    <glyph glyph-name="Ydieresis" unicode="&#x178;" horiz-adv-x="626" 
d="M378 0h-130v229l-240 451h140l165 -335h3l161 335h141l-240 -451v-229zM269 752h-102v106h102v-106zM462 752h-101v106h101v-106z" />
    <glyph glyph-name="Zacute" unicode="&#x179;" horiz-adv-x="595" 
d="M559 0h-522v102l366 478v1h-354v99h504v-103l-365 -475v-2h371v-100zM428 807l-197 -74l-25 43l181 110z" />
    <glyph glyph-name="zacute" unicode="&#x17a;" horiz-adv-x="441" 
d="M415 0h-387v89l240 302v2h-228v87h368v-92l-237 -298v-2h244v-88zM159 538l-30 40l161 136l53 -73z" />
    <glyph glyph-name="Zdotaccent" unicode="&#x17b;" horiz-adv-x="595" 
d="M559 0h-522v102l366 478v1h-354v99h504v-103l-365 -475v-2h371v-100zM358 752h-120v106h120v-106z" />
    <glyph glyph-name="zdotaccent" unicode="&#x17c;" horiz-adv-x="441" 
d="M415 0h-387v89l240 302v2h-228v87h368v-92l-237 -298v-2h244v-88zM281 573h-120v107h120v-107z" />
    <glyph glyph-name="Zcaron" unicode="&#x17d;" horiz-adv-x="595" 
d="M559 0h-522v102l366 478v1h-354v99h504v-103l-365 -475v-2h371v-100zM301 721l-146 115l38 41l108 -69l107 69l39 -41z" />
    <glyph glyph-name="zcaron" unicode="&#x17e;" horiz-adv-x="441" 
d="M415 0h-387v89l240 302v2h-228v87h368v-92l-237 -298v-2h244v-88zM222 534l-144 121l38 41l106 -74l106 74l38 -41z" />
    <glyph glyph-name="florin" unicode="&#x192;" horiz-adv-x="647" 
d="M123 290v93h157l18 109q9 55 26 92.5t42.5 60t60.5 32t79 9.5q27 0 50 -2t47 -7v-92q-14 3 -35 6t-42 3q-26 0 -45 -5.5t-32.5 -20.5t-23 -40.5t-15.5 -65.5l-13 -79h158v-93h-172l-38 -245q-7 -47 -20.5 -82.5t-37.5 -60t-59.5 -37t-87.5 -12.5q-26 0 -52.5 2.5
t-44.5 7.5v98q12 -4 33 -8t41 -4q26 0 44.5 5t32 19.5t23 39.5t15.5 65l34 212h-143z" />
    <glyph glyph-name="Scommaaccent" unicode="&#x218;" horiz-adv-x="640" 
d="M594 190q0 -59 -10.5 -97t-37.5 -60.5t-73.5 -31t-119.5 -8.5h-25q-92 0 -146.5 7.5t-84 28.5t-38.5 58t-9 96v32h122v-24q0 -31 5.5 -50t21 -29.5t44 -14.5t74.5 -4h19q42 0 68.5 3.5t40.5 13.5t19 28.5t5 47.5v13q0 25 -5 42t-22.5 27.5t-50.5 16.5t-89 11
q-79 6 -127.5 18t-75 34.5t-35.5 56.5t-9 84v16q0 50 10.5 85t37 56.5t73 31t118.5 9.5h26q82 0 132.5 -9t78.5 -30t37 -56.5t9 -88.5v-27h-121v21q0 27 -5 44.5t-19 28t-40 15t-68 4.5h-19q-39 0 -64 -3.5t-38.5 -13t-18.5 -26t-5 -42.5v-14q0 -23 4.5 -38.5t21.5 -25
t50 -15.5t89 -10q80 -7 129 -18.5t76 -33t36 -55.5t9 -86v-18zM380 -136q0 -29 -5 -48.5t-17.5 -32t-34.5 -18t-56 -6.5v44q28 2 37.5 12t9.5 40v7h-32v89h98v-87z" />
    <glyph glyph-name="scommaaccent" unicode="&#x219;" horiz-adv-x="511" 
d="M250 -7q-65 0 -104.5 6.5t-62 22t-30 42t-7.5 65.5v19h111v-8q0 -20 3.5 -32t13 -19t28 -9.5t48.5 -2.5h23q27 0 44.5 2.5t27.5 8.5t14 17t4 29v7q0 16 -4 27t-17.5 18.5t-39.5 12.5t-70 8q-56 4 -91 12.5t-55 24t-27 40t-7 59.5v11q0 37 8.5 62.5t29.5 41t56 22.5t89 7
h20q63 0 102.5 -6t61.5 -21t30 -41t8 -66v-12h-108v6q0 18 -3 29.5t-12 18.5t-26 9.5t-45 2.5h-15q-27 0 -44 -2.5t-26.5 -8.5t-12.5 -16.5t-3 -25.5v-9q0 -13 3.5 -21.5t15 -14t33 -8.5t57.5 -6q61 -5 100.5 -14t62 -25.5t31 -41.5t8.5 -61v-15q0 -42 -10 -70t-33 -44.5
t-61 -23.5t-94 -7h-25zM317 -136q0 -29 -5 -48.5t-17.5 -32t-34.5 -18t-56 -6.5v44q28 2 37.5 12t9.5 40v7h-32v89h98v-87z" />
    <glyph glyph-name="uni021A" unicode="&#x21a;" horiz-adv-x="554" 
d="M342 0h-130v578h-200v102h530v-102h-200v-578zM328 -136q0 -29 -5 -48.5t-17.5 -32t-34.5 -18t-56 -6.5v44q28 2 37.5 12t9.5 40v7h-32v89h98v-87z" />
    <glyph glyph-name="uni021B" unicode="&#x21b;" horiz-adv-x="433" 
d="M233 -7q-48 0 -78 7t-47 27.5t-23.5 58t-6.5 98.5v210h-66v86h66v125h117v-125h208v-86h-208v-199q0 -39 2 -61t8 -33.5t17.5 -14t29.5 -2.5h9q19 0 30 3t17 14t7.5 31t1.5 55v27h94v-49q0 -53 -7 -86t-25 -52.5t-49.5 -26.5t-80.5 -7h-16zM296 -136q0 -29 -5 -48.5
t-17.5 -32t-34.5 -18t-56 -6.5v44q28 2 37.5 12t9.5 40v7h-32v89h98v-87z" />
    <glyph glyph-name="dotlessj" unicode="&#x237;" horiz-adv-x="236" 
d="M178 -36q0 -40 -8 -66.5t-24 -42t-40.5 -22t-57.5 -6.5q-21 0 -45 3v87q7 -1 10.5 -1h7.5q21 0 29 12t8 53v499h120v-516z" />
    <glyph glyph-name="circumflex" unicode="&#x2c6;" 
d="M309 548l-106 75l-106 -75l-38 42l144 121l144 -121z" />
    <glyph glyph-name="caron" unicode="&#x2c7;" 
d="M203 534l-144 121l38 41l106 -74l106 74l38 -41z" />
    <glyph glyph-name="uni02C9" unicode="&#x2c9;" 
d="M331 767h-255v73h255v-73z" />
    <glyph glyph-name="breve" unicode="&#x2d8;" 
d="M350 682q-2 -67 -41 -98.5t-105 -31.5q-67 0 -105.5 31.5t-39.5 98.5h60q5 -35 26.5 -47.5t58.5 -12.5q38 0 59 12t26 48h61z" />
    <glyph glyph-name="dotaccent" unicode="&#x2d9;" 
d="M263 573h-120v107h120v-107z" />
    <glyph glyph-name="ring" unicode="&#x2da;" 
d="M201 544q-61 0 -84 18t-23 63v6q0 44 23 62t84 18h5q62 0 84.5 -18t22.5 -62v-6q0 -45 -22.5 -63t-84.5 -18h-5zM206 583q34 0 46 8.5t12 32.5v6q0 24 -12 32.5t-46 8.5h-5q-34 0 -45.5 -8.5t-11.5 -32.5v-6q0 -24 11.5 -32.5t45.5 -8.5h5z" />
    <glyph glyph-name="ogonek" unicode="&#x2db;" horiz-adv-x="385" 
d="M277 -185q-18 -6 -39.5 -10t-44.5 -4q-43 0 -68.5 16t-25.5 58q0 38 22 66.5t63 58.5h63q-41 -36 -55.5 -59t-14.5 -42q0 -20 10.5 -27t32.5 -7q14 0 28.5 2t28.5 5v-57z" />
    <glyph glyph-name="tilde" unicode="&#x2dc;" 
d="M340 673q-3 -50 -21.5 -78t-59.5 -28q-19 0 -33.5 6.5t-28.5 15.5q-14 8 -25 13t-23 5q-14 0 -23.5 -8.5t-13.5 -32.5l-46 11q2 48 21.5 76t58.5 28q17 0 31.5 -5.5t29.5 -15.5q14 -9 26 -14.5t24 -5.5q31 0 35 43z" />
    <glyph glyph-name="hungarumlaut" unicode="&#x2dd;" 
d="M227 660l-145 -120l-33 38l126 135zM390 659l-148 -120l-33 39l129 135z" />
    <glyph glyph-name="uni0394" unicode="&#x394;" horiz-adv-x="654" 
d="M635 0h-616l240 680h137zM476 100l-148 475h-4l-150 -475h302z" />
    <glyph glyph-name="uni03A9" unicode="&#x3a9;" horiz-adv-x="681" 
d="M620 0h-235v201q58 16 88.5 69t30.5 128q0 86 -42.5 138.5t-121.5 53.5q-39 0 -69.5 -14t-51 -39.5t-31.5 -60.5t-11 -78q0 -75 30 -128t88 -69v-201h-234v98h147v45q-74 27 -116.5 92t-42.5 165q0 63 20 116t57.5 91t91.5 59t122 21q69 0 123 -21t91.5 -59t57.5 -91
t20 -116q0 -100 -43 -165t-117 -92v-45h148v-98z" />
    <glyph glyph-name="uni03BC" unicode="&#x3bc;" horiz-adv-x="568" 
d="M510 0h-118v75h-1q-14 -40 -43.5 -59.5t-82.5 -19.5h-6q-61 0 -79 30h-2v-201h-120v655h120v-281q0 -36 5 -58t16 -35t30 -17.5t48 -4.5h9q28 0 48 5t32.5 18.5t18 36t5.5 58.5v278h120v-480z" />
    <glyph glyph-name="pi" unicode="&#x3c0;" horiz-adv-x="599" 
d="M562 5q-26 -12 -67 -12q-29 0 -49.5 6.5t-33.5 22.5t-19.5 42.5t-6.5 65.5v253h-176v-383h-120v383h-52v97h525v-97h-58v-237q0 -43 7 -55.5t27 -12.5q7 0 12.5 1t10.5 3v-77z" />
    <glyph glyph-name="endash" unicode="&#x2013;" horiz-adv-x="577" 
d="M577 215h-577v76h577v-76z" />
    <glyph glyph-name="emdash" unicode="&#x2014;" horiz-adv-x="879" 
d="M850 215h-821v76h821v-76z" />
    <glyph glyph-name="quoteleft" unicode="&#x2018;" horiz-adv-x="228" 
d="M168 408h-113v124q0 37 5 64.5t19 45.5t38.5 27t63.5 11v-62q-31 -2 -40.5 -19.5t-9.5 -52.5v-9h37v-129z" />
    <glyph glyph-name="quoteright" unicode="&#x2019;" horiz-adv-x="228" 
d="M60 680h113v-124q0 -38 -5 -65t-19 -45t-38.5 -27.5t-63.5 -10.5v62q31 2 40.5 19.5t9.5 52.5v9h-37v129z" />
    <glyph glyph-name="quotesinglbase" unicode="&#x201a;" horiz-adv-x="228" 
d="M60 129h113v-124q0 -38 -5 -65t-19 -45t-38.5 -27.5t-63.5 -10.5v62q31 2 40.5 19.5t9.5 52.5v9h-37v129z" />
    <glyph glyph-name="quotedblleft" unicode="&#x201c;" horiz-adv-x="408" 
d="M168 408h-113v124q0 37 5 64.5t19 45.5t38.5 27t63.5 11v-62q-31 -2 -40.5 -19.5t-9.5 -52.5v-9h37v-129zM348 408h-113v124q0 37 5 64.5t19 45.5t38.5 27t63.5 11v-62q-31 -2 -40.5 -19.5t-9.5 -52.5v-9h37v-129z" />
    <glyph glyph-name="quotedblright" unicode="&#x201d;" horiz-adv-x="408" 
d="M240 680h113v-124q0 -38 -5 -65t-19 -45t-38.5 -27.5t-63.5 -10.5v62q31 2 40.5 19.5t9.5 52.5v9h-37v129zM60 680h113v-124q0 -38 -5 -65t-19 -45t-38.5 -27.5t-63.5 -10.5v62q31 2 40.5 19.5t9.5 52.5v9h-37v129z" />
    <glyph glyph-name="quotedblbase" unicode="&#x201e;" horiz-adv-x="408" 
d="M240 129h113v-124q0 -38 -5 -65t-19 -45t-38.5 -27.5t-63.5 -10.5v62q31 2 40.5 19.5t9.5 52.5v9h-37v129zM60 129h113v-124q0 -38 -5 -65t-19 -45t-38.5 -27.5t-63.5 -10.5v62q31 2 40.5 19.5t9.5 52.5v9h-37v129z" />
    <glyph glyph-name="dagger" unicode="&#x2020;" horiz-adv-x="577" 
d="M337 -90h-98v491h-164v91h164v188h98v-188h165v-91h-165v-491z" />
    <glyph glyph-name="daggerdbl" unicode="&#x2021;" horiz-adv-x="563" 
d="M330 -90h-98v166h-157v88h157v269h-157v88h157v159h98v-159h158v-88h-158v-269h158v-88h-158v-166z" />
    <glyph glyph-name="bullet" unicode="&#x2022;" horiz-adv-x="467" 
d="M364 341q0 -27 -10 -51t-28 -42t-42 -28t-51 -10t-50.5 10t-41.5 28t-28 42t-10 51t10 50.5t28 41.5t41.5 28t50.5 10t51 -10t42 -28t28 -41.5t10 -50.5z" />
    <glyph glyph-name="ellipsis" unicode="&#x2026;" horiz-adv-x="702" 
d="M179 0h-124v137h124v-137zM413 0h-124v137h124v-137zM647 0h-124v137h124v-137z" />
    <glyph glyph-name="perthousand" unicode="&#x2030;" horiz-adv-x="1085" 
d="M185 360q-38 0 -62.5 6.5t-39 23t-20 45t-5.5 72.5v28q0 44 5.5 72t20 44.5t39 23t62.5 6.5h13q38 0 63 -6.5t39.5 -23t20 -44.5t5.5 -72v-28q0 -44 -5.5 -72.5t-20 -45t-39.5 -23t-63 -6.5h-13zM197 419q15 0 25 3t15 12t7 26t2 44v34q0 27 -2 43.5t-7 25.5t-15 12
t-25 3h-9q-16 0 -25.5 -3t-15 -12t-7.5 -25.5t-2 -43.5v-34q0 -27 2 -44t7.5 -26t15 -12t25.5 -3h9zM287 0h-73l267 680h73zM572 -1q-38 0 -62.5 6.5t-38.5 23t-20 45t-6 72.5v28q0 44 6 72t20 44.5t38.5 23t62.5 6.5h14q38 0 62.5 -6.5t39 -23t20.5 -44.5t6 -72v-28
q0 -44 -6 -72.5t-20.5 -45t-39 -23t-62.5 -6.5h-14zM584 57q16 0 25.5 3t15 12.5t7.5 26.5t2 44v34q0 27 -2 43.5t-7.5 25.5t-15 12t-25.5 3h-9q-16 0 -25.5 -3t-15 -12t-7.5 -25.5t-2 -43.5v-34q0 -27 2 -44t7.5 -26.5t15 -12.5t25.5 -3h9zM885 -1q-38 0 -62.5 6.5
t-38.5 23t-20 45t-6 72.5v28q0 44 6 72t20 44.5t38.5 23t62.5 6.5h14q38 0 62.5 -6.5t39 -23t20.5 -44.5t6 -72v-28q0 -44 -6 -72.5t-20.5 -45t-39 -23t-62.5 -6.5h-14zM897 57q16 0 25.5 3t15 12.5t7.5 26.5t2 44v34q0 27 -2 43.5t-7.5 25.5t-15 12t-25.5 3h-9
q-16 0 -25.5 -3t-15 -12t-7.5 -25.5t-2 -43.5v-34q0 -27 2 -44t7.5 -26.5t15 -12.5t25.5 -3h9z" />
    <glyph glyph-name="guilsinglleft" unicode="&#x2039;" horiz-adv-x="280" 
d="M230 102l-82 -31l-102 200l102 201l82 -31l-85 -170z" />
    <glyph glyph-name="guilsinglright" unicode="&#x203a;" horiz-adv-x="280" 
d="M132 72l-82 31l85 169l-85 169l82 32l102 -201z" />
    <glyph glyph-name="fraction" unicode="&#x2044;" horiz-adv-x="132" 
d="M-31 0h-73l267 680h73z" />
    <glyph glyph-name="zero.superior" unicode="&#x2070;" horiz-adv-x="407" 
d="M210 513q25 0 41 4.5t24.5 15.5t11.5 31t3 52v46q0 32 -3 52t-11.5 31.5t-24.5 16t-41 4.5h-13q-26 0 -41.5 -4.5t-24 -16t-11.5 -31.5t-3 -52v-46q0 -32 3 -52t11.5 -31t24 -15.5t41.5 -4.5h13zM196 449q-50 0 -81 7.5t-48 27t-23 52.5t-6 84v41q0 49 6 81t23 51.5
t48 27.5t81 8h15q50 0 81 -8t48 -27.5t23 -52t6 -80.5v-41q0 -51 -6 -84t-23 -52.5t-48 -27t-81 -7.5h-15z" />
    <glyph glyph-name="four.superior" unicode="&#x2074;" horiz-adv-x="412" 
d="M338 453h-81v79h-224v76l191 217h114v-234h48v-59h-48v-79zM257 591v177h-4l-150 -176v-1h154z" />
    <glyph glyph-name="five.superior" unicode="&#x2075;" horiz-adv-x="397" 
d="M190 449q-46 0 -75 4.5t-45 16.5t-22 32.5t-6 52.5v12h74v-9q0 -29 14.5 -38.5t57.5 -9.5h14q27 0 43 2t24.5 8.5t11 18t2.5 30.5v13q0 19 -2.5 31t-10.5 19t-23 9t-40 2h-15q-38 0 -52 -4.5t-18 -21.5h-75v208h307v-63h-231v-87h1q10 14 30.5 20.5t62.5 6.5h13
q40 0 65.5 -5t40.5 -18t20.5 -35.5t5.5 -56.5v-17q0 -35 -6.5 -58.5t-24 -37.5t-48 -19.5t-78.5 -5.5h-15z" />
    <glyph glyph-name="six.superior" unicode="&#x2076;" horiz-adv-x="398" 
d="M206 510q26 0 41 2t23 8t10.5 16.5t2.5 27.5v10q0 16 -2.5 26.5t-10.5 16.5t-23.5 8t-40.5 2h-12q-24 0 -39 -2t-23 -7.5t-11 -15t-3 -25.5v-10q0 -18 2.5 -29.5t10 -17.5t22.5 -8t41 -2h12zM192 449q-49 0 -79 6t-46.5 22t-22.5 43.5t-6 71.5v80q0 49 6.5 80t24 48
t48 23t79.5 6h16q43 0 71 -4.5t43.5 -16t21.5 -32t6 -51.5v-11h-76v9q0 29 -13 38t-56 9h-12q-26 0 -41.5 -3t-23.5 -12t-11 -26t-3 -45v-27h2q8 14 27.5 21t60.5 7h13q43 0 70 -5t43 -16.5t22 -31.5t6 -50v-17q0 -35 -6.5 -57.5t-23.5 -35.5t-47 -18t-77 -5h-16z" />
    <glyph glyph-name="seven.superior" unicode="&#x2077;" horiz-adv-x="379" 
d="M172 453h-89l167 304v1h-218v67h312v-58z" />
    <glyph glyph-name="eight.superior" unicode="&#x2078;" horiz-adv-x="395" 
d="M189 449q-48 0 -77.5 4.5t-46 15t-22 29t-5.5 47.5v13q0 41 12 59t40 26v1q-27 7 -38.5 24.5t-11.5 56.5v12q0 27 6 44.5t22 28t45 15t75 4.5h18q46 0 74.5 -4.5t45 -15t22.5 -28t6 -44.5v-12q0 -39 -11.5 -56.5t-38.5 -24.5v-1q28 -8 40.5 -26t12.5 -59v-13
q0 -29 -6 -47.5t-22.5 -29t-46 -15t-76.5 -4.5h-17zM204 672q24 0 38 1.5t21.5 6.5t10 14t2.5 23v10q0 13 -2.5 22t-10 13.5t-21.5 6.5t-38 2h-14q-24 0 -38.5 -2t-22 -6.5t-9.5 -13.5t-2 -22v-10q0 -14 2 -23t9.5 -14t22 -6.5t38.5 -1.5h14zM205 508q25 0 39.5 2t22 7
t10 14t2.5 23v15q0 15 -2.5 24.5t-10 14.5t-22.5 7t-39 2h-15q-25 0 -39.5 -2t-22 -7t-10 -14.5t-2.5 -24.5v-15q0 -14 2 -23t9.5 -14t22.5 -7t40 -2h15z" />
    <glyph glyph-name="nine.superior" unicode="&#x2079;" horiz-adv-x="400" 
d="M205 651q24 0 39.5 2t23.5 7.5t11 15t3 25.5v10q0 18 -2.5 29.5t-11 17.5t-23.5 8t-40 2h-12q-25 0 -40 -2t-23 -8t-10.5 -16.5t-2.5 -27.5v-9q0 -17 2.5 -27.5t10.5 -16.5t23 -8t40 -2h12zM186 449q-45 0 -73 4.5t-44 16t-22 31.5t-6 52v11h77v-9q0 -14 2.5 -23
t10 -14.5t21.5 -7.5t37 -2h12q27 0 42.5 2.5t24 11.5t11 26t2.5 46v27h-1q-9 -14 -28.5 -21t-58.5 -7h-15q-43 0 -70 5t-42.5 17t-21.5 32.5t-6 51.5v17q0 34 6.5 55.5t23.5 34.5t47 18t77 5h16q48 0 78 -6t46.5 -22t22.5 -43.5t6 -70.5v-80q0 -50 -6 -81t-23.5 -48
t-48.5 -23t-81 -6h-16z" />
    <glyph glyph-name="zero.inferior" unicode="&#x2080;" horiz-adv-x="407" 
d="M210 -94q25 0 41 4.5t24.5 15.5t11.5 31t3 52v46q0 32 -3 52t-11.5 31.5t-24.5 16t-41 4.5h-13q-26 0 -41.5 -4.5t-24 -16t-11.5 -31.5t-3 -52v-46q0 -32 3 -52t11.5 -31t24 -15.5t41.5 -4.5h13zM196 -158q-50 0 -81 7.5t-48 27t-23 52.5t-6 84v41q0 49 6 81t23 51.5
t48 27.5t81 8h15q50 0 81 -8t48 -27.5t23 -52t6 -80.5v-41q0 -51 -6 -84t-23 -52.5t-48 -27t-81 -7.5h-15z" />
    <glyph glyph-name="one.inferior" unicode="&#x2081;" horiz-adv-x="304" 
d="M219 -154h-84v296h-2l-82 -73l-41 53l112 96h97v-372z" />
    <glyph glyph-name="two.inferior" unicode="&#x2082;" horiz-adv-x="394" 
d="M361 -154h-319v63q0 35 6 58t22.5 38t45.5 23.5t74 15.5q29 4 46 8.5t26 11t12 15.5t3 23v13q0 14 -3 23t-11 14t-24 7t-41 2h-7q-23 0 -36.5 -2.5t-21 -8.5t-10 -16.5t-2.5 -27.5v-15h-78v17q0 34 5.5 56.5t22 35t45 17.5t75.5 5h9q49 0 80.5 -4.5t48.5 -16.5
t23.5 -32.5t6.5 -52.5v-10q0 -31 -5.5 -51.5t-21 -34t-44 -22t-74.5 -15.5q-30 -5 -48.5 -9t-28 -10t-13 -16t-3.5 -26v-13h240v-63z" />
    <glyph glyph-name="three.inferior" unicode="&#x2083;" horiz-adv-x="399" 
d="M191 -158q-48 0 -78 4.5t-46.5 17t-22 35t-5.5 57.5v16h76v-17q0 -17 2.5 -27t10.5 -15.5t23 -7.5t40 -2h7q28 0 45 2t26 7t11.5 14t2.5 23v12q0 26 -11 36t-44 10h-72v55h72q29 0 38 9t9 34v13q0 13 -3 21.5t-11 13t-23.5 6.5t-40.5 2h-6q-23 0 -37.5 -1.5t-22.5 -7
t-10.5 -15t-2.5 -25.5v-18h-75v17q0 34 5.5 55.5t22 34t45.5 17t76 4.5h10q49 0 79 -4.5t47 -15.5t23 -30t6 -47v-9q0 -39 -10.5 -55.5t-36.5 -24.5v-1q27 -5 41 -21.5t14 -57.5v-13q0 -30 -7 -49.5t-25 -31t-49.5 -16t-80.5 -4.5h-12z" />
    <glyph glyph-name="four.inferior" unicode="&#x2084;" horiz-adv-x="412" 
d="M338 -154h-81v79h-224v76l191 217h114v-234h48v-59h-48v-79zM257 -16v177h-4l-150 -176v-1h154z" />
    <glyph glyph-name="five.inferior" unicode="&#x2085;" horiz-adv-x="397" 
d="M190 -158q-46 0 -75 4.5t-45 16.5t-22 32.5t-6 52.5v12h74v-9q0 -29 14.5 -38.5t57.5 -9.5h14q27 0 43 2t24.5 8.5t11 18t2.5 30.5v13q0 19 -2.5 31t-10.5 19t-23 9t-40 2h-15q-38 0 -52 -4.5t-18 -21.5h-75v208h307v-63h-231v-87h1q10 14 30.5 20.5t62.5 6.5h13
q40 0 65.5 -5t40.5 -18t20.5 -35.5t5.5 -56.5v-17q0 -35 -6.5 -58.5t-24 -37.5t-48 -19.5t-78.5 -5.5h-15z" />
    <glyph glyph-name="six.inferior" unicode="&#x2086;" horiz-adv-x="398" 
d="M206 -97q26 0 41 2t23 8t10.5 16.5t2.5 27.5v10q0 16 -2.5 26.5t-10.5 16.5t-23.5 8t-40.5 2h-12q-24 0 -39 -2t-23 -7.5t-11 -15t-3 -25.5v-10q0 -18 2.5 -29.5t10 -17.5t22.5 -8t41 -2h12zM192 -158q-49 0 -79 6t-46.5 22t-22.5 43.5t-6 71.5v80q0 49 6.5 80t24 48
t48 23t79.5 6h16q43 0 71 -4.5t43.5 -16t21.5 -32t6 -51.5v-11h-76v9q0 29 -13 38t-56 9h-12q-26 0 -41.5 -3t-23.5 -12t-11 -26t-3 -45v-27h2q8 14 27.5 21t60.5 7h13q43 0 70 -5t43 -16.5t22 -31.5t6 -50v-17q0 -35 -6.5 -57.5t-23.5 -35.5t-47 -18t-77 -5h-16z" />
    <glyph glyph-name="seven.inferior" unicode="&#x2087;" horiz-adv-x="379" 
d="M172 -154h-89l167 304v1h-218v67h312v-58z" />
    <glyph glyph-name="eight.inferior" unicode="&#x2088;" horiz-adv-x="395" 
d="M189 -158q-48 0 -77.5 4.5t-46 15t-22 29t-5.5 47.5v13q0 41 12 59t40 26v1q-27 7 -38.5 24.5t-11.5 56.5v12q0 27 6 44.5t22 28t45 15t75 4.5h18q46 0 74.5 -4.5t45 -15t22.5 -28t6 -44.5v-12q0 -39 -11.5 -56.5t-38.5 -24.5v-1q28 -8 40.5 -26t12.5 -59v-13
q0 -29 -6 -47.5t-22.5 -29t-46 -15t-76.5 -4.5h-17zM204 65q24 0 38 1.5t21.5 6.5t10 14t2.5 23v10q0 13 -2.5 22t-10 13.5t-21.5 6.5t-38 2h-14q-24 0 -38.5 -2t-22 -6.5t-9.5 -13.5t-2 -22v-10q0 -14 2 -23t9.5 -14t22 -6.5t38.5 -1.5h14zM205 -99q25 0 39.5 2t22 7t10 14
t2.5 23v15q0 15 -2.5 24.5t-10 14.5t-22.5 7t-39 2h-15q-25 0 -39.5 -2t-22 -7t-10 -14.5t-2.5 -24.5v-15q0 -14 2 -23t9.5 -14t22.5 -7t40 -2h15z" />
    <glyph glyph-name="nine.inferior" unicode="&#x2089;" horiz-adv-x="400" 
d="M205 44q24 0 39.5 2t23.5 7.5t11 15t3 25.5v10q0 18 -2.5 29.5t-11 17.5t-23.5 8t-40 2h-12q-25 0 -40 -2t-23 -8t-10.5 -16.5t-2.5 -27.5v-9q0 -17 2.5 -27.5t10.5 -16.5t23 -8t40 -2h12zM186 -158q-45 0 -73 4.5t-44 16t-22 31.5t-6 52v11h77v-9q0 -14 2.5 -23
t10 -14.5t21.5 -7.5t37 -2h12q27 0 42.5 2.5t24 11.5t11 26t2.5 46v27h-1q-9 -14 -28.5 -21t-58.5 -7h-15q-43 0 -70 5t-42.5 17t-21.5 32.5t-6 51.5v17q0 34 6.5 55.5t23.5 34.5t47 18t77 5h16q48 0 78 -6t46.5 -22t22.5 -43.5t6 -70.5v-80q0 -50 -6 -81t-23.5 -48
t-48.5 -23t-81 -6h-16z" />
    <glyph glyph-name="Euro" unicode="&#x20ac;" horiz-adv-x="706" 
d="M647 169q0 -50 -10 -83.5t-37 -54t-75 -29.5t-124 -9h-14q-83 0 -135 10t-81 39t-40 81.5t-12 138.5h-69v53h69v60h-69v53h70q2 82 13.5 133t40.5 79t80 37.5t132 9.5h17q75 0 121.5 -8t72 -28t34.5 -53t9 -82v-16h-122v11q0 22 -4 37t-16.5 24t-35 13t-59.5 4h-13
q-43 0 -70 -4t-42.5 -20.5t-22 -48.5t-7.5 -88h261v-53h-262v-60h262v-53h-261q1 -59 7 -92.5t21 -50.5t42 -21.5t71 -4.5h13q39 0 63.5 4t37.5 13t17.5 25t4.5 40v14h122v-20z" />
    <glyph glyph-name="afii61289" unicode="&#x2113;" horiz-adv-x="425" 
d="M367 56q-32 -30 -65 -46.5t-73 -16.5q-121 0 -121 148v40l-42 -38l-32 59q39 35 73 70v216q0 64 10 108t29 71.5t46 40t60 12.5q57 0 87 -36.5t30 -102.5q0 -83 -45.5 -166t-121.5 -167v-81q0 -51 12.5 -72.5t43.5 -21.5q19 0 37 10t35 26zM202 352q41 57 64.5 112.5
t23.5 112.5q0 74 -40 74q-11 0 -20 -7t-15 -24t-9.5 -46t-3.5 -74v-148z" />
    <glyph glyph-name="trademark" unicode="&#x2122;" horiz-adv-x="784" 
d="M206 350h-77v268h-93v62h264v-62h-94v-268zM730 350h-74l1 248h-3l-88 -248h-57l-90 248h-3l2 -248h-73v330h108l87 -248l84 248h106v-330z" />
    <glyph glyph-name="Omega" unicode="&#x2126;" horiz-adv-x="681" 
d="M620 0h-235v201q58 16 88.5 69t30.5 128q0 86 -42.5 138.5t-121.5 53.5q-39 0 -69.5 -14t-51 -39.5t-31.5 -60.5t-11 -78q0 -75 30 -128t88 -69v-201h-234v98h147v45q-74 27 -116.5 92t-42.5 165q0 63 20 116t57.5 91t91.5 59t122 21q69 0 123 -21t91.5 -59t57.5 -91
t20 -116q0 -100 -43 -165t-117 -92v-45h148v-98z" />
    <glyph glyph-name="estimated" unicode="&#x212e;" horiz-adv-x="730" 
d="M647 164q-28 -43 -57.5 -74.5t-63 -52t-74 -30.5t-89.5 -10q-73 0 -132 27t-101 74t-64.5 109.5t-22.5 134.5t22.5 134.5t64.5 108t101 72t132 26.5t132.5 -25t102 -70t66 -107.5t23.5 -138.5h-503v-226q35 -36 80.5 -54t98.5 -18q78 0 136.5 34.5t104.5 113.5zM546 386
v179q-79 77 -183 77q-53 0 -98.5 -19.5t-80.5 -57.5v-179h362z" />
    <glyph glyph-name="partialdiff" unicode="&#x2202;" horiz-adv-x="537" 
d="M82 655q28 28 70 46.5t96 18.5q59 0 105 -24t77.5 -69t48 -110t16.5 -148q0 -183 -60 -279.5t-183 -96.5q-99 0 -153 57.5t-54 163.5q0 47 13.5 88.5t40 72t64.5 48.5t87 18q50 0 85 -18.5t55 -52.5h2q0 8 -0.5 17.5t-1.5 17.5q-3 51 -14.5 92t-30.5 70.5t-45 45
t-58 15.5q-67 0 -121 -50zM387 277q-43 77 -119 77q-54 0 -84 -37t-30 -103q0 -63 29.5 -96t77.5 -33q59 0 89.5 51t36.5 141z" />
    <glyph glyph-name="Delta" unicode="&#x2206;" horiz-adv-x="654" 
d="M635 0h-616l240 680h137zM476 100l-148 475h-4l-150 -475h302z" />
    <glyph glyph-name="product" unicode="&#x220f;" horiz-adv-x="727" 
d="M626 -214h-120v894h-285v-894h-120v894h-53v106h631v-106h-53v-894z" />
    <glyph glyph-name="summation" unicode="&#x2211;" horiz-adv-x="588" 
d="M540 -214h-494v84l263 448l-252 384v84h471v-107h-315v-2l226 -358l-246 -423v-2h347v-108z" />
    <glyph glyph-name="minus" unicode="&#x2212;" horiz-adv-x="548" 
d="M490 258h-432v91h432v-91z" />
    <glyph glyph-name="uni2215" unicode="&#x2215;" horiz-adv-x="132" 
d="M-31 0h-73l267 680h73z" />
    <glyph glyph-name="uni2219" unicode="&#x2219;" horiz-adv-x="234" 
d="M179 198h-124v137h124v-137z" />
    <glyph glyph-name="radical" unicode="&#x221a;" horiz-adv-x="605" 
d="M369 -215h-118l-138 359l-56 -20l-27 68l144 54l127 -351h2l176 892h98z" />
    <glyph glyph-name="infinity" unicode="&#x221e;" horiz-adv-x="780" 
d="M390 327q41 48 84.5 78.5t101.5 30.5q37 0 67 -12t51 -34t32.5 -52t11.5 -66t-11 -67t-32 -53.5t-51 -35t-67 -12.5q-57 0 -101 28t-86 76q-41 -47 -83.5 -75t-100.5 -28q-37 0 -67.5 12t-52 33.5t-33 52t-11.5 68.5q0 36 11.5 66.5t33 52t51.5 34t66 12.5
q29 0 54.5 -8.5t48 -23t43 -34.5t40.5 -43zM337 268q-33 38 -62.5 60t-62.5 22q-36 0 -55 -24t-19 -57q0 -34 20 -56.5t56 -22.5q32 0 61.5 20.5t61.5 57.5zM444 269q32 -37 60.5 -58t62.5 -21q36 0 55.5 22.5t19.5 56.5q0 35 -19 58.5t-56 23.5q-33 0 -62 -22.5t-61 -59.5z
" />
    <glyph glyph-name="integral" unicode="&#x222b;" horiz-adv-x="442" 
d="M47 -123q16 -3 38 -3q21 0 35.5 7.5t23.5 31t13.5 66.5t4.5 114v353q0 99 9 164.5t30 105.5t55.5 56.5t85.5 16.5q14 0 31 -2t23 -4v-88q-15 3 -38 3q-21 0 -35.5 -7.5t-23.5 -31t-13.5 -66.5t-4.5 -114v-353q0 -99 -9 -164.5t-30 -105.5t-55.5 -56.5t-85.5 -16.5
q-14 0 -30.5 2t-23.5 4v88z" />
    <glyph glyph-name="approxequal" unicode="&#x2248;" horiz-adv-x="548" 
d="M490 451q-5 -69 -34 -104.5t-86 -35.5q-25 0 -49 8t-47 18q-23 11 -47 19t-47 8q-24 0 -35.5 -13.5t-15.5 -39.5h-72q6 70 34.5 105t85.5 35q26 0 51 -8.5t48 -18.5q23 -11 46 -18.5t46 -7.5q24 0 35.5 13.5t14.5 39.5h72zM490 261q-5 -68 -34 -104t-86 -36q-25 0 -49 8
t-47 18q-23 11 -47 19t-47 8q-24 0 -35.5 -13.5t-15.5 -39.5h-72q6 70 34.5 105t85.5 35q26 0 51 -8t48 -19q23 -10 46 -18t46 -8q24 0 35.5 13.5t14.5 39.5h72z" />
    <glyph glyph-name="notequal" unicode="&#x2260;" horiz-adv-x="548" 
d="M490 158h-246l-67 -139l-67 32l51 107h-103v91h147l50 101h-197v91h240l67 136l67 -32l-50 -104h108v-91h-152l-50 -101h202v-91z" />
    <glyph glyph-name="lessequal" unicode="&#x2264;" horiz-adv-x="548" 
d="M490 135l-432 172v91l432 172v-98l-319 -119v-2l319 -118v-98zM490 10h-432v92h432v-92z" />
    <glyph glyph-name="greaterequal" unicode="&#x2265;" horiz-adv-x="548" 
d="M490 307l-432 -172v98l318 118v2l-318 119v98l432 -172v-91zM490 10h-432v92h432v-92z" />
    <glyph glyph-name="lozenge" unicode="&#x25ca;" horiz-adv-x="484" 
d="M244 90l107 256l-109 241h-1l-108 -241l110 -256h1zM281 0h-78l-159 346l159 334h78l159 -334z" />
    <glyph glyph-name="exclam.sc" unicode="&#xe000;" horiz-adv-x="258" 
d="M186 0h-114v115h114v-115zM181 176h-103l-8 352h118z" />
    <glyph glyph-name="dollar.sc" unicode="&#xe001;" horiz-adv-x="546" 
d="M308 -64h-53v58q-66 1 -106 8t-61 24t-27.5 46.5t-6.5 74.5v23h111v-21q0 -22 3 -36t12 -22t27 -11.5t48 -3.5v152q-63 7 -102 17.5t-60 28t-28 43.5t-7 65v14q0 38 9 64.5t31 43t60 24t97 7.5v49h53v-49q61 -1 97.5 -8.5t56 -24t26 -44t6.5 -67.5v-24h-109v19
q0 20 -3 33t-11 20.5t-23.5 10.5t-39.5 4v-142q63 -7 102 -17t61 -26.5t30 -41.5t8 -64v-15q0 -45 -8 -74.5t-30 -47t-61 -25t-102 -8.5v-57zM308 76q30 0 47.5 3.5t27 11t12.5 20.5t3 33v13q0 15 -3 25.5t-12.5 18t-27 12t-47.5 7.5v-144zM169 380q0 -15 2.5 -25t11.5 -17
t26 -11.5t46 -7.5v135q-28 0 -45 -3t-26 -9.5t-12 -18t-3 -29.5v-14z" />
    <glyph glyph-name="percent.sc" unicode="&#xe002;" horiz-adv-x="641" 
d="M154 274q-31 0 -51.5 5.5t-32.5 19t-17 36.5t-5 58v17q0 35 5 58t17 36.5t32.5 19t51.5 5.5h11q30 0 50.5 -5.5t32.5 -19t17 -36.5t5 -58v-17q0 -35 -5 -58t-17 -36.5t-32.5 -19t-50.5 -5.5h-11zM162 329q24 0 31.5 11t7.5 51v22q0 20 -1.5 32.5t-6 19t-12 8.5t-19.5 2
h-6q-23 0 -31 -11t-8 -51v-22q0 -40 8 -51t31 -11h6zM245 0h-68l217 528h68zM476 0q-31 0 -51.5 5.5t-32.5 19t-17 36.5t-5 58v17q0 35 5 58t17 36.5t32.5 19t51.5 5.5h11q30 0 50.5 -5.5t32.5 -19t17 -36.5t5 -58v-17q0 -35 -5 -58t-17 -36.5t-32.5 -19t-50.5 -5.5h-11z
M484 55q24 0 31.5 11t7.5 51v22q0 20 -1.5 32.5t-6 19t-12 8.5t-19.5 2h-6q-23 0 -31 -11t-8 -51v-22q0 -40 8 -51t31 -11h6z" />
    <glyph glyph-name="ampersand.sc" unicode="&#xe003;" horiz-adv-x="613" 
d="M416 286h91v-37q0 -29 -0.5 -60t-1.5 -56l93 -69l-56 -70l-62 45q-9 -11 -20.5 -19.5t-33 -14.5t-57.5 -9t-94 -3h-13q-70 0 -111 6.5t-62.5 24t-28 48.5t-6.5 80v13q0 67 18.5 97.5t63.5 38.5q-26 23 -35 46t-9 60v9q0 34 8 57t29 36.5t57 19.5t92 6h13q61 0 97.5 -5.5
t55.5 -21t24.5 -43.5t5.5 -73v-20h-96v22q0 19 -3 31t-12 18.5t-26 9t-46 2.5h-12q-27 0 -43 -2t-24.5 -7.5t-11.5 -14t-3 -21.5v-8q0 -11 1.5 -20t7 -18t16 -19t28.5 -23l166 -123v87zM158 163q0 -29 3.5 -46.5t14.5 -26.5t32.5 -12t57.5 -3h8q34 0 56 1t35.5 3.5t21 7
t12.5 12.5l-198 148q-25 -3 -34 -18.5t-9 -54.5v-11z" />
    <glyph glyph-name="question.sc" unicode="&#xe004;" horiz-adv-x="461" 
d="M271 0h-114v115h114v-115zM263 170h-101v24q0 25 4 42.5t13.5 29.5t26 20t41.5 14t40 12.5t22.5 15t9.5 20.5t2 30v9q0 20 -3.5 33t-12.5 20.5t-25.5 10.5t-42.5 3h-11q-29 0 -46.5 -3t-27 -12t-13 -25.5t-3.5 -43.5v-21h-98v21q0 52 8 84.5t29 50.5t58 24t94 6h12
q55 0 91 -6t57 -21.5t29 -43.5t8 -72v-14q0 -33 -4.5 -56t-16.5 -39.5t-33 -27.5t-54 -20q-17 -5 -27.5 -9t-16 -9.5t-7.5 -13t-2 -19.5v-14z" />
    <glyph glyph-name="a.sc" unicode="&#xe005;" horiz-adv-x="559" 
d="M550 0h-124l-35 108h-225l-35 -108h-122l192 528h157zM364 192l-83 254h-4l-84 -254h171z" />
    <glyph glyph-name="b.sc" unicode="&#xe006;" horiz-adv-x="558" 
d="M60 0v528h273q49 0 82.5 -6t53 -22t28 -42.5t8.5 -67.5q0 -52 -14 -78t-49 -37v-2q39 -10 58 -38t19 -90q0 -42 -8.5 -69.5t-29 -44.5t-53.5 -24t-81 -7h-287zM324 81q49 0 65 16t16 60q0 45 -16 61t-54 16h-160v-153h149zM332 308q34 0 47 14t13 56q0 21 -3 35t-11 21.5
t-22.5 10.5t-37.5 3h-143v-140h157z" />
    <glyph glyph-name="c.sc" unicode="&#xe007;" horiz-adv-x="567" 
d="M281 -7q-71 0 -116 10t-71.5 37t-36.5 75t-10 124v54q0 73 10 120t36 74t71 37.5t116 10.5h16q67 0 110 -8.5t68 -28t34.5 -51t9.5 -76.5v-25h-115v17q0 23 -4.5 38.5t-16 25.5t-32 14t-52.5 4h-11q-37 0 -60.5 -5.5t-36.5 -21t-18 -44.5t-5 -76v-63q0 -48 4.5 -77.5
t17.5 -45.5t37 -21.5t64 -5.5h11q34 0 54.5 3.5t32 12.5t15.5 25t4 41v20h115v-29q0 -49 -10 -81t-35.5 -50.5t-69 -26t-109.5 -7.5h-17z" />
    <glyph glyph-name="d.sc" unicode="&#xe008;" horiz-adv-x="596" 
d="M549 242q0 -74 -8.5 -121t-34.5 -74t-75 -37t-130 -10h-241v528h241q78 0 126.5 -9.5t75.5 -35.5t36.5 -72.5t9.5 -120.5v-48zM294 90q45 0 71.5 5t41 21t19 44t4.5 75v63q0 45 -4.5 73t-19 43t-41.5 20.5t-71 5.5h-115v-350h115z" />
    <glyph glyph-name="e.sc" unicode="&#xe009;" horiz-adv-x="487" 
d="M454 0h-394v528h388v-86h-270v-130h254v-82h-254v-143h276v-87z" />
    <glyph glyph-name="f.sc" unicode="&#xe00a;" horiz-adv-x="458" 
d="M420 208h-242v-208h-118v528h376v-88h-258v-148h242v-84z" />
    <glyph glyph-name="g.sc" unicode="&#xe00b;" horiz-adv-x="569" 
d="M284 -7q-73 0 -119 10.5t-72.5 38t-36 75t-9.5 122.5v54q0 73 10 120t36.5 74t72.5 37.5t119 10.5h15q65 0 107.5 -8.5t67 -27t34.5 -48.5t10 -72v-18h-115v10q0 20 -4 34t-15 23t-32 13.5t-55 4.5h-11q-37 0 -60.5 -5.5t-37 -21t-18.5 -44.5t-5 -77v-62q0 -49 5 -79
t19 -46.5t38.5 -22t63.5 -5.5h12q33 0 54 3.5t33 12.5t17 25.5t5 43.5v32h-132v79h242v-98q0 -57 -9.5 -93.5t-34 -57.5t-68 -29t-112.5 -8h-15z" />
    <glyph glyph-name="h.sc" unicode="&#xe00c;" horiz-adv-x="592" 
d="M532 0h-120v225h-232v-225h-120v528h120v-208h232v208h120v-528z" />
    <glyph glyph-name="i.sc" unicode="&#xe00d;" horiz-adv-x="240" 
d="M180 0h-120v528h120v-528z" />
    <glyph glyph-name="j.sc" unicode="&#xe00e;" horiz-adv-x="471" 
d="M202 -6q-56 0 -91 7t-54.5 25.5t-26 51t-6.5 83.5v42h108v-28q0 -30 2.5 -47.5t11 -26.5t23 -12t38.5 -3h12q25 0 40 3t23 12t10.5 26t2.5 46v355h120v-349q0 -58 -7.5 -94t-29 -56.5t-59.5 -27.5t-99 -7h-18z" />
    <glyph glyph-name="k.sc" unicode="&#xe00f;" horiz-adv-x="555" 
d="M546 0h-149l-177 228h-43v-228h-117v528h117v-215h45l168 215h138l-209 -253z" />
    <glyph glyph-name="l.sc" unicode="&#xe010;" horiz-adv-x="432" 
d="M417 0h-357v528h120v-437h237v-91z" />
    <glyph glyph-name="m.sc" unicode="&#xe011;" horiz-adv-x="764" 
d="M704 0h-112l3 423h-2l-158 -423h-108l-157 423h-2l3 -423h-111v528h171l152 -422h2l150 422h169v-528z" />
    <glyph glyph-name="n.sc" unicode="&#xe012;" horiz-adv-x="625" 
d="M565 0h-168l-228 430h-2l3 -430h-110v528h169l226 -432h2l-3 432h111v-528z" />
    <glyph glyph-name="o.sc" unicode="&#xe013;" horiz-adv-x="590" 
d="M286 -7q-71 0 -117.5 10.5t-73.5 38t-37.5 74.5t-10.5 120v56q0 73 10.5 120t37.5 74.5t73.5 38t117.5 10.5h18q71 0 117.5 -10.5t73.5 -38t37.5 -74.5t10.5 -120v-56q0 -73 -10.5 -120t-37.5 -74.5t-73.5 -38t-117.5 -10.5h-18zM301 85q37 0 61 6t37.5 23t19 47.5
t5.5 79.5v48q0 49 -5.5 79.5t-19 47.5t-37.5 23t-61 6h-13q-37 0 -61 -6t-37.5 -23t-18.5 -47.5t-5 -79.5v-48q0 -49 5 -79.5t18.5 -47.5t37.5 -23t61 -6h13z" />
    <glyph glyph-name="p.sc" unicode="&#xe014;" horiz-adv-x="540" 
d="M285 252q34 0 54.5 3.5t31 13.5t13.5 27t3 43v17q0 28 -3.5 45t-14 26.5t-31 12.5t-54.5 3h-107v-191h108zM177 0h-117v528h233q64 0 105.5 -6.5t64.5 -25t32 -51.5t9 -85v-24q0 -51 -9.5 -84t-32.5 -52t-63.5 -26t-101.5 -7h-120v-167z" />
    <glyph glyph-name="q.sc" unicode="&#xe015;" horiz-adv-x="594" 
d="M286 -7q-71 0 -117.5 10.5t-73.5 38t-37.5 74.5t-10.5 120v56q0 73 10.5 120t37.5 74.5t73.5 38t117.5 10.5h18q71 0 117 -10.5t73 -38t37.5 -74.5t10.5 -120v-56q0 -47 -4 -82t-14 -62l56 -34l-49 -74l-55 43q-27 -19 -69.5 -26.5t-102.5 -7.5h-18zM301 84q27 0 47 2.5
t34 10.5l-103 73l52 67l90 -72q3 15 4 34t1 42v48q0 49 -5.5 79.5t-19.5 48t-38 23.5t-62 6h-13q-38 0 -61.5 -6t-37.5 -23.5t-19 -48t-5 -79.5v-48q0 -49 5 -79.5t19 -48t37.5 -23.5t61.5 -6h13z" />
    <glyph glyph-name="r.sc" unicode="&#xe016;" horiz-adv-x="554" 
d="M306 266q25 0 41 3.5t25 12.5t12.5 24t3.5 38v18q0 26 -3.5 42t-13.5 24.5t-29 11.5t-49 3h-116v-177h129zM506 0h-117v78q0 36 -3.5 57t-14.5 32t-32 14.5t-56 3.5h-106v-185h-117v528h256q58 0 95 -6.5t58 -23.5t29 -46.5t8 -74.5v-19q0 -57 -15.5 -86t-50.5 -40v-2
q20 -4 32.5 -12.5t20 -24t10.5 -40t3 -60.5v-93z" />
    <glyph glyph-name="s.sc" unicode="&#xe017;" horiz-adv-x="539" 
d="M264 -6q-69 0 -112 6.5t-66.5 24t-31.5 47t-8 74.5v24h114v-20q0 -22 3.5 -35.5t14.5 -21t31 -10.5t53 -3h16q36 0 56.5 3t31.5 11t14 21t3 34v8q0 18 -4 30t-17.5 19.5t-39 12t-68.5 8.5q-65 5 -105 15t-61.5 27t-29 44t-7.5 66v15q0 39 9.5 66t32.5 43.5t61 24t95 7.5
h21q67 0 109 -7t65.5 -23.5t31.5 -44t8 -68.5v-24h-111v18q0 19 -3.5 31t-13.5 19.5t-29 10.5t-49 3h-15q-32 0 -51.5 -2.5t-30.5 -9.5t-14.5 -18t-3.5 -28v-11q0 -17 3.5 -28t17 -18.5t38.5 -12t69 -7.5q65 -5 105 -14.5t62.5 -26.5t30.5 -43.5t8 -65.5v-15q0 -45 -8.5 -75
t-32 -48t-64.5 -25.5t-107 -7.5h-21z" />
    <glyph glyph-name="t.sc" unicode="&#xe018;" horiz-adv-x="468" 
d="M294 0h-120v438h-162v90h444v-90h-162v-438z" />
    <glyph glyph-name="u.sc" unicode="&#xe019;" horiz-adv-x="584" 
d="M285 -6q-71 0 -115.5 8t-69.5 29t-34.5 57t-9.5 93v347h120v-338q0 -33 3.5 -53.5t15.5 -31.5t33.5 -15t57.5 -4h13q36 0 57.5 4t33 15t15 31.5t3.5 53.5v338h120v-347q0 -57 -9 -93t-34 -57t-69.5 -29t-115.5 -8h-15z" />
    <glyph glyph-name="v.sc" unicode="&#xe01a;" horiz-adv-x="541" 
d="M347 0h-152l-186 528h126l136 -425h4l136 425h121z" />
    <glyph glyph-name="w.sc" unicode="&#xe01b;" horiz-adv-x="790" 
d="M639 0h-143l-98 415h-3l-98 -415h-144l-135 528h120l91 -428h2l100 428h132l101 -428h2l90 428h116z" />
    <glyph glyph-name="x.sc" unicode="&#xe01c;" horiz-adv-x="551" 
d="M536 0h-138l-123 215l-124 -215h-136l175 274l-159 254h134l111 -196l113 196h130l-159 -254z" />
    <glyph glyph-name="y.sc" unicode="&#xe01d;" horiz-adv-x="527" 
d="M323 0h-120v179l-195 349h128l128 -254h1l125 254h129l-196 -349v-179z" />
    <glyph glyph-name="z.sc" unicode="&#xe01e;" horiz-adv-x="509" 
d="M471 0h-433v85l286 356v1h-276v86h418v-86l-284 -353v-2h289v-87z" />
    <glyph glyph-name="agrave.sc" unicode="&#xe01f;" horiz-adv-x="559" 
d="M550 0h-124l-35 108h-225l-35 -108h-122l192 528h157zM364 192l-83 254h-4l-84 -254h171zM305 575l-183 102l52 74l161 -136z" />
    <glyph glyph-name="aacute.sc" unicode="&#xe020;" horiz-adv-x="559" 
d="M550 0h-124l-35 108h-225l-35 -108h-122l192 528h157zM364 192l-83 254h-4l-84 -254h171zM248 575l-30 40l161 136l52 -74z" />
    <glyph glyph-name="acircumflex.sc" unicode="&#xe021;" horiz-adv-x="559" 
d="M550 0h-124l-35 108h-225l-35 -108h-122l192 528h157zM364 192l-83 254h-4l-84 -254h171zM385 585l-106 74l-106 -74l-38 41l144 121l144 -121z" />
    <glyph glyph-name="atilde.sc" unicode="&#xe022;" horiz-adv-x="559" 
d="M550 0h-124l-35 108h-225l-35 -108h-122l192 528h157zM364 192l-83 254h-4l-84 -254h171zM416 707q-3 -50 -21.5 -78t-59.5 -28q-19 0 -33.5 6.5t-28.5 15.5q-14 8 -25 13t-23 5q-14 0 -23.5 -8.5t-13.5 -32.5l-46 11q2 48 21.5 76t58.5 28q17 0 31.5 -5.5t29.5 -15.5
q14 -9 26 -14.5t24 -5.5q31 0 35 43z" />
    <glyph glyph-name="adieresis.sc" unicode="&#xe023;" horiz-adv-x="559" 
d="M550 0h-124l-35 108h-225l-35 -108h-122l192 528h157zM364 192l-83 254h-4l-84 -254h171zM234 608h-102v106h102v-106zM426 608h-102v106h102v-106z" />
    <glyph glyph-name="aring.sc" unicode="&#xe024;" horiz-adv-x="559" 
d="M550 0h-124l-35 108h-225l-35 -108h-122l192 528h157zM364 192l-83 254h-4l-84 -254h171zM276 580q-61 0 -84 17.5t-23 62.5q0 51 23 68.5t84 17.5q66 0 89 -18t23 -62q0 -50 -23 -68t-89 -18zM281 618q34 0 46 9t12 33q0 30 -12 38.5t-51 8.5q-34 0 -45.5 -8.5
t-11.5 -38.5q0 -24 11.5 -33t50.5 -9z" />
    <glyph glyph-name="amacron.sc" unicode="&#xe025;" horiz-adv-x="559" 
d="M550 0h-124l-35 108h-225l-35 -108h-122l192 528h157zM364 192l-83 254h-4l-84 -254h171zM406 625h-253v72h253v-72z" />
    <glyph glyph-name="abreve.sc" unicode="&#xe026;" horiz-adv-x="559" 
d="M550 0h-124l-35 108h-225l-35 -108h-122l192 528h157zM364 192l-83 254h-4l-84 -254h171zM425 718q-2 -67 -41 -98.5t-105 -31.5q-67 0 -105.5 31.5t-39.5 98.5h60q5 -35 26.5 -47.5t58.5 -12.5q38 0 59 12t26 48h61z" />
    <glyph glyph-name="aogonek.sc" unicode="&#xe027;" horiz-adv-x="559" 
d="M550 0h-20q-45 -26 -66 -51t-21 -50q0 -20 10.5 -27t32.5 -7q14 0 29 2t28 5v-57q-18 -6 -39.5 -10t-44.5 -4q-46 0 -70 17.5t-24 56.5q0 37 21.5 65.5t66.5 59.5h-27l-35 108h-225l-35 -108h-122l192 528h157zM364 192l-83 254h-4l-84 -254h171z" />
    <glyph glyph-name="ae.sc" unicode="&#xe028;" horiz-adv-x="819" 
d="M786 0h-392v109h-205l-55 -109h-125l272 528h499v-86h-269v-130h253v-82h-253v-143h275v-87zM394 192v251h-42l-124 -251h166z" />
    <glyph glyph-name="cacute.sc" unicode="&#xe029;" horiz-adv-x="567" 
d="M281 -7q-71 0 -116 10t-71.5 37t-36.5 75t-10 124v54q0 73 10 120t36 74t71 37.5t116 10.5h16q67 0 110 -8.5t68 -28t34.5 -51t9.5 -76.5v-25h-115v17q0 23 -4.5 38.5t-16 25.5t-32 14t-52.5 4h-11q-37 0 -60.5 -5.5t-36.5 -21t-18 -44.5t-5 -76v-63q0 -48 4.5 -77.5
t17.5 -45.5t37 -21.5t64 -5.5h11q34 0 54.5 3.5t32 12.5t15.5 25t4 41v20h115v-29q0 -49 -10 -81t-35.5 -50.5t-69 -26t-109.5 -7.5h-17zM232 575l-30 40l161 136l52 -74z" />
    <glyph glyph-name="ccircumflex.sc" unicode="&#xe02a;" horiz-adv-x="567" 
d="M281 -7q-71 0 -116 10t-71.5 37t-36.5 75t-10 124v54q0 73 10 120t36 74t71 37.5t116 10.5h16q67 0 110 -8.5t68 -28t34.5 -51t9.5 -76.5v-25h-115v17q0 23 -4.5 38.5t-16 25.5t-32 14t-52.5 4h-11q-37 0 -60.5 -5.5t-36.5 -21t-18 -44.5t-5 -76v-63q0 -48 4.5 -77.5
t17.5 -45.5t37 -21.5t64 -5.5h11q34 0 54.5 3.5t32 12.5t15.5 25t4 41v20h115v-29q0 -49 -10 -81t-35.5 -50.5t-69 -26t-109.5 -7.5h-17zM392 585l-106 74l-106 -74l-38 41l144 121l144 -121z" />
    <glyph glyph-name="ccaron.sc" unicode="&#xe02b;" horiz-adv-x="567" 
d="M281 -7q-71 0 -116 10t-71.5 37t-36.5 75t-10 124v54q0 73 10 120t36 74t71 37.5t116 10.5h16q67 0 110 -8.5t68 -28t34.5 -51t9.5 -76.5v-25h-115v17q0 23 -4.5 38.5t-16 25.5t-32 14t-52.5 4h-11q-37 0 -60.5 -5.5t-36.5 -21t-18 -44.5t-5 -76v-63q0 -48 4.5 -77.5
t17.5 -45.5t37 -21.5t64 -5.5h11q34 0 54.5 3.5t32 12.5t15.5 25t4 41v20h115v-29q0 -49 -10 -81t-35.5 -50.5t-69 -26t-109.5 -7.5h-17zM286 571l-144 121l38 41l106 -74l106 74l38 -41z" />
    <glyph glyph-name="cdotaccent.sc" unicode="&#xe02c;" horiz-adv-x="567" 
d="M281 -7q-71 0 -116 10t-71.5 37t-36.5 75t-10 124v54q0 73 10 120t36 74t71 37.5t116 10.5h16q67 0 110 -8.5t68 -28t34.5 -51t9.5 -76.5v-25h-115v17q0 23 -4.5 38.5t-16 25.5t-32 14t-52.5 4h-11q-37 0 -60.5 -5.5t-36.5 -21t-18 -44.5t-5 -76v-63q0 -48 4.5 -77.5
t17.5 -45.5t37 -21.5t64 -5.5h11q34 0 54.5 3.5t32 12.5t15.5 25t4 41v20h115v-29q0 -49 -10 -81t-35.5 -50.5t-69 -26t-109.5 -7.5h-17zM344 608h-120v106h120v-106z" />
    <glyph glyph-name="ccedilla.sc" unicode="&#xe02d;" horiz-adv-x="567" 
d="M281 -7q-71 0 -116 10t-71.5 37t-36.5 75t-10 124v54q0 73 10 120t36 74t71 37.5t116 10.5h16q67 0 110 -8.5t68 -28t34.5 -51t9.5 -76.5v-25h-115v17q0 23 -4.5 38.5t-16 25.5t-32 14t-52.5 4h-11q-37 0 -60.5 -5.5t-36.5 -21t-18 -44.5t-5 -76v-63q0 -48 4.5 -77.5
t17.5 -45.5t37 -21.5t64 -5.5h11q34 0 54.5 3.5t32 12.5t15.5 25t4 41v20h115v-29q0 -49 -10 -81t-35.5 -50.5t-69 -26t-109.5 -7.5h-17zM193 -193l-35 38l147 147l61 -67z" />
    <glyph glyph-name="dcaron.sc" unicode="&#xe02e;" horiz-adv-x="596" 
d="M549 242q0 -74 -8.5 -121t-34.5 -74t-75 -37t-130 -10h-241v528h241q78 0 126.5 -9.5t75.5 -35.5t36.5 -72.5t9.5 -120.5v-48zM294 90q45 0 71.5 5t41 21t19 44t4.5 75v63q0 45 -4.5 73t-19 43t-41.5 20.5t-71 5.5h-115v-350h115zM290 571l-144 121l38 41l106 -74l106 74
l38 -41z" />
    <glyph glyph-name="dcroat.sc" unicode="&#xe02f;" horiz-adv-x="596" 
d="M17 303h43v225h241q78 0 126.5 -9.5t75.5 -35.5t36.5 -72.5t9.5 -120.5v-48q0 -74 -8.5 -121t-34.5 -74t-75 -37t-130 -10h-241v235h-43v68zM294 90q45 0 71.5 5t41 21t19 44t4.5 75v63q0 45 -4.5 73t-19 43t-41.5 20.5t-71 5.5h-115v-137h102v-68h-102v-145h115z" />
    <glyph glyph-name="egrave.sc" unicode="&#xe031;" horiz-adv-x="487" 
d="M454 0h-394v528h388v-86h-270v-130h254v-82h-254v-143h276v-87zM316 575l-183 102l52 74l161 -136z" />
    <glyph glyph-name="eacute.sc" unicode="&#xe032;" horiz-adv-x="487" 
d="M454 0h-394v528h388v-86h-270v-130h254v-82h-254v-143h276v-87zM180 575l-30 40l161 136l52 -74z" />
    <glyph glyph-name="ecircumflex.sc" unicode="&#xe033;" horiz-adv-x="487" 
d="M454 0h-394v528h388v-86h-270v-130h254v-82h-254v-143h276v-87zM361 585l-106 74l-106 -74l-38 41l144 121l144 -121z" />
    <glyph glyph-name="ecaron.sc" unicode="&#xe034;" horiz-adv-x="487" 
d="M454 0h-394v528h388v-86h-270v-130h254v-82h-254v-143h276v-87zM252 571l-144 121l38 41l106 -74l106 74l38 -41z" />
    <glyph glyph-name="edieresis.sc" unicode="&#xe035;" horiz-adv-x="487" 
d="M454 0h-394v528h388v-86h-270v-130h254v-82h-254v-143h276v-87zM206 608h-102v106h102v-106zM398 608h-102v106h102v-106z" />
    <glyph glyph-name="edotaccent.sc" unicode="&#xe036;" horiz-adv-x="487" 
d="M454 0h-394v528h388v-86h-270v-130h254v-82h-254v-143h276v-87zM311 608h-120v106h120v-106z" />
    <glyph glyph-name="emacron.sc" unicode="&#xe037;" horiz-adv-x="487" 
d="M454 0h-394v528h388v-86h-270v-130h254v-82h-254v-143h276v-87zM377 625h-253v72h253v-72z" />
    <glyph glyph-name="ebreve.sc" unicode="&#xe038;" horiz-adv-x="487" 
d="M454 0h-394v528h388v-86h-270v-130h254v-82h-254v-143h276v-87zM397 718q-2 -67 -41 -98.5t-105 -31.5q-67 0 -105.5 31.5t-39.5 98.5h60q5 -35 26.5 -47.5t58.5 -12.5q38 0 59 12t26 48h61z" />
    <glyph glyph-name="eogonek.sc" unicode="&#xe039;" horiz-adv-x="487" 
d="M433 -185q-18 -6 -39.5 -10t-44.5 -4q-46 0 -70 17.5t-24 56.5q0 36 22 65.5t62 59.5h-279v528h388v-86h-270v-130h254v-82h-254v-143h276v-87h-39q-82 -49 -82 -101q0 -20 10.5 -27t32.5 -7q14 0 29 2t28 5v-57z" />
    <glyph glyph-name="gcircumflex.sc" unicode="&#xe03a;" horiz-adv-x="569" 
d="M284 -7q-73 0 -119 10.5t-72.5 38t-36 75t-9.5 122.5v54q0 73 10 120t36.5 74t72.5 37.5t119 10.5h15q65 0 107.5 -8.5t67 -27t34.5 -48.5t10 -72v-18h-115v10q0 20 -4 34t-15 23t-32 13.5t-55 4.5h-11q-37 0 -60.5 -5.5t-37 -21t-18.5 -44.5t-5 -77v-62q0 -49 5 -79
t19 -46.5t38.5 -22t63.5 -5.5h12q33 0 54 3.5t33 12.5t17 25.5t5 43.5v32h-132v79h242v-98q0 -57 -9.5 -93.5t-34 -57.5t-68 -29t-112.5 -8h-15zM391 585l-106 74l-106 -74l-38 41l144 121l144 -121z" />
    <glyph glyph-name="gdotaccent.sc" unicode="&#xe03b;" horiz-adv-x="569" 
d="M284 -7q-73 0 -119 10.5t-72.5 38t-36 75t-9.5 122.5v54q0 73 10 120t36.5 74t72.5 37.5t119 10.5h15q65 0 107.5 -8.5t67 -27t34.5 -48.5t10 -72v-18h-115v10q0 20 -4 34t-15 23t-32 13.5t-55 4.5h-11q-37 0 -60.5 -5.5t-37 -21t-18.5 -44.5t-5 -77v-62q0 -49 5 -79
t19 -46.5t38.5 -22t63.5 -5.5h12q33 0 54 3.5t33 12.5t17 25.5t5 43.5v32h-132v79h242v-98q0 -57 -9.5 -93.5t-34 -57.5t-68 -29t-112.5 -8h-15zM345 608h-120v106h120v-106z" />
    <glyph glyph-name="gbreve.sc" unicode="&#xe03c;" horiz-adv-x="569" 
d="M284 -7q-73 0 -119 10.5t-72.5 38t-36 75t-9.5 122.5v54q0 73 10 120t36.5 74t72.5 37.5t119 10.5h15q65 0 107.5 -8.5t67 -27t34.5 -48.5t10 -72v-18h-115v10q0 20 -4 34t-15 23t-32 13.5t-55 4.5h-11q-37 0 -60.5 -5.5t-37 -21t-18.5 -44.5t-5 -77v-62q0 -49 5 -79
t19 -46.5t38.5 -22t63.5 -5.5h12q33 0 54 3.5t33 12.5t17 25.5t5 43.5v32h-132v79h242v-98q0 -57 -9.5 -93.5t-34 -57.5t-68 -29t-112.5 -8h-15zM431 718q-2 -67 -41 -98.5t-105 -31.5q-67 0 -105.5 31.5t-39.5 98.5h60q5 -35 26.5 -47.5t58.5 -12.5q38 0 59 12t26 48h61z
" />
    <glyph glyph-name="gcommaaccent.sc" unicode="&#xe03d;" horiz-adv-x="569" 
d="M284 -7q-73 0 -119 10.5t-72.5 38t-36 75t-9.5 122.5v54q0 73 10 120t36.5 74t72.5 37.5t119 10.5h15q65 0 107.5 -8.5t67 -27t34.5 -48.5t10 -72v-18h-115v10q0 20 -4 34t-15 23t-32 13.5t-55 4.5h-11q-37 0 -60.5 -5.5t-37 -21t-18.5 -44.5t-5 -77v-62q0 -49 5 -79
t19 -46.5t38.5 -22t63.5 -5.5h12q33 0 54 3.5t33 12.5t17 25.5t5 43.5v32h-132v79h242v-98q0 -57 -9.5 -93.5t-34 -57.5t-68 -29t-112.5 -8h-15zM343 -136q0 -29 -5 -48.5t-17.5 -32t-34.5 -18t-56 -6.5v44q28 2 37.5 12t9.5 40v7h-32v89h98v-87z" />
    <glyph glyph-name="hcircumflex.sc" unicode="&#xe03e;" horiz-adv-x="592" 
d="M532 0h-120v225h-232v-225h-120v528h120v-208h232v208h120v-528zM402 585l-106 74l-106 -74l-38 41l144 121l144 -121z" />
    <glyph glyph-name="hbar.sc" unicode="&#xe03f;" horiz-adv-x="592" 
d="M24 453h36v75h120v-75h232v75h120v-75h35v-63h-35v-390h-120v225h-232v-225h-120v390h-36v63zM412 320v70h-232v-70h232z" />
    <glyph glyph-name="igrave.sc" unicode="&#xe040;" horiz-adv-x="240" 
d="M180 0h-120v528h120v-528zM145 575l-183 102l52 74l161 -136z" />
    <glyph glyph-name="iacute.sc" unicode="&#xe041;" horiz-adv-x="240" 
d="M180 0h-120v528h120v-528zM99 575l-30 40l161 136l52 -74z" />
    <glyph glyph-name="icircumflex.sc" unicode="&#xe042;" horiz-adv-x="240" 
d="M180 0h-120v528h120v-528zM227 585l-106 74l-106 -74l-38 41l144 121l144 -121z" />
    <glyph glyph-name="itilde.sc" unicode="&#xe043;" horiz-adv-x="240" 
d="M180 0h-120v528h120v-528zM257 707q-3 -50 -21.5 -78t-59.5 -28q-19 0 -33.5 6.5t-28.5 15.5q-14 8 -25 13t-23 5q-14 0 -23.5 -8.5t-13.5 -32.5l-46 11q2 48 21.5 76t58.5 28q17 0 31.5 -5.5t29.5 -15.5q14 -9 26 -14.5t24 -5.5q31 0 35 43z" />
    <glyph glyph-name="idieresis.sc" unicode="&#xe044;" horiz-adv-x="240" 
d="M180 0h-120v528h120v-528zM76 608h-102v106h102v-106zM268 608h-102v106h102v-106z" />
    <glyph glyph-name="imacron.sc" unicode="&#xe045;" horiz-adv-x="240" 
d="M180 0h-120v528h120v-528zM248 625h-253v72h253v-72z" />
    <glyph glyph-name="idotaccent.sc" unicode="&#xe046;" horiz-adv-x="240" 
d="M180 0h-120v528h120v-528zM181 608h-120v106h120v-106z" />
    <glyph glyph-name="iogonek.sc" unicode="&#xe047;" horiz-adv-x="240" 
d="M191 -186q-18 -6 -38 -9.5t-43 -3.5q-44 0 -69 16t-25 58q0 35 20 64.5t56 60.5h-32v528h120v-528h-25q-35 -33 -48 -57.5t-13 -43.5q0 -20 10.5 -27t32.5 -7q14 0 27.5 2t26.5 4v-57z" />
    <glyph glyph-name="jcircumflex.sc" unicode="&#xe048;" horiz-adv-x="471" 
d="M202 -6q-56 0 -91 7t-54.5 25.5t-26 51t-6.5 83.5v42h108v-28q0 -30 2.5 -47.5t11 -26.5t23 -12t38.5 -3h12q25 0 40 3t23 12t10.5 26t2.5 46v355h120v-349q0 -58 -7.5 -94t-29 -56.5t-59.5 -27.5t-99 -7h-18zM459 585l-106 74l-106 -74l-38 41l144 121l144 -121z" />
    <glyph glyph-name="kcommaaccent.sc" unicode="&#xe049;" horiz-adv-x="555" 
d="M546 0h-149l-177 228h-43v-228h-117v528h117v-215h45l168 215h138l-209 -253zM326 -136q0 -29 -5 -48.5t-17.5 -32t-34.5 -18t-56 -6.5v44q28 2 37.5 12t9.5 40v7h-32v89h98v-87z" />
    <glyph glyph-name="lacute.sc" unicode="&#xe04a;" horiz-adv-x="432" 
d="M417 0h-357v528h120v-437h237v-91zM135 575l-30 40l161 136l52 -74z" />
    <glyph glyph-name="lcaron.sc" unicode="&#xe04b;" horiz-adv-x="432" 
d="M417 0h-357v528h120v-437h237v-91zM333 448q0 -61 -22 -90t-78 -31v49q20 4 27.5 15.5t7.5 40.5v8h-33v89h98v-81z" />
    <glyph glyph-name="lcommaaccent.sc" unicode="&#xe04c;" horiz-adv-x="432" 
d="M417 0h-357v528h120v-437h237v-91zM280 -136q0 -29 -5 -48.5t-17.5 -32t-34.5 -18t-56 -6.5v44q28 2 37.5 12t9.5 40v7h-32v89h98v-87z" />
    <glyph glyph-name="ldot.sc" unicode="&#xe04d;" horiz-adv-x="432" 
d="M417 0h-357v528h120v-437h237v-91zM404 242h-124v137h124v-137z" />
    <glyph glyph-name="lslash.sc" unicode="&#xe04e;" horiz-adv-x="432" 
d="M417 0h-357v208l-46 -21v73l46 22v246h120v-201l115 53v-72l-115 -54v-163h237v-91z" />
    <glyph glyph-name="nacute.sc" unicode="&#xe04f;" horiz-adv-x="625" 
d="M565 0h-168l-228 430h-2l3 -430h-110v528h169l226 -432h2l-3 432h111v-528zM236 575l-30 40l161 136l52 -74z" />
    <glyph glyph-name="ncaron.sc" unicode="&#xe050;" horiz-adv-x="625" 
d="M565 0h-168l-228 430h-2l3 -430h-110v528h169l226 -432h2l-3 432h111v-528zM314 571l-144 121l38 41l106 -74l106 74l38 -41z" />
    <glyph glyph-name="ntilde.sc" unicode="&#xe051;" horiz-adv-x="625" 
d="M565 0h-168l-228 430h-2l3 -430h-110v528h169l226 -432h2l-3 432h111v-528zM450 707q-3 -50 -21.5 -78t-59.5 -28q-19 0 -33.5 6.5t-28.5 15.5q-14 8 -25 13t-23 5q-14 0 -23.5 -8.5t-13.5 -32.5l-46 11q2 48 21.5 76t58.5 28q17 0 31.5 -5.5t29.5 -15.5q14 -9 26 -14.5
t24 -5.5q31 0 35 43z" />
    <glyph glyph-name="ncommaaccent.sc" unicode="&#xe052;" horiz-adv-x="625" 
d="M565 0h-168l-228 430h-2l3 -430h-110v528h169l226 -432h2l-3 432h111v-528zM368 -136q0 -29 -5 -48.5t-17.5 -32t-34.5 -18t-56 -6.5v44q28 2 37.5 12t9.5 40v7h-32v89h98v-87z" />
    <glyph glyph-name="ograve.sc" unicode="&#xe054;" horiz-adv-x="590" 
d="M286 -7q-71 0 -117.5 10.5t-73.5 38t-37.5 74.5t-10.5 120v56q0 73 10.5 120t37.5 74.5t73.5 38t117.5 10.5h18q71 0 117.5 -10.5t73.5 -38t37.5 -74.5t10.5 -120v-56q0 -73 -10.5 -120t-37.5 -74.5t-73.5 -38t-117.5 -10.5h-18zM301 85q37 0 61 6t37.5 23t19 47.5
t5.5 79.5v48q0 49 -5.5 79.5t-19 47.5t-37.5 23t-61 6h-13q-37 0 -61 -6t-37.5 -23t-18.5 -47.5t-5 -79.5v-48q0 -49 5 -79.5t18.5 -47.5t37.5 -23t61 -6h13zM368 575l-183 102l52 74l161 -136z" />
    <glyph glyph-name="oacute.sc" unicode="&#xe055;" horiz-adv-x="590" 
d="M286 -7q-71 0 -117.5 10.5t-73.5 38t-37.5 74.5t-10.5 120v56q0 73 10.5 120t37.5 74.5t73.5 38t117.5 10.5h18q71 0 117.5 -10.5t73.5 -38t37.5 -74.5t10.5 -120v-56q0 -73 -10.5 -120t-37.5 -74.5t-73.5 -38t-117.5 -10.5h-18zM301 85q37 0 61 6t37.5 23t19 47.5
t5.5 79.5v48q0 49 -5.5 79.5t-19 47.5t-37.5 23t-61 6h-13q-37 0 -61 -6t-37.5 -23t-18.5 -47.5t-5 -79.5v-48q0 -49 5 -79.5t18.5 -47.5t37.5 -23t61 -6h13zM222 575l-30 40l161 136l52 -74z" />
    <glyph glyph-name="ocircumflex.sc" unicode="&#xe056;" horiz-adv-x="590" 
d="M286 -7q-71 0 -117.5 10.5t-73.5 38t-37.5 74.5t-10.5 120v56q0 73 10.5 120t37.5 74.5t73.5 38t117.5 10.5h18q71 0 117.5 -10.5t73.5 -38t37.5 -74.5t10.5 -120v-56q0 -73 -10.5 -120t-37.5 -74.5t-73.5 -38t-117.5 -10.5h-18zM301 85q37 0 61 6t37.5 23t19 47.5
t5.5 79.5v48q0 49 -5.5 79.5t-19 47.5t-37.5 23t-61 6h-13q-37 0 -61 -6t-37.5 -23t-18.5 -47.5t-5 -79.5v-48q0 -49 5 -79.5t18.5 -47.5t37.5 -23t61 -6h13zM401 585l-106 74l-106 -74l-38 41l144 121l144 -121z" />
    <glyph glyph-name="otilde.sc" unicode="&#xe057;" horiz-adv-x="590" 
d="M286 -7q-71 0 -117.5 10.5t-73.5 38t-37.5 74.5t-10.5 120v56q0 73 10.5 120t37.5 74.5t73.5 38t117.5 10.5h18q71 0 117.5 -10.5t73.5 -38t37.5 -74.5t10.5 -120v-56q0 -73 -10.5 -120t-37.5 -74.5t-73.5 -38t-117.5 -10.5h-18zM301 85q37 0 61 6t37.5 23t19 47.5
t5.5 79.5v48q0 49 -5.5 79.5t-19 47.5t-37.5 23t-61 6h-13q-37 0 -61 -6t-37.5 -23t-18.5 -47.5t-5 -79.5v-48q0 -49 5 -79.5t18.5 -47.5t37.5 -23t61 -6h13zM432 707q-3 -50 -21.5 -78t-59.5 -28q-19 0 -33.5 6.5t-28.5 15.5q-14 8 -25 13t-23 5q-14 0 -23.5 -8.5
t-13.5 -32.5l-46 11q2 48 21.5 76t58.5 28q17 0 31.5 -5.5t29.5 -15.5q14 -9 26 -14.5t24 -5.5q31 0 35 43z" />
    <glyph glyph-name="odieresis.sc" unicode="&#xe058;" horiz-adv-x="590" 
d="M286 -7q-71 0 -117.5 10.5t-73.5 38t-37.5 74.5t-10.5 120v56q0 73 10.5 120t37.5 74.5t73.5 38t117.5 10.5h18q71 0 117.5 -10.5t73.5 -38t37.5 -74.5t10.5 -120v-56q0 -73 -10.5 -120t-37.5 -74.5t-73.5 -38t-117.5 -10.5h-18zM301 85q37 0 61 6t37.5 23t19 47.5
t5.5 79.5v48q0 49 -5.5 79.5t-19 47.5t-37.5 23t-61 6h-13q-37 0 -61 -6t-37.5 -23t-18.5 -47.5t-5 -79.5v-48q0 -49 5 -79.5t18.5 -47.5t37.5 -23t61 -6h13zM250 608h-102v106h102v-106zM442 608h-102v106h102v-106z" />
    <glyph glyph-name="omacron.sc" unicode="&#xe059;" horiz-adv-x="590" 
d="M286 -7q-71 0 -117.5 10.5t-73.5 38t-37.5 74.5t-10.5 120v56q0 73 10.5 120t37.5 74.5t73.5 38t117.5 10.5h18q71 0 117.5 -10.5t73.5 -38t37.5 -74.5t10.5 -120v-56q0 -73 -10.5 -120t-37.5 -74.5t-73.5 -38t-117.5 -10.5h-18zM301 85q37 0 61 6t37.5 23t19 47.5
t5.5 79.5v48q0 49 -5.5 79.5t-19 47.5t-37.5 23t-61 6h-13q-37 0 -61 -6t-37.5 -23t-18.5 -47.5t-5 -79.5v-48q0 -49 5 -79.5t18.5 -47.5t37.5 -23t61 -6h13zM422 625h-253v72h253v-72z" />
    <glyph glyph-name="obreve.sc" unicode="&#xe05a;" horiz-adv-x="590" 
d="M286 -7q-71 0 -117.5 10.5t-73.5 38t-37.5 74.5t-10.5 120v56q0 73 10.5 120t37.5 74.5t73.5 38t117.5 10.5h18q71 0 117.5 -10.5t73.5 -38t37.5 -74.5t10.5 -120v-56q0 -73 -10.5 -120t-37.5 -74.5t-73.5 -38t-117.5 -10.5h-18zM301 85q37 0 61 6t37.5 23t19 47.5
t5.5 79.5v48q0 49 -5.5 79.5t-19 47.5t-37.5 23t-61 6h-13q-37 0 -61 -6t-37.5 -23t-18.5 -47.5t-5 -79.5v-48q0 -49 5 -79.5t18.5 -47.5t37.5 -23t61 -6h13zM441 718q-2 -67 -41 -98.5t-105 -31.5q-67 0 -105.5 31.5t-39.5 98.5h60q5 -35 26.5 -47.5t58.5 -12.5q38 0 59 12
t26 48h61z" />
    <glyph glyph-name="ohungarumlaut.sc" unicode="&#xe05b;" horiz-adv-x="590" 
d="M286 -7q-71 0 -117.5 10.5t-73.5 38t-37.5 74.5t-10.5 120v56q0 73 10.5 120t37.5 74.5t73.5 38t117.5 10.5h18q71 0 117.5 -10.5t73.5 -38t37.5 -74.5t10.5 -120v-56q0 -73 -10.5 -120t-37.5 -74.5t-73.5 -38t-117.5 -10.5h-18zM301 85q37 0 61 6t37.5 23t19 47.5
t5.5 79.5v48q0 49 -5.5 79.5t-19 47.5t-37.5 23t-61 6h-13q-37 0 -61 -6t-37.5 -23t-18.5 -47.5t-5 -79.5v-48q0 -49 5 -79.5t18.5 -47.5t37.5 -23t61 -6h13zM208 579l-33 38l126 135l52 -54zM368 578l-33 38l129 135l52 -53z" />
    <glyph glyph-name="oslash.sc" unicode="&#xe05c;" horiz-adv-x="588" 
d="M512 547l38 -37l-40 -46q17 -28 24 -70t7 -102v-56q0 -73 -10.5 -120t-37.5 -74.5t-73 -38t-117 -10.5h-18q-57 0 -98 6.5t-68 23.5l-46 -51l-40 36l47 52q-18 28 -25.5 70.5t-7.5 105.5v56q0 73 10.5 120t37.5 74.5t73 38t117 10.5h18q60 0 101 -7.5t69 -24.5zM287 447
q-38 0 -62 -6t-38 -23.5t-19 -48.5t-5 -80v-48q0 -51 6 -82l230 261q-14 16 -37.5 21.5t-61.5 5.5h-13zM300 83q38 0 62 6t38 23.5t19.5 48t5.5 80.5v48q0 23 -1 41.5t-3 33.5l-228 -258q14 -14 37 -18.5t57 -4.5h13z" />
    <glyph glyph-name="oe.sc" unicode="&#xe05d;" horiz-adv-x="845" 
d="M812 0h-390v44h-1q-19 -29 -50 -40t-88 -11h-15q-64 0 -106.5 11t-68 39t-36 75t-10.5 118v56q0 72 11 119t36 74.5t66.5 38.5t101.5 11h15q60 0 94 -11.5t50 -38.5h1v43h384v-86h-270v-130h254v-82h-254v-143h276v-87zM299 85q37 0 61 6t37.5 23t19 47.5t5.5 79.5v48
q0 49 -5.5 79.5t-19 47.5t-37.5 23t-61 6h-10q-37 0 -61 -6t-37.5 -23t-18.5 -47.5t-5 -79.5v-48q0 -49 5 -79.5t18.5 -47.5t37.5 -23t61 -6h10z" />
    <glyph glyph-name="racute.sc" unicode="&#xe05e;" horiz-adv-x="554" 
d="M306 266q25 0 41 3.5t25 12.5t12.5 24t3.5 38v18q0 26 -3.5 42t-13.5 24.5t-29 11.5t-49 3h-116v-177h129zM506 0h-117v78q0 36 -3.5 57t-14.5 32t-32 14.5t-56 3.5h-106v-185h-117v528h256q58 0 95 -6.5t58 -23.5t29 -46.5t8 -74.5v-19q0 -57 -15.5 -86t-50.5 -40v-2
q20 -4 32.5 -12.5t20 -24t10.5 -40t3 -60.5v-93zM215 575l-30 40l161 136l52 -74z" />
    <glyph glyph-name="rcommaaccent.sc" unicode="&#xe05f;" horiz-adv-x="554" 
d="M306 266q25 0 41 3.5t25 12.5t12.5 24t3.5 38v18q0 26 -3.5 42t-13.5 24.5t-29 11.5t-49 3h-116v-177h129zM506 0h-117v78q0 36 -3.5 57t-14.5 32t-32 14.5t-56 3.5h-106v-185h-117v528h256q58 0 95 -6.5t58 -23.5t29 -46.5t8 -74.5v-19q0 -57 -15.5 -86t-50.5 -40v-2
q20 -4 32.5 -12.5t20 -24t10.5 -40t3 -60.5v-93zM336 -136q0 -29 -5 -48.5t-17.5 -32t-34.5 -18t-56 -6.5v44q28 2 37.5 12t9.5 40v7h-32v89h98v-87z" />
    <glyph glyph-name="rcaron.sc" unicode="&#xe060;" horiz-adv-x="554" 
d="M306 266q25 0 41 3.5t25 12.5t12.5 24t3.5 38v18q0 26 -3.5 42t-13.5 24.5t-29 11.5t-49 3h-116v-177h129zM506 0h-117v78q0 36 -3.5 57t-14.5 32t-32 14.5t-56 3.5h-106v-185h-117v528h256q58 0 95 -6.5t58 -23.5t29 -46.5t8 -74.5v-19q0 -57 -15.5 -86t-50.5 -40v-2
q20 -4 32.5 -12.5t20 -24t10.5 -40t3 -60.5v-93zM278 571l-144 121l38 41l106 -74l106 74l38 -41z" />
    <glyph glyph-name="sacute.sc" unicode="&#xe061;" horiz-adv-x="539" 
d="M264 -6q-69 0 -112 6.5t-66.5 24t-31.5 47t-8 74.5v24h114v-20q0 -22 3.5 -35.5t14.5 -21t31 -10.5t53 -3h16q36 0 56.5 3t31.5 11t14 21t3 34v8q0 18 -4 30t-17.5 19.5t-39 12t-68.5 8.5q-65 5 -105 15t-61.5 27t-29 44t-7.5 66v15q0 39 9.5 66t32.5 43.5t61 24t95 7.5
h21q67 0 109 -7t65.5 -23.5t31.5 -44t8 -68.5v-24h-111v18q0 19 -3.5 31t-13.5 19.5t-29 10.5t-49 3h-15q-32 0 -51.5 -2.5t-30.5 -9.5t-14.5 -18t-3.5 -28v-11q0 -17 3.5 -28t17 -18.5t38.5 -12t69 -7.5q65 -5 105 -14.5t62.5 -26.5t30.5 -43.5t8 -65.5v-15q0 -45 -8.5 -75
t-32 -48t-64.5 -25.5t-107 -7.5h-21zM202 575l-30 40l161 136l52 -74z" />
    <glyph glyph-name="scircumflex.sc" unicode="&#xe062;" horiz-adv-x="539" 
d="M264 -6q-69 0 -112 6.5t-66.5 24t-31.5 47t-8 74.5v24h114v-20q0 -22 3.5 -35.5t14.5 -21t31 -10.5t53 -3h16q36 0 56.5 3t31.5 11t14 21t3 34v8q0 18 -4 30t-17.5 19.5t-39 12t-68.5 8.5q-65 5 -105 15t-61.5 27t-29 44t-7.5 66v15q0 39 9.5 66t32.5 43.5t61 24t95 7.5
h21q67 0 109 -7t65.5 -23.5t31.5 -44t8 -68.5v-24h-111v18q0 19 -3.5 31t-13.5 19.5t-29 10.5t-49 3h-15q-32 0 -51.5 -2.5t-30.5 -9.5t-14.5 -18t-3.5 -28v-11q0 -17 3.5 -28t17 -18.5t38.5 -12t69 -7.5q65 -5 105 -14.5t62.5 -26.5t30.5 -43.5t8 -65.5v-15q0 -45 -8.5 -75
t-32 -48t-64.5 -25.5t-107 -7.5h-21zM377 585l-106 74l-106 -74l-38 41l144 121l144 -121z" />
    <glyph glyph-name="scaron.sc" unicode="&#xe063;" horiz-adv-x="539" 
d="M264 -6q-69 0 -112 6.5t-66.5 24t-31.5 47t-8 74.5v24h114v-20q0 -22 3.5 -35.5t14.5 -21t31 -10.5t53 -3h16q36 0 56.5 3t31.5 11t14 21t3 34v8q0 18 -4 30t-17.5 19.5t-39 12t-68.5 8.5q-65 5 -105 15t-61.5 27t-29 44t-7.5 66v15q0 39 9.5 66t32.5 43.5t61 24t95 7.5
h21q67 0 109 -7t65.5 -23.5t31.5 -44t8 -68.5v-24h-111v18q0 19 -3.5 31t-13.5 19.5t-29 10.5t-49 3h-15q-32 0 -51.5 -2.5t-30.5 -9.5t-14.5 -18t-3.5 -28v-11q0 -17 3.5 -28t17 -18.5t38.5 -12t69 -7.5q65 -5 105 -14.5t62.5 -26.5t30.5 -43.5t8 -65.5v-15q0 -45 -8.5 -75
t-32 -48t-64.5 -25.5t-107 -7.5h-21zM270 571l-144 121l38 41l106 -74l106 74l38 -41z" />
    <glyph glyph-name="scedilla.sc" unicode="&#xe064;" horiz-adv-x="539" 
d="M264 -6q-69 0 -112 6.5t-66.5 24t-31.5 47t-8 74.5v24h114v-20q0 -22 3.5 -35.5t14.5 -21t31 -10.5t53 -3h16q36 0 56.5 3t31.5 11t14 21t3 34v8q0 18 -4 30t-17.5 19.5t-39 12t-68.5 8.5q-65 5 -105 15t-61.5 27t-29 44t-7.5 66v15q0 39 9.5 66t32.5 43.5t61 24t95 7.5
h21q67 0 109 -7t65.5 -23.5t31.5 -44t8 -68.5v-24h-111v18q0 19 -3.5 31t-13.5 19.5t-29 10.5t-49 3h-15q-32 0 -51.5 -2.5t-30.5 -9.5t-14.5 -18t-3.5 -28v-11q0 -17 3.5 -28t17 -18.5t38.5 -12t69 -7.5q65 -5 105 -14.5t62.5 -26.5t30.5 -43.5t8 -65.5v-15q0 -45 -8.5 -75
t-32 -48t-64.5 -25.5t-107 -7.5h-21zM178 -193l-35 38l147 147l61 -67z" />
    <glyph glyph-name="scommaaccent.sc" unicode="&#xe065;" horiz-adv-x="539" 
d="M264 -6q-69 0 -112 6.5t-66.5 24t-31.5 47t-8 74.5v24h114v-20q0 -22 3.5 -35.5t14.5 -21t31 -10.5t53 -3h16q36 0 56.5 3t31.5 11t14 21t3 34v8q0 18 -4 30t-17.5 19.5t-39 12t-68.5 8.5q-65 5 -105 15t-61.5 27t-29 44t-7.5 66v15q0 39 9.5 66t32.5 43.5t61 24t95 7.5
h21q67 0 109 -7t65.5 -23.5t31.5 -44t8 -68.5v-24h-111v18q0 19 -3.5 31t-13.5 19.5t-29 10.5t-49 3h-15q-32 0 -51.5 -2.5t-30.5 -9.5t-14.5 -18t-3.5 -28v-11q0 -17 3.5 -28t17 -18.5t38.5 -12t69 -7.5q65 -5 105 -14.5t62.5 -26.5t30.5 -43.5t8 -65.5v-15q0 -45 -8.5 -75
t-32 -48t-64.5 -25.5t-107 -7.5h-21zM332 -136q0 -29 -5 -48.5t-17.5 -32t-34.5 -18t-56 -6.5v44q28 2 37.5 12t9.5 40v7h-32v89h98v-87z" />
    <glyph glyph-name="germandbls.sc" unicode="&#xe066;" horiz-adv-x="1078" 
d="M264 -6q-69 0 -112 6.5t-66.5 24t-31.5 47t-8 74.5v24h114v-20q0 -22 3.5 -35.5t14.5 -21t31 -10.5t53 -3h16q36 0 56.5 3t31.5 11t14 21t3 34v8q0 18 -4 30t-17.5 19.5t-39 12t-68.5 8.5q-65 5 -105 15t-61.5 27t-29 44t-7.5 66v15q0 39 9.5 66t32.5 43.5t61 24t95 7.5
h21q67 0 109 -7t65.5 -23.5t31.5 -44t8 -68.5v-24h-111v18q0 19 -3.5 31t-13.5 19.5t-29 10.5t-49 3h-15q-32 0 -51.5 -2.5t-30.5 -9.5t-14.5 -18t-3.5 -28v-11q0 -17 3.5 -28t17 -18.5t38.5 -12t69 -7.5q65 -5 105 -14.5t62.5 -26.5t30.5 -43.5t8 -65.5v-15q0 -45 -8.5 -75
t-32 -48t-64.5 -25.5t-107 -7.5h-21zM803 -6q-69 0 -112 6.5t-66.5 24t-31.5 47t-8 74.5v24h114v-20q0 -22 3.5 -35.5t14.5 -21t31 -10.5t53 -3h16q36 0 56.5 3t31.5 11t14 21t3 34v8q0 18 -4 30t-17.5 19.5t-39 12t-68.5 8.5q-65 5 -105 15t-61.5 27t-29 44t-7.5 66v15
q0 39 9.5 66t32.5 43.5t61 24t95 7.5h21q67 0 109 -7t65.5 -23.5t31.5 -44t8 -68.5v-24h-111v18q0 19 -3.5 31t-13.5 19.5t-29 10.5t-49 3h-15q-32 0 -51.5 -2.5t-30.5 -9.5t-14.5 -18t-3.5 -28v-11q0 -17 3.5 -28t17 -18.5t38.5 -12t69 -7.5q65 -5 105 -14.5t62.5 -26.5
t30.5 -43.5t8 -65.5v-15q0 -45 -8.5 -75t-32 -48t-64.5 -25.5t-107 -7.5h-21z" />
    <glyph glyph-name="tcaron.sc" unicode="&#xe067;" horiz-adv-x="468" 
d="M294 0h-120v438h-162v90h444v-90h-162v-438zM234 571l-144 121l38 41l106 -74l106 74l38 -41z" />
    <glyph glyph-name="tcommaaccent.sc" unicode="&#xe068;" horiz-adv-x="468" 
d="M294 0h-120v438h-162v90h444v-90h-162v-438zM283 -136q0 -29 -5 -48.5t-17.5 -32t-34.5 -18t-56 -6.5v44q28 2 37.5 12t9.5 40v7h-32v89h98v-87z" />
    <glyph glyph-name="tbar.sc" unicode="&#xe069;" horiz-adv-x="468" 
d="M294 0h-120v285h-120v65h120v88h-162v90h444v-90h-162v-88h121v-65h-121v-285z" />
    <glyph glyph-name="thorn.sc" unicode="&#xe06a;" horiz-adv-x="541" 
d="M177 0h-117v528h117v-77h116q64 0 105.5 -6.5t64.5 -25t32 -51.5t9 -85v-24q0 -51 -9.5 -84t-32.5 -52t-63.5 -26t-101.5 -7h-120v-90zM285 175q34 0 54.5 3.5t31 13.5t13.5 27t3 43v17q0 28 -3.5 45t-14 26.5t-31 12.5t-54.5 3h-107v-191h108z" />
    <glyph glyph-name="ugrave.sc" unicode="&#xe06b;" horiz-adv-x="584" 
d="M285 -6q-71 0 -115.5 8t-69.5 29t-34.5 57t-9.5 93v347h120v-338q0 -33 3.5 -53.5t15.5 -31.5t33.5 -15t57.5 -4h13q36 0 57.5 4t33 15t15 31.5t3.5 53.5v338h120v-347q0 -57 -9 -93t-34 -57t-69.5 -29t-115.5 -8h-15zM367 575l-183 102l52 74l161 -136z" />
    <glyph glyph-name="uacute.sc" unicode="&#xe06c;" horiz-adv-x="584" 
d="M285 -6q-71 0 -115.5 8t-69.5 29t-34.5 57t-9.5 93v347h120v-338q0 -33 3.5 -53.5t15.5 -31.5t33.5 -15t57.5 -4h13q36 0 57.5 4t33 15t15 31.5t3.5 53.5v338h120v-347q0 -57 -9 -93t-34 -57t-69.5 -29t-115.5 -8h-15zM224 575l-30 40l161 136l52 -74z" />
    <glyph glyph-name="ucircumflex.sc" unicode="&#xe06d;" horiz-adv-x="584" 
d="M285 -6q-71 0 -115.5 8t-69.5 29t-34.5 57t-9.5 93v347h120v-338q0 -33 3.5 -53.5t15.5 -31.5t33.5 -15t57.5 -4h13q36 0 57.5 4t33 15t15 31.5t3.5 53.5v338h120v-347q0 -57 -9 -93t-34 -57t-69.5 -29t-115.5 -8h-15zM398 585l-106 74l-106 -74l-38 41l144 121l144 -121
z" />
    <glyph glyph-name="utilde.sc" unicode="&#xe06e;" horiz-adv-x="584" 
d="M285 -6q-71 0 -115.5 8t-69.5 29t-34.5 57t-9.5 93v347h120v-338q0 -33 3.5 -53.5t15.5 -31.5t33.5 -15t57.5 -4h13q36 0 57.5 4t33 15t15 31.5t3.5 53.5v338h120v-347q0 -57 -9 -93t-34 -57t-69.5 -29t-115.5 -8h-15zM429 707q-3 -50 -21.5 -78t-59.5 -28
q-19 0 -33.5 6.5t-28.5 15.5q-14 8 -25 13t-23 5q-14 0 -23.5 -8.5t-13.5 -32.5l-46 11q2 48 21.5 76t58.5 28q17 0 31.5 -5.5t29.5 -15.5q14 -9 26 -14.5t24 -5.5q31 0 35 43z" />
    <glyph glyph-name="udieresis.sc" unicode="&#xe06f;" horiz-adv-x="584" 
d="M285 -6q-71 0 -115.5 8t-69.5 29t-34.5 57t-9.5 93v347h120v-338q0 -33 3.5 -53.5t15.5 -31.5t33.5 -15t57.5 -4h13q36 0 57.5 4t33 15t15 31.5t3.5 53.5v338h120v-347q0 -57 -9 -93t-34 -57t-69.5 -29t-115.5 -8h-15zM247 608h-102v106h102v-106zM439 608h-102v106h102
v-106z" />
    <glyph glyph-name="umacron.sc" unicode="&#xe070;" horiz-adv-x="584" 
d="M285 -6q-71 0 -115.5 8t-69.5 29t-34.5 57t-9.5 93v347h120v-338q0 -33 3.5 -53.5t15.5 -31.5t33.5 -15t57.5 -4h13q36 0 57.5 4t33 15t15 31.5t3.5 53.5v338h120v-347q0 -57 -9 -93t-34 -57t-69.5 -29t-115.5 -8h-15zM419 625h-253v72h253v-72z" />
    <glyph glyph-name="ubreve.sc" unicode="&#xe071;" horiz-adv-x="584" 
d="M285 -6q-71 0 -115.5 8t-69.5 29t-34.5 57t-9.5 93v347h120v-338q0 -33 3.5 -53.5t15.5 -31.5t33.5 -15t57.5 -4h13q36 0 57.5 4t33 15t15 31.5t3.5 53.5v338h120v-347q0 -57 -9 -93t-34 -57t-69.5 -29t-115.5 -8h-15zM438 718q-2 -67 -41 -98.5t-105 -31.5
q-67 0 -105.5 31.5t-39.5 98.5h60q5 -35 26.5 -47.5t58.5 -12.5q38 0 59 12t26 48h61z" />
    <glyph glyph-name="uring.sc" unicode="&#xe072;" horiz-adv-x="584" 
d="M285 -6q-71 0 -115.5 8t-69.5 29t-34.5 57t-9.5 93v347h120v-338q0 -33 3.5 -53.5t15.5 -31.5t33.5 -15t57.5 -4h13q36 0 57.5 4t33 15t15 31.5t3.5 53.5v338h120v-347q0 -57 -9 -93t-34 -57t-69.5 -29t-115.5 -8h-15zM289 580q-61 0 -84 17.5t-23 62.5q0 51 23 68.5
t84 17.5q66 0 89 -18t23 -62q0 -50 -23 -68t-89 -18zM294 618q34 0 46 9t12 33q0 30 -12 38.5t-51 8.5q-34 0 -45.5 -8.5t-11.5 -38.5q0 -24 11.5 -33t50.5 -9z" />
    <glyph glyph-name="uhungarumlaut.sc" unicode="&#xe073;" horiz-adv-x="584" 
d="M285 -6q-71 0 -115.5 8t-69.5 29t-34.5 57t-9.5 93v347h120v-338q0 -33 3.5 -53.5t15.5 -31.5t33.5 -15t57.5 -4h13q36 0 57.5 4t33 15t15 31.5t3.5 53.5v338h120v-347q0 -57 -9 -93t-34 -57t-69.5 -29t-115.5 -8h-15zM194 579l-33 38l126 135l52 -54zM354 578l-33 38
l129 135l52 -53z" />
    <glyph glyph-name="uogonek.sc" unicode="&#xe074;" horiz-adv-x="584" 
d="M377 -185q-18 -6 -40 -10t-45 -4q-47 0 -70 17.5t-23 56.5q0 35 19 62.5t54 56.5q-67 1 -109 9.5t-66 29.5t-32.5 57t-8.5 91v347h120v-338q0 -33 3.5 -53.5t15.5 -31.5t33.5 -15t57.5 -4h13q36 0 57.5 4t33 15t15 31.5t3.5 53.5v338h120v-347q0 -52 -7.5 -87t-28 -56
t-57 -31t-94.5 -12q-64 -52 -64 -96q0 -20 10.5 -27t32.5 -7q14 0 28.5 2t28.5 5v-57z" />
    <glyph glyph-name="wcircumflex.sc" unicode="&#xe075;" horiz-adv-x="790" 
d="M639 0h-143l-98 415h-3l-98 -415h-144l-135 528h120l91 -428h2l100 428h132l101 -428h2l90 428h116zM501 585l-106 74l-106 -74l-38 41l144 121l144 -121z" />
    <glyph glyph-name="yacute.sc" unicode="&#xe076;" horiz-adv-x="527" 
d="M323 0h-120v179l-195 349h128l128 -254h1l125 254h129l-196 -349v-179zM210 575l-30 40l161 136l52 -74z" />
    <glyph glyph-name="ycircumflex.sc" unicode="&#xe077;" horiz-adv-x="527" 
d="M323 0h-120v179l-195 349h128l128 -254h1l125 254h129l-196 -349v-179zM371 585l-106 74l-106 -74l-38 41l144 121l144 -121z" />
    <glyph glyph-name="ydieresis.sc" unicode="&#xe078;" horiz-adv-x="527" 
d="M323 0h-120v179l-195 349h128l128 -254h1l125 254h129l-196 -349v-179zM220 608h-102v106h102v-106zM412 608h-102v106h102v-106z" />
    <glyph glyph-name="zacute.sc" unicode="&#xe079;" horiz-adv-x="509" 
d="M471 0h-433v85l286 356v1h-276v86h418v-86l-284 -353v-2h289v-87zM198 575l-30 40l161 136l52 -74z" />
    <glyph glyph-name="zcaron.sc" unicode="&#xe07a;" horiz-adv-x="509" 
d="M471 0h-433v85l286 356v1h-276v86h418v-86l-284 -353v-2h289v-87zM258 571l-144 121l38 41l106 -74l106 74l38 -41z" />
    <glyph glyph-name="zdotaccent.sc" unicode="&#xe07b;" horiz-adv-x="509" 
d="M471 0h-433v85l286 356v1h-276v86h418v-86l-284 -353v-2h289v-87zM316 608h-120v106h120v-106z" />
    <glyph glyph-name="fi.sc" unicode="&#xe07c;" horiz-adv-x="713" 
d="M420 208h-242v-208h-118v528h376v-88h-258v-148h242v-84zM653 0h-120v528h120v-528z" />
    <glyph glyph-name="fl.sc" unicode="&#xe07d;" horiz-adv-x="905" 
d="M420 208h-242v-208h-118v528h376v-88h-258v-148h242v-84zM890 0h-357v528h120v-437h237v-91z" />
    <glyph glyph-name="ij.sc" unicode="&#xe07e;" horiz-adv-x="720" 
d="M180 0h-120v528h120v-528zM451 -6q-56 0 -91 7t-54.5 25.5t-26 51t-6.5 83.5v42h108v-28q0 -30 2.5 -47.5t11 -26.5t23 -12t38.5 -3h12q25 0 40 3t23 12t10.5 26t2.5 46v355h120v-349q0 -58 -7.5 -94t-29 -56.5t-59.5 -27.5t-99 -7h-18z" />
    <glyph glyph-name="exclamdown.sc" unicode="&#xe07f;" horiz-adv-x="258" 
d="M186 410h-114v118h114v-118zM188 0h-118l8 353h103z" />
    <glyph glyph-name="questiondown.sc" unicode="&#xe080;" horiz-adv-x="466" 
d="M309 413h-114v115h114v-115zM428 158q0 -53 -8 -85t-29 -50t-58 -24t-94 -6h-12q-56 0 -91.5 6t-56.5 21.5t-29 43.5t-8 72v14q0 33 4.5 56t16.5 39.5t33 27.5t54 20q34 10 43.5 19t9.5 32v14h101v-24q0 -50 -18 -72t-67 -34q-25 -6 -40 -12.5t-22.5 -15t-9.5 -20.5
t-2 -30v-9q0 -20 3.5 -33t12.5 -20.5t25.5 -10.5t42.5 -3h11q28 0 46 3t27.5 12t13 25.5t3.5 43.5v21h98v-21z" />
    <glyph glyph-name="Euro.sc" unicode="&#xe081;" horiz-adv-x="594" 
d="M324 -7q-68 0 -110.5 7.5t-67 30t-34 63t-10.5 107.5h-59v46h58v43h-58v47h59q1 64 11 103t35 60t67.5 28t109.5 7h13q63 0 102.5 -6.5t61 -22.5t29 -41.5t7.5 -64.5v-18h-111v10q0 17 -3 28t-12.5 18t-27.5 9.5t-47 2.5h-10q-33 0 -53.5 -3t-32.5 -14t-16.5 -34
t-5.5 -62h206v-47h-207v-43h207v-46h-207q1 -42 5.5 -66.5t16.5 -36.5t32.5 -15t53.5 -3h10q31 0 50 2.5t29 9.5t13.5 19t3.5 31v11h111v-19q0 -40 -8 -67t-30.5 -43.5t-62.5 -23.5t-104 -7h-14z" />
    <glyph glyph-name="cent.sc" unicode="&#xe082;" horiz-adv-x="483" 
d="M270 -24h-52v87q-51 1 -83.5 9.5t-51.5 28t-26.5 52.5t-7.5 83v40q0 49 7.5 82t26 52.5t51.5 28.5t84 10v79h52v-79q49 -1 81 -8t50.5 -22t25.5 -39t7 -60v-21h-99v13q0 35 -12.5 47t-52.5 12v-229q40 0 53 12.5t13 48.5v13h99v-23q0 -36 -8 -61t-26.5 -40t-50.5 -21.5
t-80 -7.5v-87zM151 235q0 -29 2.5 -47t10 -28t20.5 -14t34 -4v229q-21 0 -34 -3.5t-20.5 -13.5t-10 -28.5t-2.5 -47.5v-43z" />
    <glyph glyph-name="sterling.sc" unicode="&#xe083;" horiz-adv-x="548" 
d="M503 0h-452v86q17 3 28.5 9.5t18.5 20t10 36t4 57.5h-63v79h65v25q0 69 8.5 112.5t29 67.5t56 33t91.5 9h18q54 0 88 -6.5t52.5 -23t25.5 -45t7 -72.5v-16h-103v13q0 20 -3 32.5t-10.5 20t-22 10t-36.5 2.5h-10q-26 0 -42 -3.5t-25 -16t-12.5 -37.5t-3.5 -67v-38h175v-79
h-177q-2 -29 -6.5 -49t-11.5 -33.5t-17 -22.5t-23 -15v-2h341v-87z" />
    <glyph glyph-name="florin.sc" unicode="&#xe084;" horiz-adv-x="535" 
d="M291 88q-7 -40 -19 -69t-32 -48t-50.5 -28.5t-74.5 -9.5q-21 0 -44.5 2.5t-40.5 6.5v85q14 -5 32 -8t34 -3q21 0 36 4t25.5 15t18 30.5t12.5 49.5l20 122h-114v80h128l10 59q14 86 56.5 122.5t124.5 36.5q45 0 86 -9v-80q-14 3 -33 5.5t-37 2.5q-22 0 -37 -4t-25.5 -15.5
t-17.5 -31t-12 -50.5l-6 -36h134v-80h-148z" />
    <glyph glyph-name="yen.sc" unicode="&#xe085;" horiz-adv-x="544" 
d="M329 0h-115v150h-152v59h151l-36 63h-115v59h81l-113 197h125l117 -243h1l116 243h124l-113 -197h81v-59h-115l-35 -63h150v-59h-152v-150z" />
    <glyph glyph-name="perthousand.sc" unicode="&#xe087;" horiz-adv-x="908" 
d="M154 274q-31 0 -51.5 5.5t-32.5 19t-17 36.5t-5 58v17q0 35 5 58t17 36.5t32.5 19t51.5 5.5h11q30 0 50.5 -5.5t32.5 -19t17 -36.5t5 -58v-17q0 -35 -5 -58t-17 -36.5t-32.5 -19t-50.5 -5.5h-11zM162 329q24 0 31.5 11t7.5 51v22q0 20 -1.5 32.5t-6 19t-12 8.5t-19.5 2
h-6q-23 0 -31 -11t-8 -51v-22q0 -40 8 -51t31 -11h6zM245 0h-68l217 528h68zM476 0q-31 0 -51.5 5.5t-32.5 19t-17 36.5t-5 58v17q0 35 5 58t17 36.5t32.5 19t51.5 5.5h11q30 0 50.5 -5.5t32.5 -19t17 -36.5t5 -58v-17q0 -35 -5 -58t-17 -36.5t-32.5 -19t-50.5 -5.5h-11z
M484 55q24 0 31.5 11t7.5 51v22q0 20 -1.5 32.5t-6 19t-12 8.5t-19.5 2h-6q-23 0 -31 -11t-8 -51v-22q0 -40 8 -51t31 -11h6zM743 0q-31 0 -51.5 5.5t-32.5 19t-17 36.5t-5 58v17q0 35 5 58t17 36.5t32.5 19t51.5 5.5h11q30 0 50.5 -5.5t32.5 -19t17 -36.5t5 -58v-17
q0 -35 -5 -58t-17 -36.5t-32.5 -19t-50.5 -5.5h-11zM751 55q24 0 31.5 11t7.5 51v22q0 20 -1.5 32.5t-6 19t-12 8.5t-19.5 2h-6q-23 0 -31 -11t-8 -51v-22q0 -40 8 -51t31 -11h6z" />
    <glyph glyph-name="braceleft.sc" unicode="&#xe0cf;" horiz-adv-x="338" 
d="M281 -8h-49q-32 0 -55 5.5t-37.5 18.5t-21.5 35.5t-7 57.5v55q0 33 -11 52.5t-44 19.5v60q33 0 44 20t11 53v50q0 34 6.5 57t21 36t37.5 18.5t56 5.5h49v-70h-21q-32 0 -41.5 -11t-9.5 -46v-37q0 -45 -10 -70.5t-47 -33.5v-3q37 -8 47 -33.5t10 -70.5v-42
q0 -35 9.5 -45.5t41.5 -10.5h21v-71z" />
    <glyph glyph-name="braceright.sc" unicode="&#xe0d0;" horiz-adv-x="338" 
d="M57 -8v71h21q32 0 41.5 10.5t9.5 45.5v42q0 22 2 40t8 31t17 21t30 12v3q-37 8 -47 33.5t-10 70.5v37q0 35 -9.5 46t-41.5 11h-21v70h49q33 0 56 -5.5t37.5 -18.5t21 -36t6.5 -57v-50q0 -33 11 -53t44 -20v-60q-33 0 -44 -19.5t-11 -52.5v-55q0 -35 -7 -57.5t-21.5 -35.5
t-37.5 -18.5t-55 -5.5h-49z" />
    <glyph glyph-name="bracketleft.sc" unicode="&#xe0d1;" horiz-adv-x="316" 
d="M259 -8h-183v544h183v-82h-84v-380h84v-82z" />
    <glyph glyph-name="bracketright.sc" unicode="&#xe0d2;" horiz-adv-x="316" 
d="M240 -8h-183v82h84v380h-84v82h183v-544z" />
    <glyph glyph-name="parenleft.sc" unicode="&#xe0d8;" horiz-adv-x="309" 
d="M252 -8h-17q-50 0 -83.5 9t-53.5 37t-28.5 79.5t-8.5 136.5v21q0 85 8.5 136t28.5 79t53.5 37t83.5 9h17v-87h-13q-21 0 -35.5 -5.5t-23.5 -24t-12.5 -53.5t-3.5 -94v-15q0 -59 3.5 -94t12.5 -53.5t23.5 -24t35.5 -5.5h13v-88z" />
    <glyph glyph-name="parenright.sc" unicode="&#xe0d9;" horiz-adv-x="309" 
d="M57 -8v88h14q21 0 35 5.5t23 24t12.5 53.5t3.5 94v15q0 59 -3.5 94t-12.5 53.5t-23 24t-35 5.5h-14v87h17q50 0 83.5 -9t53.5 -37t28.5 -79t8.5 -136v-21q0 -85 -8.5 -136.5t-28.5 -79.5t-53.5 -37t-83.5 -9h-17z" />
    <glyph glyph-name="quotedblleft.sc" unicode="&#xe0e1;" horiz-adv-x="408" 
d="M168 256h-113v124q0 37 5 64.5t19 45.5t38.5 27t63.5 11v-62q-31 -2 -40.5 -19.5t-9.5 -52.5v-9h37v-129zM348 256h-113v124q0 37 5 64.5t19 45.5t38.5 27t63.5 11v-62q-31 -2 -40.5 -19.5t-9.5 -52.5v-9h37v-129z" />
    <glyph glyph-name="quotedblright.sc" unicode="&#xe0e2;" horiz-adv-x="408" 
d="M353 404q0 -38 -5 -65t-19 -45t-38.5 -27.5t-63.5 -10.5v62q31 2 40.5 19.5t9.5 52.5v9h-37v129h113v-124zM173 404q0 -38 -5 -65t-19 -45t-38.5 -27.5t-63.5 -10.5v62q31 2 40.5 19.5t9.5 52.5v9h-37v129h113v-124z" />
    <glyph glyph-name="quoteleft.sc" unicode="&#xe0e3;" horiz-adv-x="228" 
d="M168 256h-113v124q0 37 5 64.5t19 45.5t38.5 27t63.5 11v-62q-31 -2 -40.5 -19.5t-9.5 -52.5v-9h37v-129z" />
    <glyph glyph-name="quoteright.sc" unicode="&#xe0e4;" horiz-adv-x="228" 
d="M173 404q0 -38 -5 -65t-19 -45t-38.5 -27.5t-63.5 -10.5v62q31 2 40.5 19.5t9.5 52.5v9h-37v129h113v-124z" />
    <glyph glyph-name="zero.sc" unicode="&#xe10a;" horiz-adv-x="547" 
d="M266 -7q-66 0 -108 9t-66 35t-33 71.5t-9 119.5v72q0 73 9 119t33 72t66 35t108 9h16q66 0 108 -9t65.5 -35t32.5 -72t9 -119v-72q0 -74 -9 -119.5t-32.5 -71.5t-65.5 -35t-108 -9h-16zM279 87q33 0 54 4.5t32.5 19t16 42t4.5 73.5v78q0 46 -4.5 73.5t-16 42t-32.5 19
t-54 4.5h-11q-33 0 -54 -4.5t-33 -19t-16 -42t-4 -73.5v-78q0 -46 4 -73.5t16 -42t33 -19t54 -4.5h11z" />
    <glyph glyph-name="one.sc" unicode="&#xe10b;" horiz-adv-x="398" 
d="M305 0h-114v425h-2l-117 -120l-59 63l159 160h133v-528z" />
    <glyph glyph-name="two.sc" unicode="&#xe10c;" horiz-adv-x="526" 
d="M483 0h-434v83q0 50 7 83t28.5 54t60.5 34t102 24q40 7 64.5 14t38 17t17.5 24t4 35v13q0 21 -3.5 34.5t-14.5 21.5t-30.5 11t-52.5 3h-11q-33 0 -53 -3.5t-30.5 -12.5t-13.5 -25.5t-3 -42.5v-19h-105v16q0 53 8 86.5t30 52t61.5 25.5t101.5 7h11q66 0 108 -7t66 -24.5
t33 -46t9 -71.5v-16q0 -40 -7 -68t-27 -47.5t-56.5 -32.5t-94.5 -23q-47 -8 -74 -14.5t-40.5 -16.5t-17 -25t-3.5 -39v-19h321v-85z" />
    <glyph glyph-name="three.sc" unicode="&#xe10d;" horiz-adv-x="537" 
d="M491 137q0 -43 -8.5 -70.5t-33 -44t-68 -23t-113.5 -6.5h-16q-66 0 -105.5 6.5t-61.5 24.5t-29 49.5t-7 81.5v24h106v-22q0 -24 3.5 -39.5t14 -23.5t29 -11t49.5 -3h12q38 0 60.5 3t34.5 10.5t16 21t4 35.5v13q0 40 -15.5 52.5t-59.5 12.5h-100v81h99q40 0 53.5 12.5
t13.5 48.5v15q0 20 -3.5 32.5t-15 20t-32 10.5t-54.5 3h-10q-31 0 -49.5 -3t-29 -11.5t-14 -23t-3.5 -38.5v-22h-105v22q0 49 7 80t28 49t60 24.5t103 6.5h15q70 0 112.5 -6.5t65 -22.5t30 -43t7.5 -69v-17q0 -49 -13 -72t-45 -34v-2q33 -10 50.5 -34t17.5 -80v-18z" />
    <glyph glyph-name="four.sc" unicode="&#xe10e;" horiz-adv-x="554" 
d="M449 0h-110v113h-294v105l257 310h147v-331h67v-84h-67v-113zM339 197v239h-2l-193 -238v-1h195z" />
    <glyph glyph-name="five.sc" unicode="&#xe10f;" horiz-adv-x="531" 
d="M489 159q0 -50 -9 -82.5t-33.5 -51t-68 -25.5t-112.5 -7h-19q-63 0 -101.5 7t-60 24.5t-28.5 46t-7 72.5v21h105v-12q0 -23 3.5 -37t14.5 -22t31.5 -11t55.5 -3h13q34 0 54.5 3.5t31.5 12.5t14 25.5t3 42.5v21q0 28 -3 44.5t-13.5 25.5t-31 12t-55.5 3h-16
q-26 0 -43.5 -2t-28 -6.5t-16 -13t-8.5 -21.5h-104v302h415v-84h-309v-131h1q13 20 41 30t88 10h21q54 0 88 -6.5t53.5 -24t26.5 -47.5t7 -77v-39z" />
    <glyph glyph-name="six.sc" unicode="&#xe110;" horiz-adv-x="536" 
d="M260 -7q-68 0 -109.5 8t-64 30.5t-30 62t-7.5 103.5v104q0 76 8.5 122t32 71t65.5 33t110 8h17q64 0 103 -6t60.5 -22.5t28.5 -45t7 -73.5v-18h-105v12q0 21 -3 34t-13 20.5t-28 10.5t-48 3h-12q-37 0 -59 -3.5t-33 -16.5t-14.5 -37.5t-3.5 -67.5v-35h1q26 38 118 38h15
q61 0 99.5 -6.5t59.5 -23.5t28.5 -46.5t7.5 -76.5v-22q0 -47 -8.5 -77.5t-31.5 -49t-64.5 -26t-107.5 -7.5h-19zM277 79q35 0 55.5 2.5t31.5 10.5t14 23t3 41v12q0 26 -3 41.5t-14 24t-31.5 11t-55.5 2.5h-12q-33 0 -53.5 -2.5t-31.5 -10t-15 -21.5t-4 -36v-12q0 -29 3 -46
t13.5 -26t31.5 -11.5t56 -2.5h12z" />
    <glyph glyph-name="seven.sc" unicode="&#xe111;" horiz-adv-x="499" 
d="M225 0h-125l238 435v3h-304v90h430v-82z" />
    <glyph glyph-name="eight.sc" unicode="&#xe112;" horiz-adv-x="538" 
d="M260 -7q-68 0 -109.5 5.5t-64.5 21t-31 42.5t-8 69v14q0 57 14.5 86.5t55.5 40.5v1q-37 9 -51 33.5t-14 82.5v14q0 40 7.5 65.5t30 40.5t63.5 20.5t107 5.5h16q66 0 107 -5.5t63.5 -20.5t30.5 -40.5t8 -65.5v-14q0 -56 -15 -81t-52 -35v-1q41 -11 57 -40t16 -87v-14
q0 -42 -8 -69t-31.5 -42.5t-65.5 -21t-110 -5.5h-16zM273 313q34 0 54.5 2t31 8.5t13.5 19.5t3 35v12q0 21 -3.5 33.5t-14 19.5t-30.5 9.5t-54 2.5h-10q-33 0 -53 -2.5t-30.5 -9.5t-14 -19.5t-3.5 -33.5v-12q0 -22 3.5 -35t14 -19.5t30.5 -8.5t53 -2h10zM273 77q36 0 57 3
t32.5 10.5t14.5 21t3 34.5v16q0 22 -3.5 36t-15 21t-32.5 9.5t-56 2.5h-9q-35 0 -56 -2.5t-32.5 -9.5t-15 -21t-3.5 -36v-16q0 -21 3.5 -34.5t14.5 -21t32 -10.5t57 -3h9z" />
    <glyph glyph-name="nine.sc" unicode="&#xe113;" horiz-adv-x="537" 
d="M253 -7q-66 0 -105.5 6.5t-61 23t-28.5 45t-7 73.5v17h105v-12q0 -21 3 -34t13 -20.5t29 -10t50 -2.5h11q38 0 60 3.5t33.5 16t15 37.5t3.5 67v36h-2q-14 -20 -41.5 -29t-76.5 -9h-14q-62 0 -100 6.5t-59 24t-28.5 47t-7.5 74.5v22q0 46 8.5 77t31.5 49.5t64.5 26
t107.5 7.5h18q69 0 110.5 -8t64 -30t30 -62t7.5 -104v-104q0 -76 -8.5 -122t-32 -71t-66 -33t-110.5 -8h-17zM270 282q33 0 53.5 3t32 10.5t15.5 21t4 35.5v13q0 28 -3 45t-14 26t-32 12t-56 3h-11q-35 0 -55.5 -2.5t-31 -11t-14 -24t-3.5 -40.5v-12q0 -26 3 -41.5
t13.5 -23.5t31.5 -11t56 -3h11z" />
    <glyph glyph-name="zero.tab" unicode="&#xe114;" horiz-adv-x="645" 
d="M331 97q44 0 71.5 6t43.5 26t21.5 58.5t5.5 104.5v96q0 66 -5.5 104.5t-21.5 58.5t-43.5 26t-71.5 6h-14q-44 0 -71.5 -6t-43.5 -26t-21.5 -58.5t-5.5 -104.5v-96q0 -66 5.5 -104.5t21.5 -58.5t43.5 -26t71.5 -6h14zM314 -7q-79 0 -129.5 11.5t-80 44.5t-40.5 93t-11 157
v82q0 97 11 157t40.5 93t80 44.5t129.5 11.5h20q79 0 129.5 -11.5t80 -44.5t40.5 -93t11 -157v-82q0 -97 -11 -157t-40.5 -93t-80 -44.5t-129.5 -11.5h-20z" />
    <glyph glyph-name="one.tab" unicode="&#xe115;" horiz-adv-x="645" 
d="M428 0h-126v562h-3l-146 -138l-68 80l190 176h153v-680z" />
    <glyph glyph-name="two.tab" unicode="&#xe116;" horiz-adv-x="645" 
d="M589 0h-525v106q0 63 7 104t32 68t72.5 43.5t127.5 30.5q51 9 82.5 17.5t48 22t22 34t5.5 52.5v16q0 29 -4.5 47.5t-18 29.5t-39 15t-68.5 4h-13q-44 0 -69.5 -4t-39.5 -16t-18 -35t-4 -61v-20h-118v16q0 67 9 109.5t35 66.5t74 32.5t126 8.5h13q80 0 131 -8.5t80 -30
t40 -58t11 -92.5v-20q0 -58 -9.5 -95t-35 -61t-69.5 -38t-113 -26q-61 -11 -95.5 -19.5t-51 -22t-20.5 -34t-4 -53.5v-30h399v-99z" />
    <glyph glyph-name="three.tab" unicode="&#xe117;" horiz-adv-x="645" 
d="M592 173q0 -54 -11 -89t-41 -55.5t-83.5 -28t-138.5 -7.5h-20q-78 0 -125.5 8t-73 30t-34 62t-8.5 105v27h118v-30q0 -35 4 -55.5t17.5 -31t38.5 -13.5t67 -3h14q48 0 77.5 3t45.5 12.5t21.5 28t5.5 49.5v20q0 28 -4.5 46t-16 28t-30.5 14t-47 4h-118v94h115q27 0 44 4
t27 13.5t14 26t4 42.5v20q0 28 -5 46t-19.5 28.5t-41.5 14t-71 3.5h-12q-41 0 -65.5 -3t-38 -14t-18 -31.5t-4.5 -55.5v-26h-117v25q0 63 9 102.5t34.5 62t72.5 30.5t122 8h18q82 0 133.5 -7.5t80.5 -27.5t39 -55t10 -90v-19q0 -36 -4.5 -60t-15.5 -40t-28.5 -25.5
t-42.5 -16.5v-2q26 -5 45.5 -13.5t32 -25t18.5 -42.5t6 -66v-24z" />
    <glyph glyph-name="four.tab" unicode="&#xe118;" horiz-adv-x="645" 
d="M528 0h-121v147h-362v129l313 404h170v-436h82v-97h-82v-147zM407 244v341h-3l-254 -337v-4h257z" />
    <glyph glyph-name="five.tab" unicode="&#xe119;" horiz-adv-x="645" 
d="M305 -7q-79 0 -127 8t-74.5 30t-35 59t-8.5 96v17h116v-13q0 -32 5 -50.5t19.5 -29t42 -13.5t72.5 -3h16q44 0 70.5 4.5t41 17t19 35.5t4.5 61v19q0 39 -3.5 63.5t-17 37.5t-40.5 17.5t-74 4.5h-19q-35 0 -58 -2.5t-37.5 -9.5t-21.5 -18t-10 -29h-116v385h500v-99h-383
v-183h2q8 15 20 25t31 16.5t46 9.5t64 3h25q66 0 108 -8.5t66 -31t33 -61t9 -97.5v-43q0 -66 -10.5 -108.5t-39.5 -67t-80 -33.5t-132 -9h-23z" />
    <glyph glyph-name="six.tab" unicode="&#xe11a;" horiz-adv-x="645" 
d="M312 -7q-82 0 -132 10t-77 38t-36 78.5t-9 132.5v136q0 99 10 158t39 90.5t81 41t135 9.5h19q75 0 121 -8t71 -29t33.5 -58.5t8.5 -95.5v-17h-116v14q0 30 -4 48.5t-17 29t-36.5 14t-63.5 3.5h-13q-48 0 -76.5 -5t-43.5 -22.5t-19.5 -52t-4.5 -93.5v-55h2
q16 29 50.5 43.5t101.5 14.5h18q73 0 119 -7.5t72 -28.5t35.5 -59t9.5 -99v-30q0 -61 -10.5 -100t-39 -61.5t-78.5 -31t-129 -8.5h-21zM329 92q46 0 73.5 4t42 15.5t19 32.5t4.5 56v16q0 35 -4.5 56t-19 32.5t-42 15t-73.5 3.5h-10q-42 0 -69 -4t-42.5 -14.5t-21 -29
t-5.5 -48.5v-15q0 -39 4.5 -63t18.5 -36.5t41.5 -16.5t73.5 -4h10z" />
    <glyph glyph-name="seven.tab" unicode="&#xe11b;" horiz-adv-x="645" 
d="M293 0h-140l294 573v3h-379v104h518v-94z" />
    <glyph glyph-name="eight.tab" unicode="&#xe11c;" horiz-adv-x="645" 
d="M342 397q46 0 73 3t40.5 12.5t17 26.5t3.5 46v20q0 28 -4 45t-18 27t-40.5 13.5t-71.5 3.5h-11q-45 0 -71.5 -3.5t-41 -13.5t-18.5 -27t-4 -45v-20q0 -28 4 -45.5t17.5 -27t40.5 -12.5t73 -3h11zM342 90q45 0 72.5 3t42.5 12.5t19.5 28t4.5 49.5v26q0 31 -4.5 49
t-19.5 28t-42.5 13t-72.5 3h-11q-45 0 -72.5 -3t-42.5 -13t-19.5 -28t-4.5 -49v-26q0 -31 4.5 -49.5t19.5 -28t42.5 -12.5t72.5 -3h11zM327 -7q-78 0 -127.5 6t-78.5 24t-40 51t-11 88v19q0 44 5.5 74t18.5 49t34 29.5t51 15.5v2q-30 4 -49.5 13t-31.5 26t-17 44t-5 68v20
q0 52 10 84.5t38 50.5t76.5 24t125.5 6h21q77 0 125.5 -6t76 -24t37.5 -50.5t10 -84.5v-20q0 -41 -5 -67.5t-17.5 -43.5t-33 -26t-51.5 -14v-2q32 -5 53.5 -15t35 -29.5t19.5 -49.5t6 -74v-19q0 -55 -11 -88t-40 -51t-78.5 -24t-127.5 -6h-19z" />
    <glyph glyph-name="nine.tab" unicode="&#xe11d;" horiz-adv-x="645" 
d="M302 -7q-75 0 -121.5 8t-72.5 29t-35 58t-9 96v17h117v-14q0 -29 4.5 -47.5t18 -28.5t38 -13.5t65.5 -3.5h12q49 0 77.5 4.5t43.5 21.5t19.5 51.5t4.5 93.5v56h-2q-15 -29 -50 -43.5t-102 -14.5h-18q-72 0 -117.5 7.5t-72 29t-36.5 59.5t-10 98v29q0 61 10.5 100t39 61.5
t78.5 31t129 8.5h21q81 0 131 -10t77.5 -38t36.5 -79t9 -132v-136q0 -99 -10 -158t-39 -90.5t-81 -41t-136 -9.5h-20zM328 358q42 0 69 4t42 15t20.5 30t5.5 50v15q0 39 -4.5 62t-18.5 35t-41 16t-73 4h-11q-46 0 -73.5 -4t-42 -15t-19 -31.5t-4.5 -54.5v-16
q0 -36 4.5 -57.5t19 -33t42 -15.5t73.5 -4h11z" />
    <glyph glyph-name="one.numerator" unicode="&#xe13c;" horiz-adv-x="304" 
d="M219 308h-84v296h-2l-82 -73l-41 53l112 96h97v-372z" />
    <glyph glyph-name="two.numerator" unicode="&#xe13d;" horiz-adv-x="394" 
d="M361 308h-319v63q0 35 6 58t22.5 38t45.5 23.5t74 15.5q29 4 46 8.5t26 11t12 15.5t3 23v13q0 14 -3 23t-11 14t-24 7t-41 2h-7q-23 0 -36.5 -2.5t-21 -8.5t-10 -16.5t-2.5 -27.5v-15h-78v17q0 34 5.5 56.5t22 35t45 17.5t75.5 5h9q49 0 80.5 -4.5t48.5 -16.5t23.5 -32.5
t6.5 -52.5v-10q0 -31 -5.5 -51.5t-21 -34t-44 -22t-74.5 -15.5q-30 -5 -48.5 -9t-28 -10t-13 -16t-3.5 -26v-13h240v-63z" />
    <glyph glyph-name="three.numerator" unicode="&#xe13e;" horiz-adv-x="399" 
d="M191 304q-48 0 -78 4.5t-46.5 17t-22 35t-5.5 57.5v16h76v-17q0 -17 2.5 -27t10.5 -15.5t23 -7.5t40 -2h7q28 0 45 2t26 7t11.5 14t2.5 23v12q0 26 -11 36t-44 10h-72v55h72q29 0 38 9t9 34v13q0 13 -3 21.5t-11 13t-23.5 6.5t-40.5 2h-6q-23 0 -37.5 -1.5t-22.5 -7
t-10.5 -15t-2.5 -25.5v-18h-75v17q0 34 5.5 55.5t22 34t45.5 17t76 4.5h10q49 0 79 -4.5t47 -15.5t23 -30t6 -47v-9q0 -39 -10.5 -55.5t-36.5 -24.5v-1q27 -5 41 -21.5t14 -57.5v-13q0 -30 -7 -49.5t-25 -31t-49.5 -16t-80.5 -4.5h-12z" />
    <glyph glyph-name="four.numerator" unicode="&#xe13f;" horiz-adv-x="412" 
d="M338 308h-81v79h-224v76l191 217h114v-234h48v-59h-48v-79zM257 446v177h-4l-150 -176v-1h154z" />
    <glyph glyph-name="five.numerator" unicode="&#xe140;" horiz-adv-x="397" 
d="M190 304q-46 0 -75 4.5t-45 16.5t-22 32.5t-6 52.5v12h74v-9q0 -29 14.5 -38.5t57.5 -9.5h14q27 0 43 2t24.5 8.5t11 18t2.5 30.5v13q0 19 -2.5 31t-10.5 19t-23 9t-40 2h-15q-38 0 -52 -4.5t-18 -21.5h-75v208h307v-63h-231v-87h1q10 14 30.5 20.5t62.5 6.5h13
q40 0 65.5 -5t40.5 -18t20.5 -35.5t5.5 -56.5v-17q0 -35 -6.5 -58.5t-24 -37.5t-48 -19.5t-78.5 -5.5h-15z" />
    <glyph glyph-name="six.numerator" unicode="&#xe141;" horiz-adv-x="398" 
d="M206 365q26 0 41 2t23 8t10.5 16.5t2.5 27.5v10q0 16 -2.5 26.5t-10.5 16.5t-23.5 8t-40.5 2h-12q-24 0 -39 -2t-23 -7.5t-11 -15t-3 -25.5v-10q0 -18 2.5 -29.5t10 -17.5t22.5 -8t41 -2h12zM192 304q-49 0 -79 6t-46.5 22t-22.5 43.5t-6 71.5v80q0 49 6.5 80t24 48
t48 23t79.5 6h16q43 0 71 -4.5t43.5 -16t21.5 -32t6 -51.5v-11h-76v9q0 29 -13 38t-56 9h-12q-26 0 -41.5 -3t-23.5 -12t-11 -26t-3 -45v-27h2q8 14 27.5 21t60.5 7h13q43 0 70 -5t43 -16.5t22 -31.5t6 -50v-17q0 -35 -6.5 -57.5t-23.5 -35.5t-47 -18t-77 -5h-16z" />
    <glyph glyph-name="seven.numerator" unicode="&#xe142;" horiz-adv-x="379" 
d="M172 308h-89l167 304v1h-218v67h312v-58z" />
    <glyph glyph-name="eight.numerator" unicode="&#xe143;" horiz-adv-x="395" 
d="M189 304q-48 0 -77.5 4.5t-46 15t-22 29t-5.5 47.5v13q0 41 12 59t40 26v1q-27 7 -38.5 24.5t-11.5 56.5v12q0 27 6 44.5t22 28t45 15t75 4.5h18q46 0 74.5 -4.5t45 -15t22.5 -28t6 -44.5v-12q0 -39 -11.5 -56.5t-38.5 -24.5v-1q28 -8 40.5 -26t12.5 -59v-13
q0 -29 -6 -47.5t-22.5 -29t-46 -15t-76.5 -4.5h-17zM204 527q24 0 38 1.5t21.5 6.5t10 14t2.5 23v10q0 13 -2.5 22t-10 13.5t-21.5 6.5t-38 2h-14q-24 0 -38.5 -2t-22 -6.5t-9.5 -13.5t-2 -22v-10q0 -14 2 -23t9.5 -14t22 -6.5t38.5 -1.5h14zM205 363q25 0 39.5 2t22 7
t10 14t2.5 23v15q0 15 -2.5 24.5t-10 14.5t-22.5 7t-39 2h-15q-25 0 -39.5 -2t-22 -7t-10 -14.5t-2.5 -24.5v-15q0 -14 2 -23t9.5 -14t22.5 -7t40 -2h15z" />
    <glyph glyph-name="nine.numerator" unicode="&#xe144;" horiz-adv-x="400" 
d="M205 506q24 0 39.5 2t23.5 7.5t11 15t3 25.5v10q0 18 -2.5 29.5t-11 17.5t-23.5 8t-40 2h-12q-25 0 -40 -2t-23 -8t-10.5 -16.5t-2.5 -27.5v-9q0 -17 2.5 -27.5t10.5 -16.5t23 -8t40 -2h12zM186 304q-45 0 -73 4.5t-44 16t-22 31.5t-6 52v11h77v-9q0 -14 2.5 -23
t10 -14.5t21.5 -7.5t37 -2h12q27 0 42.5 2.5t24 11.5t11 26t2.5 46v27h-1q-9 -14 -28.5 -21t-58.5 -7h-15q-43 0 -70 5t-42.5 17t-21.5 32.5t-6 51.5v17q0 34 6.5 55.5t23.5 34.5t47 18t77 5h16q48 0 78 -6t46.5 -22t22.5 -43.5t6 -70.5v-80q0 -50 -6 -81t-23.5 -48
t-48.5 -23t-81 -6h-16z" />
    <glyph glyph-name="zero.numerator" unicode="&#xe145;" horiz-adv-x="407" 
d="M210 368q25 0 41 4.5t24.5 15.5t11.5 31t3 52v46q0 32 -3 52t-11.5 31.5t-24.5 16t-41 4.5h-13q-26 0 -41.5 -4.5t-24 -16t-11.5 -31.5t-3 -52v-46q0 -32 3 -52t11.5 -31t24 -15.5t41.5 -4.5h13zM196 304q-50 0 -81 7.5t-48 27t-23 52.5t-6 84v41q0 49 6 81t23 51.5
t48 27.5t81 8h15q50 0 81 -8t48 -27.5t23 -52t6 -80.5v-41q0 -51 -6 -84t-23 -52.5t-48 -27t-81 -7.5h-15z" />
    <glyph glyph-name="one.denominator" unicode="&#xe146;" horiz-adv-x="304" 
d="M219 0h-84v296h-2l-82 -73l-41 53l112 96h97v-372z" />
    <glyph glyph-name="two.denominator" unicode="&#xe147;" horiz-adv-x="394" 
d="M361 0h-319v63q0 35 6 58t22.5 38t45.5 23.5t74 15.5q29 4 46 8.5t26 11t12 15.5t3 23v13q0 14 -3 23t-11 14t-24 7t-41 2h-7q-23 0 -36.5 -2.5t-21 -8.5t-10 -16.5t-2.5 -27.5v-15h-78v17q0 34 5.5 56.5t22 35t45 17.5t75.5 5h9q49 0 80.5 -4.5t48.5 -16.5t23.5 -32.5
t6.5 -52.5v-10q0 -31 -5.5 -51.5t-21 -34t-44 -22t-74.5 -15.5q-30 -5 -48.5 -9t-28 -10t-13 -16t-3.5 -26v-13h240v-63z" />
    <glyph glyph-name="three.denominator" unicode="&#xe148;" horiz-adv-x="399" 
d="M191 -4q-48 0 -78 4.5t-46.5 17t-22 35t-5.5 57.5v16h76v-17q0 -17 2.5 -27t10.5 -15.5t23 -7.5t40 -2h7q28 0 45 2t26 7t11.5 14t2.5 23v12q0 26 -11 36t-44 10h-72v55h72q29 0 38 9t9 34v13q0 13 -3 21.5t-11 13t-23.5 6.5t-40.5 2h-6q-23 0 -37.5 -1.5t-22.5 -7
t-10.5 -15t-2.5 -25.5v-18h-75v17q0 34 5.5 55.5t22 34t45.5 17t76 4.5h10q49 0 79 -4.5t47 -15.5t23 -30t6 -47v-9q0 -39 -10.5 -55.5t-36.5 -24.5v-1q27 -5 41 -21.5t14 -57.5v-13q0 -30 -7 -49.5t-25 -31t-49.5 -16t-80.5 -4.5h-12z" />
    <glyph glyph-name="four.denominator" unicode="&#xe149;" horiz-adv-x="412" 
d="M338 0h-81v79h-224v76l191 217h114v-234h48v-59h-48v-79zM257 138v177h-4l-150 -176v-1h154z" />
    <glyph glyph-name="five.denominator" unicode="&#xe14a;" horiz-adv-x="397" 
d="M190 -4q-46 0 -75 4.5t-45 16.5t-22 32.5t-6 52.5v12h74v-9q0 -29 14.5 -38.5t57.5 -9.5h14q27 0 43 2t24.5 8.5t11 18t2.5 30.5v13q0 19 -2.5 31t-10.5 19t-23 9t-40 2h-15q-38 0 -52 -4.5t-18 -21.5h-75v208h307v-63h-231v-87h1q10 14 30.5 20.5t62.5 6.5h13
q40 0 65.5 -5t40.5 -18t20.5 -35.5t5.5 -56.5v-17q0 -35 -6.5 -58.5t-24 -37.5t-48 -19.5t-78.5 -5.5h-15z" />
    <glyph glyph-name="six.denominator" unicode="&#xe14b;" horiz-adv-x="398" 
d="M206 57q26 0 41 2t23 8t10.5 16.5t2.5 27.5v10q0 16 -2.5 26.5t-10.5 16.5t-23.5 8t-40.5 2h-12q-24 0 -39 -2t-23 -7.5t-11 -15t-3 -25.5v-10q0 -18 2.5 -29.5t10 -17.5t22.5 -8t41 -2h12zM192 -4q-49 0 -79 6t-46.5 22t-22.5 43.5t-6 71.5v80q0 49 6.5 80t24 48t48 23
t79.5 6h16q43 0 71 -4.5t43.5 -16t21.5 -32t6 -51.5v-11h-76v9q0 29 -13 38t-56 9h-12q-26 0 -41.5 -3t-23.5 -12t-11 -26t-3 -45v-27h2q8 14 27.5 21t60.5 7h13q43 0 70 -5t43 -16.5t22 -31.5t6 -50v-17q0 -35 -6.5 -57.5t-23.5 -35.5t-47 -18t-77 -5h-16z" />
    <glyph glyph-name="seven.denominator" unicode="&#xe14c;" horiz-adv-x="379" 
d="M172 0h-89l167 304v1h-218v67h312v-58z" />
    <glyph glyph-name="eight.denominator" unicode="&#xe14d;" horiz-adv-x="395" 
d="M189 -4q-48 0 -77.5 4.5t-46 15t-22 29t-5.5 47.5v13q0 41 12 59t40 26v1q-27 7 -38.5 24.5t-11.5 56.5v12q0 27 6 44.5t22 28t45 15t75 4.5h18q46 0 74.5 -4.5t45 -15t22.5 -28t6 -44.5v-12q0 -39 -11.5 -56.5t-38.5 -24.5v-1q28 -8 40.5 -26t12.5 -59v-13
q0 -29 -6 -47.5t-22.5 -29t-46 -15t-76.5 -4.5h-17zM204 219q24 0 38 1.5t21.5 6.5t10 14t2.5 23v10q0 13 -2.5 22t-10 13.5t-21.5 6.5t-38 2h-14q-24 0 -38.5 -2t-22 -6.5t-9.5 -13.5t-2 -22v-10q0 -14 2 -23t9.5 -14t22 -6.5t38.5 -1.5h14zM205 55q25 0 39.5 2t22 7t10 14
t2.5 23v15q0 15 -2.5 24.5t-10 14.5t-22.5 7t-39 2h-15q-25 0 -39.5 -2t-22 -7t-10 -14.5t-2.5 -24.5v-15q0 -14 2 -23t9.5 -14t22.5 -7t40 -2h15z" />
    <glyph glyph-name="nine.denominator" unicode="&#xe14e;" horiz-adv-x="400" 
d="M205 198q24 0 39.5 2t23.5 7.5t11 15t3 25.5v10q0 18 -2.5 29.5t-11 17.5t-23.5 8t-40 2h-12q-25 0 -40 -2t-23 -8t-10.5 -16.5t-2.5 -27.5v-9q0 -17 2.5 -27.5t10.5 -16.5t23 -8t40 -2h12zM186 -4q-45 0 -73 4.5t-44 16t-22 31.5t-6 52v11h77v-9q0 -14 2.5 -23t10 -14.5
t21.5 -7.5t37 -2h12q27 0 42.5 2.5t24 11.5t11 26t2.5 46v27h-1q-9 -14 -28.5 -21t-58.5 -7h-15q-43 0 -70 5t-42.5 17t-21.5 32.5t-6 51.5v17q0 34 6.5 55.5t23.5 34.5t47 18t77 5h16q48 0 78 -6t46.5 -22t22.5 -43.5t6 -70.5v-80q0 -50 -6 -81t-23.5 -48t-48.5 -23t-81 -6
h-16z" />
    <glyph glyph-name="zero.denominator" unicode="&#xe14f;" horiz-adv-x="407" 
d="M210 60q25 0 41 4.5t24.5 15.5t11.5 31t3 52v46q0 32 -3 52t-11.5 31.5t-24.5 16t-41 4.5h-13q-26 0 -41.5 -4.5t-24 -16t-11.5 -31.5t-3 -52v-46q0 -32 3 -52t11.5 -31t24 -15.5t41.5 -4.5h13zM196 -4q-50 0 -81 7.5t-48 27t-23 52.5t-6 84v41q0 49 6 81t23 51.5
t48 27.5t81 8h15q50 0 81 -8t48 -27.5t23 -52t6 -80.5v-41q0 -51 -6 -84t-23 -52.5t-48 -27t-81 -7.5h-15z" />
    <glyph glyph-name="dollar.tab" unicode="&#xe1fb;" horiz-adv-x="645" 
d="M352 -81h-54v74q-80 1 -127.5 9.5t-73 29.5t-33.5 56.5t-8 90.5v36h120v-24q0 -32 4 -51.5t17 -31t37 -15.5t64 -4v209q-74 8 -120.5 20t-72.5 33.5t-35 54.5t-9 83v16q0 51 11 86t38 56.5t72.5 30.5t115.5 9v63h54v-64q73 -1 117.5 -10.5t69 -30.5t32.5 -55.5t8 -86.5
v-26h-118v20q0 27 -4 45t-15.5 29t-33 16t-56.5 6v-195q75 -8 122.5 -19.5t75 -32.5t37.5 -54t10 -84v-18q0 -58 -11 -96t-38.5 -60.5t-75 -31.5t-120.5 -9v-74zM352 89q40 0 64.5 4.5t37.5 15.5t17.5 29.5t4.5 47.5v13q0 22 -4 37.5t-17 26.5t-37.5 17.5t-65.5 10.5v-202z
M180 490q0 -21 3.5 -35t16 -24t36 -16t62.5 -10v189q-37 -1 -60 -5.5t-36 -14.5t-17.5 -27t-4.5 -43v-14z" />
    <glyph glyph-name="Euro.tab" unicode="&#xe1fc;" horiz-adv-x="645" 
d="M615 169q0 -50 -10 -83.5t-37 -54t-75 -29.5t-124 -9h-14q-83 0 -135 10t-81 39t-40 81.5t-12 138.5h-69v53h69v60h-69v53h70q2 82 13.5 133t40.5 79t80 37.5t132 9.5h17q75 0 121.5 -8t72 -28t34.5 -53t9 -82v-16h-122v11q0 22 -4 37t-16.5 24t-35 13t-59.5 4h-13
q-43 0 -70 -4t-42.5 -20.5t-22 -48.5t-7.5 -88h261v-53h-262v-60h262v-53h-261q1 -59 7 -92.5t21 -50.5t42 -21.5t71 -4.5h13q39 0 63.5 4t37.5 13t17.5 25t4.5 40v14h122v-20z" />
    <glyph glyph-name="sterling.tab" unicode="&#xe1fd;" horiz-adv-x="645" 
d="M595 0h-541v100q22 4 36 13t23 28t13 51t5 82h-80v88h81v38q0 91 9 147.5t33.5 87.5t67 41.5t110.5 10.5h21q61 0 101.5 -7.5t64.5 -27.5t34 -56.5t10 -94.5v-15h-116v14q0 28 -3.5 45.5t-14 27.5t-29.5 13.5t-49 3.5h-13q-35 0 -56.5 -5t-33 -23t-15.5 -52.5t-4 -93.5
v-54h215v-88h-217q-2 -45 -7.5 -74.5t-15 -48t-24 -29.5t-35.5 -19v-3h430v-100z" />
    <glyph glyph-name="yen.tab" unicode="&#xe1fe;" horiz-adv-x="645" 
d="M385 0h-125v197h-187v63h185v7l-48 90h-137v63h104l-140 260h134l152 -334h2l149 334h134l-140 -260h104v-63h-138l-48 -90v-7h186v-63h-187v-197z" />
    <glyph glyph-name="grave.cap" unicode="&#xe300;" 
d="M274 733l-198 74l41 79l181 -109z" />
    <glyph glyph-name="acute.cap" unicode="&#xe301;" 
d="M329 807l-197 -74l-25 43l181 110z" />
    <glyph glyph-name="circumflex.cap" unicode="&#xe302;" 
d="M310 737l-107 69l-108 -69l-38 41l146 115l146 -115z" />
    <glyph glyph-name="caron.cap" unicode="&#xe303;" 
d="M203 721l-146 115l38 41l108 -69l107 69l39 -41z" />
    <glyph glyph-name="tilde.cap" unicode="&#xe304;" 
d="M340 856q-3 -50 -21.5 -78t-59.5 -28q-19 0 -33.5 6.5t-28.5 15.5q-14 8 -25 13t-23 5q-14 0 -23.5 -8.5t-13.5 -32.5l-46 11q2 48 21.5 76t58.5 28q17 0 31.5 -5.5t29.5 -15.5q14 -9 26 -14.5t24 -5.5q31 0 35 43z" />
    <glyph glyph-name="dieresis.cap" unicode="&#xe305;" 
d="M157 752h-102v106h102v-106zM350 752h-101v106h101v-106z" />
    <glyph glyph-name="macron.cap" unicode="&#xe306;" 
d="M331 767h-255v73h255v-73z" />
    <glyph glyph-name="breve.cap" unicode="&#xe307;" 
d="M348 864q-1 -68 -40 -99t-105 -31q-67 0 -105.5 31.5t-40.5 98.5h61q5 -35 26.5 -47.5t58.5 -12.5q38 0 58.5 12t26.5 48h60z" />
    <glyph glyph-name="ring.cap" unicode="&#xe308;" 
d="M201 720q-61 0 -84 18t-23 63q0 51 23 68.5t84 17.5q66 0 89 -18t23 -68q0 -45 -22.5 -63t-89.5 -18zM206 759q34 0 46 9t12 33q0 29 -12 38t-51 9q-34 0 -45.5 -9t-11.5 -38q0 -24 11.5 -33t50.5 -9z" />
    <glyph glyph-name="hungarumlaut.cap" unicode="&#xe309;" 
d="M78 722l-32 40l134 128l49 -56zM242 721l-31 39l136 129l49 -56z" />
    <glyph glyph-name="dotaccent.cap" unicode="&#xe30a;" 
d="M263 752h-120v106h120v-106z" />
    <glyph glyph-name="caron.alt" unicode="&#xe30b;" 
d="M252 599q0 -61 -22 -90t-78 -31v49q20 4 27.5 15.5t7.5 40.5v8h-33v89h98v-81z" />
    <glyph glyph-name="commaaccent" unicode="&#xe30c;" 
d="M248 -136q0 -29 -5 -48.5t-17.5 -32t-34.5 -18t-56 -6.5v44q28 2 37.5 12t9.5 40v7h-32v89h98v-87z" />
    <glyph glyph-name="commaaccent.alt" unicode="&#xe30d;" horiz-adv-x="407" 
d="M251 545h-98v87q0 29 5 48.5t17.5 32t34.5 18t56 6.5v-43q-28 -2 -37.5 -12.5t-9.5 -39.5v-7h32v-90z" />
    <glyph glyph-name="grave.sc" unicode="&#xe320;" horiz-adv-x="405" 
d="M263 575l-183 102l52 74l161 -136z" />
    <glyph glyph-name="acute.sc" unicode="&#xe321;" horiz-adv-x="405" 
d="M139 575l-30 40l161 136l52 -74z" />
    <glyph glyph-name="circumflex.sc" unicode="&#xe322;" horiz-adv-x="405" 
d="M309 585l-106 74l-106 -74l-38 41l144 121l144 -121z" />
    <glyph glyph-name="caron.sc" unicode="&#xe323;" horiz-adv-x="405" 
d="M203 571l-144 121l38 41l106 -74l106 74l38 -41z" />
    <glyph glyph-name="tilde.sc" unicode="&#xe324;" horiz-adv-x="405" 
d="M340 707q-3 -50 -21.5 -78t-59.5 -28q-19 0 -33.5 6.5t-28.5 15.5q-14 8 -25 13t-23 5q-14 0 -23.5 -8.5t-13.5 -32.5l-46 11q2 48 21.5 76t58.5 28q17 0 31.5 -5.5t29.5 -15.5q14 -9 26 -14.5t24 -5.5q31 0 35 43z" />
    <glyph glyph-name="dieresis.sc" unicode="&#xe325;" horiz-adv-x="405" 
d="M158 608h-102v106h102v-106zM350 608h-102v106h102v-106z" />
    <glyph glyph-name="macron.sc" unicode="&#xe326;" horiz-adv-x="405" 
d="M330 625h-253v72h253v-72z" />
    </font>
</defs>
</svg>
